<svg width="38" height="20" viewBox="0 0 38 20" fill="none" xmlns="http://www.w3.org/2000/svg">
<g clip-path="url(#clip0_772_9540)">
<path d="M31.3711 3.30598H23.1148C21.8051 3.30598 20.9827 3.48172 20.451 4.86118C20.4954 4.70825 21.1584 1.93222 21.1584 1.93222C21.8214 -0.104312 23.2667 0.000923281 24.9982 0.000923281H32.1412L31.3711 3.30598Z" fill="#008CCC"/>
<path d="M30.2375 8.18879H21.9802C20.8822 8.18879 19.8807 8.36142 19.3164 9.744C19.3607 9.59107 20.0238 6.81503 20.0238 6.81503C20.6868 4.7785 22.1318 4.88374 23.8636 4.88374H31.0066L30.2375 8.18879Z" fill="#008CCC"/>
<path d="M22.728 9.7353C20.9963 9.7353 19.551 9.63006 18.8882 11.6666C18.8882 11.6666 18.6414 12.6985 18.439 13.5385C17.9781 14.615 17.5468 14.8387 15.7788 14.8387H5.05338C4.16329 14.8387 2.99404 15.3109 2.44635 16.0129C2.44635 16.0129 0.653977 18.3257 -0.000244141 19.1852C0.99638 18.1575 1.62313 18.1422 4.16277 18.1422H13.72C15.6238 18.1126 17.2353 18.3794 17.7671 16.4854C17.7671 16.4854 18.1479 14.6876 18.2884 14.3112C18.7645 13.2254 19.8151 13.0388 20.8441 13.0388H29.1004L29.8705 9.7353H22.728Z" fill="#008CCC"/>
<path d="M37.7108 0L34.7435 13.0238H31.1245L34.1421 0H37.7108Z" fill="#008CCC"/>
<path d="M14.7513 0L4.71252 13.0238H8.73012L10.0614 11.1684H13.3397L12.9097 13.0238H16.5289L19.4963 0H14.7513ZM12.1949 8.05697L15.2016 3.92351L14.0611 8.05697H12.1949Z" fill="#008CCC"/>
</g>
<defs>
<clipPath id="clip0_772_9540">
<rect width="37.7105" height="19.1808" fill="white"/>
</clipPath>
</defs>
</svg>
