<svg width="120" height="14" viewBox="0 0 120 14" fill="none" xmlns="http://www.w3.org/2000/svg">
<g clip-path="url(#clip0_548_5105)">
<path d="M118.99 5.87493C118.99 7.45281 117.653 8.39081 115.983 8.39081C115.523 8.39081 115.077 8.3181 114.691 8.17994C114.432 8.39081 114.261 8.60894 114.261 8.91434C114.261 9.40152 114.706 9.5833 115.375 9.64875L117.401 9.83053C118.901 9.96869 119.985 10.3541 119.985 11.5538C119.985 13.0299 118.44 13.9824 116.183 13.9824C114.119 13.9824 112.709 13.2989 112.709 12.0846C112.716 11.1829 113.622 10.7394 114.439 10.5213C113.719 10.3104 113.296 9.92506 113.296 9.27791C113.296 8.68166 113.77 8.3181 114.342 8.03452C113.519 7.62733 112.969 6.87111 112.969 5.85312C112.969 4.25343 114.312 3.31543 115.975 3.31543C116.458 3.31543 116.918 3.40269 117.334 3.56993H119.925V4.11527H118.217C118.693 4.55156 118.99 5.1478 118.99 5.87493ZM117.66 5.93311C117.66 4.74788 116.97 3.84624 115.924 3.84624C114.974 3.84624 114.312 4.64608 114.312 5.77313C114.312 6.95835 114.996 7.86001 116.05 7.86001C117 7.86001 117.66 7.06016 117.66 5.93311ZM113.92 11.9756C113.912 12.8118 114.766 13.4371 116.273 13.4371C117.787 13.4371 118.759 12.7682 118.759 11.8883C118.759 11.2193 118.21 11.0158 117.223 10.9067L115.24 10.674C115.107 10.6594 114.974 10.6377 114.848 10.6158C114.364 10.9212 113.92 11.2993 113.92 11.9756Z" fill="white"/>
<path d="M111.032 9.35789C111.032 10.245 111.254 10.5213 112.212 10.6158V10.8994H108.478V10.6158C109.48 10.5213 109.703 10.245 109.703 9.35789V5.80949C109.703 4.73334 109.154 4.22434 108.204 4.22434C107.261 4.22434 106.644 4.78424 106.288 5.31504V9.35789C106.288 10.245 106.511 10.5213 107.506 10.6158V10.8994H103.697V10.6158C104.722 10.5213 104.952 10.245 104.952 9.35789V5.19143C104.952 4.39158 104.707 4.10801 103.772 4.12981V3.85351L106.125 3.31543L106.214 3.39541V4.83513C106.503 4.25343 107.253 3.3227 108.656 3.3227C110.104 3.3227 111.032 4.12981 111.032 5.7586V9.35789Z" fill="white"/>
<path d="M101.293 2.26889C100.737 2.26889 100.358 1.88352 100.358 1.35271C100.358 0.821903 100.737 0.436523 101.293 0.436523C101.85 0.436523 102.229 0.821903 102.229 1.35271C102.229 1.88352 101.85 2.26889 101.293 2.26889ZM102.065 9.35843C102.065 10.2455 102.288 10.5218 103.246 10.6164V10.8999H99.4746V10.6164C100.499 10.5218 100.729 10.2455 100.729 9.35843V5.19197C100.729 4.39212 100.484 4.10854 99.5488 4.13036V3.85405L101.976 3.31597L102.065 3.39595V9.35843Z" fill="white"/>
<path d="M94.5728 3.49023V3.76655C93.7859 3.86108 93.5707 4.15193 93.9344 5.03176L95.6493 9.28548L97.3938 5.03176C97.7502 4.15193 97.5423 3.86108 96.7554 3.76655V3.49023H99.2201V3.76655C98.6707 3.86108 98.4703 4.12285 98.1437 4.92996L95.6567 10.9869H94.9515L92.4422 4.92996C92.1156 4.12285 91.9152 3.86108 91.3584 3.76655V3.49023H94.5728Z" fill="white"/>
<path d="M89.4819 2.26889C88.9252 2.26889 88.5465 1.88352 88.5465 1.35271C88.5465 0.821903 88.9252 0.436523 89.4819 0.436523C90.0387 0.436523 90.4173 0.821903 90.4173 1.35271C90.4173 1.88352 90.0387 2.26889 89.4819 2.26889ZM90.254 9.35843C90.254 10.2455 90.4766 10.5218 91.4344 10.6164V10.8999H87.6631V10.6164C88.6876 10.5218 88.9177 10.2455 88.9177 9.35843V5.19197C88.9177 4.39212 88.6727 4.10854 87.7373 4.13036V3.85405L90.1649 3.31597L90.254 3.39595V9.35843Z" fill="white"/>
<path d="M85.8872 3.77301C85.4121 1.91883 84.2169 0.806315 82.3759 0.806315C80.0968 0.806315 78.5527 2.70413 78.5527 5.49632C78.5527 8.543 80.275 10.4989 82.5466 10.4989C83.623 10.4989 84.4397 10.0627 84.8257 9.69914V7.56864C84.8257 6.62337 84.4471 6.32524 82.799 6.23072V5.9326H87.1493V6.20891C86.3624 6.3107 86.1694 6.58701 86.1694 7.46684V9.94637C85.6571 10.339 84.3877 11.0952 82.4501 11.0952C79.2431 11.0952 77.0234 9.01564 77.0234 5.66356C77.0234 2.29693 79.2431 0.224609 82.4278 0.224609C84.2244 0.224609 85.4641 0.89357 86.006 1.28623L86.2436 3.77301H85.8872Z" fill="white"/>
<path d="M69.8015 4.12279H68.4355V3.81013C69.2076 3.21388 69.9723 2.60309 70.7294 2.00684H71.0412V3.57018H73.3203V4.12279H71.0412V9.14C71.0412 9.79443 71.3976 10.158 71.984 10.158C72.5185 10.158 72.8897 9.93258 73.2163 9.58355L73.4465 9.74353C73.1644 10.3398 72.6374 11.0524 71.5089 11.0524C70.336 11.0524 69.6753 10.3325 69.6975 9.08184L69.8015 4.12279Z" fill="white"/>
<path d="M67.2007 9.35789C67.2007 10.245 67.4234 10.5213 68.3811 10.6158V10.8994H64.647V10.6158C65.6492 10.5213 65.8719 10.245 65.8719 9.35789V5.80949C65.8719 4.73334 65.3225 4.22434 64.3723 4.22434C63.4295 4.22434 62.8134 4.78424 62.457 5.31504V9.35789C62.457 10.245 62.6798 10.5213 63.6745 10.6158V10.8994H59.8662V10.6158C60.8906 10.5213 61.1207 10.245 61.1207 9.35789V5.19143C61.1207 4.39158 60.8758 4.10801 59.9404 4.12981V3.85351L62.2937 3.31543L62.3828 3.39541V4.83513C62.6723 4.25343 63.4222 3.3227 64.8251 3.3227C66.2728 3.3227 67.2007 4.12981 67.2007 5.7586V9.35789Z" fill="white"/>
<path d="M59.0925 6.67478H53.8292C53.8663 8.92162 54.9056 9.97596 56.3309 9.97596C57.5113 9.97596 58.313 9.34335 58.7288 8.36173L59.0331 8.45625C58.8104 9.59057 58.031 11.0739 56.034 11.0739C53.9777 11.0739 52.582 9.65602 52.582 7.19831C52.582 4.73334 53.9777 3.31543 56.0192 3.31543C58.0458 3.31543 59.0925 4.65335 59.0925 6.41301V6.67478ZM55.9672 3.88259C54.772 3.88259 53.9702 4.65335 53.844 6.1367H57.8083C57.7785 4.79151 57.2144 3.88259 55.9672 3.88259Z" fill="white"/>
<path d="M49.9477 2.26889C49.3909 2.26889 49.0123 1.88352 49.0123 1.35271C49.0123 0.821903 49.3909 0.436523 49.9477 0.436523C50.5045 0.436523 50.883 0.821903 50.883 1.35271C50.883 1.88352 50.5045 2.26889 49.9477 2.26889ZM50.7197 9.35843C50.7197 10.2455 50.9425 10.5218 51.9001 10.6164V10.8999H48.1289V10.6164C49.1533 10.5218 49.3834 10.2455 49.3834 9.35843V5.19197C49.3834 4.39212 49.1385 4.10854 48.2031 4.13036V3.85405L50.6307 3.31597L50.7197 3.39595V9.35843Z" fill="white"/>
<path d="M40.9453 7.19831C40.9453 4.73334 42.3855 3.31543 44.5681 3.31543C46.32 3.31543 47.3742 4.30433 47.3742 5.32958C47.3742 5.76586 47.1367 6.0349 46.7135 6.0349C46.2829 6.0349 46.0528 5.75133 45.9786 5.22052C45.8226 4.27524 45.3031 3.88986 44.479 3.88986C43.1056 3.88986 42.2222 5.08963 42.2222 6.90019C42.2222 8.81982 43.2466 10.0269 44.7537 10.0269C46.1345 10.0269 46.8101 9.22701 47.107 8.41262L47.404 8.48534C47.2257 9.61966 46.4983 11.0739 44.479 11.0739C42.3855 11.0739 40.9453 9.65602 40.9453 7.19831Z" fill="white"/>
<path d="M28.961 9.36523C28.961 10.2451 29.2209 10.5214 30.327 10.6159V10.8995H26.3701V10.6159C27.3946 10.5214 27.6322 10.2451 27.6322 9.36523V4.12262H26.0732V3.57H27.6322V3.22097C27.6322 1.17046 28.8645 0.188831 30.4605 0.188831C31.4405 0.188831 32.1754 0.68328 32.1754 1.19955C32.1754 1.51222 31.9898 1.73763 31.6336 1.73035C31.2772 1.73035 31.0693 1.49767 30.8837 1.19955C30.713 0.95959 30.5051 0.770537 30.1265 0.770537C29.3173 0.770537 28.961 1.37405 28.961 2.58837V3.57H32.6876V3.23551C32.6876 1.09047 34.2021 0.0361328 36.2955 0.0361328C37.8248 0.0361328 39.0201 0.68328 39.0201 1.55583C39.0201 1.97031 38.7676 2.26115 38.3222 2.26115C37.8175 2.25388 37.6096 1.94849 37.4166 1.54129C37.127 0.945048 36.7188 0.617839 35.917 0.617839C34.7143 0.617839 34.024 1.35951 34.024 2.84286V3.57H39.0794V9.36523C39.0794 10.2451 39.3021 10.5214 40.2524 10.6159V10.8995H36.4961V10.6159C37.513 10.5214 37.7507 10.2451 37.7507 9.36523V4.12262H34.024V9.36523C34.024 10.2451 34.2763 10.5214 35.3899 10.6159V10.8995H31.4331V10.6159C32.4576 10.5214 32.6876 10.2451 32.6876 9.36523V4.12262H28.961V9.36523Z" fill="white"/>
<path d="M25.5106 6.67478H20.2471C20.2843 8.92162 21.3236 9.97596 22.749 9.97596C23.9293 9.97596 24.7311 9.34335 25.1468 8.36173L25.4512 8.45625C25.2285 9.59057 24.449 11.0739 22.4521 11.0739C20.3956 11.0739 19 9.65602 19 7.19831C19 4.73334 20.3956 3.31543 22.4371 3.31543C24.4638 3.31543 25.5106 4.65335 25.5106 6.41301V6.67478ZM22.3852 3.88259C21.19 3.88259 20.3883 4.65335 20.2621 6.1367H24.2262C24.1966 4.79151 23.6324 3.88259 22.3852 3.88259Z" fill="white"/>
<path d="M18.0196 7.19831C18.0196 9.69238 16.3567 11.0739 14.2484 11.0739C12.1401 11.0739 10.4697 9.69238 10.4697 7.19831C10.4697 4.69698 12.1401 3.31543 14.2484 3.31543C16.3567 3.31543 18.0196 4.69698 18.0196 7.19831ZM16.5645 7.35101C16.5645 5.25687 15.5921 3.88259 14.1593 3.88259C12.8453 3.88259 11.9247 5.17689 11.9247 7.03834C11.9247 9.13248 12.8972 10.5068 14.3301 10.5068C15.6515 10.5068 16.5645 9.21247 16.5645 7.35101Z" fill="white"/>
<path d="M8.92872 7.44503H9.28505L9.02522 10.0627C8.56495 10.4408 7.34747 11.0952 5.46186 11.0952C2.24741 11.0952 0.0351562 9.01564 0.0351562 5.66356C0.0351562 2.29693 2.24741 0.224609 5.46186 0.224609C7.29551 0.224609 8.52041 0.89357 9.04007 1.26441L9.26278 3.8021H8.91387C8.38679 1.91883 7.23612 0.806315 5.38762 0.806315C3.10856 0.806315 1.56443 2.70413 1.56443 5.49632C1.56443 8.543 3.28672 10.5136 5.55837 10.5136C7.28808 10.5136 8.40906 9.45191 8.92872 7.44503Z" fill="white"/>
</g>
<defs>
<clipPath id="clip0_548_5105">
<rect width="120" height="14" fill="white"/>
</clipPath>
</defs>
</svg>
