<svg width="54" height="14" viewBox="0 0 54 14" fill="none" xmlns="http://www.w3.org/2000/svg">
<g clip-path="url(#clip0_772_9547)">
<path d="M30.591 4.71563C30.591 3.21192 30.618 1.81192 30.699 0.515625L26.568 1.26748V1.63044L26.973 1.68229C27.27 1.70822 27.459 1.81192 27.567 1.96748C27.675 2.14896 27.756 2.40822 27.81 2.79711C27.864 3.54896 27.918 5.26007 27.891 7.95637C27.891 10.6267 27.864 12.3119 27.81 12.9601C29.295 13.2712 30.456 13.4008 31.32 13.4008C32.94 13.4008 34.209 12.9601 35.127 12.0527C36.045 11.1712 36.531 9.92674 36.531 8.39711C36.531 7.17859 36.18 6.16748 35.478 5.36377C34.776 4.56007 33.885 4.17118 32.832 4.17118C32.13 4.17118 31.401 4.35266 30.591 4.71563ZM30.672 12.7008C30.618 11.8712 30.564 9.38229 30.564 5.31192C30.807 5.23414 31.131 5.18229 31.536 5.18229C32.184 5.18229 32.697 5.4934 33.075 6.14155C33.453 6.7897 33.642 7.56748 33.642 8.55266C33.642 9.77118 33.426 10.7564 32.994 11.586C32.562 12.3897 32.022 12.8045 31.347 12.8045C31.131 12.7527 30.915 12.7267 30.672 12.7008ZM11.07 0.774884H0.27002V1.2934L0.837019 1.34525C1.26902 1.42303 1.56602 1.57859 1.75502 1.81192C1.94402 2.07118 2.05202 2.486 2.07902 3.05637C2.29502 5.85637 2.29502 8.47488 2.07902 10.886C2.02502 11.4564 1.91702 11.8712 1.75502 12.1304C1.56602 12.3897 1.26902 12.5453 0.837019 12.5971L0.27002 12.6749V13.1934H7.23602V12.6749L6.50702 12.623C6.07502 12.5712 5.77802 12.3897 5.58902 12.1564C5.40002 11.8971 5.29202 11.4823 5.26502 10.9119C5.18402 9.87488 5.13002 8.68229 5.13002 7.36007L6.58802 7.386C7.37102 7.41192 7.91102 7.98229 8.18102 9.12303H8.72102V4.89711H8.18102C7.91102 6.01192 7.39802 6.58229 6.58802 6.60822L5.13002 6.63414C5.13002 4.30081 5.18402 2.64155 5.26502 1.63044H7.39802C8.91002 1.63044 9.93602 2.56377 10.53 4.43044L11.178 4.24896L11.07 0.774884ZM9.80102 8.76007C9.80102 10.1082 10.206 11.223 10.989 12.1045C11.772 12.986 12.933 13.4008 14.391 13.4008C15.849 13.4008 17.037 12.9601 17.901 12.0527C18.765 11.1712 19.17 10.0564 19.17 8.70822C19.17 7.36007 18.765 6.24525 17.982 5.36377C17.199 4.48229 16.038 4.06748 14.58 4.06748C13.122 4.06748 11.934 4.50822 11.07 5.41562C10.206 6.29711 9.80102 7.41192 9.80102 8.76007ZM15.822 5.80451C16.146 6.55637 16.281 7.54155 16.281 8.73414C16.281 11.4823 15.687 12.8304 14.526 12.8304C13.932 12.8304 13.473 12.4416 13.149 11.6638C12.825 10.886 12.69 9.90081 12.69 8.73414C12.69 6.01192 13.284 4.66377 14.445 4.66377C15.039 4.63785 15.498 5.02674 15.822 5.80451ZM38.637 12.1045C39.528 12.9601 40.662 13.4008 42.012 13.4008C42.849 13.4008 43.578 13.2453 44.226 12.9082C44.874 12.5971 45.387 12.2082 45.738 11.7416L45.468 11.4304C44.874 11.8712 44.199 12.0786 43.416 12.0786C42.336 12.0786 41.499 11.7416 40.932 11.0416C40.338 10.3415 40.068 9.46007 40.122 8.31933H45.9C45.9 7.07488 45.576 6.06377 44.901 5.26007C44.226 4.48229 43.281 4.0934 42.066 4.0934C40.554 4.0934 39.393 4.56007 38.556 5.46748C37.719 6.37488 37.314 7.4897 37.314 8.81192C37.314 10.1601 37.746 11.249 38.637 12.1045ZM40.635 5.59711C40.932 4.97488 41.31 4.66377 41.823 4.66377C42.633 4.66377 43.038 5.64896 43.038 7.64525L40.176 7.69711C40.203 6.91933 40.338 6.21933 40.635 5.59711ZM53.163 4.56007C52.434 4.24896 51.516 4.06748 50.409 4.06748C49.275 4.06748 48.384 4.35266 47.709 4.89711C47.034 5.44155 46.683 6.11562 46.683 6.91933C46.683 7.61933 46.899 8.16377 47.304 8.55266C47.709 8.94155 48.357 9.27859 49.194 9.56377C49.95 9.82303 50.49 10.0823 50.76 10.3156C51.03 10.5749 51.192 10.8601 51.192 11.249C51.192 11.6119 51.057 11.949 50.76 12.2082C50.49 12.4934 50.112 12.623 49.626 12.623C48.438 12.623 47.547 11.7934 46.926 10.1341L46.467 10.2638L46.575 12.8564C47.547 13.2193 48.627 13.4008 49.815 13.4008C51.057 13.4008 52.002 13.1416 52.704 12.5971C53.406 12.0786 53.757 11.3267 53.757 10.3934C53.757 9.77118 53.595 9.25266 53.244 8.86377C52.893 8.47488 52.326 8.13785 51.516 7.82674C50.625 7.51562 50.004 7.23044 49.68 6.97118C49.356 6.71192 49.194 6.40081 49.194 6.01192C49.194 5.62303 49.302 5.31192 49.545 5.05266C49.788 4.7934 50.085 4.6897 50.463 4.6897C51.543 4.6897 52.326 5.44155 52.812 6.91933L53.271 6.7897L53.163 4.56007ZM27.189 4.32674C26.811 4.14525 26.406 4.06748 25.947 4.06748C25.488 4.06748 25.029 4.24896 24.516 4.61192C24.003 4.97488 23.625 5.46748 23.328 6.14155L23.355 4.06748L19.251 4.84525V5.20822L19.656 5.23414C20.169 5.286 20.466 5.67488 20.52 6.37488C20.682 7.98229 20.682 9.6934 20.52 11.5082C20.466 12.2082 20.169 12.5712 19.656 12.649L19.251 12.7008V13.1934H24.975V12.7008L24.246 12.649C23.733 12.5971 23.436 12.2082 23.382 11.5082C23.22 10.0045 23.193 8.39711 23.328 6.73785C23.49 6.47859 23.841 6.32303 24.381 6.27118C24.921 6.21933 25.542 6.37488 26.19 6.73785L27.189 4.32674Z" fill="#171717"/>
</g>
<defs>
<clipPath id="clip0_772_9547">
<rect width="54" height="14" fill="white"/>
</clipPath>
</defs>
</svg>
