<svg width="542" height="484" viewBox="0 0 542 484" fill="none" xmlns="http://www.w3.org/2000/svg">
<path opacity="0.6" d="M253.185 189.568C253.185 189.568 261.823 189.035 271 189.035C280.177 189.035 288.815 189.568 288.815 189.568L281.257 209.286L271 227.405L260.743 209.286L253.185 189.568Z" fill="#718EA8"/>
<rect x="1.08642" y="1.08642" width="293.69" height="293.69" rx="146.845" stroke="#BFD4EC" stroke-width="1.82715"/>
<path d="M95.6503 135.743C96.9345 135.743 97.9725 135.305 98.7645 134.427C99.5564 133.55 100.134 132.394 100.498 130.96C100.883 129.526 101.076 127.963 101.076 126.272C101.076 124.582 100.883 123.019 100.498 121.585C100.134 120.151 99.5564 118.995 98.7645 118.118C97.9725 117.24 96.9345 116.802 95.6503 116.802C94.3661 116.802 93.3173 117.24 92.504 118.118C91.6907 118.995 91.0914 120.151 90.7061 121.585C90.3423 123.019 90.1603 124.582 90.1603 126.272C90.1603 127.963 90.3423 129.526 90.7061 130.96C91.0914 132.394 91.6907 133.55 92.504 134.427C93.3173 135.305 94.3661 135.743 95.6503 135.743ZM100.241 143.705C98.8501 143.705 97.6515 143.416 96.6455 142.839C95.661 142.282 94.9012 141.512 94.3661 140.527C93.831 139.542 93.5314 138.451 93.4672 137.252C92.0545 136.931 90.7489 136.311 89.5504 135.39C88.3732 134.47 87.4207 133.25 86.693 131.73C85.9867 130.211 85.6336 128.391 85.6336 126.272C85.6336 124.475 85.9118 122.88 86.4683 121.489C87.0248 120.098 87.7739 118.931 88.7156 117.989C89.6574 117.026 90.7275 116.309 91.9261 115.838C93.1247 115.346 94.3661 115.1 95.6503 115.1C96.9345 115.1 98.1652 115.335 99.3423 115.806C100.541 116.277 101.611 116.983 102.553 117.925C103.495 118.846 104.244 120.012 104.8 121.425C105.357 122.816 105.635 124.432 105.635 126.272C105.635 128.391 105.26 130.232 104.511 131.794C103.762 133.336 102.767 134.577 101.525 135.519C100.305 136.439 98.9571 137.038 97.4803 137.317C97.5231 138.686 97.8976 139.746 98.6039 140.495C99.3316 141.244 100.295 141.619 101.493 141.619C101.814 141.619 102.178 141.586 102.585 141.522C103.013 141.479 103.462 141.383 103.933 141.233L104.447 142.678C103.912 143.021 103.27 143.277 102.521 143.449C101.772 143.62 101.012 143.705 100.241 143.705ZM119.668 137.22L119.411 134.395C117.849 136.385 116.029 137.381 113.953 137.381C112.626 137.381 111.556 136.953 110.743 136.097C109.951 135.219 109.566 133.721 109.587 131.602L109.715 123.672L107.629 123.222V121.97L113.247 121.296L113.632 121.649L113.472 126.144V131.473C113.472 132.672 113.654 133.517 114.018 134.01C114.403 134.481 114.949 134.716 115.655 134.716C116.254 134.716 116.864 134.545 117.485 134.202C118.127 133.86 118.737 133.421 119.315 132.886L119.411 123.672L117.389 123.222V122.035L122.878 121.296L123.296 121.649L123.2 126.144V135.198L125.158 135.615V136.931L119.668 137.22ZM139.34 137.317C138.483 137.317 137.788 137.103 137.253 136.674C136.718 136.246 136.354 135.658 136.161 134.909C135.369 135.722 134.652 136.343 134.01 136.771C133.368 137.177 132.533 137.381 131.506 137.381C130.307 137.381 129.291 137.038 128.456 136.353C127.643 135.647 127.236 134.641 127.236 133.336C127.236 132.651 127.396 132.019 127.718 131.441C128.039 130.842 128.606 130.286 129.419 129.772C130.254 129.258 131.442 128.755 132.983 128.263C133.411 128.113 133.892 127.963 134.427 127.813C134.963 127.664 135.508 127.514 136.065 127.364V126.465C136.065 124.967 135.851 123.961 135.423 123.447C135.016 122.912 134.288 122.645 133.24 122.645C133.047 122.645 132.833 122.655 132.597 122.677C132.383 122.698 132.159 122.73 131.923 122.773L131.538 124.539C131.452 125.309 131.228 125.876 130.864 126.24C130.5 126.604 130.05 126.786 129.515 126.786C128.488 126.786 127.889 126.305 127.718 125.341C127.91 124.057 128.595 123.03 129.772 122.259C130.971 121.489 132.544 121.104 134.492 121.104C136.354 121.104 137.713 121.553 138.569 122.452C139.425 123.33 139.853 124.817 139.853 126.915V133.913C139.853 134.877 140.164 135.358 140.784 135.358C141.191 135.358 141.565 135.123 141.908 134.652L142.646 135.294C142.261 136.022 141.801 136.546 141.266 136.867C140.752 137.167 140.11 137.317 139.34 137.317ZM130.992 132.661C130.992 133.496 131.206 134.106 131.634 134.491C132.084 134.855 132.63 135.037 133.272 135.037C133.636 135.037 133.999 134.951 134.363 134.78C134.727 134.609 135.294 134.256 136.065 133.721V128.648C135.615 128.798 135.187 128.937 134.781 129.066C134.395 129.194 134.064 129.312 133.785 129.419C132.715 129.847 131.977 130.339 131.57 130.896C131.185 131.452 130.992 132.041 130.992 132.661ZM143.693 136.931V135.615L145.78 135.198C145.801 134.406 145.812 133.55 145.812 132.629C145.812 131.687 145.812 130.874 145.812 130.189V128.488C145.812 127.61 145.801 126.915 145.78 126.401C145.78 125.866 145.758 125.277 145.716 124.635L143.468 124.346V123.126L148.83 121.104L149.343 121.425L149.568 123.897C151.216 122.035 153.036 121.104 155.026 121.104C156.417 121.104 157.487 121.564 158.236 122.484C159.007 123.404 159.392 124.86 159.392 126.85V130.189C159.392 130.917 159.392 131.741 159.392 132.661C159.392 133.582 159.403 134.438 159.424 135.23L161.383 135.615V136.931H153.453V135.615L155.508 135.198C155.529 134.406 155.54 133.56 155.54 132.661C155.54 131.741 155.54 130.917 155.54 130.189V127.139C155.54 125.876 155.368 125.01 155.026 124.539C154.684 124.047 154.106 123.8 153.292 123.8C152.158 123.8 150.959 124.325 149.697 125.374V130.189C149.697 130.896 149.697 131.709 149.697 132.629C149.697 133.55 149.707 134.416 149.729 135.23L151.623 135.615V136.931H143.693ZM168.845 137.381C167.561 137.381 166.555 137.06 165.828 136.418C165.1 135.775 164.736 134.748 164.736 133.336C164.736 132.843 164.736 132.383 164.736 131.955C164.757 131.506 164.768 130.97 164.768 130.35V123.511H162.392V121.842L164.993 121.521L166.213 117.123H168.813L168.685 121.553H172.537V123.511H168.653V132.982C168.653 133.774 168.803 134.352 169.102 134.716C169.423 135.08 169.841 135.262 170.354 135.262C170.932 135.262 171.585 134.994 172.313 134.459L173.083 135.262C172.677 135.925 172.12 136.45 171.414 136.835C170.707 137.199 169.851 137.381 168.845 137.381ZM174.041 136.931V135.615L176.16 135.198C176.181 134.406 176.192 133.55 176.192 132.629C176.192 131.687 176.192 130.874 176.192 130.189V128.68C176.192 127.803 176.181 127.075 176.16 126.497C176.16 125.898 176.138 125.277 176.095 124.635L173.816 124.346V123.126L179.595 121.104L180.108 121.425L180.012 125.951V130.189C180.012 130.874 180.012 131.687 180.012 132.629C180.012 133.55 180.023 134.416 180.044 135.23L182.003 135.615V136.931H174.041ZM178.086 118.118C177.401 118.118 176.823 117.904 176.352 117.476C175.881 117.048 175.646 116.502 175.646 115.838C175.646 115.153 175.881 114.597 176.352 114.169C176.823 113.741 177.401 113.527 178.086 113.527C178.771 113.527 179.338 113.741 179.787 114.169C180.258 114.597 180.494 115.153 180.494 115.838C180.494 116.502 180.258 117.048 179.787 117.476C179.338 117.904 178.771 118.118 178.086 118.118ZM183.917 136.931V135.615L186.068 135.198C186.09 134.363 186.101 133.528 186.101 132.693C186.122 131.859 186.133 131.024 186.133 130.189V123.511H183.757V121.842L186.229 121.521C186.4 119.937 186.657 118.664 186.999 117.7C187.363 116.716 187.92 115.849 188.669 115.1C189.397 114.372 190.189 113.859 191.045 113.559C191.922 113.238 192.768 113.077 193.581 113.077C194.416 113.077 195.154 113.227 195.796 113.527C196.46 113.826 196.877 114.351 197.048 115.1C197.027 115.592 196.824 116.01 196.438 116.352C196.074 116.694 195.571 116.866 194.929 116.866C194.009 116.866 193.142 116.331 192.329 115.26L191.751 114.683C191.687 114.725 191.612 114.79 191.526 114.875C190.948 115.453 190.531 116.266 190.274 117.315C190.017 118.364 189.91 119.777 189.953 121.553H193.902V123.511H190.017V130.189C190.017 131.003 190.017 131.827 190.017 132.661C190.039 133.475 190.06 134.299 190.082 135.133L192.778 135.615V136.931H183.917ZM205.303 122.837V121.553H211.467V122.837L209.669 123.19L204.179 137.509C203.259 139.971 202.328 141.79 201.386 142.967C200.444 144.144 199.278 144.733 197.887 144.733C197.052 144.733 196.324 144.519 195.704 144.091C195.104 143.663 194.783 143.128 194.74 142.485C194.869 141.908 195.158 141.469 195.607 141.169C196.078 140.891 196.592 140.752 197.148 140.752C197.576 140.752 197.994 140.837 198.4 141.009C198.829 141.201 199.257 141.565 199.685 142.1L199.877 142.357C200.455 141.801 200.958 141.158 201.386 140.431C201.814 139.724 202.167 138.965 202.446 138.151L202.51 137.959L196.41 123.094L194.773 122.837V121.553H203.184V122.837L200.648 123.19L204.244 133.014L207.743 123.222L205.303 122.837ZM126.46 157.283H124.405C124.384 158.653 124.362 160.023 124.341 161.393C124.341 162.762 124.341 164.132 124.341 165.502H126.203C127.872 165.502 129.06 165.095 129.767 164.282C130.494 163.469 130.858 162.473 130.858 161.296C130.858 158.621 129.392 157.283 126.46 157.283ZM117.47 157.155V155.646H127.134C129.638 155.646 131.564 156.127 132.913 157.09C134.283 158.054 134.968 159.391 134.968 161.104C134.968 161.874 134.775 162.623 134.39 163.351C134.026 164.079 133.437 164.71 132.624 165.245C131.811 165.78 130.74 166.155 129.413 166.369C130.762 166.583 131.757 167.054 132.399 167.781C133.063 168.509 133.544 169.569 133.844 170.96L134.839 175.166L137.311 175.422V176.931C136.776 177.081 136.305 177.177 135.899 177.22C135.513 177.284 135.01 177.317 134.39 177.317C133.213 177.317 132.292 177.124 131.629 176.739C130.987 176.353 130.58 175.668 130.409 174.684L129.478 170.221C129.242 169.023 128.836 168.209 128.258 167.781C127.701 167.332 126.856 167.107 125.721 167.107H124.341C124.341 168.541 124.341 169.922 124.341 171.249C124.362 172.554 124.384 173.849 124.405 175.133L127.134 175.422V176.931H117.47V175.422L120.167 175.133C120.21 173.806 120.231 172.458 120.231 171.088C120.231 169.718 120.231 168.349 120.231 166.979V165.598C120.231 164.25 120.231 162.901 120.231 161.553C120.231 160.183 120.21 158.813 120.167 157.444L117.47 157.155ZM138.628 176.931V175.615L140.747 175.198C140.768 174.406 140.779 173.55 140.779 172.629C140.779 171.687 140.779 170.874 140.779 170.189V168.68C140.779 167.803 140.768 167.075 140.747 166.497C140.747 165.898 140.726 165.277 140.683 164.635L138.403 164.346V163.126L144.182 161.104L144.696 161.425L144.6 165.951V170.189C144.6 170.874 144.6 171.687 144.6 172.629C144.6 173.55 144.61 174.416 144.632 175.23L146.59 175.615V176.931H138.628ZM142.673 158.118C141.988 158.118 141.41 157.904 140.94 157.476C140.469 157.048 140.233 156.502 140.233 155.838C140.233 155.153 140.469 154.597 140.94 154.169C141.41 153.741 141.988 153.527 142.673 153.527C143.358 153.527 143.925 153.741 144.375 154.169C144.846 154.597 145.081 155.153 145.081 155.838C145.081 156.502 144.846 157.048 144.375 157.476C143.925 157.904 143.358 158.118 142.673 158.118ZM153.931 177.381C152.946 177.381 152.036 177.263 151.202 177.028C150.388 176.814 149.575 176.482 148.762 176.032L148.73 172.308H150.881L151.458 175.294C152.229 175.615 153.064 175.775 153.963 175.775C155.054 175.775 155.868 175.583 156.403 175.198C156.938 174.812 157.205 174.277 157.205 173.592C157.205 172.993 156.991 172.512 156.563 172.148C156.135 171.762 155.407 171.399 154.38 171.056L152.775 170.51C151.576 170.125 150.624 169.558 149.917 168.809C149.233 168.06 148.89 167.118 148.89 165.984C148.89 165.085 149.126 164.271 149.596 163.544C150.067 162.794 150.752 162.206 151.651 161.778C152.571 161.328 153.684 161.104 154.99 161.104C155.91 161.104 156.745 161.221 157.494 161.457C158.265 161.671 159.025 161.992 159.774 162.42L159.613 165.791H157.494L156.916 163.094C156.317 162.837 155.654 162.709 154.926 162.709C154.07 162.709 153.406 162.891 152.935 163.255C152.464 163.618 152.229 164.111 152.229 164.731C152.229 165.309 152.422 165.78 152.807 166.144C153.214 166.486 153.963 166.84 155.054 167.203L156.338 167.589C157.901 168.124 159.014 168.787 159.677 169.579C160.341 170.371 160.673 171.324 160.673 172.437C160.673 173.871 160.084 175.058 158.907 176C157.751 176.921 156.092 177.381 153.931 177.381ZM162.107 176.931V175.615L164.29 175.198C164.311 174.384 164.322 173.528 164.322 172.629C164.343 171.73 164.354 170.917 164.354 170.189V156.416L162.01 156.095V154.843L167.853 153.398L168.335 153.687L168.206 158.214V168.777L173.536 163.383L171.128 162.901L171.16 161.553H178.737V162.901L175.815 163.319L172.573 166.465L177.517 175.166L179.604 175.615V176.931H174.178L169.876 169.098L168.206 170.735C168.206 171.463 168.206 172.223 168.206 173.014C168.228 173.785 168.249 174.523 168.271 175.23L170.422 175.615V176.931H162.107Z" fill="#BFD4EC"/>
<path d="M394.069 1.08594C475.169 1.08614 540.914 66.8316 540.914 147.932C540.913 229.031 475.169 294.776 394.069 294.776C312.969 294.776 247.223 229.032 247.223 147.932C247.223 66.8315 312.969 1.08594 394.069 1.08594Z" stroke="#BFD4EC" stroke-width="1.82715"/>
<path d="M337.585 117.155V115.646H347.249V117.155L344.552 117.444C344.53 118.771 344.509 120.119 344.488 121.489C344.488 122.837 344.488 124.207 344.488 125.598V126.979C344.488 128.327 344.488 129.686 344.488 131.056C344.509 132.404 344.53 133.764 344.552 135.133L347.249 135.422V136.931H337.585V135.422L340.282 135.133C340.325 133.806 340.346 132.458 340.346 131.088C340.346 129.718 340.346 128.349 340.346 126.979V125.598C340.346 124.25 340.346 122.901 340.346 121.553C340.346 120.183 340.325 118.813 340.282 117.444L337.585 117.155ZM353.011 129.322C353.011 131.27 353.375 132.726 354.103 133.689C354.852 134.63 355.794 135.101 356.928 135.101C357.485 135.101 357.988 134.994 358.437 134.78C358.908 134.545 359.347 134.213 359.753 133.785V124.571C358.812 123.758 357.881 123.351 356.96 123.351C355.89 123.351 354.959 123.832 354.167 124.796C353.397 125.759 353.011 127.268 353.011 129.322ZM360.139 137.284L359.882 135.262C359.282 135.947 358.619 136.471 357.891 136.835C357.164 137.199 356.329 137.381 355.387 137.381C354.124 137.381 353.001 137.06 352.016 136.418C351.053 135.775 350.293 134.855 349.737 133.657C349.18 132.458 348.902 131.035 348.902 129.387C348.902 127.696 349.212 126.23 349.833 124.988C350.475 123.747 351.32 122.794 352.369 122.131C353.439 121.446 354.606 121.104 355.869 121.104C356.682 121.104 357.41 121.253 358.052 121.553C358.715 121.853 359.336 122.345 359.914 123.03V116.416L357.41 116.095V114.843L363.285 113.398L363.766 113.687L363.638 118.214V135.262L365.725 135.615V136.931L360.139 137.284ZM375.102 122.645C374.588 122.645 374.075 122.816 373.561 123.158C373.069 123.479 372.641 124.014 372.277 124.764C371.934 125.513 371.72 126.529 371.635 127.813H376.033C376.804 127.813 377.317 127.653 377.574 127.332C377.831 127.011 377.959 126.561 377.959 125.984C377.959 124.999 377.681 124.196 377.125 123.576C376.568 122.955 375.894 122.645 375.102 122.645ZM375.102 137.381C373.604 137.381 372.287 137.06 371.153 136.418C370.019 135.775 369.13 134.855 368.488 133.657C367.846 132.437 367.525 130.992 367.525 129.322C367.525 127.61 367.889 126.144 368.617 124.924C369.366 123.683 370.329 122.741 371.506 122.099C372.705 121.435 373.978 121.104 375.327 121.104C376.589 121.104 377.692 121.371 378.633 121.906C379.575 122.441 380.303 123.19 380.817 124.154C381.352 125.117 381.619 126.251 381.619 127.557C381.619 128.242 381.555 128.83 381.427 129.322H371.603C371.688 131.163 372.17 132.544 373.047 133.464C373.946 134.384 375.07 134.844 376.418 134.844C377.36 134.844 378.152 134.663 378.794 134.299C379.458 133.913 380.057 133.421 380.592 132.822L381.523 133.657C380.902 134.834 380.046 135.754 378.955 136.418C377.884 137.06 376.6 137.381 375.102 137.381ZM383.952 136.931V135.615L386.038 135.198C386.06 134.406 386.071 133.55 386.071 132.629C386.071 131.687 386.071 130.874 386.071 130.189V128.488C386.071 127.61 386.06 126.915 386.038 126.401C386.038 125.866 386.017 125.277 385.974 124.635L383.727 124.346V123.126L389.088 121.104L389.602 121.425L389.827 123.897C391.475 122.035 393.294 121.104 395.285 121.104C396.676 121.104 397.746 121.564 398.495 122.484C399.266 123.404 399.651 124.86 399.651 126.85V130.189C399.651 130.917 399.651 131.741 399.651 132.661C399.651 133.582 399.662 134.438 399.683 135.23L401.641 135.615V136.931H393.711V135.615L395.766 135.198C395.788 134.406 395.798 133.56 395.798 132.661C395.798 131.741 395.798 130.917 395.798 130.189V127.139C395.798 125.876 395.627 125.01 395.285 124.539C394.942 124.047 394.364 123.8 393.551 123.8C392.417 123.8 391.218 124.325 389.955 125.374V130.189C389.955 130.896 389.955 131.709 389.955 132.629C389.955 133.55 389.966 134.416 389.987 135.23L391.882 135.615V136.931H383.952ZM409.104 137.381C407.82 137.381 406.814 137.06 406.086 136.418C405.358 135.775 404.995 134.748 404.995 133.336C404.995 132.843 404.995 132.383 404.995 131.955C405.016 131.506 405.027 130.97 405.027 130.35V123.511H402.651V121.842L405.251 121.521L406.471 117.123H409.072L408.944 121.553H412.796V123.511H408.911V132.982C408.911 133.774 409.061 134.352 409.361 134.716C409.682 135.08 410.099 135.262 410.613 135.262C411.191 135.262 411.844 134.994 412.571 134.459L413.342 135.262C412.935 135.925 412.379 136.45 411.672 136.835C410.966 137.199 410.11 137.381 409.104 137.381ZM414.299 136.931V135.615L416.418 135.198C416.44 134.406 416.45 133.55 416.45 132.629C416.45 131.687 416.45 130.874 416.45 130.189V128.68C416.45 127.803 416.44 127.075 416.418 126.497C416.418 125.898 416.397 125.277 416.354 124.635L414.075 124.346V123.126L419.853 121.104L420.367 121.425L420.271 125.951V130.189C420.271 130.874 420.271 131.687 420.271 132.629C420.271 133.55 420.281 134.416 420.303 135.23L422.261 135.615V136.931H414.299ZM418.344 118.118C417.66 118.118 417.082 117.904 416.611 117.476C416.14 117.048 415.904 116.502 415.904 115.838C415.904 115.153 416.14 114.597 416.611 114.169C417.082 113.741 417.66 113.527 418.344 113.527C419.029 113.527 419.597 113.741 420.046 114.169C420.517 114.597 420.752 115.153 420.752 115.838C420.752 116.502 420.517 117.048 420.046 117.476C419.597 117.904 419.029 118.118 418.344 118.118ZM424.176 136.931V135.615L426.327 135.198C426.348 134.363 426.359 133.528 426.359 132.693C426.381 131.859 426.391 131.024 426.391 130.189V123.511H424.015V121.842L426.488 121.521C426.659 119.937 426.916 118.664 427.258 117.7C427.622 116.716 428.178 115.849 428.928 115.1C429.655 114.372 430.447 113.859 431.303 113.559C432.181 113.238 433.026 113.077 433.84 113.077C434.674 113.077 435.413 113.227 436.055 113.527C436.718 113.826 437.136 114.351 437.307 115.1C437.286 115.592 437.082 116.01 436.697 116.352C436.333 116.694 435.83 116.866 435.188 116.866C434.268 116.866 433.401 116.331 432.588 115.26L432.01 114.683C431.945 114.725 431.87 114.79 431.785 114.875C431.207 115.453 430.79 116.266 430.533 117.315C430.276 118.364 430.169 119.777 430.212 121.553H434.161V123.511H430.276V130.189C430.276 131.003 430.276 131.827 430.276 132.661C430.297 133.475 430.319 134.299 430.34 135.133L433.037 135.615V136.931H424.176ZM445.562 122.837V121.553H451.726V122.837L449.928 123.19L444.438 137.509C443.518 139.971 442.587 141.79 441.645 142.967C440.703 144.144 439.537 144.733 438.145 144.733C437.311 144.733 436.583 144.519 435.962 144.091C435.363 143.663 435.042 143.128 434.999 142.485C435.128 141.908 435.416 141.469 435.866 141.169C436.337 140.891 436.851 140.752 437.407 140.752C437.835 140.752 438.252 140.837 438.659 141.009C439.087 141.201 439.515 141.565 439.943 142.1L440.136 142.357C440.714 141.801 441.217 141.158 441.645 140.431C442.073 139.724 442.426 138.965 442.704 138.151L442.769 137.959L436.669 123.094L435.031 122.837V121.553H443.443V122.837L440.906 123.19L444.502 133.014L448.002 123.222L445.562 122.837ZM318.367 161.489L318.56 155.646H336.764L336.924 161.489H334.709L334.035 157.347H329.797C329.775 158.696 329.754 160.066 329.733 161.457C329.733 162.827 329.733 164.207 329.733 165.598V166.979C329.733 168.327 329.733 169.686 329.733 171.056C329.754 172.404 329.775 173.753 329.797 175.101L332.815 175.422V176.931H322.477V175.422L325.495 175.101C325.538 173.774 325.559 172.437 325.559 171.088C325.559 169.718 325.559 168.349 325.559 166.979V165.598C325.559 164.228 325.559 162.859 325.559 161.489C325.559 160.098 325.538 158.717 325.495 157.347H321.289L320.615 161.489H318.367ZM344.114 177.381C342.658 177.381 341.342 177.06 340.165 176.418C339.009 175.775 338.089 174.844 337.404 173.624C336.719 172.404 336.377 170.949 336.377 169.258C336.377 167.546 336.73 166.08 337.436 164.86C338.164 163.64 339.116 162.709 340.293 162.067C341.471 161.425 342.744 161.104 344.114 161.104C345.484 161.104 346.757 161.425 347.934 162.067C349.112 162.709 350.064 163.64 350.792 164.86C351.519 166.058 351.883 167.525 351.883 169.258C351.883 170.97 351.53 172.437 350.824 173.657C350.139 174.855 349.208 175.775 348.031 176.418C346.875 177.06 345.569 177.381 344.114 177.381ZM344.114 175.808C345.27 175.808 346.147 175.273 346.746 174.202C347.367 173.132 347.677 171.495 347.677 169.29C347.677 164.881 346.49 162.677 344.114 162.677C341.759 162.677 340.582 164.881 340.582 169.29C340.582 171.495 340.882 173.132 341.481 174.202C342.081 175.273 342.958 175.808 344.114 175.808ZM353.773 184.412V183.095L355.957 182.678C355.978 181.736 355.989 180.827 355.989 179.949C356.01 179.093 356.021 178.258 356.021 177.445V168.488C356.021 167.61 356.01 166.915 355.989 166.401C355.989 165.866 355.967 165.277 355.924 164.635L353.677 164.346V163.126L359.006 161.104L359.52 161.425L359.681 163.383C361.136 161.863 362.741 161.104 364.496 161.104C365.652 161.104 366.701 161.425 367.643 162.067C368.584 162.687 369.323 163.597 369.858 164.796C370.414 165.994 370.693 167.45 370.693 169.162C370.693 170.853 370.382 172.319 369.762 173.56C369.162 174.78 368.36 175.722 367.354 176.385C366.348 177.049 365.224 177.381 363.983 177.381C363.191 177.381 362.452 177.231 361.768 176.931C361.083 176.632 360.43 176.15 359.809 175.487V177.413C359.809 178.205 359.809 179.029 359.809 179.885C359.831 180.762 359.852 181.672 359.873 182.614L362.378 183.095V184.412H353.773ZM362.988 163.383C362.495 163.383 361.992 163.511 361.479 163.768C360.986 164.025 360.462 164.368 359.905 164.796V173.881C360.804 174.716 361.757 175.133 362.763 175.133C363.833 175.133 364.732 174.673 365.46 173.753C366.209 172.811 366.583 171.345 366.583 169.355C366.583 167.385 366.251 165.898 365.588 164.892C364.924 163.886 364.058 163.383 362.988 163.383ZM379.285 161.489L379.478 155.646H397.681L397.842 161.489H395.627L394.952 157.347H390.715C390.693 158.696 390.672 160.066 390.65 161.457C390.65 162.827 390.65 164.207 390.65 165.598V166.979C390.65 168.327 390.65 169.686 390.65 171.056C390.672 172.404 390.693 173.753 390.715 175.101L393.732 175.422V176.931H383.395V175.422L386.413 175.101C386.455 173.774 386.477 172.437 386.477 171.088C386.477 169.718 386.477 168.349 386.477 166.979V165.598C386.477 164.228 386.477 162.859 386.477 161.489C386.477 160.098 386.455 158.717 386.413 157.347H382.207L381.533 161.489H379.285ZM410.182 177.317C409.326 177.317 408.631 177.103 408.096 176.674C407.561 176.246 407.197 175.658 407.004 174.909C406.212 175.722 405.495 176.343 404.853 176.771C404.211 177.177 403.376 177.381 402.349 177.381C401.15 177.381 400.134 177.038 399.299 176.353C398.486 175.647 398.079 174.641 398.079 173.336C398.079 172.651 398.239 172.019 398.56 171.441C398.882 170.842 399.449 170.286 400.262 169.772C401.097 169.258 402.285 168.755 403.826 168.263C404.254 168.113 404.735 167.963 405.27 167.813C405.805 167.664 406.351 167.514 406.908 167.364V166.465C406.908 164.967 406.694 163.961 406.266 163.447C405.859 162.912 405.131 162.645 404.083 162.645C403.89 162.645 403.676 162.655 403.44 162.677C403.226 162.698 403.002 162.73 402.766 162.773L402.381 164.539C402.295 165.309 402.071 165.876 401.707 166.24C401.343 166.604 400.893 166.786 400.358 166.786C399.331 166.786 398.732 166.305 398.56 165.341C398.753 164.057 399.438 163.03 400.615 162.259C401.814 161.489 403.387 161.104 405.335 161.104C407.197 161.104 408.556 161.553 409.412 162.452C410.268 163.33 410.696 164.817 410.696 166.915V173.913C410.696 174.877 411.006 175.358 411.627 175.358C412.034 175.358 412.408 175.123 412.751 174.652L413.489 175.294C413.104 176.022 412.644 176.546 412.109 176.867C411.595 177.167 410.953 177.317 410.182 177.317ZM401.835 172.661C401.835 173.496 402.049 174.106 402.477 174.491C402.927 174.855 403.473 175.037 404.115 175.037C404.478 175.037 404.842 174.951 405.206 174.78C405.57 174.609 406.137 174.256 406.908 173.721V168.648C406.458 168.798 406.03 168.937 405.624 169.066C405.238 169.194 404.907 169.312 404.628 169.419C403.558 169.847 402.82 170.339 402.413 170.896C402.028 171.452 401.835 172.041 401.835 172.661ZM414.373 176.931V175.615L416.556 175.198C416.578 174.363 416.588 173.528 416.588 172.693C416.61 171.859 416.62 171.024 416.62 170.189V156.416L414.277 156.095V154.843L420.12 153.398L420.601 153.687L420.473 158.214V170.189C420.473 171.024 420.473 171.859 420.473 172.693C420.494 173.528 420.516 174.363 420.537 175.198L422.72 175.615V176.931H414.373ZM432.242 162.645C431.728 162.645 431.214 162.816 430.701 163.158C430.208 163.479 429.78 164.014 429.417 164.764C429.074 165.513 428.86 166.529 428.774 167.813H433.173C433.943 167.813 434.457 167.653 434.714 167.332C434.971 167.011 435.099 166.561 435.099 165.984C435.099 164.999 434.821 164.196 434.264 163.576C433.708 162.955 433.034 162.645 432.242 162.645ZM432.242 177.381C430.744 177.381 429.427 177.06 428.293 176.418C427.158 175.775 426.27 174.855 425.628 173.657C424.986 172.437 424.665 170.992 424.665 169.322C424.665 167.61 425.029 166.144 425.757 164.924C426.506 163.683 427.469 162.741 428.646 162.099C429.845 161.435 431.118 161.104 432.466 161.104C433.729 161.104 434.832 161.371 435.773 161.906C436.715 162.441 437.443 163.19 437.956 164.154C438.491 165.117 438.759 166.251 438.759 167.557C438.759 168.242 438.695 168.83 438.566 169.322H428.742C428.828 171.163 429.309 172.544 430.187 173.464C431.086 174.384 432.21 174.844 433.558 174.844C434.5 174.844 435.292 174.663 435.934 174.299C436.597 173.913 437.197 173.421 437.732 172.822L438.663 173.657C438.042 174.834 437.186 175.754 436.094 176.418C435.024 177.06 433.74 177.381 432.242 177.381ZM441.091 176.931V175.615L443.178 175.198C443.2 174.406 443.21 173.55 443.21 172.629C443.21 171.687 443.21 170.874 443.21 170.189V168.488C443.21 167.61 443.2 166.915 443.178 166.401C443.178 165.866 443.157 165.277 443.114 164.635L440.867 164.346V163.126L446.228 161.104L446.742 161.425L446.967 163.897C448.615 162.035 450.434 161.104 452.424 161.104C453.816 161.104 454.886 161.564 455.635 162.484C456.405 163.404 456.791 164.86 456.791 166.85V170.189C456.791 170.917 456.791 171.741 456.791 172.661C456.791 173.582 456.801 174.438 456.823 175.23L458.781 175.615V176.931H450.851V175.615L452.906 175.198C452.927 174.406 452.938 173.56 452.938 172.661C452.938 171.741 452.938 170.917 452.938 170.189V167.139C452.938 165.876 452.767 165.01 452.424 164.539C452.082 164.047 451.504 163.8 450.691 163.8C449.556 163.8 448.358 164.325 447.095 165.374V170.189C447.095 170.896 447.095 171.709 447.095 172.629C447.095 173.55 447.106 174.416 447.127 175.23L449.021 175.615V176.931H441.091ZM466.244 177.381C464.96 177.381 463.954 177.06 463.226 176.418C462.498 175.775 462.134 174.748 462.134 173.336C462.134 172.843 462.134 172.383 462.134 171.955C462.156 171.506 462.167 170.97 462.167 170.35V163.511H459.791V161.842L462.391 161.521L463.611 157.123H466.212L466.083 161.553H469.936V163.511H466.051V172.982C466.051 173.774 466.201 174.352 466.501 174.716C466.822 175.08 467.239 175.262 467.753 175.262C468.331 175.262 468.983 174.994 469.711 174.459L470.482 175.262C470.075 175.925 469.519 176.45 468.812 176.835C468.106 177.199 467.25 177.381 466.244 177.381Z" fill="#BFD4EC"/>
<path d="M271.486 188.851C352.586 188.851 418.331 254.597 418.331 335.697C418.331 416.796 352.586 482.541 271.486 482.541C190.386 482.541 124.641 416.797 124.641 335.697C124.641 254.596 190.386 188.851 271.486 188.851Z" stroke="#BFD4EC" stroke-width="1.82715"/>
<path d="M213.012 323.19V321.681H222.675V323.19L219.979 323.479C219.957 324.806 219.936 326.154 219.914 327.524C219.914 328.872 219.914 330.242 219.914 331.633V333.014C219.914 334.362 219.914 335.721 219.914 337.091C219.936 338.44 219.957 339.799 219.979 341.169L222.675 341.458V342.966H213.012V341.458L215.709 341.169C215.751 339.842 215.773 338.493 215.773 337.123C215.773 335.754 215.773 334.384 215.773 333.014V331.633C215.773 330.285 215.773 328.937 215.773 327.588C215.773 326.218 215.751 324.849 215.709 323.479L213.012 323.19ZM225.016 342.966V341.65L227.103 341.233C227.124 340.441 227.135 339.585 227.135 338.664C227.135 337.723 227.135 336.909 227.135 336.224V334.523C227.135 333.645 227.124 332.95 227.103 332.436C227.103 331.901 227.081 331.312 227.039 330.67L224.791 330.381V329.161L230.153 327.139L230.666 327.46L230.891 329.932C232.539 328.07 234.358 327.139 236.349 327.139C237.74 327.139 238.81 327.599 239.559 328.519C240.33 329.44 240.715 330.895 240.715 332.886V336.224C240.715 336.952 240.715 337.776 240.715 338.697C240.715 339.617 240.726 340.473 240.747 341.265L242.706 341.65V342.966H234.776V341.65L236.831 341.233C236.852 340.441 236.863 339.595 236.863 338.697C236.863 337.776 236.863 336.952 236.863 336.224V333.174C236.863 331.912 236.691 331.045 236.349 330.574C236.007 330.082 235.429 329.836 234.615 329.836C233.481 329.836 232.282 330.36 231.02 331.409V336.224C231.02 336.931 231.02 337.744 231.02 338.664C231.02 339.585 231.03 340.452 231.052 341.265L232.946 341.65V342.966H225.016ZM250.168 343.416C248.884 343.416 247.878 343.095 247.151 342.453C246.423 341.811 246.059 340.783 246.059 339.371C246.059 338.878 246.059 338.418 246.059 337.99C246.08 337.541 246.091 337.006 246.091 336.385V329.547H243.715V327.877L246.316 327.556L247.536 323.158H250.136L250.008 327.588H253.86V329.547H249.976V339.018C249.976 339.809 250.126 340.387 250.425 340.751C250.746 341.115 251.164 341.297 251.677 341.297C252.255 341.297 252.908 341.029 253.636 340.494L254.406 341.297C254 341.961 253.443 342.485 252.737 342.87C252.03 343.234 251.174 343.416 250.168 343.416ZM263.101 328.68C262.587 328.68 262.074 328.851 261.56 329.193C261.068 329.515 260.64 330.05 260.276 330.799C259.933 331.548 259.719 332.564 259.634 333.849H264.032C264.802 333.849 265.316 333.688 265.573 333.367C265.83 333.046 265.958 332.597 265.958 332.019C265.958 331.034 265.68 330.232 265.123 329.611C264.567 328.99 263.893 328.68 263.101 328.68ZM263.101 343.416C261.603 343.416 260.286 343.095 259.152 342.453C258.018 341.811 257.129 340.89 256.487 339.692C255.845 338.472 255.524 337.027 255.524 335.358C255.524 333.645 255.888 332.179 256.616 330.959C257.365 329.718 258.328 328.776 259.505 328.134C260.704 327.471 261.977 327.139 263.326 327.139C264.588 327.139 265.691 327.406 266.632 327.941C267.574 328.476 268.302 329.226 268.816 330.189C269.351 331.152 269.618 332.286 269.618 333.592C269.618 334.277 269.554 334.865 269.426 335.358H259.601C259.687 337.198 260.169 338.579 261.046 339.499C261.945 340.419 263.069 340.88 264.417 340.88C265.359 340.88 266.151 340.698 266.793 340.334C267.456 339.949 268.056 339.456 268.591 338.857L269.522 339.692C268.901 340.869 268.045 341.789 266.953 342.453C265.883 343.095 264.599 343.416 263.101 343.416ZM271.983 342.966V341.65L274.037 341.265C274.059 340.452 274.069 339.585 274.069 338.664C274.069 337.723 274.069 336.909 274.069 336.224V334.523C274.069 333.645 274.059 332.95 274.037 332.436C274.037 331.901 274.016 331.312 273.973 330.67L271.726 330.381V329.161L277.087 327.139L277.601 327.46L277.922 331.248C278.414 329.921 279.078 328.905 279.913 328.198C280.747 327.492 281.582 327.139 282.417 327.139C282.995 327.139 283.519 327.289 283.99 327.588C284.482 327.888 284.803 328.316 284.953 328.872C284.932 329.664 284.739 330.285 284.375 330.735C284.011 331.163 283.508 331.377 282.866 331.377C282.096 331.377 281.368 330.991 280.683 330.221L280.394 329.9C279.26 330.842 278.446 332.169 277.954 333.881V336.224C277.954 336.888 277.954 337.68 277.954 338.6C277.954 339.499 277.965 340.345 277.986 341.136L280.619 341.65V342.966H271.983ZM286.185 342.966V341.65L288.271 341.233C288.293 340.441 288.303 339.585 288.303 338.664C288.303 337.723 288.303 336.909 288.303 336.224V334.523C288.303 333.645 288.293 332.95 288.271 332.436C288.271 331.901 288.25 331.312 288.207 330.67L285.96 330.381V329.161L291.321 327.139L291.835 327.46L292.06 329.932C293.708 328.07 295.527 327.139 297.518 327.139C298.909 327.139 299.979 327.599 300.728 328.519C301.499 329.44 301.884 330.895 301.884 332.886V336.224C301.884 336.952 301.884 337.776 301.884 338.697C301.884 339.617 301.895 340.473 301.916 341.265L303.874 341.65V342.966H295.944V341.65L297.999 341.233C298.021 340.441 298.031 339.595 298.031 338.697C298.031 337.776 298.031 336.952 298.031 336.224V333.174C298.031 331.912 297.86 331.045 297.518 330.574C297.175 330.082 296.597 329.836 295.784 329.836C294.65 329.836 293.451 330.36 292.188 331.409V336.224C292.188 336.931 292.188 337.744 292.188 338.664C292.188 339.585 292.199 340.452 292.22 341.265L294.114 341.65V342.966H286.185ZM317.918 343.352C317.062 343.352 316.366 343.138 315.831 342.71C315.296 342.282 314.932 341.693 314.739 340.944C313.947 341.757 313.23 342.378 312.588 342.806C311.946 343.213 311.111 343.416 310.084 343.416C308.886 343.416 307.869 343.073 307.034 342.389C306.221 341.682 305.814 340.676 305.814 339.371C305.814 338.686 305.975 338.054 306.296 337.477C306.617 336.877 307.184 336.321 307.997 335.807C308.832 335.293 310.02 334.79 311.561 334.298C311.989 334.148 312.471 333.999 313.006 333.849C313.541 333.699 314.087 333.549 314.643 333.399V332.5C314.643 331.002 314.429 329.996 314.001 329.482C313.594 328.947 312.867 328.68 311.818 328.68C311.625 328.68 311.411 328.691 311.176 328.712C310.962 328.733 310.737 328.765 310.501 328.808L310.116 330.574C310.031 331.345 309.806 331.912 309.442 332.276C309.078 332.639 308.629 332.821 308.094 332.821C307.066 332.821 306.467 332.34 306.296 331.377C306.488 330.092 307.173 329.065 308.35 328.295C309.549 327.524 311.122 327.139 313.07 327.139C314.932 327.139 316.291 327.588 317.147 328.487C318.003 329.365 318.431 330.852 318.431 332.95V339.949C318.431 340.912 318.742 341.393 319.362 341.393C319.769 341.393 320.144 341.158 320.486 340.687L321.225 341.329C320.839 342.057 320.379 342.581 319.844 342.902C319.33 343.202 318.688 343.352 317.918 343.352ZM309.57 338.697C309.57 339.531 309.784 340.141 310.213 340.527C310.662 340.89 311.208 341.072 311.85 341.072C312.214 341.072 312.578 340.987 312.941 340.815C313.305 340.644 313.872 340.291 314.643 339.756V334.683C314.194 334.833 313.765 334.972 313.359 335.101C312.974 335.229 312.642 335.347 312.364 335.454C311.293 335.882 310.555 336.374 310.148 336.931C309.763 337.487 309.57 338.076 309.57 338.697ZM322.108 342.966V341.65L324.292 341.233C324.313 340.398 324.324 339.563 324.324 338.729C324.345 337.894 324.356 337.059 324.356 336.224V322.451L322.012 322.13V320.878L327.855 319.434L328.337 319.723L328.208 324.249V336.224C328.208 337.059 328.208 337.894 328.208 338.729C328.23 339.563 328.251 340.398 328.273 341.233L330.456 341.65V342.966H322.108ZM187.945 363.19V361.681H204.223L204.447 367.299H202.2L201.526 363.382H194.912C194.891 364.731 194.869 366.079 194.848 367.428C194.848 368.755 194.848 370.007 194.848 371.184H199.182L199.6 368.391H201.237V375.968H199.6L199.15 372.886H194.848C194.848 374.405 194.848 375.839 194.848 377.188C194.869 378.515 194.891 379.831 194.912 381.136L197.834 381.458V382.966H187.945V381.458L190.642 381.169C190.685 379.842 190.707 378.493 190.707 377.123C190.707 375.754 190.707 374.384 190.707 373.014V371.633C190.707 370.285 190.707 368.937 190.707 367.588C190.707 366.218 190.685 364.849 190.642 363.479L187.945 363.19ZM212.706 383.416C211.25 383.416 209.934 383.095 208.757 382.453C207.601 381.811 206.681 380.88 205.996 379.66C205.311 378.44 204.968 376.984 204.968 375.293C204.968 373.581 205.321 372.115 206.028 370.895C206.756 369.675 207.708 368.744 208.885 368.102C210.062 367.46 211.336 367.139 212.706 367.139C214.075 367.139 215.349 367.46 216.526 368.102C217.703 368.744 218.656 369.675 219.383 370.895C220.111 372.094 220.475 373.56 220.475 375.293C220.475 377.006 220.122 378.472 219.416 379.692C218.731 380.89 217.8 381.811 216.622 382.453C215.467 383.095 214.161 383.416 212.706 383.416ZM212.706 381.843C213.861 381.843 214.739 381.308 215.338 380.238C215.959 379.167 216.269 377.53 216.269 375.326C216.269 370.916 215.081 368.712 212.706 368.712C210.351 368.712 209.174 370.916 209.174 375.326C209.174 377.53 209.474 379.167 210.073 380.238C210.672 381.308 211.55 381.843 212.706 381.843ZM222.775 382.966V381.65L224.83 381.265C224.851 380.452 224.862 379.585 224.862 378.664C224.862 377.723 224.862 376.909 224.862 376.224V374.523C224.862 373.645 224.851 372.95 224.83 372.436C224.83 371.901 224.808 371.312 224.766 370.67L222.518 370.381V369.161L227.88 367.139L228.393 367.46L228.714 371.248C229.207 369.921 229.87 368.905 230.705 368.198C231.54 367.492 232.374 367.139 233.209 367.139C233.787 367.139 234.311 367.289 234.782 367.588C235.275 367.888 235.596 368.316 235.745 368.872C235.724 369.664 235.531 370.285 235.168 370.735C234.804 371.163 234.301 371.377 233.659 371.377C232.888 371.377 232.16 370.991 231.475 370.221L231.186 369.9C230.052 370.842 229.239 372.169 228.747 373.881V376.224C228.747 376.888 228.747 377.68 228.747 378.6C228.747 379.499 228.757 380.345 228.779 381.136L231.411 381.65V382.966H222.775ZM244.211 368.68C243.697 368.68 243.184 368.851 242.67 369.193C242.178 369.515 241.75 370.05 241.386 370.799C241.043 371.548 240.829 372.564 240.744 373.849H245.142C245.913 373.849 246.426 373.688 246.683 373.367C246.94 373.046 247.068 372.597 247.068 372.019C247.068 371.034 246.79 370.232 246.234 369.611C245.677 368.99 245.003 368.68 244.211 368.68ZM244.211 383.416C242.713 383.416 241.397 383.095 240.262 382.453C239.128 381.811 238.24 380.89 237.597 379.692C236.955 378.472 236.634 377.027 236.634 375.358C236.634 373.645 236.998 372.179 237.726 370.959C238.475 369.718 239.438 368.776 240.615 368.134C241.814 367.471 243.087 367.139 244.436 367.139C245.699 367.139 246.801 367.406 247.743 367.941C248.684 368.476 249.412 369.226 249.926 370.189C250.461 371.152 250.728 372.286 250.728 373.592C250.728 374.277 250.664 374.865 250.536 375.358H240.712C240.797 377.198 241.279 378.579 242.156 379.499C243.055 380.419 244.179 380.88 245.527 380.88C246.469 380.88 247.261 380.698 247.903 380.334C248.567 379.949 249.166 379.456 249.701 378.857L250.632 379.692C250.011 380.869 249.155 381.789 248.064 382.453C246.993 383.095 245.709 383.416 244.211 383.416ZM260.702 383.416C259.246 383.416 257.941 383.106 256.785 382.485C255.629 381.843 254.719 380.922 254.056 379.724C253.414 378.504 253.093 377.038 253.093 375.326C253.093 373.592 253.457 372.115 254.184 370.895C254.933 369.675 255.918 368.744 257.138 368.102C258.358 367.46 259.685 367.139 261.119 367.139C262.168 367.139 263.11 367.342 263.944 367.749C264.8 368.134 265.485 368.658 265.999 369.322C266.534 369.985 266.855 370.735 266.962 371.569C266.705 372.511 266.095 372.982 265.132 372.982C263.934 372.982 263.238 372.233 263.045 370.735L262.628 368.808C262.435 368.765 262.243 368.733 262.05 368.712C261.857 368.691 261.665 368.68 261.472 368.68C260.702 368.68 259.985 368.905 259.321 369.354C258.679 369.782 258.155 370.456 257.748 371.377C257.341 372.297 257.138 373.463 257.138 374.876C257.138 376.824 257.577 378.311 258.454 379.339C259.353 380.366 260.52 380.88 261.954 380.88C262.81 380.88 263.58 380.687 264.265 380.302C264.95 379.917 265.528 379.392 265.999 378.729L266.962 379.435C266.427 380.741 265.624 381.736 264.554 382.421C263.505 383.084 262.221 383.416 260.702 383.416ZM281.22 383.352C280.364 383.352 279.668 383.138 279.133 382.71C278.598 382.282 278.234 381.693 278.041 380.944C277.249 381.757 276.532 382.378 275.89 382.806C275.248 383.213 274.413 383.416 273.386 383.416C272.188 383.416 271.171 383.073 270.336 382.389C269.523 381.682 269.116 380.676 269.116 379.371C269.116 378.686 269.277 378.054 269.598 377.477C269.919 376.877 270.486 376.321 271.299 375.807C272.134 375.293 273.322 374.79 274.863 374.298C275.291 374.148 275.773 373.999 276.308 373.849C276.843 373.699 277.389 373.549 277.945 373.399V372.5C277.945 371.002 277.731 369.996 277.303 369.482C276.896 368.947 276.169 368.68 275.12 368.68C274.927 368.68 274.713 368.691 274.478 368.712C274.264 368.733 274.039 368.765 273.803 368.808L273.418 370.574C273.333 371.345 273.108 371.912 272.744 372.276C272.38 372.639 271.931 372.821 271.396 372.821C270.368 372.821 269.769 372.34 269.598 371.377C269.79 370.092 270.475 369.065 271.652 368.295C272.851 367.524 274.424 367.139 276.372 367.139C278.234 367.139 279.593 367.588 280.449 368.487C281.305 369.365 281.733 370.852 281.733 372.95V379.949C281.733 380.912 282.044 381.393 282.664 381.393C283.071 381.393 283.446 381.158 283.788 380.687L284.526 381.329C284.141 382.057 283.681 382.581 283.146 382.902C282.632 383.202 281.99 383.352 281.22 383.352ZM272.872 378.697C272.872 379.531 273.086 380.141 273.515 380.527C273.964 380.89 274.51 381.072 275.152 381.072C275.516 381.072 275.88 380.987 276.243 380.815C276.607 380.644 277.174 380.291 277.945 379.756V374.683C277.496 374.833 277.067 374.972 276.661 375.101C276.276 375.229 275.944 375.347 275.666 375.454C274.595 375.882 273.857 376.374 273.45 376.931C273.065 377.487 272.872 378.076 272.872 378.697ZM291.061 383.416C290.076 383.416 289.167 383.298 288.332 383.063C287.519 382.849 286.705 382.517 285.892 382.068L285.86 378.343H288.011L288.589 381.329C289.359 381.65 290.194 381.811 291.093 381.811C292.185 381.811 292.998 381.618 293.533 381.233C294.068 380.848 294.336 380.312 294.336 379.628C294.336 379.028 294.122 378.547 293.693 378.183C293.265 377.798 292.538 377.434 291.51 377.091L289.905 376.546C288.706 376.16 287.754 375.593 287.048 374.844C286.363 374.095 286.02 373.153 286.02 372.019C286.02 371.12 286.256 370.306 286.727 369.579C287.198 368.83 287.882 368.241 288.781 367.813C289.702 367.364 290.815 367.139 292.12 367.139C293.041 367.139 293.875 367.256 294.624 367.492C295.395 367.706 296.155 368.027 296.904 368.455L296.743 371.826H294.624L294.047 369.129C293.447 368.872 292.784 368.744 292.056 368.744C291.2 368.744 290.536 368.926 290.066 369.29C289.595 369.654 289.359 370.146 289.359 370.767C289.359 371.345 289.552 371.815 289.937 372.179C290.344 372.522 291.093 372.875 292.185 373.239L293.469 373.624C295.031 374.159 296.144 374.823 296.808 375.614C297.471 376.406 297.803 377.359 297.803 378.472C297.803 379.906 297.214 381.094 296.037 382.035C294.881 382.956 293.223 383.416 291.061 383.416ZM305.615 383.416C304.331 383.416 303.325 383.095 302.597 382.453C301.87 381.811 301.506 380.783 301.506 379.371C301.506 378.878 301.506 378.418 301.506 377.99C301.527 377.541 301.538 377.006 301.538 376.385V369.547H299.162V367.877L301.763 367.556L302.983 363.158H305.583L305.455 367.588H309.307V369.547H305.423V379.018C305.423 379.809 305.572 380.387 305.872 380.751C306.193 381.115 306.61 381.297 307.124 381.297C307.702 381.297 308.355 381.029 309.082 380.494L309.853 381.297C309.446 381.961 308.89 382.485 308.184 382.87C307.477 383.234 306.621 383.416 305.615 383.416ZM310.81 382.966V381.65L312.929 381.233C312.951 380.441 312.961 379.585 312.961 378.664C312.961 377.723 312.961 376.909 312.961 376.224V374.716C312.961 373.838 312.951 373.11 312.929 372.532C312.929 371.933 312.908 371.312 312.865 370.67L310.586 370.381V369.161L316.365 367.139L316.878 367.46L316.782 371.987V376.224C316.782 376.909 316.782 377.723 316.782 378.664C316.782 379.585 316.793 380.452 316.814 381.265L318.772 381.65V382.966H310.81ZM314.856 364.153C314.171 364.153 313.593 363.939 313.122 363.511C312.651 363.083 312.416 362.537 312.416 361.874C312.416 361.189 312.651 360.632 313.122 360.204C313.593 359.776 314.171 359.562 314.856 359.562C315.54 359.562 316.108 359.776 316.557 360.204C317.028 360.632 317.263 361.189 317.263 361.874C317.263 362.537 317.028 363.083 316.557 363.511C316.108 363.939 315.54 364.153 314.856 364.153ZM320.719 382.966V381.65L322.806 381.233C322.827 380.441 322.838 379.585 322.838 378.664C322.838 377.723 322.838 376.909 322.838 376.224V374.523C322.838 373.645 322.827 372.95 322.806 372.436C322.806 371.901 322.785 371.312 322.742 370.67L320.494 370.381V369.161L325.856 367.139L326.37 367.46L326.594 369.932C328.242 368.07 330.062 367.139 332.052 367.139C333.443 367.139 334.514 367.599 335.263 368.519C336.033 369.44 336.419 370.895 336.419 372.886V376.224C336.419 376.952 336.419 377.776 336.419 378.697C336.419 379.617 336.429 380.473 336.451 381.265L338.409 381.65V382.966H330.479V381.65L332.534 381.233C332.555 380.441 332.566 379.595 332.566 378.697C332.566 377.776 332.566 376.952 332.566 376.224V373.174C332.566 371.912 332.395 371.045 332.052 370.574C331.71 370.082 331.132 369.836 330.319 369.836C329.184 369.836 327.986 370.36 326.723 371.409V376.224C326.723 376.931 326.723 377.744 326.723 378.664C326.723 379.585 326.734 380.452 326.755 381.265L328.649 381.65V382.966H320.719ZM346.992 376.16C347.89 376.16 348.575 375.807 349.046 375.101C349.517 374.394 349.753 373.453 349.753 372.276C349.753 371.141 349.517 370.242 349.046 369.579C348.597 368.894 347.944 368.551 347.088 368.551C346.232 368.551 345.558 368.905 345.065 369.611C344.594 370.296 344.359 371.216 344.359 372.372C344.359 373.528 344.584 374.448 345.033 375.133C345.483 375.818 346.135 376.16 346.992 376.16ZM342.946 385.952C342.946 386.937 343.31 387.654 344.038 388.103C344.766 388.553 345.804 388.777 347.152 388.777C348.843 388.777 350.116 388.499 350.973 387.943C351.85 387.386 352.289 386.712 352.289 385.92C352.289 385.321 352.075 384.807 351.647 384.379C351.24 383.951 350.523 383.737 349.496 383.737H345.932C345.14 383.737 344.434 383.673 343.813 383.544C343.235 384.315 342.946 385.118 342.946 385.952ZM347.056 377.573C346.093 377.573 345.204 377.455 344.391 377.22C343.984 377.776 343.781 378.365 343.781 378.985C343.781 379.392 343.909 379.713 344.166 379.949C344.445 380.184 344.937 380.302 345.643 380.302H349.656C351.754 380.302 353.252 380.698 354.151 381.49C355.05 382.282 355.499 383.352 355.499 384.7C355.499 385.706 355.168 386.648 354.504 387.525C353.862 388.403 352.899 389.109 351.615 389.644C350.352 390.179 348.768 390.447 346.863 390.447C345.215 390.447 343.888 390.276 342.882 389.933C341.898 389.591 341.181 389.131 340.731 388.553C340.303 387.975 340.089 387.333 340.089 386.626C340.089 385.942 340.314 385.31 340.763 384.732C341.213 384.176 341.951 383.651 342.978 383.159C342.315 382.924 341.823 382.592 341.502 382.164C341.181 381.714 341.02 381.201 341.02 380.623C341.02 380.002 341.202 379.392 341.566 378.793C341.951 378.172 342.54 377.498 343.332 376.77C341.641 375.914 340.795 374.448 340.795 372.372C340.795 370.788 341.352 369.525 342.465 368.583C343.578 367.62 345.108 367.139 347.056 367.139C349.003 367.139 350.523 367.588 351.615 368.487L355.243 367.107L355.724 367.428V369.675H352.61C353.059 370.403 353.284 371.302 353.284 372.372C353.284 373.934 352.738 375.197 351.647 376.16C350.555 377.102 349.025 377.573 347.056 377.573Z" fill="#BFD4EC"/>
<path d="M269.274 210.068V199.763L270.989 210.068H271.868L273.583 199.763V210.068H275.342V195.475H272.88L271.429 202.738L269.978 195.475H267.559V210.068H269.274Z" fill="white"/>
</svg>
