<svg width="542" height="484" viewBox="0 0 542 484" fill="none" xmlns="http://www.w3.org/2000/svg">
<path opacity="0.6" d="M253.185 189.568C253.185 189.568 261.823 189.035 271 189.035C280.177 189.035 288.815 189.568 288.815 189.568L281.257 209.286L271 227.405L260.743 209.286L253.185 189.568Z" fill="#718EA8"/>
<rect x="1.08642" y="1.08642" width="293.69" height="293.69" rx="146.845" stroke="#BFD4EC" stroke-width="1.82715"/>
<path d="M95.6503 135.743C96.9345 135.743 97.9725 135.305 98.7645 134.427C99.5564 133.55 100.134 132.394 100.498 130.96C100.883 129.526 101.076 127.963 101.076 126.272C101.076 124.582 100.883 123.019 100.498 121.585C100.134 120.151 99.5564 118.995 98.7645 118.118C97.9725 117.24 96.9345 116.802 95.6503 116.802C94.3661 116.802 93.3173 117.24 92.504 118.118C91.6907 118.995 91.0914 120.151 90.7061 121.585C90.3423 123.019 90.1603 124.582 90.1603 126.272C90.1603 127.963 90.3423 129.526 90.7061 130.96C91.0914 132.394 91.6907 133.55 92.504 134.427C93.3173 135.305 94.3661 135.743 95.6503 135.743ZM100.241 143.705C98.8501 143.705 97.6515 143.416 96.6455 142.839C95.661 142.282 94.9012 141.512 94.3661 140.527C93.831 139.542 93.5314 138.451 93.4672 137.252C92.0545 136.931 90.7489 136.311 89.5504 135.39C88.3732 134.47 87.4207 133.25 86.693 131.73C85.9867 130.211 85.6336 128.391 85.6336 126.272C85.6336 124.475 85.9118 122.88 86.4683 121.489C87.0248 120.098 87.7739 118.931 88.7156 117.989C89.6574 117.026 90.7275 116.309 91.9261 115.838C93.1247 115.346 94.3661 115.1 95.6503 115.1C96.9345 115.1 98.1652 115.335 99.3423 115.806C100.541 116.277 101.611 116.983 102.553 117.925C103.495 118.846 104.244 120.012 104.8 121.425C105.357 122.816 105.635 124.432 105.635 126.272C105.635 128.391 105.26 130.232 104.511 131.794C103.762 133.336 102.767 134.577 101.525 135.519C100.305 136.439 98.9571 137.038 97.4803 137.317C97.5231 138.686 97.8976 139.746 98.6039 140.495C99.3316 141.244 100.295 141.619 101.493 141.619C101.814 141.619 102.178 141.586 102.585 141.522C103.013 141.479 103.462 141.383 103.933 141.233L104.447 142.678C103.912 143.021 103.27 143.277 102.521 143.449C101.772 143.62 101.012 143.705 100.241 143.705ZM119.668 137.22L119.411 134.395C117.849 136.385 116.029 137.381 113.953 137.381C112.626 137.381 111.556 136.953 110.743 136.097C109.951 135.219 109.566 133.721 109.587 131.602L109.715 123.672L107.629 123.222V121.97L113.247 121.296L113.632 121.649L113.472 126.144V131.473C113.472 132.672 113.654 133.517 114.018 134.01C114.403 134.481 114.949 134.716 115.655 134.716C116.254 134.716 116.864 134.545 117.485 134.202C118.127 133.86 118.737 133.421 119.315 132.886L119.411 123.672L117.389 123.222V122.035L122.878 121.296L123.296 121.649L123.2 126.144V135.198L125.158 135.615V136.931L119.668 137.22ZM139.34 137.317C138.483 137.317 137.788 137.103 137.253 136.674C136.718 136.246 136.354 135.658 136.161 134.909C135.369 135.722 134.652 136.343 134.01 136.771C133.368 137.177 132.533 137.381 131.506 137.381C130.307 137.381 129.291 137.038 128.456 136.353C127.643 135.647 127.236 134.641 127.236 133.336C127.236 132.651 127.396 132.019 127.718 131.441C128.039 130.842 128.606 130.286 129.419 129.772C130.254 129.258 131.442 128.755 132.983 128.263C133.411 128.113 133.892 127.963 134.427 127.813C134.963 127.664 135.508 127.514 136.065 127.364V126.465C136.065 124.967 135.851 123.961 135.423 123.447C135.016 122.912 134.288 122.645 133.24 122.645C133.047 122.645 132.833 122.655 132.597 122.677C132.383 122.698 132.159 122.73 131.923 122.773L131.538 124.539C131.452 125.309 131.228 125.876 130.864 126.24C130.5 126.604 130.05 126.786 129.515 126.786C128.488 126.786 127.889 126.305 127.718 125.341C127.91 124.057 128.595 123.03 129.772 122.259C130.971 121.489 132.544 121.104 134.492 121.104C136.354 121.104 137.713 121.553 138.569 122.452C139.425 123.33 139.853 124.817 139.853 126.915V133.913C139.853 134.877 140.164 135.358 140.784 135.358C141.191 135.358 141.565 135.123 141.908 134.652L142.646 135.294C142.261 136.022 141.801 136.546 141.266 136.867C140.752 137.167 140.11 137.317 139.34 137.317ZM130.992 132.661C130.992 133.496 131.206 134.106 131.634 134.491C132.084 134.855 132.63 135.037 133.272 135.037C133.636 135.037 133.999 134.951 134.363 134.78C134.727 134.609 135.294 134.256 136.065 133.721V128.648C135.615 128.798 135.187 128.937 134.781 129.066C134.395 129.194 134.064 129.312 133.785 129.419C132.715 129.847 131.977 130.339 131.57 130.896C131.185 131.452 130.992 132.041 130.992 132.661ZM143.693 136.931V135.615L145.78 135.198C145.801 134.406 145.812 133.55 145.812 132.629C145.812 131.687 145.812 130.874 145.812 130.189V128.488C145.812 127.61 145.801 126.915 145.78 126.401C145.78 125.866 145.758 125.277 145.716 124.635L143.468 124.346V123.126L148.83 121.104L149.343 121.425L149.568 123.897C151.216 122.035 153.036 121.104 155.026 121.104C156.417 121.104 157.487 121.564 158.236 122.484C159.007 123.404 159.392 124.86 159.392 126.85V130.189C159.392 130.917 159.392 131.741 159.392 132.661C159.392 133.582 159.403 134.438 159.424 135.23L161.383 135.615V136.931H153.453V135.615L155.508 135.198C155.529 134.406 155.54 133.56 155.54 132.661C155.54 131.741 155.54 130.917 155.54 130.189V127.139C155.54 125.876 155.368 125.01 155.026 124.539C154.684 124.047 154.106 123.8 153.292 123.8C152.158 123.8 150.959 124.325 149.697 125.374V130.189C149.697 130.896 149.697 131.709 149.697 132.629C149.697 133.55 149.707 134.416 149.729 135.23L151.623 135.615V136.931H143.693ZM168.845 137.381C167.561 137.381 166.555 137.06 165.828 136.418C165.1 135.775 164.736 134.748 164.736 133.336C164.736 132.843 164.736 132.383 164.736 131.955C164.757 131.506 164.768 130.97 164.768 130.35V123.511H162.392V121.842L164.993 121.521L166.213 117.123H168.813L168.685 121.553H172.537V123.511H168.653V132.982C168.653 133.774 168.803 134.352 169.102 134.716C169.423 135.08 169.841 135.262 170.354 135.262C170.932 135.262 171.585 134.994 172.313 134.459L173.083 135.262C172.677 135.925 172.12 136.45 171.414 136.835C170.707 137.199 169.851 137.381 168.845 137.381ZM174.041 136.931V135.615L176.16 135.198C176.181 134.406 176.192 133.55 176.192 132.629C176.192 131.687 176.192 130.874 176.192 130.189V128.68C176.192 127.803 176.181 127.075 176.16 126.497C176.16 125.898 176.138 125.277 176.095 124.635L173.816 124.346V123.126L179.595 121.104L180.108 121.425L180.012 125.951V130.189C180.012 130.874 180.012 131.687 180.012 132.629C180.012 133.55 180.023 134.416 180.044 135.23L182.003 135.615V136.931H174.041ZM178.086 118.118C177.401 118.118 176.823 117.904 176.352 117.476C175.881 117.048 175.646 116.502 175.646 115.838C175.646 115.153 175.881 114.597 176.352 114.169C176.823 113.741 177.401 113.527 178.086 113.527C178.771 113.527 179.338 113.741 179.787 114.169C180.258 114.597 180.494 115.153 180.494 115.838C180.494 116.502 180.258 117.048 179.787 117.476C179.338 117.904 178.771 118.118 178.086 118.118ZM183.917 136.931V135.615L186.068 135.198C186.09 134.363 186.101 133.528 186.101 132.693C186.122 131.859 186.133 131.024 186.133 130.189V123.511H183.757V121.842L186.229 121.521C186.4 119.937 186.657 118.664 186.999 117.7C187.363 116.716 187.92 115.849 188.669 115.1C189.397 114.372 190.189 113.859 191.045 113.559C191.922 113.238 192.768 113.077 193.581 113.077C194.416 113.077 195.154 113.227 195.796 113.527C196.46 113.826 196.877 114.351 197.048 115.1C197.027 115.592 196.824 116.01 196.438 116.352C196.074 116.694 195.571 116.866 194.929 116.866C194.009 116.866 193.142 116.331 192.329 115.26L191.751 114.683C191.687 114.725 191.612 114.79 191.526 114.875C190.948 115.453 190.531 116.266 190.274 117.315C190.017 118.364 189.91 119.777 189.953 121.553H193.902V123.511H190.017V130.189C190.017 131.003 190.017 131.827 190.017 132.661C190.039 133.475 190.06 134.299 190.082 135.133L192.778 135.615V136.931H183.917ZM205.303 122.837V121.553H211.467V122.837L209.669 123.19L204.179 137.509C203.259 139.971 202.328 141.79 201.386 142.967C200.444 144.144 199.278 144.733 197.887 144.733C197.052 144.733 196.324 144.519 195.704 144.091C195.104 143.663 194.783 143.128 194.74 142.485C194.869 141.908 195.158 141.469 195.607 141.169C196.078 140.891 196.592 140.752 197.148 140.752C197.576 140.752 197.994 140.837 198.4 141.009C198.829 141.201 199.257 141.565 199.685 142.1L199.877 142.357C200.455 141.801 200.958 141.158 201.386 140.431C201.814 139.724 202.167 138.965 202.446 138.151L202.51 137.959L196.41 123.094L194.773 122.837V121.553H203.184V122.837L200.648 123.19L204.244 133.014L207.743 123.222L205.303 122.837ZM126.46 157.283H124.405C124.384 158.653 124.362 160.023 124.341 161.393C124.341 162.762 124.341 164.132 124.341 165.502H126.203C127.872 165.502 129.06 165.095 129.767 164.282C130.494 163.469 130.858 162.473 130.858 161.296C130.858 158.621 129.392 157.283 126.46 157.283ZM117.47 157.155V155.646H127.134C129.638 155.646 131.564 156.127 132.913 157.09C134.283 158.054 134.968 159.391 134.968 161.104C134.968 161.874 134.775 162.623 134.39 163.351C134.026 164.079 133.437 164.71 132.624 165.245C131.811 165.78 130.74 166.155 129.413 166.369C130.762 166.583 131.757 167.054 132.399 167.781C133.063 168.509 133.544 169.569 133.844 170.96L134.839 175.166L137.311 175.422V176.931C136.776 177.081 136.305 177.177 135.899 177.22C135.513 177.284 135.01 177.317 134.39 177.317C133.213 177.317 132.292 177.124 131.629 176.739C130.987 176.353 130.58 175.668 130.409 174.684L129.478 170.221C129.242 169.023 128.836 168.209 128.258 167.781C127.701 167.332 126.856 167.107 125.721 167.107H124.341C124.341 168.541 124.341 169.922 124.341 171.249C124.362 172.554 124.384 173.849 124.405 175.133L127.134 175.422V176.931H117.47V175.422L120.167 175.133C120.21 173.806 120.231 172.458 120.231 171.088C120.231 169.718 120.231 168.349 120.231 166.979V165.598C120.231 164.25 120.231 162.901 120.231 161.553C120.231 160.183 120.21 158.813 120.167 157.444L117.47 157.155ZM138.628 176.931V175.615L140.747 175.198C140.768 174.406 140.779 173.55 140.779 172.629C140.779 171.687 140.779 170.874 140.779 170.189V168.68C140.779 167.803 140.768 167.075 140.747 166.497C140.747 165.898 140.726 165.277 140.683 164.635L138.403 164.346V163.126L144.182 161.104L144.696 161.425L144.6 165.951V170.189C144.6 170.874 144.6 171.687 144.6 172.629C144.6 173.55 144.61 174.416 144.632 175.23L146.59 175.615V176.931H138.628ZM142.673 158.118C141.988 158.118 141.41 157.904 140.94 157.476C140.469 157.048 140.233 156.502 140.233 155.838C140.233 155.153 140.469 154.597 140.94 154.169C141.41 153.741 141.988 153.527 142.673 153.527C143.358 153.527 143.925 153.741 144.375 154.169C144.846 154.597 145.081 155.153 145.081 155.838C145.081 156.502 144.846 157.048 144.375 157.476C143.925 157.904 143.358 158.118 142.673 158.118ZM153.931 177.381C152.946 177.381 152.036 177.263 151.202 177.028C150.388 176.814 149.575 176.482 148.762 176.032L148.73 172.308H150.881L151.458 175.294C152.229 175.615 153.064 175.775 153.963 175.775C155.054 175.775 155.868 175.583 156.403 175.198C156.938 174.812 157.205 174.277 157.205 173.592C157.205 172.993 156.991 172.512 156.563 172.148C156.135 171.762 155.407 171.399 154.38 171.056L152.775 170.51C151.576 170.125 150.624 169.558 149.917 168.809C149.233 168.06 148.89 167.118 148.89 165.984C148.89 165.085 149.126 164.271 149.596 163.544C150.067 162.794 150.752 162.206 151.651 161.778C152.571 161.328 153.684 161.104 154.99 161.104C155.91 161.104 156.745 161.221 157.494 161.457C158.265 161.671 159.025 161.992 159.774 162.42L159.613 165.791H157.494L156.916 163.094C156.317 162.837 155.654 162.709 154.926 162.709C154.07 162.709 153.406 162.891 152.935 163.255C152.464 163.618 152.229 164.111 152.229 164.731C152.229 165.309 152.422 165.78 152.807 166.144C153.214 166.486 153.963 166.84 155.054 167.203L156.338 167.589C157.901 168.124 159.014 168.787 159.677 169.579C160.341 170.371 160.673 171.324 160.673 172.437C160.673 173.871 160.084 175.058 158.907 176C157.751 176.921 156.092 177.381 153.931 177.381ZM162.107 176.931V175.615L164.29 175.198C164.311 174.384 164.322 173.528 164.322 172.629C164.343 171.73 164.354 170.917 164.354 170.189V156.416L162.01 156.095V154.843L167.853 153.398L168.335 153.687L168.206 158.214V168.777L173.536 163.383L171.128 162.901L171.16 161.553H178.737V162.901L175.815 163.319L172.573 166.465L177.517 175.166L179.604 175.615V176.931H174.178L169.876 169.098L168.206 170.735C168.206 171.463 168.206 172.223 168.206 173.014C168.228 173.785 168.249 174.523 168.271 175.23L170.422 175.615V176.931H162.107Z" fill="#BFD4EC"/>
<path d="M394.069 1.08594C475.169 1.08614 540.914 66.8316 540.914 147.932C540.913 229.031 475.169 294.776 394.069 294.776C312.969 294.776 247.223 229.032 247.223 147.932C247.223 66.8315 312.969 1.08594 394.069 1.08594Z" stroke="#BFD4EC" stroke-width="1.82715"/>
<path d="M337.585 117.155V115.646H347.249V117.155L344.552 117.444C344.53 118.771 344.509 120.119 344.488 121.489C344.488 122.837 344.488 124.207 344.488 125.598V126.979C344.488 128.327 344.488 129.686 344.488 131.056C344.509 132.404 344.53 133.764 344.552 135.133L347.249 135.422V136.931H337.585V135.422L340.282 135.133C340.325 133.806 340.346 132.458 340.346 131.088C340.346 129.718 340.346 128.349 340.346 126.979V125.598C340.346 124.25 340.346 122.901 340.346 121.553C340.346 120.183 340.325 118.813 340.282 117.444L337.585 117.155ZM353.011 129.322C353.011 131.27 353.375 132.726 354.103 133.689C354.852 134.63 355.794 135.101 356.928 135.101C357.485 135.101 357.988 134.994 358.437 134.78C358.908 134.545 359.347 134.213 359.753 133.785V124.571C358.812 123.758 357.881 123.351 356.96 123.351C355.89 123.351 354.959 123.832 354.167 124.796C353.397 125.759 353.011 127.268 353.011 129.322ZM360.139 137.284L359.882 135.262C359.282 135.947 358.619 136.471 357.891 136.835C357.164 137.199 356.329 137.381 355.387 137.381C354.124 137.381 353.001 137.06 352.016 136.418C351.053 135.775 350.293 134.855 349.737 133.657C349.18 132.458 348.902 131.035 348.902 129.387C348.902 127.696 349.212 126.23 349.833 124.988C350.475 123.747 351.32 122.794 352.369 122.131C353.439 121.446 354.606 121.104 355.869 121.104C356.682 121.104 357.41 121.253 358.052 121.553C358.715 121.853 359.336 122.345 359.914 123.03V116.416L357.41 116.095V114.843L363.285 113.398L363.766 113.687L363.638 118.214V135.262L365.725 135.615V136.931L360.139 137.284ZM375.102 122.645C374.588 122.645 374.075 122.816 373.561 123.158C373.069 123.479 372.641 124.014 372.277 124.764C371.934 125.513 371.72 126.529 371.635 127.813H376.033C376.804 127.813 377.317 127.653 377.574 127.332C377.831 127.011 377.959 126.561 377.959 125.984C377.959 124.999 377.681 124.196 377.125 123.576C376.568 122.955 375.894 122.645 375.102 122.645ZM375.102 137.381C373.604 137.381 372.287 137.06 371.153 136.418C370.019 135.775 369.13 134.855 368.488 133.657C367.846 132.437 367.525 130.992 367.525 129.322C367.525 127.61 367.889 126.144 368.617 124.924C369.366 123.683 370.329 122.741 371.506 122.099C372.705 121.435 373.978 121.104 375.327 121.104C376.589 121.104 377.692 121.371 378.633 121.906C379.575 122.441 380.303 123.19 380.817 124.154C381.352 125.117 381.619 126.251 381.619 127.557C381.619 128.242 381.555 128.83 381.427 129.322H371.603C371.688 131.163 372.17 132.544 373.047 133.464C373.946 134.384 375.07 134.844 376.418 134.844C377.36 134.844 378.152 134.663 378.794 134.299C379.458 133.913 380.057 133.421 380.592 132.822L381.523 133.657C380.902 134.834 380.046 135.754 378.955 136.418C377.884 137.06 376.6 137.381 375.102 137.381ZM383.952 136.931V135.615L386.038 135.198C386.06 134.406 386.071 133.55 386.071 132.629C386.071 131.687 386.071 130.874 386.071 130.189V128.488C386.071 127.61 386.06 126.915 386.038 126.401C386.038 125.866 386.017 125.277 385.974 124.635L383.727 124.346V123.126L389.088 121.104L389.602 121.425L389.827 123.897C391.475 122.035 393.294 121.104 395.285 121.104C396.676 121.104 397.746 121.564 398.495 122.484C399.266 123.404 399.651 124.86 399.651 126.85V130.189C399.651 130.917 399.651 131.741 399.651 132.661C399.651 133.582 399.662 134.438 399.683 135.23L401.641 135.615V136.931H393.711V135.615L395.766 135.198C395.788 134.406 395.798 133.56 395.798 132.661C395.798 131.741 395.798 130.917 395.798 130.189V127.139C395.798 125.876 395.627 125.01 395.285 124.539C394.942 124.047 394.364 123.8 393.551 123.8C392.417 123.8 391.218 124.325 389.955 125.374V130.189C389.955 130.896 389.955 131.709 389.955 132.629C389.955 133.55 389.966 134.416 389.987 135.23L391.882 135.615V136.931H383.952ZM409.104 137.381C407.82 137.381 406.814 137.06 406.086 136.418C405.358 135.775 404.995 134.748 404.995 133.336C404.995 132.843 404.995 132.383 404.995 131.955C405.016 131.506 405.027 130.97 405.027 130.35V123.511H402.651V121.842L405.251 121.521L406.471 117.123H409.072L408.944 121.553H412.796V123.511H408.911V132.982C408.911 133.774 409.061 134.352 409.361 134.716C409.682 135.08 410.099 135.262 410.613 135.262C411.191 135.262 411.844 134.994 412.571 134.459L413.342 135.262C412.935 135.925 412.379 136.45 411.672 136.835C410.966 137.199 410.11 137.381 409.104 137.381ZM414.299 136.931V135.615L416.418 135.198C416.44 134.406 416.45 133.55 416.45 132.629C416.45 131.687 416.45 130.874 416.45 130.189V128.68C416.45 127.803 416.44 127.075 416.418 126.497C416.418 125.898 416.397 125.277 416.354 124.635L414.075 124.346V123.126L419.853 121.104L420.367 121.425L420.271 125.951V130.189C420.271 130.874 420.271 131.687 420.271 132.629C420.271 133.55 420.281 134.416 420.303 135.23L422.261 135.615V136.931H414.299ZM418.344 118.118C417.66 118.118 417.082 117.904 416.611 117.476C416.14 117.048 415.904 116.502 415.904 115.838C415.904 115.153 416.14 114.597 416.611 114.169C417.082 113.741 417.66 113.527 418.344 113.527C419.029 113.527 419.597 113.741 420.046 114.169C420.517 114.597 420.752 115.153 420.752 115.838C420.752 116.502 420.517 117.048 420.046 117.476C419.597 117.904 419.029 118.118 418.344 118.118ZM424.176 136.931V135.615L426.327 135.198C426.348 134.363 426.359 133.528 426.359 132.693C426.381 131.859 426.391 131.024 426.391 130.189V123.511H424.015V121.842L426.488 121.521C426.659 119.937 426.916 118.664 427.258 117.7C427.622 116.716 428.178 115.849 428.928 115.1C429.655 114.372 430.447 113.859 431.303 113.559C432.181 113.238 433.026 113.077 433.84 113.077C434.674 113.077 435.413 113.227 436.055 113.527C436.718 113.826 437.136 114.351 437.307 115.1C437.286 115.592 437.082 116.01 436.697 116.352C436.333 116.694 435.83 116.866 435.188 116.866C434.268 116.866 433.401 116.331 432.588 115.26L432.01 114.683C431.945 114.725 431.87 114.79 431.785 114.875C431.207 115.453 430.79 116.266 430.533 117.315C430.276 118.364 430.169 119.777 430.212 121.553H434.161V123.511H430.276V130.189C430.276 131.003 430.276 131.827 430.276 132.661C430.297 133.475 430.319 134.299 430.34 135.133L433.037 135.615V136.931H424.176ZM445.562 122.837V121.553H451.726V122.837L449.928 123.19L444.438 137.509C443.518 139.971 442.587 141.79 441.645 142.967C440.703 144.144 439.537 144.733 438.145 144.733C437.311 144.733 436.583 144.519 435.962 144.091C435.363 143.663 435.042 143.128 434.999 142.485C435.128 141.908 435.416 141.469 435.866 141.169C436.337 140.891 436.851 140.752 437.407 140.752C437.835 140.752 438.252 140.837 438.659 141.009C439.087 141.201 439.515 141.565 439.943 142.1L440.136 142.357C440.714 141.801 441.217 141.158 441.645 140.431C442.073 139.724 442.426 138.965 442.704 138.151L442.769 137.959L436.669 123.094L435.031 122.837V121.553H443.443V122.837L440.906 123.19L444.502 133.014L448.002 123.222L445.562 122.837ZM318.367 161.489L318.56 155.646H336.764L336.924 161.489H334.709L334.035 157.347H329.797C329.775 158.696 329.754 160.066 329.733 161.457C329.733 162.827 329.733 164.207 329.733 165.598V166.979C329.733 168.327 329.733 169.686 329.733 171.056C329.754 172.404 329.775 173.753 329.797 175.101L332.815 175.422V176.931H322.477V175.422L325.495 175.101C325.538 173.774 325.559 172.437 325.559 171.088C325.559 169.718 325.559 168.349 325.559 166.979V165.598C325.559 164.228 325.559 162.859 325.559 161.489C325.559 160.098 325.538 158.717 325.495 157.347H321.289L320.615 161.489H318.367ZM344.114 177.381C342.658 177.381 341.342 177.06 340.165 176.418C339.009 175.775 338.089 174.844 337.404 173.624C336.719 172.404 336.377 170.949 336.377 169.258C336.377 167.546 336.73 166.08 337.436 164.86C338.164 163.64 339.116 162.709 340.293 162.067C341.471 161.425 342.744 161.104 344.114 161.104C345.484 161.104 346.757 161.425 347.934 162.067C349.112 162.709 350.064 163.64 350.792 164.86C351.519 166.058 351.883 167.525 351.883 169.258C351.883 170.97 351.53 172.437 350.824 173.657C350.139 174.855 349.208 175.775 348.031 176.418C346.875 177.06 345.569 177.381 344.114 177.381ZM344.114 175.808C345.27 175.808 346.147 175.273 346.746 174.202C347.367 173.132 347.677 171.495 347.677 169.29C347.677 164.881 346.49 162.677 344.114 162.677C341.759 162.677 340.582 164.881 340.582 169.29C340.582 171.495 340.882 173.132 341.481 174.202C342.081 175.273 342.958 175.808 344.114 175.808ZM353.773 184.412V183.095L355.957 182.678C355.978 181.736 355.989 180.827 355.989 179.949C356.01 179.093 356.021 178.258 356.021 177.445V168.488C356.021 167.61 356.01 166.915 355.989 166.401C355.989 165.866 355.967 165.277 355.924 164.635L353.677 164.346V163.126L359.006 161.104L359.52 161.425L359.681 163.383C361.136 161.863 362.741 161.104 364.496 161.104C365.652 161.104 366.701 161.425 367.643 162.067C368.584 162.687 369.323 163.597 369.858 164.796C370.414 165.994 370.693 167.45 370.693 169.162C370.693 170.853 370.382 172.319 369.762 173.56C369.162 174.78 368.36 175.722 367.354 176.385C366.348 177.049 365.224 177.381 363.983 177.381C363.191 177.381 362.452 177.231 361.768 176.931C361.083 176.632 360.43 176.15 359.809 175.487V177.413C359.809 178.205 359.809 179.029 359.809 179.885C359.831 180.762 359.852 181.672 359.873 182.614L362.378 183.095V184.412H353.773ZM362.988 163.383C362.495 163.383 361.992 163.511 361.479 163.768C360.986 164.025 360.462 164.368 359.905 164.796V173.881C360.804 174.716 361.757 175.133 362.763 175.133C363.833 175.133 364.732 174.673 365.46 173.753C366.209 172.811 366.583 171.345 366.583 169.355C366.583 167.385 366.251 165.898 365.588 164.892C364.924 163.886 364.058 163.383 362.988 163.383ZM379.285 161.489L379.478 155.646H397.681L397.842 161.489H395.627L394.952 157.347H390.715C390.693 158.696 390.672 160.066 390.65 161.457C390.65 162.827 390.65 164.207 390.65 165.598V166.979C390.65 168.327 390.65 169.686 390.65 171.056C390.672 172.404 390.693 173.753 390.715 175.101L393.732 175.422V176.931H383.395V175.422L386.413 175.101C386.455 173.774 386.477 172.437 386.477 171.088C386.477 169.718 386.477 168.349 386.477 166.979V165.598C386.477 164.228 386.477 162.859 386.477 161.489C386.477 160.098 386.455 158.717 386.413 157.347H382.207L381.533 161.489H379.285ZM410.182 177.317C409.326 177.317 408.631 177.103 408.096 176.674C407.561 176.246 407.197 175.658 407.004 174.909C406.212 175.722 405.495 176.343 404.853 176.771C404.211 177.177 403.376 177.381 402.349 177.381C401.15 177.381 400.134 177.038 399.299 176.353C398.486 175.647 398.079 174.641 398.079 173.336C398.079 172.651 398.239 172.019 398.56 171.441C398.882 170.842 399.449 170.286 400.262 169.772C401.097 169.258 402.285 168.755 403.826 168.263C404.254 168.113 404.735 167.963 405.27 167.813C405.805 167.664 406.351 167.514 406.908 167.364V166.465C406.908 164.967 406.694 163.961 406.266 163.447C405.859 162.912 405.131 162.645 404.083 162.645C403.89 162.645 403.676 162.655 403.44 162.677C403.226 162.698 403.002 162.73 402.766 162.773L402.381 164.539C402.295 165.309 402.071 165.876 401.707 166.24C401.343 166.604 400.893 166.786 400.358 166.786C399.331 166.786 398.732 166.305 398.56 165.341C398.753 164.057 399.438 163.03 400.615 162.259C401.814 161.489 403.387 161.104 405.335 161.104C407.197 161.104 408.556 161.553 409.412 162.452C410.268 163.33 410.696 164.817 410.696 166.915V173.913C410.696 174.877 411.006 175.358 411.627 175.358C412.034 175.358 412.408 175.123 412.751 174.652L413.489 175.294C413.104 176.022 412.644 176.546 412.109 176.867C411.595 177.167 410.953 177.317 410.182 177.317ZM401.835 172.661C401.835 173.496 402.049 174.106 402.477 174.491C402.927 174.855 403.473 175.037 404.115 175.037C404.478 175.037 404.842 174.951 405.206 174.78C405.57 174.609 406.137 174.256 406.908 173.721V168.648C406.458 168.798 406.03 168.937 405.624 169.066C405.238 169.194 404.907 169.312 404.628 169.419C403.558 169.847 402.82 170.339 402.413 170.896C402.028 171.452 401.835 172.041 401.835 172.661ZM414.373 176.931V175.615L416.556 175.198C416.578 174.363 416.588 173.528 416.588 172.693C416.61 171.859 416.62 171.024 416.62 170.189V156.416L414.277 156.095V154.843L420.12 153.398L420.601 153.687L420.473 158.214V170.189C420.473 171.024 420.473 171.859 420.473 172.693C420.494 173.528 420.516 174.363 420.537 175.198L422.72 175.615V176.931H414.373ZM432.242 162.645C431.728 162.645 431.214 162.816 430.701 163.158C430.208 163.479 429.78 164.014 429.417 164.764C429.074 165.513 428.86 166.529 428.774 167.813H433.173C433.943 167.813 434.457 167.653 434.714 167.332C434.971 167.011 435.099 166.561 435.099 165.984C435.099 164.999 434.821 164.196 434.264 163.576C433.708 162.955 433.034 162.645 432.242 162.645ZM432.242 177.381C430.744 177.381 429.427 177.06 428.293 176.418C427.158 175.775 426.27 174.855 425.628 173.657C424.986 172.437 424.665 170.992 424.665 169.322C424.665 167.61 425.029 166.144 425.757 164.924C426.506 163.683 427.469 162.741 428.646 162.099C429.845 161.435 431.118 161.104 432.466 161.104C433.729 161.104 434.832 161.371 435.773 161.906C436.715 162.441 437.443 163.19 437.956 164.154C438.491 165.117 438.759 166.251 438.759 167.557C438.759 168.242 438.695 168.83 438.566 169.322H428.742C428.828 171.163 429.309 172.544 430.187 173.464C431.086 174.384 432.21 174.844 433.558 174.844C434.5 174.844 435.292 174.663 435.934 174.299C436.597 173.913 437.197 173.421 437.732 172.822L438.663 173.657C438.042 174.834 437.186 175.754 436.094 176.418C435.024 177.06 433.74 177.381 432.242 177.381ZM441.091 176.931V175.615L443.178 175.198C443.2 174.406 443.21 173.55 443.21 172.629C443.21 171.687 443.21 170.874 443.21 170.189V168.488C443.21 167.61 443.2 166.915 443.178 166.401C443.178 165.866 443.157 165.277 443.114 164.635L440.867 164.346V163.126L446.228 161.104L446.742 161.425L446.967 163.897C448.615 162.035 450.434 161.104 452.424 161.104C453.816 161.104 454.886 161.564 455.635 162.484C456.405 163.404 456.791 164.86 456.791 166.85V170.189C456.791 170.917 456.791 171.741 456.791 172.661C456.791 173.582 456.801 174.438 456.823 175.23L458.781 175.615V176.931H450.851V175.615L452.906 175.198C452.927 174.406 452.938 173.56 452.938 172.661C452.938 171.741 452.938 170.917 452.938 170.189V167.139C452.938 165.876 452.767 165.01 452.424 164.539C452.082 164.047 451.504 163.8 450.691 163.8C449.556 163.8 448.358 164.325 447.095 165.374V170.189C447.095 170.896 447.095 171.709 447.095 172.629C447.095 173.55 447.106 174.416 447.127 175.23L449.021 175.615V176.931H441.091ZM466.244 177.381C464.96 177.381 463.954 177.06 463.226 176.418C462.498 175.775 462.134 174.748 462.134 173.336C462.134 172.843 462.134 172.383 462.134 171.955C462.156 171.506 462.167 170.97 462.167 170.35V163.511H459.791V161.842L462.391 161.521L463.611 157.123H466.212L466.083 161.553H469.936V163.511H466.051V172.982C466.051 173.774 466.201 174.352 466.501 174.716C466.822 175.08 467.239 175.262 467.753 175.262C468.331 175.262 468.983 174.994 469.711 174.459L470.482 175.262C470.075 175.925 469.519 176.45 468.812 176.835C468.106 177.199 467.25 177.381 466.244 177.381Z" fill="#BFD4EC"/>
<path d="M271.486 188.851C352.586 188.851 418.331 254.597 418.331 335.697C418.331 416.796 352.586 482.541 271.486 482.541C190.386 482.541 124.641 416.797 124.641 335.697C124.641 254.596 190.386 188.851 271.486 188.851Z" stroke="#BFD4EC" stroke-width="1.82715"/>
<path d="M209.265 323.19V321.681H225.446L225.671 327.299H223.423L222.749 323.382H216.232C216.21 324.731 216.189 326.079 216.168 327.428C216.168 328.755 216.168 330.007 216.168 331.184H220.309L220.727 328.391H222.396V335.647H220.727L220.341 332.886H216.168C216.168 334.427 216.168 335.882 216.168 337.252C216.189 338.6 216.21 339.938 216.232 341.265H223.391L224.065 337.348H226.313L226.088 342.966H209.265V341.458L211.962 341.169C212.005 339.842 212.026 338.493 212.026 337.123C212.026 335.754 212.026 334.384 212.026 333.014V331.633C212.026 330.285 212.026 328.937 212.026 327.588C212.026 326.218 212.005 324.849 211.962 323.479L209.265 323.19ZM228.324 342.966V341.65L230.41 341.233C230.432 340.441 230.443 339.585 230.443 338.664C230.443 337.723 230.443 336.909 230.443 336.224V334.523C230.443 333.645 230.432 332.95 230.41 332.436C230.41 331.901 230.389 331.312 230.346 330.67L228.099 330.381V329.161L233.46 327.139L233.974 327.46L234.199 329.932C235.847 328.07 237.666 327.139 239.657 327.139C241.048 327.139 242.118 327.599 242.867 328.519C243.638 329.44 244.023 330.895 244.023 332.886V336.224C244.023 336.952 244.023 337.776 244.023 338.697C244.023 339.617 244.034 340.473 244.055 341.265L246.013 341.65V342.966H238.084V341.65L240.138 341.233C240.16 340.441 240.17 339.595 240.17 338.697C240.17 337.776 240.17 336.952 240.17 336.224V333.174C240.17 331.912 239.999 331.045 239.657 330.574C239.314 330.082 238.736 329.836 237.923 329.836C236.789 329.836 235.59 330.36 234.327 331.409V336.224C234.327 336.931 234.327 337.744 234.327 338.664C234.327 339.585 234.338 340.452 234.359 341.265L236.254 341.65V342.966H228.324ZM247.79 342.966V341.65L249.909 341.233C249.93 340.441 249.941 339.585 249.941 338.664C249.941 337.723 249.941 336.909 249.941 336.224V322.451L247.597 322.13V320.878L253.344 319.434L253.825 319.723L253.697 324.249V329.996C255.345 328.091 257.175 327.139 259.187 327.139C260.578 327.139 261.659 327.599 262.43 328.519C263.2 329.44 263.585 330.895 263.585 332.886V336.224C263.585 336.952 263.585 337.776 263.585 338.697C263.585 339.617 263.596 340.473 263.617 341.265L265.576 341.65V342.966H257.646V341.65L259.701 341.233C259.722 340.441 259.733 339.595 259.733 338.697C259.733 337.776 259.733 336.952 259.733 336.224V333.174C259.733 331.912 259.562 331.045 259.219 330.574C258.898 330.082 258.331 329.836 257.518 329.836C256.319 329.836 255.078 330.446 253.793 331.666V336.224C253.793 336.931 253.793 337.744 253.793 338.664C253.793 339.585 253.804 340.452 253.825 341.265L255.72 341.65V342.966H247.79ZM279.621 343.352C278.765 343.352 278.069 343.138 277.534 342.71C276.999 342.282 276.635 341.693 276.442 340.944C275.65 341.757 274.933 342.378 274.291 342.806C273.649 343.213 272.814 343.416 271.787 343.416C270.589 343.416 269.572 343.073 268.737 342.389C267.924 341.682 267.517 340.676 267.517 339.371C267.517 338.686 267.678 338.054 267.999 337.477C268.32 336.877 268.887 336.321 269.7 335.807C270.535 335.293 271.723 334.79 273.264 334.298C273.692 334.148 274.174 333.999 274.709 333.849C275.244 333.699 275.79 333.549 276.346 333.399V332.5C276.346 331.002 276.132 329.996 275.704 329.482C275.297 328.947 274.57 328.68 273.521 328.68C273.328 328.68 273.114 328.691 272.879 328.712C272.665 328.733 272.44 328.765 272.204 328.808L271.819 330.574C271.734 331.345 271.509 331.912 271.145 332.276C270.781 332.639 270.332 332.821 269.797 332.821C268.769 332.821 268.17 332.34 267.999 331.377C268.191 330.092 268.876 329.065 270.053 328.295C271.252 327.524 272.825 327.139 274.773 327.139C276.635 327.139 277.994 327.588 278.85 328.487C279.706 329.365 280.134 330.852 280.134 332.95V339.949C280.134 340.912 280.445 341.393 281.065 341.393C281.472 341.393 281.847 341.158 282.189 340.687L282.928 341.329C282.542 342.057 282.082 342.581 281.547 342.902C281.033 343.202 280.391 343.352 279.621 343.352ZM271.273 338.697C271.273 339.531 271.487 340.141 271.916 340.527C272.365 340.89 272.911 341.072 273.553 341.072C273.917 341.072 274.281 340.987 274.644 340.815C275.008 340.644 275.576 340.291 276.346 339.756V334.683C275.897 334.833 275.468 334.972 275.062 335.101C274.677 335.229 274.345 335.347 274.067 335.454C272.996 335.882 272.258 336.374 271.851 336.931C271.466 337.487 271.273 338.076 271.273 338.697ZM283.974 342.966V341.65L286.061 341.233C286.082 340.441 286.093 339.585 286.093 338.664C286.093 337.723 286.093 336.909 286.093 336.224V334.523C286.093 333.645 286.082 332.95 286.061 332.436C286.061 331.901 286.04 331.312 285.997 330.67L283.749 330.381V329.161L289.111 327.139L289.625 327.46L289.849 329.932C291.497 328.07 293.317 327.139 295.307 327.139C296.698 327.139 297.769 327.599 298.518 328.519C299.288 329.44 299.673 330.895 299.673 332.886V336.224C299.673 336.952 299.673 337.776 299.673 338.697C299.673 339.617 299.684 340.473 299.706 341.265L301.664 341.65V342.966H293.734V341.65L295.789 341.233C295.81 340.441 295.821 339.595 295.821 338.697C295.821 337.776 295.821 336.952 295.821 336.224V333.174C295.821 331.912 295.65 331.045 295.307 330.574C294.965 330.082 294.387 329.836 293.574 329.836C292.439 329.836 291.241 330.36 289.978 331.409V336.224C289.978 336.931 289.978 337.744 289.978 338.664C289.978 339.585 289.989 340.452 290.01 341.265L291.904 341.65V342.966H283.974ZM311.242 343.416C309.786 343.416 308.481 343.106 307.325 342.485C306.169 341.843 305.26 340.922 304.596 339.724C303.954 338.504 303.633 337.038 303.633 335.326C303.633 333.592 303.997 332.115 304.724 330.895C305.474 329.675 306.458 328.744 307.678 328.102C308.898 327.46 310.225 327.139 311.659 327.139C312.708 327.139 313.65 327.342 314.484 327.749C315.34 328.134 316.025 328.658 316.539 329.322C317.074 329.985 317.395 330.735 317.502 331.569C317.245 332.511 316.635 332.982 315.672 332.982C314.474 332.982 313.778 332.233 313.585 330.735L313.168 328.808C312.975 328.765 312.783 328.733 312.59 328.712C312.398 328.691 312.205 328.68 312.012 328.68C311.242 328.68 310.525 328.905 309.861 329.354C309.219 329.782 308.695 330.456 308.288 331.377C307.881 332.297 307.678 333.463 307.678 334.876C307.678 336.824 308.117 338.311 308.994 339.339C309.893 340.366 311.06 340.88 312.494 340.88C313.35 340.88 314.121 340.687 314.805 340.302C315.49 339.917 316.068 339.392 316.539 338.729L317.502 339.435C316.967 340.741 316.165 341.736 315.094 342.421C314.046 343.084 312.761 343.416 311.242 343.416ZM327.201 328.68C326.687 328.68 326.174 328.851 325.66 329.193C325.168 329.515 324.74 330.05 324.376 330.799C324.033 331.548 323.819 332.564 323.734 333.849H328.132C328.902 333.849 329.416 333.688 329.673 333.367C329.93 333.046 330.058 332.597 330.058 332.019C330.058 331.034 329.78 330.232 329.224 329.611C328.667 328.99 327.993 328.68 327.201 328.68ZM327.201 343.416C325.703 343.416 324.386 343.095 323.252 342.453C322.118 341.811 321.229 340.89 320.587 339.692C319.945 338.472 319.624 337.027 319.624 335.358C319.624 333.645 319.988 332.179 320.716 330.959C321.465 329.718 322.428 328.776 323.605 328.134C324.804 327.471 326.077 327.139 327.426 327.139C328.688 327.139 329.791 327.406 330.732 327.941C331.674 328.476 332.402 329.226 332.916 330.189C333.451 331.152 333.718 332.286 333.718 333.592C333.718 334.277 333.654 334.865 333.526 335.358H323.701C323.787 337.198 324.269 338.579 325.146 339.499C326.045 340.419 327.169 340.88 328.517 340.88C329.459 340.88 330.251 340.698 330.893 340.334C331.556 339.949 332.156 339.456 332.691 338.857L333.622 339.692C333.001 340.869 332.145 341.789 331.053 342.453C329.983 343.095 328.699 343.416 327.201 343.416ZM204.453 363.19V361.681H220.73L220.954 367.299H218.707L218.033 363.382H211.419C211.398 364.731 211.376 366.079 211.355 367.428C211.355 368.755 211.355 370.007 211.355 371.184H215.689L216.107 368.391H217.744V375.968H216.107L215.657 372.886H211.355C211.355 374.405 211.355 375.839 211.355 377.188C211.376 378.515 211.398 379.831 211.419 381.136L214.341 381.458V382.966H204.453V381.458L207.149 381.169C207.192 379.842 207.214 378.493 207.214 377.123C207.214 375.754 207.214 374.384 207.214 373.014V371.633C207.214 370.285 207.214 368.937 207.214 367.588C207.214 366.218 207.192 364.849 207.149 363.479L204.453 363.19ZM229.213 383.416C227.757 383.416 226.441 383.095 225.264 382.453C224.108 381.811 223.188 380.88 222.503 379.66C221.818 378.44 221.475 376.984 221.475 375.293C221.475 373.581 221.829 372.115 222.535 370.895C223.263 369.675 224.215 368.744 225.392 368.102C226.569 367.46 227.843 367.139 229.213 367.139C230.582 367.139 231.856 367.46 233.033 368.102C234.21 368.744 235.163 369.675 235.89 370.895C236.618 372.094 236.982 373.56 236.982 375.293C236.982 377.006 236.629 378.472 235.923 379.692C235.238 380.89 234.307 381.811 233.129 382.453C231.974 383.095 230.668 383.416 229.213 383.416ZM229.213 381.843C230.368 381.843 231.246 381.308 231.845 380.238C232.466 379.167 232.776 377.53 232.776 375.326C232.776 370.916 231.588 368.712 229.213 368.712C226.858 368.712 225.681 370.916 225.681 375.326C225.681 377.53 225.981 379.167 226.58 380.238C227.179 381.308 228.057 381.843 229.213 381.843ZM239.282 382.966V381.65L241.337 381.265C241.358 380.452 241.369 379.585 241.369 378.664C241.369 377.723 241.369 376.909 241.369 376.224V374.523C241.369 373.645 241.358 372.95 241.337 372.436C241.337 371.901 241.315 371.312 241.273 370.67L239.025 370.381V369.161L244.387 367.139L244.9 367.46L245.221 371.248C245.714 369.921 246.377 368.905 247.212 368.198C248.047 367.492 248.881 367.139 249.716 367.139C250.294 367.139 250.818 367.289 251.289 367.588C251.782 367.888 252.103 368.316 252.252 368.872C252.231 369.664 252.038 370.285 251.675 370.735C251.311 371.163 250.808 371.377 250.166 371.377C249.395 371.377 248.667 370.991 247.982 370.221L247.694 369.9C246.559 370.842 245.746 372.169 245.254 373.881V376.224C245.254 376.888 245.254 377.68 245.254 378.6C245.254 379.499 245.264 380.345 245.286 381.136L247.918 381.65V382.966H239.282ZM260.718 368.68C260.204 368.68 259.691 368.851 259.177 369.193C258.685 369.515 258.257 370.05 257.893 370.799C257.55 371.548 257.336 372.564 257.251 373.849H261.649C262.42 373.849 262.933 373.688 263.19 373.367C263.447 373.046 263.575 372.597 263.575 372.019C263.575 371.034 263.297 370.232 262.741 369.611C262.184 368.99 261.51 368.68 260.718 368.68ZM260.718 383.416C259.22 383.416 257.904 383.095 256.769 382.453C255.635 381.811 254.747 380.89 254.104 379.692C253.462 378.472 253.141 377.027 253.141 375.358C253.141 373.645 253.505 372.179 254.233 370.959C254.982 369.718 255.945 368.776 257.122 368.134C258.321 367.471 259.594 367.139 260.943 367.139C262.206 367.139 263.308 367.406 264.25 367.941C265.191 368.476 265.919 369.226 266.433 370.189C266.968 371.152 267.235 372.286 267.235 373.592C267.235 374.277 267.171 374.865 267.043 375.358H257.219C257.304 377.198 257.786 378.579 258.663 379.499C259.562 380.419 260.686 380.88 262.034 380.88C262.976 380.88 263.768 380.698 264.41 380.334C265.074 379.949 265.673 379.456 266.208 378.857L267.139 379.692C266.518 380.869 265.662 381.789 264.571 382.453C263.501 383.095 262.216 383.416 260.718 383.416ZM274.961 383.416C273.977 383.416 273.067 383.298 272.232 383.063C271.419 382.849 270.606 382.517 269.792 382.068L269.76 378.343H271.911L272.489 381.329C273.26 381.65 274.095 381.811 274.993 381.811C276.085 381.811 276.898 381.618 277.433 381.233C277.969 380.848 278.236 380.312 278.236 379.628C278.236 379.028 278.022 378.547 277.594 378.183C277.166 377.798 276.438 377.434 275.411 377.091L273.806 376.546C272.607 376.16 271.655 375.593 270.948 374.844C270.263 374.095 269.921 373.153 269.921 372.019C269.921 371.12 270.156 370.306 270.627 369.579C271.098 368.83 271.783 368.241 272.682 367.813C273.602 367.364 274.715 367.139 276.021 367.139C276.941 367.139 277.776 367.256 278.525 367.492C279.296 367.706 280.055 368.027 280.804 368.455L280.644 371.826H278.525L277.947 369.129C277.348 368.872 276.684 368.744 275.957 368.744C275.1 368.744 274.437 368.926 273.966 369.29C273.495 369.654 273.26 370.146 273.26 370.767C273.26 371.345 273.452 371.815 273.838 372.179C274.244 372.522 274.993 372.875 276.085 373.239L277.369 373.624C278.932 374.159 280.045 374.823 280.708 375.614C281.372 376.406 281.703 377.359 281.703 378.472C281.703 379.906 281.115 381.094 279.938 382.035C278.782 382.956 277.123 383.416 274.961 383.416ZM283.769 382.966V381.65L285.888 381.233C285.909 380.441 285.92 379.585 285.92 378.664C285.92 377.723 285.92 376.909 285.92 376.224V374.716C285.92 373.838 285.909 373.11 285.888 372.532C285.888 371.933 285.866 371.312 285.824 370.67L283.544 370.381V369.161L289.323 367.139L289.837 367.46L289.74 371.987V376.224C289.74 376.909 289.74 377.723 289.74 378.664C289.74 379.585 289.751 380.452 289.773 381.265L291.731 381.65V382.966H283.769ZM287.814 364.153C287.129 364.153 286.551 363.939 286.08 363.511C285.61 363.083 285.374 362.537 285.374 361.874C285.374 361.189 285.61 360.632 286.08 360.204C286.551 359.776 287.129 359.562 287.814 359.562C288.499 359.562 289.066 359.776 289.516 360.204C289.987 360.632 290.222 361.189 290.222 361.874C290.222 362.537 289.987 363.083 289.516 363.511C289.066 363.939 288.499 364.153 287.814 364.153ZM300.323 376.16C301.222 376.16 301.907 375.807 302.378 375.101C302.849 374.394 303.084 373.453 303.084 372.276C303.084 371.141 302.849 370.242 302.378 369.579C301.929 368.894 301.276 368.551 300.42 368.551C299.564 368.551 298.889 368.905 298.397 369.611C297.926 370.296 297.691 371.216 297.691 372.372C297.691 373.528 297.916 374.448 298.365 375.133C298.815 375.818 299.467 376.16 300.323 376.16ZM296.278 385.952C296.278 386.937 296.642 387.654 297.37 388.103C298.098 388.553 299.136 388.777 300.484 388.777C302.175 388.777 303.448 388.499 304.304 387.943C305.182 387.386 305.621 386.712 305.621 385.92C305.621 385.321 305.407 384.807 304.979 384.379C304.572 383.951 303.855 383.737 302.828 383.737H299.264C298.472 383.737 297.766 383.673 297.145 383.544C296.567 384.315 296.278 385.118 296.278 385.952ZM300.388 377.573C299.425 377.573 298.536 377.455 297.723 377.22C297.316 377.776 297.113 378.365 297.113 378.985C297.113 379.392 297.241 379.713 297.498 379.949C297.776 380.184 298.269 380.302 298.975 380.302H302.988C305.086 380.302 306.584 380.698 307.483 381.49C308.382 382.282 308.831 383.352 308.831 384.7C308.831 385.706 308.5 386.648 307.836 387.525C307.194 388.403 306.231 389.109 304.947 389.644C303.684 390.179 302.1 390.447 300.195 390.447C298.547 390.447 297.22 390.276 296.214 389.933C295.229 389.591 294.512 389.131 294.063 388.553C293.635 387.975 293.421 387.333 293.421 386.626C293.421 385.942 293.646 385.31 294.095 384.732C294.545 384.176 295.283 383.651 296.31 383.159C295.647 382.924 295.155 382.592 294.834 382.164C294.512 381.714 294.352 381.201 294.352 380.623C294.352 380.002 294.534 379.392 294.898 378.793C295.283 378.172 295.872 377.498 296.664 376.77C294.973 375.914 294.127 374.448 294.127 372.372C294.127 370.788 294.684 369.525 295.797 368.583C296.91 367.62 298.44 367.139 300.388 367.139C302.335 367.139 303.855 367.588 304.947 368.487L308.574 367.107L309.056 367.428V369.675H305.942C306.391 370.403 306.616 371.302 306.616 372.372C306.616 373.934 306.07 375.197 304.979 376.16C303.887 377.102 302.357 377.573 300.388 377.573ZM310.353 382.966V381.65L312.472 381.233C312.494 380.441 312.505 379.585 312.505 378.664C312.505 377.723 312.505 376.909 312.505 376.224V362.451L310.161 362.13V360.878L315.908 359.434L316.389 359.723L316.261 364.249V369.996C317.909 368.091 319.739 367.139 321.751 367.139C323.142 367.139 324.223 367.599 324.993 368.519C325.764 369.44 326.149 370.895 326.149 372.886V376.224C326.149 376.952 326.149 377.776 326.149 378.697C326.149 379.617 326.16 380.473 326.181 381.265L328.14 381.65V382.966H320.21V381.65L322.264 381.233C322.286 380.441 322.297 379.595 322.297 378.697C322.297 377.776 322.297 376.952 322.297 376.224V373.174C322.297 371.912 322.125 371.045 321.783 370.574C321.462 370.082 320.895 369.836 320.081 369.836C318.883 369.836 317.641 370.446 316.357 371.666V376.224C316.357 376.931 316.357 377.744 316.357 378.664C316.357 379.585 316.368 380.452 316.389 381.265L318.283 381.65V382.966H310.353ZM335.604 383.416C334.32 383.416 333.314 383.095 332.586 382.453C331.858 381.811 331.494 380.783 331.494 379.371C331.494 378.878 331.494 378.418 331.494 377.99C331.516 377.541 331.526 377.006 331.526 376.385V369.547H329.151V367.877L331.751 367.556L332.971 363.158H335.572L335.443 367.588H339.296V369.547H335.411V379.018C335.411 379.809 335.561 380.387 335.861 380.751C336.182 381.115 336.599 381.297 337.113 381.297C337.691 381.297 338.343 381.029 339.071 380.494L339.842 381.297C339.435 381.961 338.878 382.485 338.172 382.87C337.466 383.234 336.61 383.416 335.604 383.416Z" fill="#BFD4EC"/>
<path d="M269.274 210.068V199.763L270.989 210.068H271.868L273.583 199.763V210.068H275.342V195.475H272.88L271.429 202.738L269.978 195.475H267.559V210.068H269.274Z" fill="white"/>
</svg>
