<svg width="538" height="480" viewBox="0 0 538 480" fill="none" xmlns="http://www.w3.org/2000/svg">
<path opacity="0.5" d="M252.948 188.738C252.948 188.738 260.731 188.251 269 188.251C277.27 188.251 285.053 188.738 285.053 188.738L278.243 206.736L269 223.275L259.758 206.736L252.948 188.738Z" fill="#758EA9"/>
<g style="mix-blend-mode:multiply">
<rect width="291.863" height="291.863" rx="145.931" fill="#e1ecf291"/>
<path d="M93.6503 133.743C94.9345 133.743 95.9725 133.305 96.7645 132.427C97.5564 131.55 98.1343 130.394 98.4981 128.96C98.8834 127.526 99.076 125.963 99.076 124.272C99.076 122.582 98.8834 121.019 98.4981 119.585C98.1343 118.151 97.5564 116.995 96.7645 116.118C95.9725 115.24 94.9345 114.802 93.6503 114.802C92.3661 114.802 91.3173 115.24 90.504 116.118C89.6907 116.995 89.0914 118.151 88.7061 119.585C88.3423 121.019 88.1603 122.582 88.1603 124.272C88.1603 125.963 88.3423 127.526 88.7061 128.96C89.0914 130.394 89.6907 131.55 90.504 132.427C91.3173 133.305 92.3661 133.743 93.6503 133.743ZM98.2413 141.705C96.8501 141.705 95.6515 141.416 94.6455 140.839C93.661 140.282 92.9012 139.512 92.3661 138.527C91.831 137.542 91.5314 136.451 91.4672 135.252C90.0545 134.931 88.7489 134.311 87.5504 133.39C86.3732 132.47 85.4207 131.25 84.693 129.73C83.9867 128.211 83.6336 126.391 83.6336 124.272C83.6336 122.475 83.9118 120.88 84.4683 119.489C85.0248 118.098 85.7739 116.931 86.7156 115.989C87.6574 115.026 88.7275 114.309 89.9261 113.838C91.1247 113.346 92.3661 113.1 93.6503 113.1C94.9345 113.1 96.1652 113.335 97.3423 113.806C98.5409 114.277 99.6111 114.983 100.553 115.925C101.495 116.846 102.244 118.012 102.8 119.425C103.357 120.816 103.635 122.432 103.635 124.272C103.635 126.391 103.26 128.232 102.511 129.794C101.762 131.336 100.767 132.577 99.5255 133.519C98.3055 134.439 96.9571 135.038 95.4803 135.317C95.5231 136.686 95.8976 137.746 96.6039 138.495C97.3316 139.244 98.2948 139.619 99.4934 139.619C99.8144 139.619 100.178 139.586 100.585 139.522C101.013 139.479 101.462 139.383 101.933 139.233L102.447 140.678C101.912 141.021 101.27 141.277 100.521 141.449C99.7716 141.62 99.0118 141.705 98.2413 141.705ZM117.668 135.22L117.411 132.395C115.849 134.385 114.029 135.381 111.953 135.381C110.626 135.381 109.556 134.953 108.743 134.097C107.951 133.219 107.566 131.721 107.587 129.602L107.715 121.672L105.629 121.222V119.97L111.247 119.296L111.632 119.649L111.472 124.144V129.473C111.472 130.672 111.654 131.517 112.018 132.01C112.403 132.481 112.949 132.716 113.655 132.716C114.254 132.716 114.864 132.545 115.485 132.202C116.127 131.86 116.737 131.421 117.315 130.886L117.411 121.672L115.389 121.222V120.035L120.878 119.296L121.296 119.649L121.2 124.144V133.198L123.158 133.615V134.931L117.668 135.22ZM137.34 135.317C136.483 135.317 135.788 135.103 135.253 134.674C134.718 134.246 134.354 133.658 134.161 132.909C133.369 133.722 132.652 134.343 132.01 134.771C131.368 135.177 130.533 135.381 129.506 135.381C128.307 135.381 127.291 135.038 126.456 134.353C125.643 133.647 125.236 132.641 125.236 131.336C125.236 130.651 125.396 130.019 125.718 129.441C126.039 128.842 126.606 128.286 127.419 127.772C128.254 127.258 129.442 126.755 130.983 126.263C131.411 126.113 131.892 125.963 132.427 125.813C132.963 125.664 133.508 125.514 134.065 125.364V124.465C134.065 122.967 133.851 121.961 133.423 121.447C133.016 120.912 132.288 120.645 131.24 120.645C131.047 120.645 130.833 120.655 130.597 120.677C130.383 120.698 130.159 120.73 129.923 120.773L129.538 122.539C129.452 123.309 129.228 123.876 128.864 124.24C128.5 124.604 128.05 124.786 127.515 124.786C126.488 124.786 125.889 124.305 125.718 123.341C125.91 122.057 126.595 121.03 127.772 120.259C128.971 119.489 130.544 119.104 132.492 119.104C134.354 119.104 135.713 119.553 136.569 120.452C137.425 121.33 137.853 122.817 137.853 124.915V131.913C137.853 132.877 138.164 133.358 138.784 133.358C139.191 133.358 139.565 133.123 139.908 132.652L140.646 133.294C140.261 134.022 139.801 134.546 139.266 134.867C138.752 135.167 138.11 135.317 137.34 135.317ZM128.992 130.661C128.992 131.496 129.206 132.106 129.634 132.491C130.084 132.855 130.63 133.037 131.272 133.037C131.636 133.037 131.999 132.951 132.363 132.78C132.727 132.609 133.294 132.256 134.065 131.721V126.648C133.615 126.798 133.187 126.937 132.781 127.066C132.395 127.194 132.064 127.312 131.785 127.419C130.715 127.847 129.977 128.339 129.57 128.896C129.185 129.452 128.992 130.041 128.992 130.661ZM141.693 134.931V133.615L143.78 133.198C143.801 132.406 143.812 131.55 143.812 130.629C143.812 129.687 143.812 128.874 143.812 128.189V126.488C143.812 125.61 143.801 124.915 143.78 124.401C143.78 123.866 143.758 123.277 143.716 122.635L141.468 122.346V121.126L146.83 119.104L147.343 119.425L147.568 121.897C149.216 120.035 151.036 119.104 153.026 119.104C154.417 119.104 155.487 119.564 156.236 120.484C157.007 121.404 157.392 122.86 157.392 124.85V128.189C157.392 128.917 157.392 129.741 157.392 130.661C157.392 131.582 157.403 132.438 157.424 133.23L159.383 133.615V134.931H151.453V133.615L153.508 133.198C153.529 132.406 153.54 131.56 153.54 130.661C153.54 129.741 153.54 128.917 153.54 128.189V125.139C153.54 123.876 153.368 123.01 153.026 122.539C152.684 122.047 152.106 121.8 151.292 121.8C150.158 121.8 148.959 122.325 147.697 123.374V128.189C147.697 128.896 147.697 129.709 147.697 130.629C147.697 131.55 147.707 132.416 147.729 133.23L149.623 133.615V134.931H141.693ZM166.845 135.381C165.561 135.381 164.555 135.06 163.828 134.418C163.1 133.775 162.736 132.748 162.736 131.336C162.736 130.843 162.736 130.383 162.736 129.955C162.757 129.506 162.768 128.97 162.768 128.35V121.511H160.392V119.842L162.993 119.521L164.213 115.123H166.813L166.685 119.553H170.537V121.511H166.653V130.982C166.653 131.774 166.803 132.352 167.102 132.716C167.423 133.08 167.841 133.262 168.354 133.262C168.932 133.262 169.585 132.994 170.313 132.459L171.083 133.262C170.677 133.925 170.12 134.45 169.414 134.835C168.707 135.199 167.851 135.381 166.845 135.381ZM172.041 134.931V133.615L174.16 133.198C174.181 132.406 174.192 131.55 174.192 130.629C174.192 129.687 174.192 128.874 174.192 128.189V126.68C174.192 125.803 174.181 125.075 174.16 124.497C174.16 123.898 174.138 123.277 174.095 122.635L171.816 122.346V121.126L177.595 119.104L178.108 119.425L178.012 123.951V128.189C178.012 128.874 178.012 129.687 178.012 130.629C178.012 131.55 178.023 132.416 178.044 133.23L180.003 133.615V134.931H172.041ZM176.086 116.118C175.401 116.118 174.823 115.904 174.352 115.476C173.881 115.048 173.646 114.502 173.646 113.838C173.646 113.153 173.881 112.597 174.352 112.169C174.823 111.741 175.401 111.527 176.086 111.527C176.771 111.527 177.338 111.741 177.787 112.169C178.258 112.597 178.494 113.153 178.494 113.838C178.494 114.502 178.258 115.048 177.787 115.476C177.338 115.904 176.771 116.118 176.086 116.118ZM181.917 134.931V133.615L184.068 133.198C184.09 132.363 184.101 131.528 184.101 130.693C184.122 129.859 184.133 129.024 184.133 128.189V121.511H181.757V119.842L184.229 119.521C184.4 117.937 184.657 116.664 184.999 115.7C185.363 114.716 185.92 113.849 186.669 113.1C187.397 112.372 188.189 111.859 189.045 111.559C189.922 111.238 190.768 111.077 191.581 111.077C192.416 111.077 193.154 111.227 193.796 111.527C194.46 111.826 194.877 112.351 195.048 113.1C195.027 113.592 194.824 114.01 194.438 114.352C194.074 114.694 193.571 114.866 192.929 114.866C192.009 114.866 191.142 114.331 190.329 113.26L189.751 112.683C189.687 112.725 189.612 112.79 189.526 112.875C188.948 113.453 188.531 114.266 188.274 115.315C188.017 116.364 187.91 117.777 187.953 119.553H191.902V121.511H188.017V128.189C188.017 129.003 188.017 129.827 188.017 130.661C188.039 131.475 188.06 132.299 188.082 133.133L190.778 133.615V134.931H181.917ZM203.303 120.837V119.553H209.467V120.837L207.669 121.19L202.179 135.509C201.259 137.971 200.328 139.79 199.386 140.967C198.444 142.144 197.278 142.733 195.887 142.733C195.052 142.733 194.324 142.519 193.704 142.091C193.104 141.663 192.783 141.128 192.74 140.485C192.869 139.908 193.158 139.469 193.607 139.169C194.078 138.891 194.592 138.752 195.148 138.752C195.576 138.752 195.994 138.837 196.4 139.009C196.829 139.201 197.257 139.565 197.685 140.1L197.877 140.357C198.455 139.801 198.958 139.158 199.386 138.431C199.814 137.724 200.167 136.965 200.446 136.151L200.51 135.959L194.41 121.094L192.773 120.837V119.553H201.184V120.837L198.648 121.19L202.244 131.014L205.743 121.222L203.303 120.837ZM124.46 155.283H122.405C122.384 156.653 122.362 158.023 122.341 159.393C122.341 160.762 122.341 162.132 122.341 163.502H124.203C125.872 163.502 127.06 163.095 127.767 162.282C128.494 161.469 128.858 160.473 128.858 159.296C128.858 156.621 127.392 155.283 124.46 155.283ZM115.47 155.155V153.646H125.134C127.638 153.646 129.564 154.127 130.913 155.09C132.283 156.054 132.968 157.391 132.968 159.104C132.968 159.874 132.775 160.623 132.39 161.351C132.026 162.079 131.437 162.71 130.624 163.245C129.811 163.78 128.74 164.155 127.413 164.369C128.762 164.583 129.757 165.054 130.399 165.781C131.063 166.509 131.544 167.569 131.844 168.96L132.839 173.166L135.311 173.422V174.931C134.776 175.081 134.305 175.177 133.899 175.22C133.513 175.284 133.01 175.317 132.39 175.317C131.213 175.317 130.292 175.124 129.629 174.739C128.987 174.353 128.58 173.668 128.409 172.684L127.478 168.221C127.242 167.023 126.836 166.209 126.258 165.781C125.701 165.332 124.856 165.107 123.721 165.107H122.341C122.341 166.541 122.341 167.922 122.341 169.249C122.362 170.554 122.384 171.849 122.405 173.133L125.134 173.422V174.931H115.47V173.422L118.167 173.133C118.21 171.806 118.231 170.458 118.231 169.088C118.231 167.718 118.231 166.349 118.231 164.979V163.598C118.231 162.25 118.231 160.901 118.231 159.553C118.231 158.183 118.21 156.813 118.167 155.444L115.47 155.155ZM136.628 174.931V173.615L138.747 173.198C138.768 172.406 138.779 171.55 138.779 170.629C138.779 169.687 138.779 168.874 138.779 168.189V166.68C138.779 165.803 138.768 165.075 138.747 164.497C138.747 163.898 138.726 163.277 138.683 162.635L136.403 162.346V161.126L142.182 159.104L142.696 159.425L142.6 163.951V168.189C142.6 168.874 142.6 169.687 142.6 170.629C142.6 171.55 142.61 172.416 142.632 173.23L144.59 173.615V174.931H136.628ZM140.673 156.118C139.988 156.118 139.41 155.904 138.94 155.476C138.469 155.048 138.233 154.502 138.233 153.838C138.233 153.153 138.469 152.597 138.94 152.169C139.41 151.741 139.988 151.527 140.673 151.527C141.358 151.527 141.925 151.741 142.375 152.169C142.846 152.597 143.081 153.153 143.081 153.838C143.081 154.502 142.846 155.048 142.375 155.476C141.925 155.904 141.358 156.118 140.673 156.118ZM151.931 175.381C150.946 175.381 150.036 175.263 149.202 175.028C148.388 174.814 147.575 174.482 146.762 174.032L146.73 170.308H148.881L149.458 173.294C150.229 173.615 151.064 173.775 151.963 173.775C153.054 173.775 153.868 173.583 154.403 173.198C154.938 172.812 155.205 172.277 155.205 171.592C155.205 170.993 154.991 170.512 154.563 170.148C154.135 169.762 153.407 169.399 152.38 169.056L150.775 168.51C149.576 168.125 148.624 167.558 147.917 166.809C147.233 166.06 146.89 165.118 146.89 163.984C146.89 163.085 147.126 162.271 147.596 161.544C148.067 160.794 148.752 160.206 149.651 159.778C150.571 159.328 151.684 159.104 152.99 159.104C153.91 159.104 154.745 159.221 155.494 159.457C156.265 159.671 157.025 159.992 157.774 160.42L157.613 163.791H155.494L154.916 161.094C154.317 160.837 153.654 160.709 152.926 160.709C152.07 160.709 151.406 160.891 150.935 161.255C150.464 161.618 150.229 162.111 150.229 162.731C150.229 163.309 150.422 163.78 150.807 164.144C151.214 164.486 151.963 164.84 153.054 165.203L154.338 165.589C155.901 166.124 157.014 166.787 157.677 167.579C158.341 168.371 158.673 169.324 158.673 170.437C158.673 171.871 158.084 173.058 156.907 174C155.751 174.921 154.092 175.381 151.931 175.381ZM160.107 174.931V173.615L162.29 173.198C162.311 172.384 162.322 171.528 162.322 170.629C162.343 169.73 162.354 168.917 162.354 168.189V154.416L160.01 154.095V152.843L165.853 151.398L166.335 151.687L166.206 156.214V166.777L171.536 161.383L169.128 160.901L169.16 159.553H176.737V160.901L173.815 161.319L170.573 164.465L175.517 173.166L177.604 173.615V174.931H172.178L167.876 167.098L166.206 168.735C166.206 169.463 166.206 170.223 166.206 171.014C166.228 171.785 166.249 172.523 166.271 173.23L168.422 173.615V174.931H160.107Z" fill="#758EA9"/>
</g>
<g style="mix-blend-mode:multiply">
<path d="M246.137 145.931C246.137 65.3357 311.473 0 392.068 0V0C472.664 0 538 65.3357 538 145.931V145.931C538 226.527 472.664 291.863 392.068 291.863V291.863C311.473 291.863 246.137 226.527 246.137 145.931V145.931Z" fill="#e1ecf291"/>
<path d="M335.585 115.155V113.646H345.249V115.155L342.552 115.444C342.53 116.771 342.509 118.119 342.488 119.489C342.488 120.837 342.488 122.207 342.488 123.598V124.979C342.488 126.327 342.488 127.686 342.488 129.056C342.509 130.404 342.53 131.764 342.552 133.133L345.249 133.422V134.931H335.585V133.422L338.282 133.133C338.325 131.806 338.346 130.458 338.346 129.088C338.346 127.718 338.346 126.349 338.346 124.979V123.598C338.346 122.25 338.346 120.901 338.346 119.553C338.346 118.183 338.325 116.813 338.282 115.444L335.585 115.155ZM351.011 127.322C351.011 129.27 351.375 130.726 352.103 131.689C352.852 132.63 353.794 133.101 354.928 133.101C355.485 133.101 355.988 132.994 356.437 132.78C356.908 132.545 357.347 132.213 357.753 131.785V122.571C356.812 121.758 355.881 121.351 354.96 121.351C353.89 121.351 352.959 121.832 352.167 122.796C351.397 123.759 351.011 125.268 351.011 127.322ZM358.139 135.284L357.882 133.262C357.282 133.947 356.619 134.471 355.891 134.835C355.164 135.199 354.329 135.381 353.387 135.381C352.124 135.381 351.001 135.06 350.016 134.418C349.053 133.775 348.293 132.855 347.737 131.657C347.18 130.458 346.902 129.035 346.902 127.387C346.902 125.696 347.212 124.23 347.833 122.988C348.475 121.747 349.32 120.794 350.369 120.131C351.439 119.446 352.606 119.104 353.869 119.104C354.682 119.104 355.41 119.253 356.052 119.553C356.715 119.853 357.336 120.345 357.914 121.03V114.416L355.41 114.095V112.843L361.285 111.398L361.766 111.687L361.638 116.214V133.262L363.725 133.615V134.931L358.139 135.284ZM373.102 120.645C372.588 120.645 372.075 120.816 371.561 121.158C371.069 121.479 370.641 122.014 370.277 122.764C369.934 123.513 369.72 124.529 369.635 125.813H374.033C374.804 125.813 375.317 125.653 375.574 125.332C375.831 125.011 375.959 124.561 375.959 123.984C375.959 122.999 375.681 122.196 375.125 121.576C374.568 120.955 373.894 120.645 373.102 120.645ZM373.102 135.381C371.604 135.381 370.287 135.06 369.153 134.418C368.019 133.775 367.13 132.855 366.488 131.657C365.846 130.437 365.525 128.992 365.525 127.322C365.525 125.61 365.889 124.144 366.617 122.924C367.366 121.683 368.329 120.741 369.506 120.099C370.705 119.435 371.978 119.104 373.327 119.104C374.589 119.104 375.692 119.371 376.633 119.906C377.575 120.441 378.303 121.19 378.817 122.154C379.352 123.117 379.619 124.251 379.619 125.557C379.619 126.242 379.555 126.83 379.427 127.322H369.603C369.688 129.163 370.17 130.544 371.047 131.464C371.946 132.384 373.07 132.844 374.418 132.844C375.36 132.844 376.152 132.663 376.794 132.299C377.458 131.913 378.057 131.421 378.592 130.822L379.523 131.657C378.902 132.834 378.046 133.754 376.955 134.418C375.884 135.06 374.6 135.381 373.102 135.381ZM381.952 134.931V133.615L384.038 133.198C384.06 132.406 384.071 131.55 384.071 130.629C384.071 129.687 384.071 128.874 384.071 128.189V126.488C384.071 125.61 384.06 124.915 384.038 124.401C384.038 123.866 384.017 123.277 383.974 122.635L381.727 122.346V121.126L387.088 119.104L387.602 119.425L387.827 121.897C389.475 120.035 391.294 119.104 393.285 119.104C394.676 119.104 395.746 119.564 396.495 120.484C397.266 121.404 397.651 122.86 397.651 124.85V128.189C397.651 128.917 397.651 129.741 397.651 130.661C397.651 131.582 397.662 132.438 397.683 133.23L399.641 133.615V134.931H391.711V133.615L393.766 133.198C393.788 132.406 393.798 131.56 393.798 130.661C393.798 129.741 393.798 128.917 393.798 128.189V125.139C393.798 123.876 393.627 123.01 393.285 122.539C392.942 122.047 392.364 121.8 391.551 121.8C390.417 121.8 389.218 122.325 387.955 123.374V128.189C387.955 128.896 387.955 129.709 387.955 130.629C387.955 131.55 387.966 132.416 387.987 133.23L389.882 133.615V134.931H381.952ZM407.104 135.381C405.82 135.381 404.814 135.06 404.086 134.418C403.358 133.775 402.995 132.748 402.995 131.336C402.995 130.843 402.995 130.383 402.995 129.955C403.016 129.506 403.027 128.97 403.027 128.35V121.511H400.651V119.842L403.251 119.521L404.471 115.123H407.072L406.944 119.553H410.796V121.511H406.911V130.982C406.911 131.774 407.061 132.352 407.361 132.716C407.682 133.08 408.099 133.262 408.613 133.262C409.191 133.262 409.844 132.994 410.571 132.459L411.342 133.262C410.935 133.925 410.379 134.45 409.672 134.835C408.966 135.199 408.11 135.381 407.104 135.381ZM412.299 134.931V133.615L414.418 133.198C414.44 132.406 414.45 131.55 414.45 130.629C414.45 129.687 414.45 128.874 414.45 128.189V126.68C414.45 125.803 414.44 125.075 414.418 124.497C414.418 123.898 414.397 123.277 414.354 122.635L412.075 122.346V121.126L417.853 119.104L418.367 119.425L418.271 123.951V128.189C418.271 128.874 418.271 129.687 418.271 130.629C418.271 131.55 418.281 132.416 418.303 133.23L420.261 133.615V134.931H412.299ZM416.344 116.118C415.66 116.118 415.082 115.904 414.611 115.476C414.14 115.048 413.904 114.502 413.904 113.838C413.904 113.153 414.14 112.597 414.611 112.169C415.082 111.741 415.66 111.527 416.344 111.527C417.029 111.527 417.597 111.741 418.046 112.169C418.517 112.597 418.752 113.153 418.752 113.838C418.752 114.502 418.517 115.048 418.046 115.476C417.597 115.904 417.029 116.118 416.344 116.118ZM422.176 134.931V133.615L424.327 133.198C424.348 132.363 424.359 131.528 424.359 130.693C424.381 129.859 424.391 129.024 424.391 128.189V121.511H422.015V119.842L424.488 119.521C424.659 117.937 424.916 116.664 425.258 115.7C425.622 114.716 426.178 113.849 426.928 113.1C427.655 112.372 428.447 111.859 429.303 111.559C430.181 111.238 431.026 111.077 431.84 111.077C432.674 111.077 433.413 111.227 434.055 111.527C434.718 111.826 435.136 112.351 435.307 113.1C435.286 113.592 435.082 114.01 434.697 114.352C434.333 114.694 433.83 114.866 433.188 114.866C432.268 114.866 431.401 114.331 430.588 113.26L430.01 112.683C429.945 112.725 429.87 112.79 429.785 112.875C429.207 113.453 428.79 114.266 428.533 115.315C428.276 116.364 428.169 117.777 428.212 119.553H432.161V121.511H428.276V128.189C428.276 129.003 428.276 129.827 428.276 130.661C428.297 131.475 428.319 132.299 428.34 133.133L431.037 133.615V134.931H422.176ZM443.562 120.837V119.553H449.726V120.837L447.928 121.19L442.438 135.509C441.518 137.971 440.587 139.79 439.645 140.967C438.703 142.144 437.537 142.733 436.145 142.733C435.311 142.733 434.583 142.519 433.962 142.091C433.363 141.663 433.042 141.128 432.999 140.485C433.128 139.908 433.416 139.469 433.866 139.169C434.337 138.891 434.851 138.752 435.407 138.752C435.835 138.752 436.252 138.837 436.659 139.009C437.087 139.201 437.515 139.565 437.943 140.1L438.136 140.357C438.714 139.801 439.217 139.158 439.645 138.431C440.073 137.724 440.426 136.965 440.704 136.151L440.769 135.959L434.669 121.094L433.031 120.837V119.553H441.443V120.837L438.906 121.19L442.502 131.014L446.002 121.222L443.562 120.837ZM316.367 159.489L316.56 153.646H334.764L334.924 159.489H332.709L332.035 155.347H327.797C327.775 156.696 327.754 158.066 327.733 159.457C327.733 160.827 327.733 162.207 327.733 163.598V164.979C327.733 166.327 327.733 167.686 327.733 169.056C327.754 170.404 327.775 171.753 327.797 173.101L330.815 173.422V174.931H320.477V173.422L323.495 173.101C323.538 171.774 323.559 170.437 323.559 169.088C323.559 167.718 323.559 166.349 323.559 164.979V163.598C323.559 162.228 323.559 160.859 323.559 159.489C323.559 158.098 323.538 156.717 323.495 155.347H319.289L318.615 159.489H316.367ZM342.114 175.381C340.658 175.381 339.342 175.06 338.165 174.418C337.009 173.775 336.089 172.844 335.404 171.624C334.719 170.404 334.377 168.949 334.377 167.258C334.377 165.546 334.73 164.08 335.436 162.86C336.164 161.64 337.116 160.709 338.293 160.067C339.471 159.425 340.744 159.104 342.114 159.104C343.484 159.104 344.757 159.425 345.934 160.067C347.112 160.709 348.064 161.64 348.792 162.86C349.519 164.058 349.883 165.525 349.883 167.258C349.883 168.97 349.53 170.437 348.824 171.657C348.139 172.855 347.208 173.775 346.031 174.418C344.875 175.06 343.569 175.381 342.114 175.381ZM342.114 173.808C343.27 173.808 344.147 173.273 344.746 172.202C345.367 171.132 345.677 169.495 345.677 167.29C345.677 162.881 344.49 160.677 342.114 160.677C339.759 160.677 338.582 162.881 338.582 167.29C338.582 169.495 338.882 171.132 339.481 172.202C340.081 173.273 340.958 173.808 342.114 173.808ZM351.773 182.412V181.095L353.957 180.678C353.978 179.736 353.989 178.827 353.989 177.949C354.01 177.093 354.021 176.258 354.021 175.445V166.488C354.021 165.61 354.01 164.915 353.989 164.401C353.989 163.866 353.967 163.277 353.924 162.635L351.677 162.346V161.126L357.006 159.104L357.52 159.425L357.681 161.383C359.136 159.863 360.741 159.104 362.496 159.104C363.652 159.104 364.701 159.425 365.643 160.067C366.584 160.687 367.323 161.597 367.858 162.796C368.414 163.994 368.693 165.45 368.693 167.162C368.693 168.853 368.382 170.319 367.762 171.56C367.162 172.78 366.36 173.722 365.354 174.385C364.348 175.049 363.224 175.381 361.983 175.381C361.191 175.381 360.452 175.231 359.768 174.931C359.083 174.632 358.43 174.15 357.809 173.487V175.413C357.809 176.205 357.809 177.029 357.809 177.885C357.831 178.762 357.852 179.672 357.873 180.614L360.378 181.095V182.412H351.773ZM360.988 161.383C360.495 161.383 359.992 161.511 359.479 161.768C358.986 162.025 358.462 162.368 357.905 162.796V171.881C358.804 172.716 359.757 173.133 360.763 173.133C361.833 173.133 362.732 172.673 363.46 171.753C364.209 170.811 364.583 169.345 364.583 167.355C364.583 165.385 364.251 163.898 363.588 162.892C362.924 161.886 362.058 161.383 360.988 161.383ZM377.285 159.489L377.478 153.646H395.681L395.842 159.489H393.627L392.952 155.347H388.715C388.693 156.696 388.672 158.066 388.65 159.457C388.65 160.827 388.65 162.207 388.65 163.598V164.979C388.65 166.327 388.65 167.686 388.65 169.056C388.672 170.404 388.693 171.753 388.715 173.101L391.732 173.422V174.931H381.395V173.422L384.413 173.101C384.455 171.774 384.477 170.437 384.477 169.088C384.477 167.718 384.477 166.349 384.477 164.979V163.598C384.477 162.228 384.477 160.859 384.477 159.489C384.477 158.098 384.455 156.717 384.413 155.347H380.207L379.533 159.489H377.285ZM408.182 175.317C407.326 175.317 406.631 175.103 406.096 174.674C405.561 174.246 405.197 173.658 405.004 172.909C404.212 173.722 403.495 174.343 402.853 174.771C402.211 175.177 401.376 175.381 400.349 175.381C399.15 175.381 398.134 175.038 397.299 174.353C396.486 173.647 396.079 172.641 396.079 171.336C396.079 170.651 396.239 170.019 396.56 169.441C396.882 168.842 397.449 168.286 398.262 167.772C399.097 167.258 400.285 166.755 401.826 166.263C402.254 166.113 402.735 165.963 403.27 165.813C403.805 165.664 404.351 165.514 404.908 165.364V164.465C404.908 162.967 404.694 161.961 404.266 161.447C403.859 160.912 403.131 160.645 402.083 160.645C401.89 160.645 401.676 160.655 401.44 160.677C401.226 160.698 401.002 160.73 400.766 160.773L400.381 162.539C400.295 163.309 400.071 163.876 399.707 164.24C399.343 164.604 398.893 164.786 398.358 164.786C397.331 164.786 396.732 164.305 396.56 163.341C396.753 162.057 397.438 161.03 398.615 160.259C399.814 159.489 401.387 159.104 403.335 159.104C405.197 159.104 406.556 159.553 407.412 160.452C408.268 161.33 408.696 162.817 408.696 164.915V171.913C408.696 172.877 409.006 173.358 409.627 173.358C410.034 173.358 410.408 173.123 410.751 172.652L411.489 173.294C411.104 174.022 410.644 174.546 410.109 174.867C409.595 175.167 408.953 175.317 408.182 175.317ZM399.835 170.661C399.835 171.496 400.049 172.106 400.477 172.491C400.927 172.855 401.473 173.037 402.115 173.037C402.478 173.037 402.842 172.951 403.206 172.78C403.57 172.609 404.137 172.256 404.908 171.721V166.648C404.458 166.798 404.03 166.937 403.624 167.066C403.238 167.194 402.907 167.312 402.628 167.419C401.558 167.847 400.82 168.339 400.413 168.896C400.028 169.452 399.835 170.041 399.835 170.661ZM412.373 174.931V173.615L414.556 173.198C414.578 172.363 414.588 171.528 414.588 170.693C414.61 169.859 414.62 169.024 414.62 168.189V154.416L412.277 154.095V152.843L418.12 151.398L418.601 151.687L418.473 156.214V168.189C418.473 169.024 418.473 169.859 418.473 170.693C418.494 171.528 418.516 172.363 418.537 173.198L420.72 173.615V174.931H412.373ZM430.242 160.645C429.728 160.645 429.214 160.816 428.701 161.158C428.208 161.479 427.78 162.014 427.417 162.764C427.074 163.513 426.86 164.529 426.774 165.813H431.173C431.943 165.813 432.457 165.653 432.714 165.332C432.971 165.011 433.099 164.561 433.099 163.984C433.099 162.999 432.821 162.196 432.264 161.576C431.708 160.955 431.034 160.645 430.242 160.645ZM430.242 175.381C428.744 175.381 427.427 175.06 426.293 174.418C425.158 173.775 424.27 172.855 423.628 171.657C422.986 170.437 422.665 168.992 422.665 167.322C422.665 165.61 423.029 164.144 423.757 162.924C424.506 161.683 425.469 160.741 426.646 160.099C427.845 159.435 429.118 159.104 430.466 159.104C431.729 159.104 432.832 159.371 433.773 159.906C434.715 160.441 435.443 161.19 435.956 162.154C436.491 163.117 436.759 164.251 436.759 165.557C436.759 166.242 436.695 166.83 436.566 167.322H426.742C426.828 169.163 427.309 170.544 428.187 171.464C429.086 172.384 430.21 172.844 431.558 172.844C432.5 172.844 433.292 172.663 433.934 172.299C434.597 171.913 435.197 171.421 435.732 170.822L436.663 171.657C436.042 172.834 435.186 173.754 434.094 174.418C433.024 175.06 431.74 175.381 430.242 175.381ZM439.091 174.931V173.615L441.178 173.198C441.2 172.406 441.21 171.55 441.21 170.629C441.21 169.687 441.21 168.874 441.21 168.189V166.488C441.21 165.61 441.2 164.915 441.178 164.401C441.178 163.866 441.157 163.277 441.114 162.635L438.867 162.346V161.126L444.228 159.104L444.742 159.425L444.967 161.897C446.615 160.035 448.434 159.104 450.424 159.104C451.816 159.104 452.886 159.564 453.635 160.484C454.405 161.404 454.791 162.86 454.791 164.85V168.189C454.791 168.917 454.791 169.741 454.791 170.661C454.791 171.582 454.801 172.438 454.823 173.23L456.781 173.615V174.931H448.851V173.615L450.906 173.198C450.927 172.406 450.938 171.56 450.938 170.661C450.938 169.741 450.938 168.917 450.938 168.189V165.139C450.938 163.876 450.767 163.01 450.424 162.539C450.082 162.047 449.504 161.8 448.691 161.8C447.556 161.8 446.358 162.325 445.095 163.374V168.189C445.095 168.896 445.095 169.709 445.095 170.629C445.095 171.55 445.106 172.416 445.127 173.23L447.021 173.615V174.931H439.091ZM464.244 175.381C462.96 175.381 461.954 175.06 461.226 174.418C460.498 173.775 460.134 172.748 460.134 171.336C460.134 170.843 460.134 170.383 460.134 169.955C460.156 169.506 460.167 168.97 460.167 168.35V161.511H457.791V159.842L460.391 159.521L461.611 155.123H464.212L464.083 159.553H467.936V161.511H464.051V170.982C464.051 171.774 464.201 172.352 464.501 172.716C464.822 173.08 465.239 173.262 465.753 173.262C466.331 173.262 466.983 172.994 467.711 172.459L468.482 173.262C468.075 173.925 467.519 174.45 466.812 174.835C466.106 175.199 465.25 175.381 464.244 175.381Z" fill="#758EA9"/>
</g>
<g style="mix-blend-mode:multiply">
<path d="M123.555 333.696C123.555 253.101 188.891 187.765 269.486 187.765V187.765C350.082 187.765 415.418 253.101 415.418 333.696V333.696C415.418 414.292 350.082 479.627 269.486 479.627V479.627C188.891 479.627 123.555 414.292 123.555 333.696V333.696Z" fill="#e1ecf291"/>
<path d="M207.266 302.92V301.411H223.446L223.671 307.029H221.424L220.75 303.112H214.232C214.211 304.461 214.19 305.809 214.168 307.157C214.168 308.484 214.168 309.737 214.168 310.914H218.31L218.727 308.121H220.397V315.376H218.727L218.342 312.615H214.168C214.168 314.156 214.168 315.612 214.168 316.982C214.19 318.33 214.211 319.668 214.232 320.995H221.392L222.066 317.078H224.313L224.089 322.696H207.266V321.187L209.962 320.898C210.005 319.571 210.027 318.223 210.027 316.853C210.027 315.483 210.027 314.113 210.027 312.744V311.363C210.027 310.015 210.027 308.666 210.027 307.318C210.027 305.948 210.005 304.578 209.962 303.209L207.266 302.92ZM226.324 322.696V321.38L228.411 320.963C228.432 320.171 228.443 319.314 228.443 318.394C228.443 317.452 228.443 316.639 228.443 315.954V314.253C228.443 313.375 228.432 312.679 228.411 312.166C228.411 311.631 228.39 311.042 228.347 310.4L226.099 310.111V308.891L231.461 306.868L231.975 307.19L232.199 309.662C233.847 307.8 235.667 306.868 237.657 306.868C239.048 306.868 240.119 307.329 240.868 308.249C241.638 309.169 242.023 310.625 242.023 312.615V315.954C242.023 316.682 242.023 317.506 242.023 318.426C242.023 319.347 242.034 320.203 242.056 320.995L244.014 321.38V322.696H236.084V321.38L238.139 320.963C238.16 320.171 238.171 319.325 238.171 318.426C238.171 317.506 238.171 316.682 238.171 315.954V312.904C238.171 311.641 238 310.775 237.657 310.304C237.315 309.811 236.737 309.565 235.923 309.565C234.789 309.565 233.591 310.09 232.328 311.138V315.954C232.328 316.66 232.328 317.474 232.328 318.394C232.328 319.314 232.338 320.181 232.36 320.995L234.254 321.38V322.696H226.324ZM245.79 322.696V321.38L247.909 320.963C247.931 320.171 247.941 319.314 247.941 318.394C247.941 317.452 247.941 316.639 247.941 315.954V302.181L245.598 301.86V300.608L251.344 299.163L251.826 299.452L251.698 303.979V309.726C253.346 307.821 255.176 306.868 257.187 306.868C258.579 306.868 259.66 307.329 260.43 308.249C261.201 309.169 261.586 310.625 261.586 312.615V315.954C261.586 316.682 261.586 317.506 261.586 318.426C261.586 319.347 261.597 320.203 261.618 320.995L263.576 321.38V322.696H255.646V321.38L257.701 320.963C257.723 320.171 257.733 319.325 257.733 318.426C257.733 317.506 257.733 316.682 257.733 315.954V312.904C257.733 311.641 257.562 310.775 257.22 310.304C256.899 309.811 256.331 309.565 255.518 309.565C254.319 309.565 253.078 310.175 251.794 311.395V315.954C251.794 316.66 251.794 317.474 251.794 318.394C251.794 319.314 251.805 320.181 251.826 320.995L253.72 321.38V322.696H245.79ZM277.621 323.081C276.765 323.081 276.069 322.867 275.534 322.439C274.999 322.011 274.635 321.423 274.443 320.674C273.651 321.487 272.934 322.108 272.292 322.536C271.65 322.942 270.815 323.146 269.788 323.146C268.589 323.146 267.572 322.803 266.738 322.118C265.924 321.412 265.518 320.406 265.518 319.1C265.518 318.416 265.678 317.784 265.999 317.206C266.32 316.607 266.887 316.05 267.701 315.537C268.536 315.023 269.723 314.52 271.264 314.028C271.693 313.878 272.174 313.728 272.709 313.578C273.244 313.429 273.79 313.279 274.347 313.129V312.23C274.347 310.732 274.132 309.726 273.704 309.212C273.298 308.677 272.57 308.41 271.521 308.41C271.329 308.41 271.115 308.42 270.879 308.442C270.665 308.463 270.44 308.495 270.205 308.538L269.82 310.304C269.734 311.074 269.509 311.641 269.146 312.005C268.782 312.369 268.332 312.551 267.797 312.551C266.77 312.551 266.17 312.069 265.999 311.106C266.192 309.822 266.877 308.795 268.054 308.024C269.253 307.254 270.826 306.868 272.773 306.868C274.635 306.868 275.995 307.318 276.851 308.217C277.707 309.094 278.135 310.582 278.135 312.679V319.678C278.135 320.641 278.445 321.123 279.066 321.123C279.473 321.123 279.847 320.888 280.19 320.417L280.928 321.059C280.543 321.787 280.083 322.311 279.548 322.632C279.034 322.932 278.392 323.081 277.621 323.081ZM269.274 318.426C269.274 319.261 269.488 319.871 269.916 320.256C270.366 320.62 270.911 320.802 271.553 320.802C271.917 320.802 272.281 320.716 272.645 320.545C273.009 320.374 273.576 320.021 274.347 319.486V314.413C273.897 314.563 273.469 314.702 273.062 314.83C272.677 314.959 272.345 315.077 272.067 315.184C270.997 315.612 270.258 316.104 269.852 316.66C269.467 317.217 269.274 317.806 269.274 318.426ZM281.975 322.696V321.38L284.062 320.963C284.083 320.171 284.094 319.314 284.094 318.394C284.094 317.452 284.094 316.639 284.094 315.954V314.253C284.094 313.375 284.083 312.679 284.062 312.166C284.062 311.631 284.04 311.042 283.997 310.4L281.75 310.111V308.891L287.111 306.868L287.625 307.19L287.85 309.662C289.498 307.8 291.317 306.868 293.308 306.868C294.699 306.868 295.769 307.329 296.518 308.249C297.289 309.169 297.674 310.625 297.674 312.615V315.954C297.674 316.682 297.674 317.506 297.674 318.426C297.674 319.347 297.685 320.203 297.706 320.995L299.664 321.38V322.696H291.735V321.38L293.789 320.963C293.811 320.171 293.821 319.325 293.821 318.426C293.821 317.506 293.821 316.682 293.821 315.954V312.904C293.821 311.641 293.65 310.775 293.308 310.304C292.965 309.811 292.387 309.565 291.574 309.565C290.44 309.565 289.241 310.09 287.978 311.138V315.954C287.978 316.66 287.978 317.474 287.978 318.394C287.978 319.314 287.989 320.181 288.01 320.995L289.905 321.38V322.696H281.975ZM309.242 323.146C307.787 323.146 306.481 322.835 305.325 322.215C304.17 321.573 303.26 320.652 302.597 319.454C301.954 318.234 301.633 316.767 301.633 315.055C301.633 313.322 301.997 311.845 302.725 310.625C303.474 309.405 304.459 308.474 305.679 307.832C306.899 307.19 308.226 306.868 309.66 306.868C310.708 306.868 311.65 307.072 312.485 307.478C313.341 307.864 314.026 308.388 314.54 309.052C315.075 309.715 315.396 310.464 315.503 311.299C315.246 312.241 314.636 312.712 313.673 312.712C312.474 312.712 311.779 311.962 311.586 310.464L311.169 308.538C310.976 308.495 310.783 308.463 310.591 308.442C310.398 308.42 310.205 308.41 310.013 308.41C309.242 308.41 308.525 308.634 307.862 309.084C307.22 309.512 306.695 310.186 306.289 311.106C305.882 312.027 305.679 313.193 305.679 314.606C305.679 316.553 306.117 318.041 306.995 319.068C307.894 320.096 309.06 320.609 310.494 320.609C311.35 320.609 312.121 320.417 312.806 320.031C313.491 319.646 314.069 319.122 314.54 318.458L315.503 319.165C314.968 320.47 314.165 321.465 313.095 322.15C312.046 322.814 310.762 323.146 309.242 323.146ZM325.201 308.41C324.688 308.41 324.174 308.581 323.66 308.923C323.168 309.244 322.74 309.779 322.376 310.528C322.034 311.278 321.82 312.294 321.734 313.578H326.132C326.903 313.578 327.417 313.418 327.673 313.097C327.93 312.776 328.059 312.326 328.059 311.748C328.059 310.764 327.78 309.961 327.224 309.341C326.668 308.72 325.993 308.41 325.201 308.41ZM325.201 323.146C323.703 323.146 322.387 322.825 321.252 322.183C320.118 321.54 319.23 320.62 318.588 319.421C317.946 318.201 317.625 316.757 317.625 315.087C317.625 313.375 317.988 311.909 318.716 310.689C319.465 309.448 320.428 308.506 321.606 307.864C322.804 307.2 324.078 306.868 325.426 306.868C326.689 306.868 327.791 307.136 328.733 307.671C329.675 308.206 330.402 308.955 330.916 309.918C331.451 310.882 331.719 312.016 331.719 313.322C331.719 314.006 331.654 314.595 331.526 315.087H321.702C321.788 316.928 322.269 318.309 323.147 319.229C324.046 320.149 325.169 320.609 326.518 320.609C327.459 320.609 328.251 320.427 328.893 320.064C329.557 319.678 330.156 319.186 330.691 318.587L331.622 319.421C331.002 320.599 330.146 321.519 329.054 322.183C327.984 322.825 326.7 323.146 325.201 323.146ZM202.453 342.92V341.411H218.73L218.955 347.029H216.708L216.033 343.112H209.42C209.398 344.461 209.377 345.809 209.356 347.157C209.356 348.484 209.356 349.737 209.356 350.914H213.69L214.107 348.121H215.744V355.697H214.107L213.658 352.615H209.356C209.356 354.135 209.356 355.569 209.356 356.917C209.377 358.244 209.398 359.561 209.42 360.866L212.341 361.187V362.696H202.453V361.187L205.15 360.898C205.193 359.571 205.214 358.223 205.214 356.853C205.214 355.483 205.214 354.113 205.214 352.744V351.363C205.214 350.015 205.214 348.666 205.214 347.318C205.214 345.948 205.193 344.578 205.15 343.209L202.453 342.92ZM227.213 363.146C225.758 363.146 224.441 362.825 223.264 362.183C222.108 361.54 221.188 360.609 220.503 359.389C219.818 358.169 219.476 356.714 219.476 355.023C219.476 353.311 219.829 351.845 220.535 350.625C221.263 349.405 222.215 348.474 223.393 347.832C224.57 347.19 225.843 346.868 227.213 346.868C228.583 346.868 229.856 347.19 231.034 347.832C232.211 348.474 233.163 349.405 233.891 350.625C234.619 351.823 234.983 353.289 234.983 355.023C234.983 356.735 234.629 358.201 233.923 359.421C233.238 360.62 232.307 361.54 231.13 362.183C229.974 362.825 228.669 363.146 227.213 363.146ZM227.213 361.573C228.369 361.573 229.246 361.037 229.846 359.967C230.466 358.897 230.777 357.26 230.777 355.055C230.777 350.646 229.589 348.442 227.213 348.442C224.859 348.442 223.682 350.646 223.682 355.055C223.682 357.26 223.981 358.897 224.581 359.967C225.18 361.037 226.057 361.573 227.213 361.573ZM237.283 362.696V361.38L239.337 360.995C239.359 360.181 239.369 359.314 239.369 358.394C239.369 357.452 239.369 356.639 239.369 355.954V354.253C239.369 353.375 239.359 352.679 239.337 352.166C239.337 351.631 239.316 351.042 239.273 350.4L237.026 350.111V348.891L242.387 346.868L242.901 347.19L243.222 350.978C243.714 349.651 244.378 348.634 245.212 347.928C246.047 347.222 246.882 346.868 247.717 346.868C248.295 346.868 248.819 347.018 249.29 347.318C249.782 347.618 250.103 348.046 250.253 348.602C250.232 349.394 250.039 350.015 249.675 350.464C249.311 350.892 248.808 351.106 248.166 351.106C247.396 351.106 246.668 350.721 245.983 349.951L245.694 349.629C244.56 350.571 243.746 351.898 243.254 353.611V355.954C243.254 356.618 243.254 357.41 243.254 358.33C243.254 359.229 243.265 360.074 243.286 360.866L245.919 361.38V362.696H237.283ZM258.719 348.41C258.205 348.41 257.691 348.581 257.178 348.923C256.685 349.244 256.257 349.779 255.893 350.528C255.551 351.278 255.337 352.294 255.251 353.578H259.65C260.42 353.578 260.934 353.418 261.191 353.097C261.447 352.776 261.576 352.326 261.576 351.748C261.576 350.764 261.298 349.961 260.741 349.341C260.185 348.72 259.511 348.41 258.719 348.41ZM258.719 363.146C257.22 363.146 255.904 362.825 254.77 362.183C253.635 361.54 252.747 360.62 252.105 359.421C251.463 358.201 251.142 356.757 251.142 355.087C251.142 353.375 251.506 351.909 252.233 350.689C252.983 349.448 253.946 348.506 255.123 347.864C256.321 347.2 257.595 346.868 258.943 346.868C260.206 346.868 261.308 347.136 262.25 347.671C263.192 348.206 263.92 348.955 264.433 349.918C264.968 350.882 265.236 352.016 265.236 353.322C265.236 354.006 265.172 354.595 265.043 355.087H255.219C255.305 356.928 255.786 358.309 256.664 359.229C257.563 360.149 258.686 360.609 260.035 360.609C260.977 360.609 261.769 360.427 262.411 360.064C263.074 359.678 263.673 359.186 264.209 358.587L265.14 359.421C264.519 360.599 263.663 361.519 262.571 362.183C261.501 362.825 260.217 363.146 258.719 363.146ZM272.962 363.146C271.977 363.146 271.068 363.028 270.233 362.792C269.42 362.578 268.606 362.247 267.793 361.797L267.761 358.073H269.912L270.49 361.059C271.26 361.38 272.095 361.54 272.994 361.54C274.086 361.54 274.899 361.348 275.434 360.963C275.969 360.577 276.237 360.042 276.237 359.357C276.237 358.758 276.023 358.276 275.594 357.913C275.166 357.527 274.439 357.163 273.411 356.821L271.806 356.275C270.607 355.89 269.655 355.323 268.949 354.574C268.264 353.825 267.921 352.883 267.921 351.748C267.921 350.849 268.157 350.036 268.628 349.308C269.099 348.559 269.783 347.971 270.682 347.543C271.603 347.093 272.716 346.868 274.021 346.868C274.942 346.868 275.776 346.986 276.525 347.222C277.296 347.436 278.056 347.757 278.805 348.185L278.644 351.556H276.525L275.948 348.859C275.348 348.602 274.685 348.474 273.957 348.474C273.101 348.474 272.437 348.656 271.967 349.02C271.496 349.383 271.26 349.876 271.26 350.496C271.26 351.074 271.453 351.545 271.838 351.909C272.245 352.251 272.994 352.605 274.086 352.968L275.37 353.354C276.932 353.889 278.045 354.552 278.709 355.344C279.372 356.136 279.704 357.089 279.704 358.201C279.704 359.636 279.115 360.823 277.938 361.765C276.782 362.685 275.124 363.146 272.962 363.146ZM281.769 362.696V361.38L283.888 360.963C283.91 360.171 283.92 359.314 283.92 358.394C283.92 357.452 283.92 356.639 283.92 355.954V354.445C283.92 353.568 283.91 352.84 283.888 352.262C283.888 351.663 283.867 351.042 283.824 350.4L281.545 350.111V348.891L287.324 346.868L287.837 347.19L287.741 351.716V355.954C287.741 356.639 287.741 357.452 287.741 358.394C287.741 359.314 287.752 360.181 287.773 360.995L289.731 361.38V362.696H281.769ZM285.815 343.883C285.13 343.883 284.552 343.669 284.081 343.241C283.61 342.813 283.375 342.267 283.375 341.603C283.375 340.918 283.61 340.362 284.081 339.934C284.552 339.506 285.13 339.292 285.815 339.292C286.5 339.292 287.067 339.506 287.516 339.934C287.987 340.362 288.222 340.918 288.222 341.603C288.222 342.267 287.987 342.813 287.516 343.241C287.067 343.669 286.5 343.883 285.815 343.883ZM298.324 355.89C299.223 355.89 299.908 355.537 300.379 354.83C300.85 354.124 301.085 353.182 301.085 352.005C301.085 350.871 300.85 349.972 300.379 349.308C299.929 348.624 299.276 348.281 298.42 348.281C297.564 348.281 296.89 348.634 296.398 349.341C295.927 350.025 295.691 350.946 295.691 352.102C295.691 353.257 295.916 354.178 296.366 354.863C296.815 355.547 297.468 355.89 298.324 355.89ZM294.279 365.682C294.279 366.666 294.643 367.383 295.37 367.833C296.098 368.282 297.136 368.507 298.484 368.507C300.175 368.507 301.449 368.229 302.305 367.672C303.183 367.116 303.621 366.442 303.621 365.65C303.621 365.051 303.407 364.537 302.979 364.109C302.573 363.681 301.855 363.467 300.828 363.467H297.265C296.473 363.467 295.766 363.402 295.146 363.274C294.568 364.045 294.279 364.847 294.279 365.682ZM298.388 357.303C297.425 357.303 296.537 357.185 295.723 356.949C295.317 357.506 295.113 358.094 295.113 358.715C295.113 359.122 295.242 359.443 295.499 359.678C295.777 359.914 296.269 360.031 296.976 360.031H300.989C303.086 360.031 304.584 360.427 305.483 361.219C306.382 362.011 306.832 363.081 306.832 364.43C306.832 365.436 306.5 366.378 305.837 367.255C305.194 368.133 304.231 368.839 302.947 369.374C301.684 369.909 300.1 370.177 298.196 370.177C296.547 370.177 295.22 370.005 294.215 369.663C293.23 369.32 292.513 368.86 292.064 368.282C291.635 367.705 291.421 367.062 291.421 366.356C291.421 365.671 291.646 365.04 292.096 364.462C292.545 363.905 293.283 363.381 294.311 362.889C293.647 362.653 293.155 362.322 292.834 361.894C292.513 361.444 292.352 360.93 292.352 360.353C292.352 359.732 292.534 359.122 292.898 358.523C293.283 357.902 293.872 357.228 294.664 356.5C292.973 355.644 292.128 354.178 292.128 352.102C292.128 350.518 292.684 349.255 293.797 348.313C294.91 347.35 296.44 346.868 298.388 346.868C300.336 346.868 301.855 347.318 302.947 348.217L306.575 346.836L307.056 347.157V349.405H303.942C304.392 350.132 304.617 351.031 304.617 352.102C304.617 353.664 304.071 354.927 302.979 355.89C301.888 356.832 300.357 357.303 298.388 357.303ZM308.354 362.696V361.38L310.473 360.963C310.494 360.171 310.505 359.314 310.505 358.394C310.505 357.452 310.505 356.639 310.505 355.954V342.181L308.161 341.86V340.608L313.908 339.163L314.39 339.452L314.261 343.979V349.726C315.909 347.821 317.739 346.868 319.751 346.868C321.142 346.868 322.223 347.329 322.994 348.249C323.764 349.169 324.15 350.625 324.15 352.615V355.954C324.15 356.682 324.15 357.506 324.15 358.426C324.15 359.347 324.16 360.203 324.182 360.995L326.14 361.38V362.696H318.21V361.38L320.265 360.963C320.286 360.171 320.297 359.325 320.297 358.426C320.297 357.506 320.297 356.682 320.297 355.954V352.904C320.297 351.641 320.126 350.775 319.783 350.304C319.462 349.811 318.895 349.565 318.082 349.565C316.883 349.565 315.642 350.175 314.358 351.395V355.954C314.358 356.66 314.358 357.474 314.358 358.394C314.358 359.314 314.368 360.181 314.39 360.995L316.284 361.38V362.696H308.354ZM333.604 363.146C332.32 363.146 331.314 362.825 330.586 362.183C329.859 361.54 329.495 360.513 329.495 359.1C329.495 358.608 329.495 358.148 329.495 357.72C329.516 357.27 329.527 356.735 329.527 356.115V349.276H327.151V347.607L329.752 347.286L330.972 342.887H333.572L333.444 347.318H337.296V349.276H333.412V358.747C333.412 359.539 333.561 360.117 333.861 360.481C334.182 360.845 334.599 361.027 335.113 361.027C335.691 361.027 336.344 360.759 337.072 360.224L337.842 361.027C337.435 361.69 336.879 362.215 336.173 362.6C335.466 362.964 334.61 363.146 333.604 363.146Z" fill="#758EA9"/>
</g>
<path d="M267.274 208.068V197.763L268.989 208.068H269.868L271.583 197.763V208.068H273.342V193.475H270.88L269.429 200.738L267.978 193.475H265.559V208.068H267.274Z" fill="white"/>
</svg>
