<svg width="538" height="480" viewBox="0 0 538 480" fill="none" xmlns="http://www.w3.org/2000/svg">
<path opacity="0.5" d="M252.948 188.738C252.948 188.738 260.731 188.251 269 188.251C277.27 188.251 285.053 188.738 285.053 188.738L278.243 206.736L269 223.275L259.758 206.736L252.948 188.738Z" fill="#758EA9"/>
<g style="mix-blend-mode:multiply">
<rect width="291.863" height="291.863" rx="145.931" fill="url(#paint0_linear_151_11757)"/>
<path d="M93.6503 133.743C94.9345 133.743 95.9725 133.305 96.7645 132.427C97.5564 131.55 98.1343 130.394 98.4981 128.96C98.8834 127.526 99.076 125.963 99.076 124.272C99.076 122.582 98.8834 121.019 98.4981 119.585C98.1343 118.151 97.5564 116.995 96.7645 116.118C95.9725 115.24 94.9345 114.802 93.6503 114.802C92.3661 114.802 91.3173 115.24 90.504 116.118C89.6907 116.995 89.0914 118.151 88.7061 119.585C88.3423 121.019 88.1603 122.582 88.1603 124.272C88.1603 125.963 88.3423 127.526 88.7061 128.96C89.0914 130.394 89.6907 131.55 90.504 132.427C91.3173 133.305 92.3661 133.743 93.6503 133.743ZM98.2413 141.705C96.8501 141.705 95.6515 141.416 94.6455 140.839C93.661 140.282 92.9012 139.512 92.3661 138.527C91.831 137.542 91.5314 136.451 91.4672 135.252C90.0545 134.931 88.7489 134.311 87.5504 133.39C86.3732 132.47 85.4207 131.25 84.693 129.73C83.9867 128.211 83.6336 126.391 83.6336 124.272C83.6336 122.475 83.9118 120.88 84.4683 119.489C85.0248 118.098 85.7739 116.931 86.7156 115.989C87.6574 115.026 88.7275 114.309 89.9261 113.838C91.1247 113.346 92.3661 113.1 93.6503 113.1C94.9345 113.1 96.1652 113.335 97.3423 113.806C98.5409 114.277 99.6111 114.983 100.553 115.925C101.495 116.846 102.244 118.012 102.8 119.425C103.357 120.816 103.635 122.432 103.635 124.272C103.635 126.391 103.26 128.232 102.511 129.794C101.762 131.336 100.767 132.577 99.5255 133.519C98.3055 134.439 96.9571 135.038 95.4803 135.317C95.5231 136.686 95.8976 137.746 96.6039 138.495C97.3316 139.244 98.2948 139.619 99.4934 139.619C99.8144 139.619 100.178 139.586 100.585 139.522C101.013 139.479 101.462 139.383 101.933 139.233L102.447 140.678C101.912 141.021 101.27 141.277 100.521 141.449C99.7716 141.62 99.0118 141.705 98.2413 141.705ZM117.668 135.22L117.411 132.395C115.849 134.385 114.029 135.381 111.953 135.381C110.626 135.381 109.556 134.953 108.743 134.097C107.951 133.219 107.566 131.721 107.587 129.602L107.715 121.672L105.629 121.222V119.97L111.247 119.296L111.632 119.649L111.472 124.144V129.473C111.472 130.672 111.654 131.517 112.018 132.01C112.403 132.481 112.949 132.716 113.655 132.716C114.254 132.716 114.864 132.545 115.485 132.202C116.127 131.86 116.737 131.421 117.315 130.886L117.411 121.672L115.389 121.222V120.035L120.878 119.296L121.296 119.649L121.2 124.144V133.198L123.158 133.615V134.931L117.668 135.22ZM137.34 135.317C136.483 135.317 135.788 135.103 135.253 134.674C134.718 134.246 134.354 133.658 134.161 132.909C133.369 133.722 132.652 134.343 132.01 134.771C131.368 135.177 130.533 135.381 129.506 135.381C128.307 135.381 127.291 135.038 126.456 134.353C125.643 133.647 125.236 132.641 125.236 131.336C125.236 130.651 125.396 130.019 125.718 129.441C126.039 128.842 126.606 128.286 127.419 127.772C128.254 127.258 129.442 126.755 130.983 126.263C131.411 126.113 131.892 125.963 132.427 125.813C132.963 125.664 133.508 125.514 134.065 125.364V124.465C134.065 122.967 133.851 121.961 133.423 121.447C133.016 120.912 132.288 120.645 131.24 120.645C131.047 120.645 130.833 120.655 130.597 120.677C130.383 120.698 130.159 120.73 129.923 120.773L129.538 122.539C129.452 123.309 129.228 123.876 128.864 124.24C128.5 124.604 128.05 124.786 127.515 124.786C126.488 124.786 125.889 124.305 125.718 123.341C125.91 122.057 126.595 121.03 127.772 120.259C128.971 119.489 130.544 119.104 132.492 119.104C134.354 119.104 135.713 119.553 136.569 120.452C137.425 121.33 137.853 122.817 137.853 124.915V131.913C137.853 132.877 138.164 133.358 138.784 133.358C139.191 133.358 139.565 133.123 139.908 132.652L140.646 133.294C140.261 134.022 139.801 134.546 139.266 134.867C138.752 135.167 138.11 135.317 137.34 135.317ZM128.992 130.661C128.992 131.496 129.206 132.106 129.634 132.491C130.084 132.855 130.63 133.037 131.272 133.037C131.636 133.037 131.999 132.951 132.363 132.78C132.727 132.609 133.294 132.256 134.065 131.721V126.648C133.615 126.798 133.187 126.937 132.781 127.066C132.395 127.194 132.064 127.312 131.785 127.419C130.715 127.847 129.977 128.339 129.57 128.896C129.185 129.452 128.992 130.041 128.992 130.661ZM141.693 134.931V133.615L143.78 133.198C143.801 132.406 143.812 131.55 143.812 130.629C143.812 129.687 143.812 128.874 143.812 128.189V126.488C143.812 125.61 143.801 124.915 143.78 124.401C143.78 123.866 143.758 123.277 143.716 122.635L141.468 122.346V121.126L146.83 119.104L147.343 119.425L147.568 121.897C149.216 120.035 151.036 119.104 153.026 119.104C154.417 119.104 155.487 119.564 156.236 120.484C157.007 121.404 157.392 122.86 157.392 124.85V128.189C157.392 128.917 157.392 129.741 157.392 130.661C157.392 131.582 157.403 132.438 157.424 133.23L159.383 133.615V134.931H151.453V133.615L153.508 133.198C153.529 132.406 153.54 131.56 153.54 130.661C153.54 129.741 153.54 128.917 153.54 128.189V125.139C153.54 123.876 153.368 123.01 153.026 122.539C152.684 122.047 152.106 121.8 151.292 121.8C150.158 121.8 148.959 122.325 147.697 123.374V128.189C147.697 128.896 147.697 129.709 147.697 130.629C147.697 131.55 147.707 132.416 147.729 133.23L149.623 133.615V134.931H141.693ZM166.845 135.381C165.561 135.381 164.555 135.06 163.828 134.418C163.1 133.775 162.736 132.748 162.736 131.336C162.736 130.843 162.736 130.383 162.736 129.955C162.757 129.506 162.768 128.97 162.768 128.35V121.511H160.392V119.842L162.993 119.521L164.213 115.123H166.813L166.685 119.553H170.537V121.511H166.653V130.982C166.653 131.774 166.803 132.352 167.102 132.716C167.423 133.08 167.841 133.262 168.354 133.262C168.932 133.262 169.585 132.994 170.313 132.459L171.083 133.262C170.677 133.925 170.12 134.45 169.414 134.835C168.707 135.199 167.851 135.381 166.845 135.381ZM172.041 134.931V133.615L174.16 133.198C174.181 132.406 174.192 131.55 174.192 130.629C174.192 129.687 174.192 128.874 174.192 128.189V126.68C174.192 125.803 174.181 125.075 174.16 124.497C174.16 123.898 174.138 123.277 174.095 122.635L171.816 122.346V121.126L177.595 119.104L178.108 119.425L178.012 123.951V128.189C178.012 128.874 178.012 129.687 178.012 130.629C178.012 131.55 178.023 132.416 178.044 133.23L180.003 133.615V134.931H172.041ZM176.086 116.118C175.401 116.118 174.823 115.904 174.352 115.476C173.881 115.048 173.646 114.502 173.646 113.838C173.646 113.153 173.881 112.597 174.352 112.169C174.823 111.741 175.401 111.527 176.086 111.527C176.771 111.527 177.338 111.741 177.787 112.169C178.258 112.597 178.494 113.153 178.494 113.838C178.494 114.502 178.258 115.048 177.787 115.476C177.338 115.904 176.771 116.118 176.086 116.118ZM181.917 134.931V133.615L184.068 133.198C184.09 132.363 184.101 131.528 184.101 130.693C184.122 129.859 184.133 129.024 184.133 128.189V121.511H181.757V119.842L184.229 119.521C184.4 117.937 184.657 116.664 184.999 115.7C185.363 114.716 185.92 113.849 186.669 113.1C187.397 112.372 188.189 111.859 189.045 111.559C189.922 111.238 190.768 111.077 191.581 111.077C192.416 111.077 193.154 111.227 193.796 111.527C194.46 111.826 194.877 112.351 195.048 113.1C195.027 113.592 194.824 114.01 194.438 114.352C194.074 114.694 193.571 114.866 192.929 114.866C192.009 114.866 191.142 114.331 190.329 113.26L189.751 112.683C189.687 112.725 189.612 112.79 189.526 112.875C188.948 113.453 188.531 114.266 188.274 115.315C188.017 116.364 187.91 117.777 187.953 119.553H191.902V121.511H188.017V128.189C188.017 129.003 188.017 129.827 188.017 130.661C188.039 131.475 188.06 132.299 188.082 133.133L190.778 133.615V134.931H181.917ZM203.303 120.837V119.553H209.467V120.837L207.669 121.19L202.179 135.509C201.259 137.971 200.328 139.79 199.386 140.967C198.444 142.144 197.278 142.733 195.887 142.733C195.052 142.733 194.324 142.519 193.704 142.091C193.104 141.663 192.783 141.128 192.74 140.485C192.869 139.908 193.158 139.469 193.607 139.169C194.078 138.891 194.592 138.752 195.148 138.752C195.576 138.752 195.994 138.837 196.4 139.009C196.829 139.201 197.257 139.565 197.685 140.1L197.877 140.357C198.455 139.801 198.958 139.158 199.386 138.431C199.814 137.724 200.167 136.965 200.446 136.151L200.51 135.959L194.41 121.094L192.773 120.837V119.553H201.184V120.837L198.648 121.19L202.244 131.014L205.743 121.222L203.303 120.837ZM124.46 155.283H122.405C122.384 156.653 122.362 158.023 122.341 159.393C122.341 160.762 122.341 162.132 122.341 163.502H124.203C125.872 163.502 127.06 163.095 127.767 162.282C128.494 161.469 128.858 160.473 128.858 159.296C128.858 156.621 127.392 155.283 124.46 155.283ZM115.47 155.155V153.646H125.134C127.638 153.646 129.564 154.127 130.913 155.09C132.283 156.054 132.968 157.391 132.968 159.104C132.968 159.874 132.775 160.623 132.39 161.351C132.026 162.079 131.437 162.71 130.624 163.245C129.811 163.78 128.74 164.155 127.413 164.369C128.762 164.583 129.757 165.054 130.399 165.781C131.063 166.509 131.544 167.569 131.844 168.96L132.839 173.166L135.311 173.422V174.931C134.776 175.081 134.305 175.177 133.899 175.22C133.513 175.284 133.01 175.317 132.39 175.317C131.213 175.317 130.292 175.124 129.629 174.739C128.987 174.353 128.58 173.668 128.409 172.684L127.478 168.221C127.242 167.023 126.836 166.209 126.258 165.781C125.701 165.332 124.856 165.107 123.721 165.107H122.341C122.341 166.541 122.341 167.922 122.341 169.249C122.362 170.554 122.384 171.849 122.405 173.133L125.134 173.422V174.931H115.47V173.422L118.167 173.133C118.21 171.806 118.231 170.458 118.231 169.088C118.231 167.718 118.231 166.349 118.231 164.979V163.598C118.231 162.25 118.231 160.901 118.231 159.553C118.231 158.183 118.21 156.813 118.167 155.444L115.47 155.155ZM136.628 174.931V173.615L138.747 173.198C138.768 172.406 138.779 171.55 138.779 170.629C138.779 169.687 138.779 168.874 138.779 168.189V166.68C138.779 165.803 138.768 165.075 138.747 164.497C138.747 163.898 138.726 163.277 138.683 162.635L136.403 162.346V161.126L142.182 159.104L142.696 159.425L142.6 163.951V168.189C142.6 168.874 142.6 169.687 142.6 170.629C142.6 171.55 142.61 172.416 142.632 173.23L144.59 173.615V174.931H136.628ZM140.673 156.118C139.988 156.118 139.41 155.904 138.94 155.476C138.469 155.048 138.233 154.502 138.233 153.838C138.233 153.153 138.469 152.597 138.94 152.169C139.41 151.741 139.988 151.527 140.673 151.527C141.358 151.527 141.925 151.741 142.375 152.169C142.846 152.597 143.081 153.153 143.081 153.838C143.081 154.502 142.846 155.048 142.375 155.476C141.925 155.904 141.358 156.118 140.673 156.118ZM151.931 175.381C150.946 175.381 150.036 175.263 149.202 175.028C148.388 174.814 147.575 174.482 146.762 174.032L146.73 170.308H148.881L149.458 173.294C150.229 173.615 151.064 173.775 151.963 173.775C153.054 173.775 153.868 173.583 154.403 173.198C154.938 172.812 155.205 172.277 155.205 171.592C155.205 170.993 154.991 170.512 154.563 170.148C154.135 169.762 153.407 169.399 152.38 169.056L150.775 168.51C149.576 168.125 148.624 167.558 147.917 166.809C147.233 166.06 146.89 165.118 146.89 163.984C146.89 163.085 147.126 162.271 147.596 161.544C148.067 160.794 148.752 160.206 149.651 159.778C150.571 159.328 151.684 159.104 152.99 159.104C153.91 159.104 154.745 159.221 155.494 159.457C156.265 159.671 157.025 159.992 157.774 160.42L157.613 163.791H155.494L154.916 161.094C154.317 160.837 153.654 160.709 152.926 160.709C152.07 160.709 151.406 160.891 150.935 161.255C150.464 161.618 150.229 162.111 150.229 162.731C150.229 163.309 150.422 163.78 150.807 164.144C151.214 164.486 151.963 164.84 153.054 165.203L154.338 165.589C155.901 166.124 157.014 166.787 157.677 167.579C158.341 168.371 158.673 169.324 158.673 170.437C158.673 171.871 158.084 173.058 156.907 174C155.751 174.921 154.092 175.381 151.931 175.381ZM160.107 174.931V173.615L162.29 173.198C162.311 172.384 162.322 171.528 162.322 170.629C162.343 169.73 162.354 168.917 162.354 168.189V154.416L160.01 154.095V152.843L165.853 151.398L166.335 151.687L166.206 156.214V166.777L171.536 161.383L169.128 160.901L169.16 159.553H176.737V160.901L173.815 161.319L170.573 164.465L175.517 173.166L177.604 173.615V174.931H172.178L167.876 167.098L166.206 168.735C166.206 169.463 166.206 170.223 166.206 171.014C166.228 171.785 166.249 172.523 166.271 173.23L168.422 173.615V174.931H160.107Z" fill="#758EA9"/>
</g>
<g style="mix-blend-mode:multiply">
<path d="M246.137 145.931C246.137 65.3357 311.473 0 392.068 0V0C472.664 0 538 65.3357 538 145.931V145.931C538 226.527 472.664 291.863 392.068 291.863V291.863C311.473 291.863 246.137 226.527 246.137 145.931V145.931Z" fill="url(#paint1_linear_151_11757)"/>
<path d="M335.585 115.155V113.646H345.249V115.155L342.552 115.444C342.53 116.771 342.509 118.119 342.488 119.489C342.488 120.837 342.488 122.207 342.488 123.598V124.979C342.488 126.327 342.488 127.686 342.488 129.056C342.509 130.404 342.53 131.764 342.552 133.133L345.249 133.422V134.931H335.585V133.422L338.282 133.133C338.325 131.806 338.346 130.458 338.346 129.088C338.346 127.718 338.346 126.349 338.346 124.979V123.598C338.346 122.25 338.346 120.901 338.346 119.553C338.346 118.183 338.325 116.813 338.282 115.444L335.585 115.155ZM351.011 127.322C351.011 129.27 351.375 130.726 352.103 131.689C352.852 132.63 353.794 133.101 354.928 133.101C355.485 133.101 355.988 132.994 356.437 132.78C356.908 132.545 357.347 132.213 357.753 131.785V122.571C356.812 121.758 355.881 121.351 354.96 121.351C353.89 121.351 352.959 121.832 352.167 122.796C351.397 123.759 351.011 125.268 351.011 127.322ZM358.139 135.284L357.882 133.262C357.282 133.947 356.619 134.471 355.891 134.835C355.164 135.199 354.329 135.381 353.387 135.381C352.124 135.381 351.001 135.06 350.016 134.418C349.053 133.775 348.293 132.855 347.737 131.657C347.18 130.458 346.902 129.035 346.902 127.387C346.902 125.696 347.212 124.23 347.833 122.988C348.475 121.747 349.32 120.794 350.369 120.131C351.439 119.446 352.606 119.104 353.869 119.104C354.682 119.104 355.41 119.253 356.052 119.553C356.715 119.853 357.336 120.345 357.914 121.03V114.416L355.41 114.095V112.843L361.285 111.398L361.766 111.687L361.638 116.214V133.262L363.725 133.615V134.931L358.139 135.284ZM373.102 120.645C372.588 120.645 372.075 120.816 371.561 121.158C371.069 121.479 370.641 122.014 370.277 122.764C369.934 123.513 369.72 124.529 369.635 125.813H374.033C374.804 125.813 375.317 125.653 375.574 125.332C375.831 125.011 375.959 124.561 375.959 123.984C375.959 122.999 375.681 122.196 375.125 121.576C374.568 120.955 373.894 120.645 373.102 120.645ZM373.102 135.381C371.604 135.381 370.287 135.06 369.153 134.418C368.019 133.775 367.13 132.855 366.488 131.657C365.846 130.437 365.525 128.992 365.525 127.322C365.525 125.61 365.889 124.144 366.617 122.924C367.366 121.683 368.329 120.741 369.506 120.099C370.705 119.435 371.978 119.104 373.327 119.104C374.589 119.104 375.692 119.371 376.633 119.906C377.575 120.441 378.303 121.19 378.817 122.154C379.352 123.117 379.619 124.251 379.619 125.557C379.619 126.242 379.555 126.83 379.427 127.322H369.603C369.688 129.163 370.17 130.544 371.047 131.464C371.946 132.384 373.07 132.844 374.418 132.844C375.36 132.844 376.152 132.663 376.794 132.299C377.458 131.913 378.057 131.421 378.592 130.822L379.523 131.657C378.902 132.834 378.046 133.754 376.955 134.418C375.884 135.06 374.6 135.381 373.102 135.381ZM381.952 134.931V133.615L384.038 133.198C384.06 132.406 384.071 131.55 384.071 130.629C384.071 129.687 384.071 128.874 384.071 128.189V126.488C384.071 125.61 384.06 124.915 384.038 124.401C384.038 123.866 384.017 123.277 383.974 122.635L381.727 122.346V121.126L387.088 119.104L387.602 119.425L387.827 121.897C389.475 120.035 391.294 119.104 393.285 119.104C394.676 119.104 395.746 119.564 396.495 120.484C397.266 121.404 397.651 122.86 397.651 124.85V128.189C397.651 128.917 397.651 129.741 397.651 130.661C397.651 131.582 397.662 132.438 397.683 133.23L399.641 133.615V134.931H391.711V133.615L393.766 133.198C393.788 132.406 393.798 131.56 393.798 130.661C393.798 129.741 393.798 128.917 393.798 128.189V125.139C393.798 123.876 393.627 123.01 393.285 122.539C392.942 122.047 392.364 121.8 391.551 121.8C390.417 121.8 389.218 122.325 387.955 123.374V128.189C387.955 128.896 387.955 129.709 387.955 130.629C387.955 131.55 387.966 132.416 387.987 133.23L389.882 133.615V134.931H381.952ZM407.104 135.381C405.82 135.381 404.814 135.06 404.086 134.418C403.358 133.775 402.995 132.748 402.995 131.336C402.995 130.843 402.995 130.383 402.995 129.955C403.016 129.506 403.027 128.97 403.027 128.35V121.511H400.651V119.842L403.251 119.521L404.471 115.123H407.072L406.944 119.553H410.796V121.511H406.911V130.982C406.911 131.774 407.061 132.352 407.361 132.716C407.682 133.08 408.099 133.262 408.613 133.262C409.191 133.262 409.844 132.994 410.571 132.459L411.342 133.262C410.935 133.925 410.379 134.45 409.672 134.835C408.966 135.199 408.11 135.381 407.104 135.381ZM412.299 134.931V133.615L414.418 133.198C414.44 132.406 414.45 131.55 414.45 130.629C414.45 129.687 414.45 128.874 414.45 128.189V126.68C414.45 125.803 414.44 125.075 414.418 124.497C414.418 123.898 414.397 123.277 414.354 122.635L412.075 122.346V121.126L417.853 119.104L418.367 119.425L418.271 123.951V128.189C418.271 128.874 418.271 129.687 418.271 130.629C418.271 131.55 418.281 132.416 418.303 133.23L420.261 133.615V134.931H412.299ZM416.344 116.118C415.66 116.118 415.082 115.904 414.611 115.476C414.14 115.048 413.904 114.502 413.904 113.838C413.904 113.153 414.14 112.597 414.611 112.169C415.082 111.741 415.66 111.527 416.344 111.527C417.029 111.527 417.597 111.741 418.046 112.169C418.517 112.597 418.752 113.153 418.752 113.838C418.752 114.502 418.517 115.048 418.046 115.476C417.597 115.904 417.029 116.118 416.344 116.118ZM422.176 134.931V133.615L424.327 133.198C424.348 132.363 424.359 131.528 424.359 130.693C424.381 129.859 424.391 129.024 424.391 128.189V121.511H422.015V119.842L424.488 119.521C424.659 117.937 424.916 116.664 425.258 115.7C425.622 114.716 426.178 113.849 426.928 113.1C427.655 112.372 428.447 111.859 429.303 111.559C430.181 111.238 431.026 111.077 431.84 111.077C432.674 111.077 433.413 111.227 434.055 111.527C434.718 111.826 435.136 112.351 435.307 113.1C435.286 113.592 435.082 114.01 434.697 114.352C434.333 114.694 433.83 114.866 433.188 114.866C432.268 114.866 431.401 114.331 430.588 113.26L430.01 112.683C429.945 112.725 429.87 112.79 429.785 112.875C429.207 113.453 428.79 114.266 428.533 115.315C428.276 116.364 428.169 117.777 428.212 119.553H432.161V121.511H428.276V128.189C428.276 129.003 428.276 129.827 428.276 130.661C428.297 131.475 428.319 132.299 428.34 133.133L431.037 133.615V134.931H422.176ZM443.562 120.837V119.553H449.726V120.837L447.928 121.19L442.438 135.509C441.518 137.971 440.587 139.79 439.645 140.967C438.703 142.144 437.537 142.733 436.145 142.733C435.311 142.733 434.583 142.519 433.962 142.091C433.363 141.663 433.042 141.128 432.999 140.485C433.128 139.908 433.416 139.469 433.866 139.169C434.337 138.891 434.851 138.752 435.407 138.752C435.835 138.752 436.252 138.837 436.659 139.009C437.087 139.201 437.515 139.565 437.943 140.1L438.136 140.357C438.714 139.801 439.217 139.158 439.645 138.431C440.073 137.724 440.426 136.965 440.704 136.151L440.769 135.959L434.669 121.094L433.031 120.837V119.553H441.443V120.837L438.906 121.19L442.502 131.014L446.002 121.222L443.562 120.837ZM316.367 159.489L316.56 153.646H334.764L334.924 159.489H332.709L332.035 155.347H327.797C327.775 156.696 327.754 158.066 327.733 159.457C327.733 160.827 327.733 162.207 327.733 163.598V164.979C327.733 166.327 327.733 167.686 327.733 169.056C327.754 170.404 327.775 171.753 327.797 173.101L330.815 173.422V174.931H320.477V173.422L323.495 173.101C323.538 171.774 323.559 170.437 323.559 169.088C323.559 167.718 323.559 166.349 323.559 164.979V163.598C323.559 162.228 323.559 160.859 323.559 159.489C323.559 158.098 323.538 156.717 323.495 155.347H319.289L318.615 159.489H316.367ZM342.114 175.381C340.658 175.381 339.342 175.06 338.165 174.418C337.009 173.775 336.089 172.844 335.404 171.624C334.719 170.404 334.377 168.949 334.377 167.258C334.377 165.546 334.73 164.08 335.436 162.86C336.164 161.64 337.116 160.709 338.293 160.067C339.471 159.425 340.744 159.104 342.114 159.104C343.484 159.104 344.757 159.425 345.934 160.067C347.112 160.709 348.064 161.64 348.792 162.86C349.519 164.058 349.883 165.525 349.883 167.258C349.883 168.97 349.53 170.437 348.824 171.657C348.139 172.855 347.208 173.775 346.031 174.418C344.875 175.06 343.569 175.381 342.114 175.381ZM342.114 173.808C343.27 173.808 344.147 173.273 344.746 172.202C345.367 171.132 345.677 169.495 345.677 167.29C345.677 162.881 344.49 160.677 342.114 160.677C339.759 160.677 338.582 162.881 338.582 167.29C338.582 169.495 338.882 171.132 339.481 172.202C340.081 173.273 340.958 173.808 342.114 173.808ZM351.773 182.412V181.095L353.957 180.678C353.978 179.736 353.989 178.827 353.989 177.949C354.01 177.093 354.021 176.258 354.021 175.445V166.488C354.021 165.61 354.01 164.915 353.989 164.401C353.989 163.866 353.967 163.277 353.924 162.635L351.677 162.346V161.126L357.006 159.104L357.52 159.425L357.681 161.383C359.136 159.863 360.741 159.104 362.496 159.104C363.652 159.104 364.701 159.425 365.643 160.067C366.584 160.687 367.323 161.597 367.858 162.796C368.414 163.994 368.693 165.45 368.693 167.162C368.693 168.853 368.382 170.319 367.762 171.56C367.162 172.78 366.36 173.722 365.354 174.385C364.348 175.049 363.224 175.381 361.983 175.381C361.191 175.381 360.452 175.231 359.768 174.931C359.083 174.632 358.43 174.15 357.809 173.487V175.413C357.809 176.205 357.809 177.029 357.809 177.885C357.831 178.762 357.852 179.672 357.873 180.614L360.378 181.095V182.412H351.773ZM360.988 161.383C360.495 161.383 359.992 161.511 359.479 161.768C358.986 162.025 358.462 162.368 357.905 162.796V171.881C358.804 172.716 359.757 173.133 360.763 173.133C361.833 173.133 362.732 172.673 363.46 171.753C364.209 170.811 364.583 169.345 364.583 167.355C364.583 165.385 364.251 163.898 363.588 162.892C362.924 161.886 362.058 161.383 360.988 161.383ZM377.285 159.489L377.478 153.646H395.681L395.842 159.489H393.627L392.952 155.347H388.715C388.693 156.696 388.672 158.066 388.65 159.457C388.65 160.827 388.65 162.207 388.65 163.598V164.979C388.65 166.327 388.65 167.686 388.65 169.056C388.672 170.404 388.693 171.753 388.715 173.101L391.732 173.422V174.931H381.395V173.422L384.413 173.101C384.455 171.774 384.477 170.437 384.477 169.088C384.477 167.718 384.477 166.349 384.477 164.979V163.598C384.477 162.228 384.477 160.859 384.477 159.489C384.477 158.098 384.455 156.717 384.413 155.347H380.207L379.533 159.489H377.285ZM408.182 175.317C407.326 175.317 406.631 175.103 406.096 174.674C405.561 174.246 405.197 173.658 405.004 172.909C404.212 173.722 403.495 174.343 402.853 174.771C402.211 175.177 401.376 175.381 400.349 175.381C399.15 175.381 398.134 175.038 397.299 174.353C396.486 173.647 396.079 172.641 396.079 171.336C396.079 170.651 396.239 170.019 396.56 169.441C396.882 168.842 397.449 168.286 398.262 167.772C399.097 167.258 400.285 166.755 401.826 166.263C402.254 166.113 402.735 165.963 403.27 165.813C403.805 165.664 404.351 165.514 404.908 165.364V164.465C404.908 162.967 404.694 161.961 404.266 161.447C403.859 160.912 403.131 160.645 402.083 160.645C401.89 160.645 401.676 160.655 401.44 160.677C401.226 160.698 401.002 160.73 400.766 160.773L400.381 162.539C400.295 163.309 400.071 163.876 399.707 164.24C399.343 164.604 398.893 164.786 398.358 164.786C397.331 164.786 396.732 164.305 396.56 163.341C396.753 162.057 397.438 161.03 398.615 160.259C399.814 159.489 401.387 159.104 403.335 159.104C405.197 159.104 406.556 159.553 407.412 160.452C408.268 161.33 408.696 162.817 408.696 164.915V171.913C408.696 172.877 409.006 173.358 409.627 173.358C410.034 173.358 410.408 173.123 410.751 172.652L411.489 173.294C411.104 174.022 410.644 174.546 410.109 174.867C409.595 175.167 408.953 175.317 408.182 175.317ZM399.835 170.661C399.835 171.496 400.049 172.106 400.477 172.491C400.927 172.855 401.473 173.037 402.115 173.037C402.478 173.037 402.842 172.951 403.206 172.78C403.57 172.609 404.137 172.256 404.908 171.721V166.648C404.458 166.798 404.03 166.937 403.624 167.066C403.238 167.194 402.907 167.312 402.628 167.419C401.558 167.847 400.82 168.339 400.413 168.896C400.028 169.452 399.835 170.041 399.835 170.661ZM412.373 174.931V173.615L414.556 173.198C414.578 172.363 414.588 171.528 414.588 170.693C414.61 169.859 414.62 169.024 414.62 168.189V154.416L412.277 154.095V152.843L418.12 151.398L418.601 151.687L418.473 156.214V168.189C418.473 169.024 418.473 169.859 418.473 170.693C418.494 171.528 418.516 172.363 418.537 173.198L420.72 173.615V174.931H412.373ZM430.242 160.645C429.728 160.645 429.214 160.816 428.701 161.158C428.208 161.479 427.78 162.014 427.417 162.764C427.074 163.513 426.86 164.529 426.774 165.813H431.173C431.943 165.813 432.457 165.653 432.714 165.332C432.971 165.011 433.099 164.561 433.099 163.984C433.099 162.999 432.821 162.196 432.264 161.576C431.708 160.955 431.034 160.645 430.242 160.645ZM430.242 175.381C428.744 175.381 427.427 175.06 426.293 174.418C425.158 173.775 424.27 172.855 423.628 171.657C422.986 170.437 422.665 168.992 422.665 167.322C422.665 165.61 423.029 164.144 423.757 162.924C424.506 161.683 425.469 160.741 426.646 160.099C427.845 159.435 429.118 159.104 430.466 159.104C431.729 159.104 432.832 159.371 433.773 159.906C434.715 160.441 435.443 161.19 435.956 162.154C436.491 163.117 436.759 164.251 436.759 165.557C436.759 166.242 436.695 166.83 436.566 167.322H426.742C426.828 169.163 427.309 170.544 428.187 171.464C429.086 172.384 430.21 172.844 431.558 172.844C432.5 172.844 433.292 172.663 433.934 172.299C434.597 171.913 435.197 171.421 435.732 170.822L436.663 171.657C436.042 172.834 435.186 173.754 434.094 174.418C433.024 175.06 431.74 175.381 430.242 175.381ZM439.091 174.931V173.615L441.178 173.198C441.2 172.406 441.21 171.55 441.21 170.629C441.21 169.687 441.21 168.874 441.21 168.189V166.488C441.21 165.61 441.2 164.915 441.178 164.401C441.178 163.866 441.157 163.277 441.114 162.635L438.867 162.346V161.126L444.228 159.104L444.742 159.425L444.967 161.897C446.615 160.035 448.434 159.104 450.424 159.104C451.816 159.104 452.886 159.564 453.635 160.484C454.405 161.404 454.791 162.86 454.791 164.85V168.189C454.791 168.917 454.791 169.741 454.791 170.661C454.791 171.582 454.801 172.438 454.823 173.23L456.781 173.615V174.931H448.851V173.615L450.906 173.198C450.927 172.406 450.938 171.56 450.938 170.661C450.938 169.741 450.938 168.917 450.938 168.189V165.139C450.938 163.876 450.767 163.01 450.424 162.539C450.082 162.047 449.504 161.8 448.691 161.8C447.556 161.8 446.358 162.325 445.095 163.374V168.189C445.095 168.896 445.095 169.709 445.095 170.629C445.095 171.55 445.106 172.416 445.127 173.23L447.021 173.615V174.931H439.091ZM464.244 175.381C462.96 175.381 461.954 175.06 461.226 174.418C460.498 173.775 460.134 172.748 460.134 171.336C460.134 170.843 460.134 170.383 460.134 169.955C460.156 169.506 460.167 168.97 460.167 168.35V161.511H457.791V159.842L460.391 159.521L461.611 155.123H464.212L464.083 159.553H467.936V161.511H464.051V170.982C464.051 171.774 464.201 172.352 464.501 172.716C464.822 173.08 465.239 173.262 465.753 173.262C466.331 173.262 466.983 172.994 467.711 172.459L468.482 173.262C468.075 173.925 467.519 174.45 466.812 174.835C466.106 175.199 465.25 175.381 464.244 175.381Z" fill="#758EA9"/>
</g>
<g style="mix-blend-mode:multiply">
<path d="M123.555 333.696C123.555 253.101 188.891 187.765 269.486 187.765V187.765C350.082 187.765 415.418 253.101 415.418 333.696V333.696C415.418 414.292 350.082 479.627 269.486 479.627V479.627C188.891 479.627 123.555 414.292 123.555 333.696V333.696Z" fill="url(#paint2_linear_151_11757)"/>
<path d="M211.012 302.92V301.411H220.676V302.92L217.979 303.209C217.958 304.536 217.936 305.884 217.915 307.254C217.915 308.602 217.915 309.972 217.915 311.363V312.744C217.915 314.092 217.915 315.451 217.915 316.821C217.936 318.169 217.958 319.529 217.979 320.898L220.676 321.187V322.696H211.012V321.187L213.709 320.898C213.752 319.571 213.773 318.223 213.773 316.853C213.773 315.483 213.773 314.113 213.773 312.744V311.363C213.773 310.015 213.773 308.666 213.773 307.318C213.773 305.948 213.752 304.578 213.709 303.209L211.012 302.92ZM223.016 322.696V321.38L225.103 320.963C225.125 320.171 225.135 319.314 225.135 318.394C225.135 317.452 225.135 316.639 225.135 315.954V314.253C225.135 313.375 225.125 312.679 225.103 312.166C225.103 311.631 225.082 311.042 225.039 310.4L222.792 310.111V308.891L228.153 306.868L228.667 307.19L228.892 309.662C230.54 307.8 232.359 306.868 234.349 306.868C235.741 306.868 236.811 307.329 237.56 308.249C238.33 309.169 238.716 310.625 238.716 312.615V315.954C238.716 316.682 238.716 317.506 238.716 318.426C238.716 319.347 238.726 320.203 238.748 320.995L240.706 321.38V322.696H232.776V321.38L234.831 320.963C234.852 320.171 234.863 319.325 234.863 318.426C234.863 317.506 234.863 316.682 234.863 315.954V312.904C234.863 311.641 234.692 310.775 234.349 310.304C234.007 309.811 233.429 309.565 232.616 309.565C231.481 309.565 230.283 310.09 229.02 311.138V315.954C229.02 316.66 229.02 317.474 229.02 318.394C229.02 319.314 229.031 320.181 229.052 320.995L230.946 321.38V322.696H223.016ZM248.169 323.146C246.885 323.146 245.879 322.825 245.151 322.183C244.423 321.54 244.059 320.513 244.059 319.1C244.059 318.608 244.059 318.148 244.059 317.72C244.081 317.27 244.092 316.735 244.092 316.115V309.276H241.716V307.607L244.316 307.286L245.536 302.887H248.137L248.008 307.318H251.861V309.276H247.976V318.747C247.976 319.539 248.126 320.117 248.426 320.481C248.747 320.845 249.164 321.027 249.678 321.027C250.256 321.027 250.908 320.759 251.636 320.224L252.407 321.027C252 321.69 251.444 322.215 250.737 322.6C250.031 322.964 249.175 323.146 248.169 323.146ZM261.101 308.41C260.588 308.41 260.074 308.581 259.56 308.923C259.068 309.244 258.64 309.779 258.276 310.528C257.934 311.278 257.72 312.294 257.634 313.578H262.032C262.803 313.578 263.317 313.418 263.573 313.097C263.83 312.776 263.959 312.326 263.959 311.748C263.959 310.764 263.68 309.961 263.124 309.341C262.567 308.72 261.893 308.41 261.101 308.41ZM261.101 323.146C259.603 323.146 258.287 322.825 257.152 322.183C256.018 321.54 255.13 320.62 254.488 319.421C253.846 318.201 253.525 316.757 253.525 315.087C253.525 313.375 253.888 311.909 254.616 310.689C255.365 309.448 256.328 308.506 257.506 307.864C258.704 307.2 259.978 306.868 261.326 306.868C262.589 306.868 263.691 307.136 264.633 307.671C265.575 308.206 266.302 308.955 266.816 309.918C267.351 310.882 267.619 312.016 267.619 313.322C267.619 314.006 267.554 314.595 267.426 315.087H257.602C257.688 316.928 258.169 318.309 259.047 319.229C259.946 320.149 261.069 320.609 262.418 320.609C263.359 320.609 264.151 320.427 264.793 320.064C265.457 319.678 266.056 319.186 266.591 318.587L267.522 319.421C266.902 320.599 266.046 321.519 264.954 322.183C263.884 322.825 262.6 323.146 261.101 323.146ZM269.983 322.696V321.38L272.038 320.995C272.059 320.181 272.07 319.314 272.07 318.394C272.07 317.452 272.07 316.639 272.07 315.954V314.253C272.07 313.375 272.059 312.679 272.038 312.166C272.038 311.631 272.016 311.042 271.974 310.4L269.726 310.111V308.891L275.088 306.868L275.601 307.19L275.923 310.978C276.415 309.651 277.078 308.634 277.913 307.928C278.748 307.222 279.582 306.868 280.417 306.868C280.995 306.868 281.519 307.018 281.99 307.318C282.483 307.618 282.804 308.046 282.953 308.602C282.932 309.394 282.739 310.015 282.376 310.464C282.012 310.892 281.509 311.106 280.867 311.106C280.096 311.106 279.368 310.721 278.684 309.951L278.395 309.629C277.26 310.571 276.447 311.898 275.955 313.611V315.954C275.955 316.618 275.955 317.41 275.955 318.33C275.955 319.229 275.965 320.074 275.987 320.866L278.619 321.38V322.696H269.983ZM284.185 322.696V321.38L286.272 320.963C286.293 320.171 286.304 319.314 286.304 318.394C286.304 317.452 286.304 316.639 286.304 315.954V314.253C286.304 313.375 286.293 312.679 286.272 312.166C286.272 311.631 286.25 311.042 286.208 310.4L283.96 310.111V308.891L289.322 306.868L289.835 307.19L290.06 309.662C291.708 307.8 293.528 306.868 295.518 306.868C296.909 306.868 297.979 307.329 298.729 308.249C299.499 309.169 299.884 310.625 299.884 312.615V315.954C299.884 316.682 299.884 317.506 299.884 318.426C299.884 319.347 299.895 320.203 299.916 320.995L301.875 321.38V322.696H293.945V321.38L296 320.963C296.021 320.171 296.032 319.325 296.032 318.426C296.032 317.506 296.032 316.682 296.032 315.954V312.904C296.032 311.641 295.86 310.775 295.518 310.304C295.176 309.811 294.598 309.565 293.784 309.565C292.65 309.565 291.451 310.09 290.189 311.138V315.954C290.189 316.66 290.189 317.474 290.189 318.394C290.189 319.314 290.199 320.181 290.221 320.995L292.115 321.38V322.696H284.185ZM315.918 323.081C315.062 323.081 314.366 322.867 313.831 322.439C313.296 322.011 312.932 321.423 312.74 320.674C311.948 321.487 311.231 322.108 310.589 322.536C309.947 322.942 309.112 323.146 308.085 323.146C306.886 323.146 305.869 322.803 305.035 322.118C304.221 321.412 303.815 320.406 303.815 319.1C303.815 318.416 303.975 317.784 304.296 317.206C304.617 316.607 305.184 316.05 305.998 315.537C306.833 315.023 308.02 314.52 309.561 314.028C309.989 313.878 310.471 313.728 311.006 313.578C311.541 313.429 312.087 313.279 312.643 313.129V312.23C312.643 310.732 312.429 309.726 312.001 309.212C311.595 308.677 310.867 308.41 309.818 308.41C309.626 308.41 309.412 308.42 309.176 308.442C308.962 308.463 308.737 308.495 308.502 308.538L308.117 310.304C308.031 311.074 307.806 311.641 307.443 312.005C307.079 312.369 306.629 312.551 306.094 312.551C305.067 312.551 304.467 312.069 304.296 311.106C304.489 309.822 305.174 308.795 306.351 308.024C307.55 307.254 309.123 306.868 311.07 306.868C312.932 306.868 314.292 307.318 315.148 308.217C316.004 309.094 316.432 310.582 316.432 312.679V319.678C316.432 320.641 316.742 321.123 317.363 321.123C317.77 321.123 318.144 320.888 318.487 320.417L319.225 321.059C318.84 321.787 318.38 322.311 317.844 322.632C317.331 322.932 316.689 323.081 315.918 323.081ZM307.571 318.426C307.571 319.261 307.785 319.871 308.213 320.256C308.662 320.62 309.208 320.802 309.85 320.802C310.214 320.802 310.578 320.716 310.942 320.545C311.306 320.374 311.873 320.021 312.643 319.486V314.413C312.194 314.563 311.766 314.702 311.359 314.83C310.974 314.959 310.642 315.077 310.364 315.184C309.294 315.612 308.555 316.104 308.149 316.66C307.764 317.217 307.571 317.806 307.571 318.426ZM320.109 322.696V321.38L322.292 320.963C322.313 320.128 322.324 319.293 322.324 318.458C322.346 317.624 322.356 316.789 322.356 315.954V302.181L320.013 301.86V300.608L325.856 299.163L326.337 299.452L326.209 303.979V315.954C326.209 316.789 326.209 317.624 326.209 318.458C326.23 319.293 326.252 320.128 326.273 320.963L328.456 321.38V322.696H320.109ZM185.946 342.92V341.411H202.223L202.448 347.029H200.201L199.526 343.112H192.913C192.891 344.461 192.87 345.809 192.849 347.157C192.849 348.484 192.849 349.737 192.849 350.914H197.183L197.6 348.121H199.237V355.697H197.6L197.151 352.615H192.849C192.849 354.135 192.849 355.569 192.849 356.917C192.87 358.244 192.891 359.561 192.913 360.866L195.834 361.187V362.696H185.946V361.187L188.643 360.898C188.686 359.571 188.707 358.223 188.707 356.853C188.707 355.483 188.707 354.113 188.707 352.744V351.363C188.707 350.015 188.707 348.666 188.707 347.318C188.707 345.948 188.686 344.578 188.643 343.209L185.946 342.92ZM210.706 363.146C209.251 363.146 207.934 362.825 206.757 362.183C205.601 361.54 204.681 360.609 203.996 359.389C203.311 358.169 202.969 356.714 202.969 355.023C202.969 353.311 203.322 351.845 204.028 350.625C204.756 349.405 205.708 348.474 206.886 347.832C208.063 347.19 209.336 346.868 210.706 346.868C212.076 346.868 213.349 347.19 214.527 347.832C215.704 348.474 216.656 349.405 217.384 350.625C218.112 351.823 218.475 353.289 218.475 355.023C218.475 356.735 218.122 358.201 217.416 359.421C216.731 360.62 215.8 361.54 214.623 362.183C213.467 362.825 212.162 363.146 210.706 363.146ZM210.706 361.573C211.862 361.573 212.739 361.037 213.339 359.967C213.959 358.897 214.27 357.26 214.27 355.055C214.27 350.646 213.082 348.442 210.706 348.442C208.352 348.442 207.175 350.646 207.175 355.055C207.175 357.26 207.474 358.897 208.074 359.967C208.673 361.037 209.55 361.573 210.706 361.573ZM220.776 362.696V361.38L222.83 360.995C222.852 360.181 222.862 359.314 222.862 358.394C222.862 357.452 222.862 356.639 222.862 355.954V354.253C222.862 353.375 222.852 352.679 222.83 352.166C222.83 351.631 222.809 351.042 222.766 350.4L220.519 350.111V348.891L225.88 346.868L226.394 347.19L226.715 350.978C227.207 349.651 227.871 348.634 228.705 347.928C229.54 347.222 230.375 346.868 231.21 346.868C231.787 346.868 232.312 347.018 232.783 347.318C233.275 347.618 233.596 348.046 233.746 348.602C233.724 349.394 233.532 350.015 233.168 350.464C232.804 350.892 232.301 351.106 231.659 351.106C230.889 351.106 230.161 350.721 229.476 349.951L229.187 349.629C228.053 350.571 227.239 351.898 226.747 353.611V355.954C226.747 356.618 226.747 357.41 226.747 358.33C226.747 359.229 226.758 360.074 226.779 360.866L229.412 361.38V362.696H220.776ZM242.212 348.41C241.698 348.41 241.184 348.581 240.67 348.923C240.178 349.244 239.75 349.779 239.386 350.528C239.044 351.278 238.83 352.294 238.744 353.578H243.143C243.913 353.578 244.427 353.418 244.684 353.097C244.94 352.776 245.069 352.326 245.069 351.748C245.069 350.764 244.791 349.961 244.234 349.341C243.678 348.72 243.003 348.41 242.212 348.41ZM242.212 363.146C240.713 363.146 239.397 362.825 238.263 362.183C237.128 361.54 236.24 360.62 235.598 359.421C234.956 358.201 234.635 356.757 234.635 355.087C234.635 353.375 234.999 351.909 235.726 350.689C236.475 349.448 237.439 348.506 238.616 347.864C239.814 347.2 241.088 346.868 242.436 346.868C243.699 346.868 244.801 347.136 245.743 347.671C246.685 348.206 247.413 348.955 247.926 349.918C248.461 350.882 248.729 352.016 248.729 353.322C248.729 354.006 248.665 354.595 248.536 355.087H238.712C238.798 356.928 239.279 358.309 240.157 359.229C241.056 360.149 242.179 360.609 243.528 360.609C244.47 360.609 245.261 360.427 245.904 360.064C246.567 359.678 247.166 359.186 247.701 358.587L248.633 359.421C248.012 360.599 247.156 361.519 246.064 362.183C244.994 362.825 243.71 363.146 242.212 363.146ZM258.702 363.146C257.247 363.146 255.941 362.835 254.785 362.215C253.63 361.573 252.72 360.652 252.056 359.454C251.414 358.234 251.093 356.767 251.093 355.055C251.093 353.322 251.457 351.845 252.185 350.625C252.934 349.405 253.919 348.474 255.139 347.832C256.358 347.19 257.685 346.868 259.12 346.868C260.168 346.868 261.11 347.072 261.945 347.478C262.801 347.864 263.486 348.388 263.999 349.052C264.535 349.715 264.856 350.464 264.963 351.299C264.706 352.241 264.096 352.712 263.133 352.712C261.934 352.712 261.238 351.962 261.046 350.464L260.628 348.538C260.436 348.495 260.243 348.463 260.051 348.442C259.858 348.42 259.665 348.41 259.473 348.41C258.702 348.41 257.985 348.634 257.322 349.084C256.68 349.512 256.155 350.186 255.748 351.106C255.342 352.027 255.139 353.193 255.139 354.606C255.139 356.553 255.577 358.041 256.455 359.068C257.354 360.096 258.52 360.609 259.954 360.609C260.81 360.609 261.581 360.417 262.266 360.031C262.951 359.646 263.529 359.122 263.999 358.458L264.963 359.165C264.428 360.47 263.625 361.465 262.555 362.15C261.506 362.814 260.222 363.146 258.702 363.146ZM279.22 363.081C278.364 363.081 277.668 362.867 277.133 362.439C276.598 362.011 276.234 361.423 276.042 360.674C275.25 361.487 274.533 362.108 273.891 362.536C273.249 362.942 272.414 363.146 271.387 363.146C270.188 363.146 269.171 362.803 268.337 362.118C267.523 361.412 267.117 360.406 267.117 359.1C267.117 358.416 267.277 357.784 267.598 357.206C267.919 356.607 268.486 356.05 269.3 355.537C270.134 355.023 271.322 354.52 272.863 354.028C273.291 353.878 273.773 353.728 274.308 353.578C274.843 353.429 275.389 353.279 275.945 353.129V352.23C275.945 350.732 275.731 349.726 275.303 349.212C274.897 348.677 274.169 348.41 273.12 348.41C272.928 348.41 272.714 348.42 272.478 348.442C272.264 348.463 272.039 348.495 271.804 348.538L271.419 350.304C271.333 351.074 271.108 351.641 270.744 352.005C270.381 352.369 269.931 352.551 269.396 352.551C268.369 352.551 267.769 352.069 267.598 351.106C267.791 349.822 268.476 348.795 269.653 348.024C270.852 347.254 272.425 346.868 274.372 346.868C276.234 346.868 277.594 347.318 278.45 348.217C279.306 349.094 279.734 350.582 279.734 352.679V359.678C279.734 360.641 280.044 361.123 280.665 361.123C281.072 361.123 281.446 360.888 281.789 360.417L282.527 361.059C282.142 361.787 281.682 362.311 281.146 362.632C280.633 362.932 279.991 363.081 279.22 363.081ZM270.873 358.426C270.873 359.261 271.087 359.871 271.515 360.256C271.964 360.62 272.51 360.802 273.152 360.802C273.516 360.802 273.88 360.716 274.244 360.545C274.608 360.374 275.175 360.021 275.945 359.486V354.413C275.496 354.563 275.068 354.702 274.661 354.83C274.276 354.959 273.944 355.077 273.666 355.184C272.596 355.612 271.857 356.104 271.451 356.66C271.066 357.217 270.873 357.806 270.873 358.426ZM289.061 363.146C288.077 363.146 287.167 363.028 286.332 362.792C285.519 362.578 284.706 362.247 283.892 361.797L283.86 358.073H286.011L286.589 361.059C287.36 361.38 288.194 361.54 289.093 361.54C290.185 361.54 290.998 361.348 291.533 360.963C292.068 360.577 292.336 360.042 292.336 359.357C292.336 358.758 292.122 358.276 291.694 357.913C291.266 357.527 290.538 357.163 289.511 356.821L287.906 356.275C286.707 355.89 285.755 355.323 285.048 354.574C284.363 353.825 284.021 352.883 284.021 351.748C284.021 350.849 284.256 350.036 284.727 349.308C285.198 348.559 285.883 347.971 286.782 347.543C287.702 347.093 288.815 346.868 290.121 346.868C291.041 346.868 291.876 346.986 292.625 347.222C293.395 347.436 294.155 347.757 294.904 348.185L294.744 351.556H292.625L292.047 348.859C291.448 348.602 290.784 348.474 290.057 348.474C289.2 348.474 288.537 348.656 288.066 349.02C287.595 349.383 287.36 349.876 287.36 350.496C287.36 351.074 287.552 351.545 287.938 351.909C288.344 352.251 289.093 352.605 290.185 352.968L291.469 353.354C293.032 353.889 294.145 354.552 294.808 355.344C295.472 356.136 295.803 357.089 295.803 358.201C295.803 359.636 295.215 360.823 294.038 361.765C292.882 362.685 291.223 363.146 289.061 363.146ZM303.616 363.146C302.331 363.146 301.325 362.825 300.598 362.183C299.87 361.54 299.506 360.513 299.506 359.1C299.506 358.608 299.506 358.148 299.506 357.72C299.528 357.27 299.538 356.735 299.538 356.115V349.276H297.163V347.607L299.763 347.286L300.983 342.887H303.584L303.455 347.318H307.308V349.276H303.423V358.747C303.423 359.539 303.573 360.117 303.872 360.481C304.194 360.845 304.611 361.027 305.125 361.027C305.702 361.027 306.355 360.759 307.083 360.224L307.853 361.027C307.447 361.69 306.89 362.215 306.184 362.6C305.478 362.964 304.622 363.146 303.616 363.146ZM308.811 362.696V361.38L310.93 360.963C310.951 360.171 310.962 359.314 310.962 358.394C310.962 357.452 310.962 356.639 310.962 355.954V354.445C310.962 353.568 310.951 352.84 310.93 352.262C310.93 351.663 310.908 351.042 310.866 350.4L308.586 350.111V348.891L314.365 346.868L314.879 347.19L314.782 351.716V355.954C314.782 356.639 314.782 357.452 314.782 358.394C314.782 359.314 314.793 360.181 314.814 360.995L316.773 361.38V362.696H308.811ZM312.856 343.883C312.171 343.883 311.593 343.669 311.122 343.241C310.652 342.813 310.416 342.267 310.416 341.603C310.416 340.918 310.652 340.362 311.122 339.934C311.593 339.506 312.171 339.292 312.856 339.292C313.541 339.292 314.108 339.506 314.558 339.934C315.028 340.362 315.264 340.918 315.264 341.603C315.264 342.267 315.028 342.813 314.558 343.241C314.108 343.669 313.541 343.883 312.856 343.883ZM318.72 362.696V361.38L320.807 360.963C320.828 360.171 320.839 359.314 320.839 358.394C320.839 357.452 320.839 356.639 320.839 355.954V354.253C320.839 353.375 320.828 352.679 320.807 352.166C320.807 351.631 320.785 351.042 320.742 350.4L318.495 350.111V348.891L323.856 346.868L324.37 347.19L324.595 349.662C326.243 347.8 328.062 346.868 330.053 346.868C331.444 346.868 332.514 347.329 333.263 348.249C334.034 349.169 334.419 350.625 334.419 352.615V355.954C334.419 356.682 334.419 357.506 334.419 358.426C334.419 359.347 334.43 360.203 334.451 360.995L336.41 361.38V362.696H328.48V361.38L330.534 360.963C330.556 360.171 330.566 359.325 330.566 358.426C330.566 357.506 330.566 356.682 330.566 355.954V352.904C330.566 351.641 330.395 350.775 330.053 350.304C329.71 349.811 329.132 349.565 328.319 349.565C327.185 349.565 325.986 350.09 324.723 351.138V355.954C324.723 356.66 324.723 357.474 324.723 358.394C324.723 359.314 324.734 360.181 324.755 360.995L326.65 361.38V362.696H318.72ZM344.992 355.89C345.891 355.89 346.576 355.537 347.047 354.83C347.518 354.124 347.753 353.182 347.753 352.005C347.753 350.871 347.518 349.972 347.047 349.308C346.597 348.624 345.944 348.281 345.088 348.281C344.232 348.281 343.558 348.634 343.066 349.341C342.595 350.025 342.359 350.946 342.359 352.102C342.359 353.257 342.584 354.178 343.034 354.863C343.483 355.547 344.136 355.89 344.992 355.89ZM340.947 365.682C340.947 366.666 341.311 367.383 342.038 367.833C342.766 368.282 343.804 368.507 345.153 368.507C346.843 368.507 348.117 368.229 348.973 367.672C349.851 367.116 350.289 366.442 350.289 365.65C350.289 365.051 350.075 364.537 349.647 364.109C349.241 363.681 348.524 363.467 347.496 363.467H343.933C343.141 363.467 342.434 363.402 341.814 363.274C341.236 364.045 340.947 364.847 340.947 365.682ZM345.056 357.303C344.093 357.303 343.205 357.185 342.392 356.949C341.985 357.506 341.782 358.094 341.782 358.715C341.782 359.122 341.91 359.443 342.167 359.678C342.445 359.914 342.937 360.031 343.644 360.031H347.657C349.754 360.031 351.252 360.427 352.151 361.219C353.05 362.011 353.5 363.081 353.5 364.43C353.5 365.436 353.168 366.378 352.505 367.255C351.862 368.133 350.899 368.839 349.615 369.374C348.352 369.909 346.769 370.177 344.864 370.177C343.216 370.177 341.889 370.005 340.883 369.663C339.898 369.32 339.181 368.86 338.732 368.282C338.304 367.705 338.089 367.062 338.089 366.356C338.089 365.671 338.314 365.04 338.764 364.462C339.213 363.905 339.952 363.381 340.979 362.889C340.315 362.653 339.823 362.322 339.502 361.894C339.181 361.444 339.021 360.93 339.021 360.353C339.021 359.732 339.202 359.122 339.566 358.523C339.952 357.902 340.54 357.228 341.332 356.5C339.641 355.644 338.796 354.178 338.796 352.102C338.796 350.518 339.352 349.255 340.465 348.313C341.578 347.35 343.109 346.868 345.056 346.868C347.004 346.868 348.524 347.318 349.615 348.217L353.243 346.836L353.725 347.157V349.405H350.61C351.06 350.132 351.285 351.031 351.285 352.102C351.285 353.664 350.739 354.927 349.647 355.89C348.556 356.832 347.025 357.303 345.056 357.303Z" fill="#758EA9"/>
</g>
<path d="M267.274 208.068V197.763L268.989 208.068H269.868L271.583 197.763V208.068H273.342V193.475H270.88L269.429 200.738L267.978 193.475H265.559V208.068H267.274Z" fill="white"/>
<defs>
<linearGradient id="paint0_linear_151_11757" x1="-37.9421" y1="-35.0235" x2="321.049" y2="340.993" gradientUnits="userSpaceOnUse">
<stop stop-color="white"/>
<stop offset="1" stop-color="#E1ECF2"/>
</linearGradient>
<linearGradient id="paint1_linear_151_11757" x1="575.699" y1="-26.5108" x2="199.682" y2="332.48" gradientUnits="userSpaceOnUse">
<stop stop-color="white"/>
<stop offset="1" stop-color="#E1ECF2"/>
</linearGradient>
<linearGradient id="paint2_linear_151_11757" x1="269.973" y1="587.13" x2="269.973" y2="-30.6456" gradientUnits="userSpaceOnUse">
<stop stop-color="white"/>
<stop offset="1" stop-color="#E1ECF2"/>
</linearGradient>
</defs>
</svg>
