<svg width="269" height="62" viewBox="0 0 269 62" fill="none" xmlns="http://www.w3.org/2000/svg">
<path d="M32 19H8V31H32V39H8V61H0V11H32V19Z" fill="#010413"/>
<path d="M42 49H10V41H42V49ZM42 29H10V21H42V29ZM42 9H10V1H42V9Z" fill="#6010FF"/>
<path d="M264.755 36.9999C262.907 36.9999 261.549 36.5379 260.681 35.6139C259.813 34.6899 259.379 33.3879 259.379 31.7079V5.91992H264.755V32.7159H267.653V36.9999H264.755Z" fill="#010413"/>
<path d="M252.045 37.0003C250.869 37.0003 249.931 36.6643 249.231 35.9923C248.559 35.2923 248.139 34.3683 247.971 33.2203H247.719C247.355 34.6483 246.613 35.7263 245.493 36.4543C244.373 37.1543 242.987 37.5043 241.335 37.5043C239.095 37.5043 237.373 36.9163 236.169 35.7403C234.965 34.5643 234.363 32.9963 234.363 31.0363C234.363 28.7683 235.175 27.0883 236.799 25.9963C238.423 24.8763 240.733 24.3163 243.729 24.3163H247.467V22.7203C247.467 21.4883 247.145 20.5363 246.501 19.8643C245.857 19.1923 244.821 18.8563 243.393 18.8563C242.133 18.8563 241.111 19.1363 240.327 19.6963C239.571 20.2283 238.927 20.8723 238.395 21.6283L235.203 18.7723C236.015 17.5123 237.093 16.5043 238.437 15.7483C239.781 14.9643 241.559 14.5723 243.771 14.5723C246.739 14.5723 248.993 15.2443 250.533 16.5883C252.073 17.9323 252.843 19.8643 252.843 22.3843V32.7163H255.027V37.0003H252.045ZM243.141 33.5983C244.345 33.5983 245.367 33.3323 246.207 32.8003C247.047 32.2683 247.467 31.4843 247.467 30.4483V27.5503H244.023C241.223 27.5503 239.823 28.4463 239.823 30.2383V30.9523C239.823 31.8483 240.103 32.5203 240.663 32.9683C241.251 33.3883 242.077 33.5983 243.141 33.5983Z" fill="#010413"/>
<path d="M218.964 37.0002L211.656 15.0762H216.948L220.014 24.5262L222.156 32.3382H222.45L224.592 24.5262L227.574 15.0762H232.698L225.348 37.0002H218.964Z" fill="#010413"/>
<path d="M189.414 36.9996V7.68359H208.734V12.5976H194.958V19.6956H207.138V24.6096H194.958V32.0856H208.734V36.9996H189.414Z" fill="#010413"/>
<path d="M174.52 37.5043C172.896 37.5043 171.439 37.2383 170.151 36.7063C168.891 36.1463 167.814 35.3763 166.918 34.3963C166.05 33.3883 165.377 32.1843 164.901 30.7843C164.425 29.3563 164.188 27.7603 164.188 25.9963C164.188 24.2603 164.411 22.6923 164.859 21.2923C165.335 19.8923 166.008 18.7023 166.876 17.7223C167.744 16.7143 168.807 15.9443 170.067 15.4123C171.327 14.8523 172.756 14.5723 174.352 14.5723C176.06 14.5723 177.543 14.8663 178.803 15.4543C180.063 16.0423 181.099 16.8403 181.911 17.8483C182.723 18.8563 183.325 20.0323 183.717 21.3763C184.138 22.6923 184.348 24.1063 184.348 25.6183V27.3823H169.773V27.9283C169.773 29.5243 170.222 30.8123 171.118 31.7923C172.014 32.7443 173.343 33.2203 175.107 33.2203C176.451 33.2203 177.543 32.9403 178.383 32.3803C179.251 31.8203 180.021 31.1063 180.693 30.2383L183.591 33.4723C182.695 34.7323 181.464 35.7263 179.896 36.4543C178.355 37.1543 176.564 37.5043 174.52 37.5043ZM174.436 18.6043C173.008 18.6043 171.874 19.0803 171.034 20.0323C170.194 20.9843 169.773 22.2163 169.773 23.7283V24.0643H178.761V23.6863C178.761 22.1743 178.384 20.9563 177.628 20.0323C176.9 19.0803 175.836 18.6043 174.436 18.6043Z" fill="#010413"/>
<path d="M149.375 37.0002V15.0762H154.751V19.6122H154.961C155.101 19.0242 155.311 18.4642 155.591 17.9322C155.899 17.3722 156.291 16.8822 156.767 16.4622C157.243 16.0422 157.803 15.7062 158.447 15.4542C159.119 15.2022 159.889 15.0762 160.757 15.0762H161.933V20.1582H160.253C158.433 20.1582 157.061 20.4242 156.137 20.9562C155.213 21.4882 154.751 22.3562 154.751 23.5602V37.0002H149.375Z" fill="#010413"/>
<path d="M137.786 33.3462H137.576C137.38 33.9062 137.114 34.4382 136.778 34.9422C136.47 35.4182 136.064 35.8522 135.56 36.2442C135.084 36.6362 134.496 36.9442 133.796 37.1682C133.124 37.3922 132.34 37.5042 131.444 37.5042C129.176 37.5042 127.44 36.7622 126.236 35.2782C125.032 33.7942 124.43 31.6802 124.43 28.9362V15.0762H129.806V28.3902C129.806 29.9022 130.1 31.0642 130.688 31.8762C131.276 32.6602 132.214 33.0522 133.502 33.0522C134.034 33.0522 134.552 32.9822 135.056 32.8422C135.588 32.7022 136.05 32.4922 136.442 32.2122C136.834 31.9042 137.156 31.5402 137.408 31.1202C137.66 30.6722 137.786 30.1542 137.786 29.5662V15.0762H143.162V37.0002H137.786V33.3462Z" fill="#010413"/>
<path d="M115.818 37.0003C113.97 37.0003 112.556 36.5243 111.576 35.5723C110.624 34.5923 110.148 33.2063 110.148 31.4143V19.3603H106.914V15.0763H108.594C109.406 15.0763 109.952 14.8943 110.232 14.5303C110.54 14.1383 110.694 13.5643 110.694 12.8083V9.07031H115.524V15.0763H120.018V19.3603H115.524V32.7163H119.682V37.0003H115.818Z" fill="#010413"/>
<path d="M97.3873 33.3462H97.1772C96.9812 33.9062 96.7153 34.4382 96.3793 34.9422C96.0713 35.4182 95.6652 35.8522 95.1612 36.2442C94.6852 36.6362 94.0972 36.9442 93.3972 37.1682C92.7252 37.3922 91.9412 37.5042 91.0452 37.5042C88.7772 37.5042 87.0412 36.7622 85.8372 35.2782C84.6332 33.7942 84.0312 31.6802 84.0312 28.9362V15.0762H89.4072V28.3902C89.4072 29.9022 89.7012 31.0642 90.2892 31.8762C90.8772 32.6602 91.8153 33.0522 93.1033 33.0522C93.6353 33.0522 94.1533 32.9822 94.6573 32.8422C95.1893 32.7022 95.6512 32.4922 96.0432 32.2122C96.4352 31.9042 96.7572 31.5402 97.0092 31.1202C97.2612 30.6722 97.3873 30.1542 97.3873 29.5662V15.0762H102.763V37.0002H97.3873V33.3462Z" fill="#010413"/>
<path d="M61.4453 36.9996V7.68359H80.3033V12.5976H66.9893V19.6956H78.5813V24.6096H66.9893V36.9996H61.4453Z" fill="#010413"/>
<path opacity="0.67" d="M156.295 58.5288C155.539 58.5288 154.886 58.4028 154.335 58.1508C153.794 57.8894 153.332 57.5441 152.949 57.1147L153.705 56.4567C154.051 56.8207 154.429 57.1008 154.839 57.2968C155.25 57.4928 155.745 57.5907 156.323 57.5907C156.883 57.5907 157.341 57.4928 157.695 57.2968C158.059 57.0914 158.241 56.7741 158.241 56.3448C158.241 56.1581 158.204 56.0041 158.129 55.8828C158.064 55.7521 157.971 55.6494 157.849 55.5747C157.728 55.5001 157.593 55.4441 157.443 55.4067C157.294 55.3601 157.135 55.3228 156.967 55.2948L155.833 55.1267C155.581 55.0894 155.306 55.0381 155.007 54.9727C154.718 54.9074 154.452 54.8047 154.209 54.6648C153.967 54.5154 153.761 54.3194 153.593 54.0767C153.435 53.8341 153.355 53.5168 153.355 53.1248C153.355 52.7608 153.425 52.4481 153.565 52.1868C153.715 51.9161 153.92 51.6921 154.181 51.5147C154.443 51.3281 154.751 51.1928 155.105 51.1088C155.46 51.0154 155.847 50.9688 156.267 50.9688C156.921 50.9688 157.485 51.0714 157.961 51.2767C158.447 51.4821 158.862 51.7667 159.207 52.1307L158.479 52.8167C158.395 52.7141 158.288 52.6114 158.157 52.5087C158.036 52.3968 157.882 52.2988 157.695 52.2148C157.518 52.1214 157.308 52.0468 157.065 51.9908C156.823 51.9348 156.543 51.9067 156.225 51.9067C155.656 51.9067 155.217 52.0047 154.909 52.2007C154.611 52.3967 154.461 52.6814 154.461 53.0548C154.461 53.2414 154.494 53.4001 154.559 53.5308C154.634 53.6521 154.732 53.7501 154.853 53.8247C154.975 53.8994 155.11 53.9601 155.259 54.0068C155.418 54.0441 155.577 54.0767 155.735 54.1047L156.869 54.2727C157.131 54.3101 157.406 54.3614 157.695 54.4268C157.985 54.4921 158.251 54.5994 158.493 54.7487C158.736 54.8887 158.937 55.0801 159.095 55.3228C159.263 55.5654 159.347 55.8827 159.347 56.2747C159.347 56.9934 159.067 57.5488 158.507 57.9408C157.957 58.3328 157.219 58.5288 156.295 58.5288Z" fill="#010413"/>
<path opacity="0.67" d="M149.526 57.1847H149.47C149.396 57.3621 149.302 57.5347 149.19 57.7027C149.078 57.8614 148.938 58.0014 148.77 58.1227C148.612 58.2441 148.42 58.3421 148.196 58.4167C147.972 58.4914 147.711 58.5287 147.412 58.5287C146.656 58.5287 146.05 58.2907 145.592 57.8147C145.135 57.3294 144.906 56.6481 144.906 55.7707V51.1367H146.026V55.5747C146.026 56.2374 146.171 56.7321 146.46 57.0587C146.75 57.3761 147.174 57.5347 147.734 57.5347C147.958 57.5347 148.178 57.5067 148.392 57.4507C148.607 57.3947 148.798 57.3107 148.966 57.1987C149.134 57.0867 149.27 56.9467 149.372 56.7787C149.475 56.6014 149.526 56.3914 149.526 56.1487V51.1367H150.646V58.3607H149.526V57.1847Z" fill="#010413"/>
<path opacity="0.67" d="M136.344 57.408H138.864V48.952H136.344V48H139.984V57.408H142.504V58.36H136.344V57.408Z" fill="#010413"/>
<path opacity="0.67" d="M132.737 57.1847H132.681C132.607 57.3621 132.513 57.5347 132.401 57.7027C132.289 57.8614 132.149 58.0014 131.981 58.1227C131.823 58.2441 131.631 58.3421 131.407 58.4167C131.183 58.4914 130.922 58.5287 130.623 58.5287C129.867 58.5287 129.261 58.2907 128.803 57.8147C128.346 57.3294 128.117 56.6481 128.117 55.7707V51.1367H129.237V55.5747C129.237 56.2374 129.382 56.7321 129.671 57.0587C129.961 57.3761 130.385 57.5347 130.945 57.5347C131.169 57.5347 131.389 57.5067 131.603 57.4507C131.818 57.3947 132.009 57.3107 132.177 57.1987C132.345 57.0867 132.481 56.9467 132.583 56.7787C132.686 56.6014 132.737 56.3914 132.737 56.1487V51.1367H133.857V58.3607H132.737V57.1847Z" fill="#010413"/>
<path opacity="0.67" d="M122.885 58.5288C122.363 58.5288 121.896 58.4401 121.485 58.2628C121.084 58.0761 120.743 57.8194 120.463 57.4928C120.183 57.1661 119.969 56.7694 119.819 56.3028C119.679 55.8361 119.609 55.3181 119.609 54.7487C119.609 54.1794 119.684 53.6614 119.833 53.1947C119.983 52.7281 120.197 52.3314 120.477 52.0048C120.757 51.6688 121.098 51.4121 121.499 51.2348C121.901 51.0574 122.358 50.9688 122.871 50.9688C123.571 50.9688 124.141 51.1228 124.579 51.4307C125.018 51.7388 125.34 52.1401 125.545 52.6348L124.649 53.1108C124.519 52.7374 124.299 52.4481 123.991 52.2428C123.693 52.0374 123.319 51.9347 122.871 51.9347C122.545 51.9347 122.251 51.9907 121.989 52.1027C121.737 52.2054 121.523 52.3547 121.345 52.5507C121.168 52.7467 121.033 52.9801 120.939 53.2507C120.855 53.5214 120.813 53.8154 120.813 54.1327V55.3647C120.813 55.6821 120.855 55.9761 120.939 56.2467C121.033 56.5174 121.168 56.7507 121.345 56.9467C121.523 57.1427 121.742 57.2968 122.003 57.4088C122.265 57.5114 122.563 57.5627 122.899 57.5627C123.385 57.5627 123.786 57.4508 124.103 57.2268C124.421 57.0028 124.673 56.6948 124.859 56.3028L125.657 56.8488C125.443 57.3341 125.107 57.7354 124.649 58.0528C124.201 58.3701 123.613 58.5288 122.885 58.5288Z" fill="#010413"/>
<path opacity="0.67" d="M116.971 58.3608C116.532 58.3608 116.22 58.2487 116.033 58.0247C115.846 57.8007 115.73 57.5208 115.683 57.1848H115.613C115.454 57.6048 115.198 57.9361 114.843 58.1788C114.498 58.4121 114.031 58.5288 113.443 58.5288C112.687 58.5288 112.085 58.3328 111.637 57.9408C111.189 57.5488 110.965 57.0121 110.965 56.3308C110.965 55.6588 111.208 55.1407 111.693 54.7767C112.188 54.4127 112.981 54.2308 114.073 54.2308H115.613V53.5168C115.613 52.9848 115.464 52.5881 115.165 52.3267C114.866 52.0561 114.442 51.9207 113.891 51.9207C113.406 51.9207 113.009 52.0188 112.701 52.2148C112.393 52.4014 112.146 52.6581 111.959 52.9847L111.203 52.4247C111.296 52.2381 111.422 52.0561 111.581 51.8787C111.74 51.7014 111.936 51.5474 112.169 51.4167C112.402 51.2767 112.668 51.1694 112.967 51.0947C113.266 51.0107 113.597 50.9688 113.961 50.9688C114.81 50.9688 115.482 51.1834 115.977 51.6128C116.481 52.0421 116.733 52.6394 116.733 53.4047V57.3808H117.741V58.3608H116.971ZM113.639 57.5907C113.928 57.5907 114.19 57.5581 114.423 57.4928C114.666 57.4181 114.876 57.3248 115.053 57.2128C115.23 57.0914 115.366 56.9514 115.459 56.7928C115.562 56.6248 115.613 56.4474 115.613 56.2607V55.0708H114.073C113.401 55.0708 112.911 55.1641 112.603 55.3507C112.295 55.5374 112.141 55.8081 112.141 56.1628V56.4567C112.141 56.8301 112.272 57.1148 112.533 57.3108C112.804 57.4974 113.172 57.5907 113.639 57.5907Z" fill="#010413"/>
<path opacity="0.67" d="M106.195 58.3599C105.645 58.3599 105.239 58.2059 104.977 57.8979C104.725 57.5899 104.599 57.1932 104.599 56.7079V52.0879H102.191V51.1359H103.983C104.226 51.1359 104.394 51.0892 104.487 50.9959C104.59 50.8932 104.641 50.7206 104.641 50.4779V48.5879H105.719V51.1359H109.009V52.0879H105.719V57.4079H109.009V58.3599H106.195Z" fill="#010413"/>
<path opacity="0.67" d="M97.5755 58.5288C97.0528 58.5288 96.5815 58.4401 96.1615 58.2628C95.7508 58.0854 95.3962 57.8334 95.0975 57.5068C94.8082 57.1708 94.5842 56.7741 94.4255 56.3167C94.2668 55.8501 94.1875 55.3321 94.1875 54.7628C94.1875 54.1841 94.2668 53.6614 94.4255 53.1947C94.5935 52.7281 94.8222 52.3314 95.1115 52.0048C95.4008 51.6688 95.7462 51.4121 96.1475 51.2348C96.5582 51.0574 97.0108 50.9688 97.5055 50.9688C97.9908 50.9688 98.4295 51.0574 98.8215 51.2348C99.2228 51.4121 99.5635 51.6594 99.8435 51.9767C100.124 52.2847 100.338 52.6534 100.487 53.0828C100.637 53.5121 100.712 53.9834 100.712 54.4967V55.0288H95.3635V55.3647C95.3635 55.6821 95.4148 55.9761 95.5175 56.2467C95.6202 56.5174 95.7648 56.7507 95.9515 56.9467C96.1475 57.1427 96.3808 57.2968 96.6515 57.4088C96.9315 57.5114 97.2395 57.5627 97.5755 57.5627C98.0608 57.5627 98.4808 57.4508 98.8355 57.2268C99.1902 57.0028 99.4608 56.6948 99.6475 56.3028L100.473 56.8628C100.259 57.3481 99.8995 57.7494 99.3955 58.0668C98.9008 58.3748 98.2942 58.5288 97.5755 58.5288ZM97.5055 51.8927C97.1975 51.8927 96.9128 51.9488 96.6515 52.0608C96.3902 52.1727 96.1615 52.3267 95.9655 52.5227C95.7788 52.7187 95.6295 52.9521 95.5175 53.2227C95.4148 53.4841 95.3635 53.7734 95.3635 54.0907V54.1888H99.5075V54.0347C99.5075 53.7174 99.4562 53.4281 99.3535 53.1667C99.2602 52.9054 99.1248 52.6814 98.9475 52.4948C98.7795 52.2988 98.5695 52.1494 98.3175 52.0468C98.0748 51.9441 97.8042 51.8927 97.5055 51.8927Z" fill="#010413"/>
<path opacity="0.67" d="M91.2266 53.4599V50.3659H91.1146L89.0566 55.3919L86.9986 50.3659H86.8866V53.4599V58.3599H85.8086V48.5879H87.3206L89.0426 52.8999H89.1266L90.8486 48.5879H92.3046V58.3599H91.2266V53.4599Z" fill="#010413"/>
<path opacity="0.67" d="M74.6046 51.1367H75.7246L72.1406 59.9427C72.0566 60.1481 71.9633 60.3254 71.8606 60.4747C71.7579 60.6334 71.6366 60.7594 71.4966 60.8527C71.3566 60.9554 71.1886 61.0301 70.9926 61.0767C70.7966 61.1327 70.5633 61.1607 70.2926 61.1607H69.2286V60.2087H70.9086L71.7206 58.2207L68.8086 51.1367H69.9566L71.1746 54.1607L72.2526 56.9047H72.3086L73.3866 54.1607L74.6046 51.1367Z" fill="#010413"/>
<path opacity="0.67" d="M61 48H62.12V52.312H62.176C62.6427 51.416 63.3847 50.968 64.402 50.968C65.2887 50.968 65.9793 51.2993 66.474 51.962C66.978 52.6247 67.23 53.5533 67.23 54.748C67.23 55.9427 66.978 56.8713 66.474 57.534C65.9793 58.1967 65.2887 58.528 64.402 58.528C63.3847 58.528 62.6427 58.08 62.176 57.184H62.12V58.36H61V48ZM63.968 57.534C64.6213 57.534 65.1253 57.338 65.48 56.946C65.844 56.5447 66.026 56.0173 66.026 55.364V54.132C66.026 53.4787 65.844 52.956 65.48 52.564C65.1253 52.1627 64.6213 51.962 63.968 51.962C63.716 51.962 63.478 51.9947 63.254 52.06C63.03 52.1253 62.834 52.2233 62.666 52.354C62.498 52.4753 62.3627 52.6293 62.26 52.816C62.1667 52.9933 62.12 53.2033 62.12 53.446V56.05C62.12 56.2927 62.1667 56.5073 62.26 56.694C62.3627 56.8713 62.498 57.0253 62.666 57.156C62.834 57.2773 63.03 57.3707 63.254 57.436C63.478 57.5013 63.716 57.534 63.968 57.534Z" fill="#010413"/>
</svg>
