<svg width="122" height="35" viewBox="0 0 122 35" fill="none" xmlns="http://www.w3.org/2000/svg">
<path d="M23 11.0002H4V21.0002H23V25.0002H4V35.0002H0V7.00024H23V11.0002Z" fill="#EDF7F3"/>
<rect x="7" y="18.0002" width="4" height="23" transform="rotate(-90 7 18.0002)" fill="#23FBE3"/>
<rect x="7" y="4.00024" width="4" height="23" transform="rotate(-90 7 4.00024)" fill="#23FBE3"/>
<rect x="7" y="32.0002" width="4" height="23" transform="rotate(-90 7 32.0002)" fill="#23FBE3"/>
<path opacity="0.5" d="M119.816 33.2361C119.59 33.2361 119.38 33.2125 119.187 33.1654C118.996 33.1159 118.829 33.0453 118.685 32.9534C118.544 32.8592 118.433 32.7437 118.353 32.6071C118.275 32.4704 118.237 32.3138 118.237 32.1371C118.237 32.1182 118.237 32.0994 118.237 32.0805C118.237 32.0593 118.237 32.0417 118.237 32.0275H118.841C118.841 32.0417 118.841 32.0534 118.841 32.0629C118.841 32.0723 118.841 32.0864 118.841 32.1053C118.841 32.2961 118.929 32.4422 119.106 32.5435C119.283 32.6424 119.524 32.6919 119.83 32.6919C120.019 32.6919 120.187 32.673 120.336 32.6353C120.484 32.5976 120.601 32.5399 120.686 32.4622C120.773 32.3844 120.816 32.2867 120.816 32.1689C120.816 31.9733 120.724 31.8343 120.541 31.7519C120.359 31.6671 120.087 31.594 119.724 31.5328C119.533 31.4998 119.352 31.4574 119.18 31.4056C119.008 31.3514 118.855 31.2819 118.721 31.1971C118.589 31.1123 118.484 31.0074 118.406 30.8826C118.331 30.7553 118.293 30.6034 118.293 30.4267C118.293 30.1982 118.36 30.005 118.495 29.8472C118.631 29.687 118.815 29.5656 119.046 29.4832C119.277 29.3984 119.533 29.356 119.816 29.356C120.089 29.356 120.342 29.3995 120.572 29.4867C120.803 29.5739 120.988 29.7011 121.127 29.8684C121.269 30.0333 121.339 30.2371 121.339 30.4797C121.339 30.4891 121.339 30.5009 121.339 30.515C121.339 30.5268 121.339 30.5386 121.339 30.5504H120.739C120.739 30.5386 120.739 30.5292 120.739 30.5221C120.739 30.515 120.739 30.5068 120.739 30.4974C120.739 30.3607 120.695 30.2488 120.608 30.1617C120.521 30.0721 120.408 30.0062 120.269 29.9638C120.13 29.919 119.981 29.8966 119.823 29.8966C119.675 29.8966 119.529 29.9131 119.385 29.9461C119.241 29.9767 119.122 30.0286 119.028 30.1016C118.934 30.1746 118.887 30.2748 118.887 30.402C118.887 30.5292 118.93 30.6317 119.018 30.7094C119.107 30.7848 119.232 30.8472 119.392 30.8967C119.555 30.9438 119.746 30.9874 119.965 31.0275C120.16 31.0628 120.345 31.1076 120.519 31.1617C120.694 31.2136 120.847 31.2807 120.979 31.3632C121.113 31.4456 121.218 31.5505 121.293 31.6777C121.371 31.8025 121.41 31.9557 121.41 32.1371C121.41 32.3208 121.368 32.481 121.283 32.6177C121.2 32.7543 121.085 32.8686 120.936 32.9605C120.79 33.0523 120.621 33.1207 120.428 33.1654C120.237 33.2125 120.033 33.2361 119.816 33.2361Z" fill="white"/>
<path opacity="0.5" d="M115.529 33.2324C115.26 33.2324 115.036 33.1865 114.857 33.0946C114.678 33.0004 114.536 32.879 114.43 32.7306C114.326 32.5822 114.252 32.422 114.207 32.25C114.165 32.0757 114.144 31.9084 114.144 31.7482C114.144 31.6587 114.144 31.5668 114.144 31.4726C114.144 31.376 114.144 31.2794 114.144 31.1828V29.4124H114.748V31.1051C114.748 31.1922 114.748 31.2782 114.748 31.363C114.748 31.4478 114.748 31.5279 114.748 31.6033C114.748 31.7941 114.774 31.9708 114.826 32.1334C114.88 32.296 114.973 32.4279 115.105 32.5292C115.237 32.6281 115.418 32.6776 115.649 32.6776C115.866 32.6776 116.055 32.6128 116.218 32.4832C116.38 32.3513 116.508 32.1876 116.6 31.992C116.691 31.7941 116.737 31.5974 116.737 31.4019L117.087 31.5468C117.087 31.7541 117.051 31.9579 116.978 32.1581C116.905 32.356 116.8 32.5363 116.663 32.6988C116.529 32.8614 116.365 32.9909 116.172 33.0875C115.981 33.1841 115.767 33.2324 115.529 33.2324ZM116.737 33.1653V29.4124H117.338V33.1653H116.737Z" fill="white"/>
<path opacity="0.5" d="M113.044 27.6421V33.1655H112.45V27.6421H113.044Z" fill="white"/>
<path opacity="0.5" d="M109.545 33.2324C109.276 33.2324 109.053 33.1865 108.874 33.0946C108.694 33.0004 108.552 32.879 108.446 32.7306C108.342 32.5822 108.268 32.422 108.223 32.25C108.181 32.0757 108.16 31.9084 108.16 31.7482C108.16 31.6587 108.16 31.5668 108.16 31.4726C108.16 31.376 108.16 31.2794 108.16 31.1828V29.4124H108.764V31.1051C108.764 31.1922 108.764 31.2782 108.764 31.363C108.764 31.4478 108.764 31.5279 108.764 31.6033C108.764 31.7941 108.79 31.9708 108.842 32.1334C108.896 32.296 108.989 32.4279 109.121 32.5292C109.253 32.6281 109.434 32.6776 109.665 32.6776C109.882 32.6776 110.071 32.6128 110.234 32.4832C110.397 32.3513 110.524 32.1876 110.616 31.992C110.708 31.7941 110.753 31.5974 110.753 31.4019L111.103 31.5468C111.103 31.7541 111.067 31.9579 110.994 32.1581C110.921 32.356 110.816 32.5363 110.679 32.6988C110.545 32.8614 110.381 32.9909 110.188 33.0875C109.997 33.1841 109.783 33.2324 109.545 33.2324ZM110.753 33.1653V29.4124H111.354V33.1653H110.753Z" fill="white"/>
<path opacity="0.5" d="M105.489 33.2361C105.131 33.2361 104.806 33.1583 104.514 33.0029C104.221 32.845 103.989 32.62 103.817 32.3279C103.648 32.0358 103.563 31.6883 103.563 31.2854C103.563 30.8826 103.648 30.5374 103.817 30.25C103.989 29.9602 104.221 29.7388 104.514 29.5857C104.806 29.4325 105.131 29.356 105.489 29.356C105.762 29.356 106.006 29.3984 106.22 29.4832C106.435 29.5656 106.616 29.6764 106.765 29.8154C106.913 29.9544 107.026 30.1075 107.104 30.2748C107.184 30.4397 107.224 30.6046 107.224 30.7695C107.224 30.7718 107.224 30.7754 107.224 30.7801C107.224 30.7848 107.224 30.7895 107.224 30.7942H106.627C106.627 30.7824 106.626 30.7695 106.623 30.7553C106.621 30.7389 106.619 30.7224 106.616 30.7059C106.597 30.548 106.537 30.4102 106.436 30.2924C106.335 30.1723 106.203 30.078 106.04 30.0097C105.878 29.9414 105.693 29.9072 105.485 29.9072C105.252 29.9072 105.035 29.9579 104.835 30.0592C104.637 30.1581 104.477 30.3101 104.355 30.515C104.234 30.7177 104.174 30.9744 104.174 31.2854C104.174 31.594 104.234 31.852 104.355 32.0593C104.475 32.2666 104.634 32.4233 104.832 32.5293C105.032 32.633 105.25 32.6848 105.485 32.6848C105.74 32.6848 105.949 32.6448 106.114 32.5647C106.279 32.4846 106.403 32.3786 106.485 32.2466C106.57 32.1123 106.617 31.9686 106.627 31.8155H107.224C107.224 31.9851 107.186 32.1547 107.111 32.3244C107.036 32.4916 106.925 32.6448 106.779 32.7838C106.633 32.9204 106.451 33.03 106.235 33.1124C106.02 33.1949 105.772 33.2361 105.489 33.2361Z" fill="white"/>
<path opacity="0.5" d="M100.712 33.2361C100.427 33.2361 100.177 33.1913 99.9629 33.1018C99.7509 33.0123 99.586 32.8839 99.4682 32.7166C99.3504 32.547 99.2915 32.3444 99.2915 32.1088C99.2915 31.8638 99.3551 31.66 99.4823 31.4975C99.6095 31.3325 99.7886 31.2041 100.019 31.1123C100.25 31.0204 100.519 30.9591 100.825 30.9285C101.287 30.8814 101.616 30.8354 101.811 30.7907C102.007 30.7436 102.104 30.6682 102.104 30.5645C102.104 30.5622 102.104 30.561 102.104 30.561C102.104 30.5586 102.104 30.5563 102.104 30.5539C102.104 30.3372 102.016 30.1758 101.839 30.0698C101.663 29.9614 101.407 29.9072 101.073 29.9072C100.724 29.9072 100.453 29.9685 100.26 30.091C100.067 30.2111 99.97 30.4067 99.97 30.6776H99.3763C99.3763 30.3973 99.4482 30.1593 99.5919 29.9638C99.7356 29.7659 99.9347 29.6151 100.189 29.5114C100.446 29.4078 100.742 29.356 101.076 29.356C101.382 29.356 101.658 29.4031 101.903 29.4973C102.15 29.5892 102.346 29.727 102.49 29.9108C102.636 30.0922 102.709 30.3172 102.709 30.5857C102.709 30.6352 102.709 30.6847 102.709 30.7341C102.709 30.7813 102.709 30.8296 102.709 30.879V32.4587C102.709 32.5411 102.712 32.6212 102.719 32.699C102.726 32.7767 102.738 32.845 102.755 32.9039C102.776 32.9746 102.799 33.0323 102.825 33.0771C102.851 33.1195 102.872 33.1489 102.889 33.1654H102.285C102.273 33.1536 102.255 33.1265 102.232 33.0841C102.208 33.0394 102.186 32.9875 102.164 32.9286C102.148 32.8815 102.135 32.8226 102.126 32.752C102.116 32.6789 102.111 32.6035 102.111 32.5258L102.21 32.5929C102.137 32.7202 102.03 32.8321 101.889 32.9286C101.75 33.0252 101.581 33.1006 101.384 33.1548C101.186 33.209 100.962 33.2361 100.712 33.2361ZM100.808 32.6954C101.05 32.6954 101.269 32.6589 101.465 32.5859C101.66 32.5105 101.816 32.3998 101.931 32.2537C102.047 32.1076 102.104 31.9262 102.104 31.7095V30.9638L102.239 31.19C102.088 31.2489 101.899 31.2972 101.673 31.3349C101.449 31.3702 101.215 31.3997 100.97 31.4232C100.614 31.4562 100.346 31.5187 100.164 31.6105C99.9853 31.7024 99.8958 31.8567 99.8958 32.0735C99.8958 32.2784 99.97 32.4339 100.118 32.5399C100.267 32.6436 100.497 32.6954 100.808 32.6954Z" fill="white"/>
<path opacity="0.5" d="M97.9036 33.2218C97.7882 33.2218 97.6751 33.2089 97.5644 33.1829C97.4536 33.157 97.3535 33.1111 97.264 33.0451C97.1768 32.9768 97.1073 32.8814 97.0555 32.7589C97.0037 32.634 96.9778 32.4738 96.9778 32.2783C96.9778 32.2288 96.9778 32.1782 96.9778 32.1263C96.9778 32.0722 96.9778 32.0156 96.9778 31.9567V29.9424H96.0625V29.4124H96.6491C96.7292 29.4124 96.7916 29.41 96.8364 29.4053C96.8812 29.3982 96.913 29.3829 96.9318 29.3594C96.953 29.3334 96.966 29.2946 96.9707 29.2427C96.9754 29.1886 96.9778 29.1143 96.9778 29.0201V28.1685H97.582V29.4124H98.7553V29.9424H97.582V31.7624C97.582 31.8142 97.582 31.8648 97.582 31.9143C97.582 31.9638 97.582 32.0097 97.582 32.0521C97.582 32.2524 97.6056 32.409 97.6527 32.5221C97.7022 32.6352 97.8117 32.6917 97.9814 32.6917C98.0497 32.6917 98.1145 32.6859 98.1757 32.6741C98.237 32.6623 98.2829 32.6505 98.3135 32.6387V33.1617C98.2735 33.1759 98.217 33.1888 98.1439 33.2006C98.0732 33.2148 97.9931 33.2218 97.9036 33.2218Z" fill="white"/>
<path opacity="0.5" d="M92.1205 31.5293V30.9921H95.0218L94.9157 31.1688C94.9157 31.1547 94.9157 31.1417 94.9157 31.1299C94.9157 31.1158 94.9157 31.1028 94.9157 31.0911C94.9157 30.8743 94.8698 30.6764 94.7779 30.4974C94.6884 30.316 94.5541 30.1711 94.3751 30.0627C94.196 29.9544 93.9746 29.9002 93.7107 29.9002C93.4445 29.9002 93.2101 29.9567 93.0075 30.0698C92.8049 30.1829 92.647 30.3431 92.534 30.5504C92.4209 30.7553 92.3643 31.0004 92.3643 31.2854C92.3643 31.5752 92.4185 31.8249 92.5269 32.0346C92.6376 32.2443 92.7943 32.4056 92.9969 32.5187C93.1995 32.6318 93.4398 32.6883 93.7178 32.6883C93.9157 32.6883 94.0877 32.6683 94.2337 32.6283C94.3798 32.5859 94.4999 32.5305 94.5942 32.4622C94.6908 32.3915 94.7638 32.3149 94.8133 32.2325C94.8627 32.15 94.8922 32.0676 94.9016 31.9851H95.5024C95.4906 32.1359 95.4435 32.2855 95.361 32.4339C95.2786 32.5823 95.1619 32.7178 95.0112 32.8403C94.8604 32.9605 94.6754 33.057 94.4564 33.1301C94.2373 33.2031 93.9852 33.2396 93.7001 33.2396C93.3232 33.2396 92.991 33.1572 92.7036 32.9923C92.4162 32.8273 92.19 32.5988 92.0251 32.3067C91.8625 32.0146 91.7812 31.6789 91.7812 31.2996C91.7812 30.9155 91.8637 30.5787 92.0286 30.2889C92.1935 29.9968 92.4209 29.7682 92.7106 29.6033C93.0004 29.4384 93.3314 29.356 93.7036 29.356C94.0829 29.356 94.4116 29.4384 94.6896 29.6033C94.9676 29.7682 95.182 29.9944 95.3327 30.2818C95.4835 30.5669 95.5589 30.892 95.5589 31.2572C95.5589 31.2948 95.5577 31.3443 95.5554 31.4056C95.553 31.4668 95.5495 31.5081 95.5448 31.5293H92.1205Z" fill="white"/>
<path opacity="0.5" d="M89.7849 27.9529H90.8239V33.1653H90.2514V28.4335L90.2691 28.4405L88.9403 33.1653H88.0781L86.7423 28.437L86.76 28.4299V33.1653H86.1875V27.9529H87.2264L88.5057 32.6811H88.4986L89.7849 27.9529Z" fill="white"/>
<path opacity="0.5" d="M80.8372 34.7484C80.7429 34.7484 80.657 34.7425 80.5792 34.7308C80.5015 34.7213 80.4532 34.7119 80.4343 34.7025V34.1795C80.465 34.1936 80.5156 34.2054 80.5863 34.2148C80.657 34.2242 80.7276 34.2289 80.7983 34.2289C80.9491 34.2289 81.0763 34.1971 81.18 34.1335C81.2836 34.0723 81.3708 33.9875 81.4415 33.8791C81.5121 33.7731 81.5699 33.6529 81.6146 33.5187L81.7277 33.1865L80.4343 29.4124H81.0633L82.1023 32.6458H82.0175L83.0352 29.4124H83.6536L82.279 33.4868C82.2012 33.7154 82.107 33.925 81.9963 34.1159C81.8879 34.3067 81.7418 34.4598 81.5581 34.5753C81.3767 34.6907 81.1364 34.7484 80.8372 34.7484Z" fill="white"/>
<path opacity="0.5" d="M78.3204 33.2361C78.0306 33.2361 77.7597 33.1655 77.5076 33.0241C77.2555 32.8804 77.0506 32.6837 76.8927 32.4339C76.7372 32.1842 76.6595 31.8992 76.6595 31.5788C76.6595 31.5717 76.6595 31.5658 76.6595 31.5611C76.6595 31.5564 76.6595 31.5505 76.6595 31.5434L77.0906 31.5328C77.0906 31.5375 77.0906 31.5434 77.0906 31.5505C77.0906 31.5552 77.0906 31.5599 77.0906 31.5646C77.0906 31.7672 77.1436 31.9522 77.2496 32.1194C77.358 32.2867 77.4994 32.4198 77.6737 32.5188C77.848 32.6177 78.0353 32.6672 78.2356 32.6672C78.5677 32.6672 78.8434 32.5541 79.0625 32.3279C79.2839 32.0994 79.3947 31.7519 79.3947 31.2855C79.3947 30.8166 79.2851 30.4703 79.066 30.2465C78.8469 30.0204 78.5701 29.9073 78.2356 29.9073C78.0353 29.9073 77.848 29.9567 77.6737 30.0557C77.4994 30.1523 77.358 30.283 77.2496 30.4479C77.1436 30.6129 77.0906 30.7978 77.0906 31.0028L76.6595 30.9886C76.6595 30.6659 76.7372 30.382 76.8927 30.137C77.0506 29.892 77.2555 29.7011 77.5076 29.5645C77.7597 29.4255 78.0306 29.356 78.3204 29.356C78.6243 29.356 78.9046 29.4314 79.1614 29.5822C79.4182 29.7306 79.6244 29.9485 79.7798 30.2359C79.9353 30.5233 80.0131 30.8732 80.0131 31.2855C80.0131 31.7048 79.9365 32.0605 79.7834 32.3527C79.6302 32.6424 79.4253 32.8627 79.1685 33.0135C78.9117 33.1619 78.629 33.2361 78.3204 33.2361ZM76.4863 33.1655V27.6421H77.0906V33.1655H76.4863Z" fill="white"/>
<path d="M86.5632 9.79675V8.41686H94.0164L93.7441 8.87077C93.7441 8.83446 93.7441 8.80117 93.7441 8.77091C93.7441 8.7346 93.7441 8.70131 93.7441 8.67105C93.7441 8.11425 93.626 7.60587 93.39 7.1459C93.16 6.67988 92.8151 6.30768 92.3551 6.02928C91.8951 5.75088 91.3262 5.61168 90.6484 5.61168C89.9645 5.61168 89.3623 5.75693 88.8418 6.04743C88.3213 6.33794 87.9158 6.74948 87.6253 7.28208C87.3348 7.80861 87.1896 8.43804 87.1896 9.17035C87.1896 9.91477 87.3288 10.5563 87.6072 11.0949C87.8916 11.6336 88.2941 12.0482 88.8146 12.3387C89.3351 12.6292 89.9524 12.7744 90.6665 12.7744C91.1749 12.7744 91.6167 12.723 91.992 12.6201C92.3672 12.5112 92.6759 12.3689 92.9179 12.1934C93.1661 12.0118 93.3537 11.8152 93.4808 11.6033C93.6079 11.3915 93.6835 11.1797 93.7078 10.9678H95.2511C95.2208 11.3552 95.0998 11.7395 94.8879 12.1208C94.6761 12.5021 94.3765 12.8501 93.9892 13.1648C93.6018 13.4735 93.1267 13.7216 92.5639 13.9092C92.001 14.0968 91.3535 14.1906 90.6211 14.1906C89.6528 14.1906 88.7994 13.9788 88.0611 13.5552C87.3227 13.1315 86.7417 12.5444 86.3181 11.794C85.9005 11.0435 85.6917 10.1811 85.6917 9.20667C85.6917 8.22016 85.9035 7.3547 86.3271 6.61028C86.7508 5.85982 87.3348 5.27275 88.0792 4.8491C88.8236 4.42545 89.674 4.21362 90.6302 4.21362C91.6046 4.21362 92.4489 4.42545 93.1631 4.8491C93.8772 5.27275 94.428 5.85376 94.8153 6.59213C95.2026 7.32444 95.3963 8.15964 95.3963 9.09773C95.3963 9.19456 95.3933 9.32166 95.3872 9.47901C95.3812 9.63637 95.3721 9.74228 95.36 9.79675H86.5632Z" fill="white"/>
<path d="M78.936 14V4.35888H80.4793V7.31839L79.971 7.13682C80.0073 6.77975 80.0981 6.42872 80.2433 6.08375C80.3886 5.73272 80.5883 5.41801 80.8425 5.13961C81.1027 4.85515 81.4265 4.63122 81.8138 4.46781C82.2012 4.29835 82.6551 4.21362 83.1756 4.21362C83.5629 4.21362 83.8776 4.24691 84.1197 4.31348C84.3679 4.37401 84.5222 4.42242 84.5827 4.45874L84.1833 5.97481C84.1227 5.93244 83.9987 5.87797 83.8111 5.8114C83.6295 5.74482 83.3693 5.71154 83.0303 5.71154C82.528 5.71154 82.1104 5.80232 81.7775 5.98388C81.4507 6.16545 81.1905 6.40754 80.9968 6.71014C80.8092 7.0067 80.676 7.33049 80.5974 7.68152C80.5187 8.03254 80.4793 8.38055 80.4793 8.72552V14H78.936Z" fill="white"/>
<path d="M71.608 14.1725C70.918 14.1725 70.3431 14.0545 69.8831 13.8184C69.4232 13.5763 69.057 13.2647 68.7847 12.8834C68.5184 12.5021 68.3277 12.0905 68.2127 11.6487C68.1038 11.2009 68.0493 10.7712 68.0493 10.3596C68.0493 10.1296 68.0493 9.8936 68.0493 9.65151C68.0493 9.40337 68.0493 9.15524 68.0493 8.9071V4.35889H69.6017V8.70737C69.6017 8.93131 69.6017 9.15221 69.6017 9.37009C69.6017 9.58796 69.6017 9.79374 69.6017 9.98741C69.6017 10.4776 69.6683 10.9315 69.8014 11.3491C69.9406 11.7667 70.1797 12.1057 70.5186 12.3659C70.8575 12.6201 71.3235 12.7472 71.9167 12.7472C72.4735 12.7472 72.9607 12.5808 73.3783 12.2479C73.7959 11.909 74.1227 11.4883 74.3587 10.986C74.5947 10.4776 74.7128 9.97228 74.7128 9.46995L75.6115 9.84216C75.6115 10.3747 75.5177 10.8983 75.3301 11.4127C75.1425 11.9211 74.8731 12.3841 74.5221 12.8017C74.1771 13.2193 73.7565 13.5521 73.2602 13.8003C72.77 14.0484 72.2193 14.1725 71.608 14.1725ZM74.7128 14V4.35889H76.2561V14H74.7128Z" fill="white"/>
<path d="M63.8833 14.1452C63.5868 14.1452 63.2963 14.112 63.0118 14.0454C62.7274 13.9788 62.4702 13.8608 62.2402 13.6913C62.0162 13.5158 61.8377 13.2707 61.7046 12.956C61.5714 12.6352 61.5048 12.2237 61.5048 11.7213C61.5048 11.5943 61.5048 11.4641 61.5048 11.331C61.5048 11.1918 61.5048 11.0465 61.5048 10.8952V5.72062H59.1536V4.35888H60.6606C60.8663 4.35888 61.0267 4.35283 61.1417 4.34072C61.2567 4.32256 61.3384 4.28323 61.3868 4.2227C61.4413 4.15613 61.4746 4.05627 61.4867 3.92312C61.4988 3.78392 61.5048 3.59328 61.5048 3.35119V1.16333H63.0572V4.35888H66.0712V5.72062H63.0572V10.3959C63.0572 10.5291 63.0572 10.6592 63.0572 10.7863C63.0572 10.9134 63.0572 11.0314 63.0572 11.1403C63.0572 11.6548 63.1177 12.0572 63.2388 12.3477C63.3659 12.6383 63.6473 12.7835 64.0831 12.7835C64.2586 12.7835 64.425 12.7684 64.5824 12.7381C64.7397 12.7079 64.8577 12.6776 64.9364 12.6473V13.9909C64.8335 14.0272 64.6883 14.0605 64.5007 14.0908C64.3191 14.1271 64.1133 14.1452 63.8833 14.1452Z" fill="white"/>
<path d="M52.7423 14.1725C52.0523 14.1725 51.4774 14.0545 51.0174 13.8184C50.5574 13.5763 50.1913 13.2647 49.9189 12.8834C49.6526 12.5021 49.462 12.0905 49.347 11.6487C49.2381 11.2009 49.1836 10.7712 49.1836 10.3596C49.1836 10.1296 49.1836 9.8936 49.1836 9.65151C49.1836 9.40337 49.1836 9.15524 49.1836 8.9071V4.35889H50.736V8.70737C50.736 8.93131 50.736 9.15221 50.736 9.37009C50.736 9.58796 50.736 9.79374 50.736 9.98741C50.736 10.4776 50.8025 10.9315 50.9357 11.3491C51.0749 11.7667 51.314 12.1057 51.6529 12.3659C51.9918 12.6201 52.4578 12.7472 53.0509 12.7472C53.6077 12.7472 54.0949 12.5808 54.5125 12.2479C54.9301 11.909 55.257 11.4883 55.493 10.986C55.729 10.4776 55.847 9.97228 55.847 9.46995L56.7458 9.84216C56.7458 10.3747 56.652 10.8983 56.4644 11.4127C56.2767 11.9211 56.0074 12.3841 55.6564 12.8017C55.3114 13.2193 54.8908 13.5521 54.3945 13.8003C53.9043 14.0484 53.3535 14.1725 52.7423 14.1725ZM55.847 14V4.35889H57.3903V14H55.847Z" fill="white"/>
<path d="M41.1243 1.97136L41.8233 1.09077V7.20951L41.324 6.71929H46.7438V8.08103H41.324L41.8233 7.56357V14.0001H40.28V0.609619H47.5517V1.97136H41.1243Z" fill="white"/>
<path d="M71.3596 18.5806V32.7699H69.8345V18.5806H71.3596Z" fill="#23FBE3"/>
<path d="M62.0022 32.9516C61.2699 32.9516 60.6284 32.8366 60.0777 32.6066C59.533 32.3766 59.1093 32.0468 58.8067 31.6171C58.5041 31.1813 58.3528 30.6608 58.3528 30.0556C58.3528 29.4262 58.5162 28.9027 58.843 28.4851C59.1698 28.0614 59.6298 27.7316 60.2229 27.4955C60.816 27.2595 61.506 27.1021 62.2927 27.0235C63.479 26.9024 64.3233 26.7844 64.8256 26.6694C65.3279 26.5484 65.5791 26.3547 65.5791 26.0884C65.5791 26.0824 65.5791 26.0793 65.5791 26.0793C65.5791 26.0733 65.5791 26.0672 65.5791 26.0612C65.5791 25.5044 65.3521 25.0898 64.8982 24.8175C64.4443 24.5391 63.7876 24.3999 62.9282 24.3999C62.0325 24.3999 61.3365 24.5572 60.8402 24.8719C60.3439 25.1806 60.0958 25.6829 60.0958 26.3789H58.5707C58.5707 25.6587 58.7553 25.0474 59.1244 24.5451C59.4936 24.0367 60.005 23.6494 60.6587 23.3831C61.3183 23.1168 62.0779 22.9836 62.9373 22.9836C63.7241 22.9836 64.4322 23.1047 65.0616 23.3468C65.6971 23.5828 66.1994 23.9369 66.5686 24.4089C66.9438 24.8749 67.1315 25.4529 67.1315 26.1429C67.1315 26.27 67.1315 26.3971 67.1315 26.5242C67.1315 26.6452 67.1315 26.7693 67.1315 26.8964V30.9544C67.1315 31.1662 67.1405 31.372 67.1587 31.5717C67.1769 31.7714 67.2071 31.9469 67.2495 32.0982C67.3039 32.2798 67.3645 32.4281 67.431 32.5431C67.4976 32.652 67.5521 32.7276 67.5945 32.77H66.0421C66.0118 32.7397 65.9664 32.6701 65.9059 32.5612C65.8454 32.4462 65.7879 32.3131 65.7334 32.1618C65.691 32.0407 65.6578 31.8894 65.6335 31.7079C65.6093 31.5202 65.5972 31.3266 65.5972 31.1268L65.8514 31.2993C65.6638 31.6261 65.3884 31.9136 65.0253 32.1618C64.6682 32.4099 64.2355 32.6036 63.7271 32.7428C63.2187 32.882 62.6438 32.9516 62.0022 32.9516ZM62.2474 31.5626C62.8707 31.5626 63.4336 31.4688 63.9359 31.2812C64.4382 31.0875 64.8377 30.8031 65.1342 30.4278C65.4308 30.0526 65.5791 29.5866 65.5791 29.0298V27.1143L65.9241 27.6953C65.5367 27.8466 65.0525 27.9706 64.4715 28.0675C63.8966 28.1583 63.2944 28.2339 62.665 28.2944C61.7511 28.3792 61.0611 28.5395 60.5951 28.7756C60.1351 29.0116 59.9052 29.408 59.9052 29.9648C59.9052 30.4914 60.0958 30.8908 60.4771 31.1632C60.8584 31.4295 61.4485 31.5626 62.2474 31.5626Z" fill="#23FBE3"/>
<path d="M57.2456 23.1289L54.0138 32.77H51.9893L48.6848 23.1289H50.2826L53.1241 31.953H52.879L55.6478 23.1289H57.2456Z" fill="#23FBE3"/>
<path d="M41.1334 20.7414L41.8324 19.8608V25.9069L41.4511 25.3713H46.5894V26.733H41.4511L41.8324 26.1974V32.2889L41.1334 31.4083H47.5971V32.7701H40.28V19.3796H47.5971V20.7414H41.1334Z" fill="#23FBE3"/>
</svg>
