<svg width="406" height="70" viewBox="0 0 406 70" fill="none" xmlns="http://www.w3.org/2000/svg">
<g clip-path="url(#clip0_121_16686)">
<path d="M30.0267 0H33.6801C40.2267 0.36 46.1334 3.38667 51.3734 7.09333C52.1467 5.37333 52.9201 3.64 53.6934 1.92C56.1601 1.90667 58.6267 1.89333 61.1067 1.88C61.1067 10.3867 61.1067 18.8933 61.1067 27.4C58.6001 27.3867 56.1067 27.3733 53.6001 27.36C51.5334 21.64 49.2001 15.5067 44.0134 11.88C37.9867 7.62667 28.6534 6.96 23.1467 12.4267C17.3067 18.1467 15.6801 26.76 15.5601 34.6267C15.6401 41.64 16.4934 49.24 20.9734 54.96C26.0801 61.44 35.9467 62.4 43.0801 59.0267C49.1601 56.0133 50.1467 47.96 48.4401 42.08C46.0001 38.7467 41.0267 40.16 37.4534 39.64C37.4801 37.24 37.4934 34.8533 37.4934 32.4533C49.4801 32.48 61.4534 32.4267 73.4401 32.48C73.4401 34.84 73.4401 37.2 73.4401 39.56C70.1467 39.8667 66.6401 39.5067 63.5867 40.9733C62.4267 49.7333 63.3867 58.6267 63.0934 67.44C60.6534 67.44 58.2134 67.44 55.7734 67.44C54.6267 65.8533 53.4667 64.2667 52.3201 62.68C47.0667 66.2133 41.1201 68.7867 34.7601 69.3333H28.5334C16.4934 68.88 5.58674 60.3467 2.09341 48.8533C-1.63992 36.2267 -0.839924 21.12 7.80008 10.6C13.1334 3.92 21.5467 0.226667 30.0267 0Z" fill="#669BB5"/>
<path d="M86.9066 1.55999C91.8666 -1.53335 98.76 3.70665 97.3733 9.25332C96.5333 14.1733 90.1866 16.8933 86.1733 13.8C81.7866 11.04 82.2133 3.75999 86.9066 1.55999Z" fill="#669BB5"/>
<path d="M164.093 26.6533C172.453 17.4266 188.987 17.1466 197.16 26.7733C201.707 31.9066 203.107 38.9066 203.16 45.5733C192.44 45.6267 181.72 45.56 171.013 45.6C171.333 49.8 171.507 54.3733 174.253 57.8133C177.72 62.2267 184.507 62.44 189.133 59.8533C192.4 58.0133 193.4 54.2 194.64 50.9466C197.387 50.96 200.133 50.9866 202.893 51.04C201.867 57.8666 198.293 64.96 191.347 67.32C181.067 70.8 166.893 69.36 161.093 59C156.04 48.9333 156.413 35.3333 164.093 26.6533ZM173.947 29.9466C171.973 32.5066 171.68 35.8666 170.907 38.9066C177.227 38.9333 183.533 38.9333 189.84 38.9066C189.187 35.8933 189.16 32.5467 187.333 29.9333C184.347 25.56 176.973 25.68 173.947 29.9466Z" fill="#669BB5"/>
<path d="M77.1334 21.1067C83.9334 21.1067 90.7468 21.1067 97.5468 21.1067C97.6135 33.2134 97.4134 45.32 97.6134 57.4267C97.3868 62.1467 103.32 60.5334 106.32 61C106.307 63.1467 106.293 65.2934 106.293 67.4534C96.5735 67.4 86.8534 67.44 77.1334 67.4267C77.1334 65.2934 77.1334 63.16 77.1334 61.0267C79.5201 60.88 81.9601 60.96 84.3201 60.4534C86.2268 58.56 85.5068 55.7067 85.6934 53.3067C85.4801 45.28 86.0268 37.24 85.4001 29.2267C83.1735 27.1334 79.8801 27.9467 77.1201 27.6134C77.1335 25.4534 77.1334 23.28 77.1334 21.1067Z" fill="#669BB5"/>
<path d="M105.707 21.1067C114.093 21.12 122.48 21.1067 130.867 21.1067C130.867 23.2134 130.867 25.3334 130.88 27.44C128.867 27.8534 126.387 27.4667 125.013 29.3334C127.027 38.76 130.773 47.7067 133.36 56.9734C136.187 48.1734 139.853 39.6 142.133 30.64C142.853 26.7467 137.773 28.1067 135.453 27.6C135.453 25.4267 135.467 23.2667 135.453 21.1067C142.853 21.1067 150.253 21.1067 157.653 21.1067C157.653 23.1867 157.653 25.2534 157.667 27.3334C155.027 28.3067 151.507 28.8 150.747 32.04C146.36 43.8 142.32 55.6934 137.96 67.4667C133.667 67.4267 129.387 67.4134 125.107 67.44C120.707 55.2267 116.587 42.9067 112.067 30.7334C111.467 27.7334 107.88 28.24 105.64 27.3734C105.667 25.28 105.693 23.2 105.707 21.1067Z" fill="#669BB5"/>
<path d="M208.68 1.88C218.28 1.92 227.894 1.88001 237.494 1.92001C237.48 4.24001 237.48 6.57334 237.494 8.90667C235.32 9.20001 233.147 9.40001 231.014 9.90667C229.534 11.4 230.747 13.5733 231 15.3067C234.374 27.16 237.334 39.12 240.814 50.9333C244.56 39.7467 248.387 28.6 252.334 17.48C251.187 15.0267 250.64 12.1067 248.68 10.1333C246.627 9.37334 244.414 9.28001 242.28 8.90667C242.28 6.57334 242.28 4.22667 242.28 1.89334C252.24 1.92 262.214 1.88001 272.174 1.92001C272.174 4.26667 272.174 6.61334 272.174 8.94667C269.627 9.22667 267.067 9.37334 264.574 9.92001C263.68 11.9067 264.854 14.0533 265.227 16.0133C268.747 27.4267 271.92 38.96 275.614 50.32C278.507 39.2 281.787 28.1733 284.934 17.1067C285.52 14.9733 286.014 12.7733 285.96 10.5333C283.2 9.06667 279.96 9.36001 276.947 9.04001C276.947 6.65334 276.947 4.26667 276.947 1.89334C286.08 1.92 295.214 1.90667 304.347 1.89334C304.347 4.21334 304.347 6.53334 304.347 8.86667C301.987 9.73334 298.667 9.40001 297.254 11.8933C295.534 15.0667 294.814 18.64 293.774 22.0667C289.36 37.2 284.84 52.32 280.387 67.4533C276.04 67.4267 271.68 67.4267 267.334 67.4667C263.8 56.1467 260.294 44.8133 256.974 33.44C252.894 44.6933 249.24 56.1067 245.36 67.4267C240.907 67.4267 236.467 67.4267 232.027 67.4133C227.067 50.4133 221.987 33.4533 217.08 16.4533C216.44 14.4133 215.854 12.3333 214.84 10.44C212.867 9.73334 210.774 9.42667 208.734 8.98667C208.72 6.61334 208.694 4.25334 208.68 1.88Z" fill="#DDDDDD"/>
<path d="M343.334 1.88C350.16 1.92 356.987 1.90667 363.814 1.89334C363.814 19.0667 363.854 36.2267 363.787 53.4C363.84 55.7333 363.774 58.2 364.907 60.32C367.427 60.92 370.027 60.88 372.6 61.0667C372.587 63.2 372.587 65.32 372.587 67.4533C362.84 67.4133 353.08 67.4133 343.334 67.4533C343.334 65.32 343.32 63.1867 343.32 61.0533C345.894 60.88 348.534 60.9333 351.067 60.3333C352.36 58.2533 352.134 55.6933 352.24 53.3467C352.174 40.9067 352.174 28.4533 352.24 16.0133C352.12 13.6667 352.374 11.0933 351.014 9.04001C348.48 8.49334 345.88 8.56001 343.32 8.40001C343.32 6.22667 343.334 4.05334 343.334 1.88Z" fill="#DDDDDD"/>
<path d="M376.333 1.89334C383.16 1.90667 390 1.90667 396.84 1.88C396.853 19.0267 396.88 36.1733 396.8 53.3067C397 55.6533 396.467 58.44 398.253 60.32C400.573 60.8667 402.96 60.9867 405.333 61.2533V67.4133C395.667 67.4533 385.987 67.4133 376.32 67.44C376.32 65.36 376.307 63.28 376.307 61.2C379.067 60.7867 382.08 61.0933 384.6 59.72C385.493 54.08 384.96 48.3333 385.067 42.6533C384.893 32.4267 385.333 22.2 384.933 12C385.147 7.46667 379.187 8.89334 376.293 8.26667C376.307 6.14667 376.32 4.01334 376.333 1.89334Z" fill="#DDDDDD"/>
<path d="M303.134 27.24C311.36 17.3467 328.747 16.9067 336.934 27.1067C341.347 32.1734 342.627 39.04 342.6 45.5867C331.907 45.6267 321.214 45.5467 310.507 45.6267C311.014 49.8534 310.974 54.6 313.934 58C317.547 62.32 324.414 62.44 328.987 59.64C332.027 57.7334 332.92 54.0134 334.267 50.92C336.987 50.9467 339.72 50.9734 342.454 51C341.347 57.7067 338.027 64.7334 331.214 67.1867C320.427 71.1067 305.08 69.16 299.894 57.56C295.934 47.9067 296.174 35.5067 303.134 27.24ZM315.84 27.8134C311.96 30.0934 311.36 34.9067 310.454 38.8934C316.734 38.9334 323.027 38.9334 329.32 38.8934C328.72 35.68 328.654 32.08 326.48 29.4267C324.014 26.3334 319.174 26.04 315.84 27.8134Z" fill="#DDDDDD"/>
</g>
<defs>
<clipPath id="clip0_121_16686">
<rect width="405.333" height="69.3333" fill="white"/>
</clipPath>
</defs>
</svg>
