<svg xmlns="http://www.w3.org/2000/svg" viewBox="0 0 64 64" fill="currentColor" aria-hidden="true">
  <path d="M58 21c0-1.1-.9-2-2-2h-2v-4c0-.8-.5-1.5-1.2-1.8L48 11.2V8c0-1.1-.9-2-2-2s-2 .9-2 2v2l-4-1.7c-1-.5-2.2 0-2.7 1-.4 1 0 2.2 1 2.7L44 14.2V19h-4l-2.5-3.3a3 3 0 0 0-2.4-1.2H20c-1.7 0-3 1.3-3 3v2.3c-1.7.6-3 2.3-3 4.2v3c0 .5.2 1 .6 1.4l3.4 3.4V46c0 1.7 1.3 3 3 3h4c1.7 0 3-1.3 3-3v-6h7v6c0 1.7 1.4 3 3 3h4c1.7 0 3-1.3 3-3V31c2.9-.5 5-2.9 5-5.8V22h2c1.1 0 2-.9 2-2zM23 27c-1.1 0-2-.9-2-2s.9-2 2-2 2 .9 2 2-.9 2-2 2z"/>
</svg>
