<svg width="447" height="128" viewBox="0 0 447 128" fill="none" xmlns="http://www.w3.org/2000/svg">
<g clip-path="url(#clip0_113_40261)">
<path d="M108.26 46.68C108.04 45.06 107.74 43.48 107.38 41.92C107.87 44.77 108.14 47.69 108.14 50.67C108.14 79.09 85.1002 102.13 56.6802 102.13C45.6102 102.13 35.3702 98.62 26.9802 92.68C25.5902 94.52 24.2502 96.4 22.9502 98.31C33.7902 105.99 47.4502 109.76 61.6602 107.84C91.4202 103.82 112.28 76.44 108.26 46.68Z" fill="#DFAD37"/>
<path d="M18.2498 94.57C19.5498 92.66 20.8998 90.78 22.2898 88.94C11.8198 79.52 5.22983 65.87 5.22983 50.67C5.21983 25.29 23.6198 4.21 47.8098 0C47.5698 0.03 47.3398 0.05 47.0998 0.08C17.3398 4.1 -3.52017 31.48 0.499828 61.24C2.30983 74.65 8.86983 86.24 18.2498 94.57Z" fill="#DFAD37"/>
<path d="M154 36.1899H149.99L124.78 91.5699H129.75L136.55 76.5799H167.52L174.24 91.5699H179.21L154.07 36.3399L154 36.1899ZM165.58 72.3099H138.5L152.04 42.2899L165.58 72.3099Z" fill="#032F56"/>
<path d="M212.22 62.81L200.18 59.94C195.46 58.84 190.63 56.88 190.63 50.6C190.63 43.89 196.22 39.38 204.55 39.38C212.88 39.38 218.96 43.92 220.36 51.22L220.41 51.48L225 50.38L224.95 50.14C223.03 40.97 215.28 35.28 204.72 35.28C193.35 35.28 185.71 41.47 185.71 50.68C185.71 57.68 189.9 62.08 198.52 64.11L211.22 67.06C217.58 68.53 221.26 70.59 221.26 76.73C221.26 83.74 215.41 88.27 206.36 88.27C196.55 88.27 189.61 83.02 188.67 74.89L188.64 74.61L183.72 75.7L183.75 75.92C184.96 85.96 193.71 92.44 206.03 92.44C218.35 92.44 225.86 86.2 225.86 76.55C225.86 66.9 218.08 64.04 212.23 62.79L212.22 62.81Z" fill="#032F56"/>
<path d="M230.3 40.5H251.7V91.5999H256.4V40.5H277.8V36.2H230.3V40.5Z" fill="#032F56"/>
<path d="M287 91.5999H326.9V87.3H291.7V65.8H324.4V61.7H291.7V40.5H326.9V36.2H287V91.5999Z" fill="#032F56"/>
<path d="M366.25 66.34C376.59 66.34 383.54 60.2801 383.54 51.2601C383.54 42.2401 376.59 36.1801 366.25 36.1801H341.02V91.5601H345.7V66.3301H357.38L379.91 91.4701L379.99 91.5501H386.07L363.3 66.3201H366.26L366.25 66.34ZM345.69 40.4501H366.24C373.83 40.4501 378.93 44.7901 378.93 51.2601C378.93 57.7301 373.95 62.1501 366.24 62.1501H345.69V40.4501Z" fill="#032F56"/>
<path d="M421.35 36.3301L421.28 36.1801H417.27L392.06 91.5601H397.03L403.83 76.5701H434.8L441.52 91.5601H446.49L421.35 36.3301ZM432.86 72.3101H405.78L419.32 42.2901L432.86 72.3101Z" fill="#032F56"/>
<path d="M92.6498 60.2199C92.6398 59.8599 92.3598 59.5699 91.9998 59.5399C85.2498 58.9899 58.8298 64.0599 48.6398 66.0099C49.6698 65.4399 50.8398 64.7899 52.0998 64.0899C62.8898 58.3099 81.1598 48.7599 86.0098 47.4299C86.3798 47.3299 86.5998 46.9499 86.5098 46.5799L86.4298 46.2599C86.3898 46.0699 86.2598 45.9099 86.0998 45.8099C85.9298 45.7099 85.7298 45.6899 85.5498 45.7399C79.9798 47.2899 62.2998 56.8099 50.9598 63.0999C49.4398 63.9199 48.1498 64.6099 47.1498 65.1599C47.4598 64.7899 47.7898 64.3999 48.1498 63.9699C53.7598 57.3499 65.4398 43.5699 69.0398 38.8899C69.1598 38.7399 69.2098 38.5399 69.1798 38.3499C69.1498 38.1599 69.0398 37.9799 68.8798 37.8699L68.6098 37.6799C68.2998 37.4599 67.8698 37.5299 67.6398 37.8299C64.0998 42.3799 52.9098 55.6799 47.0898 62.4999C51.0398 52.6199 58.8898 31.7299 60.8498 24.0199C60.9398 23.6599 60.7498 23.2999 60.3998 23.1699L60.0698 23.0499C59.8798 22.9799 59.6698 22.9999 59.4998 23.0899C59.3198 23.1799 59.1898 23.3499 59.1398 23.5399C57.1398 31.3699 49.2498 52.4699 45.4398 61.8399C46.6498 52.6299 48.0198 40.0599 47.4398 34.1899C47.3998 33.8099 47.0898 33.5299 46.6998 33.5499H46.3698C46.1698 33.5699 45.9898 33.6599 45.8598 33.7999C45.7298 33.9499 45.6698 34.1399 45.6898 34.3299C46.2498 40.4999 44.6098 54.8099 43.6098 62.3599C41.6498 51.5099 37.2198 27.0999 34.3498 21.1499C34.1798 20.7999 33.7698 20.6499 33.4198 20.8099L33.0998 20.9499C32.9198 21.0299 32.7898 21.1799 32.7198 21.3599C32.6498 21.5399 32.6598 21.7399 32.7498 21.9199C35.2798 27.1199 39.1498 47.7499 41.2698 59.3099C39.6298 55.7999 37.5998 51.7499 35.8798 48.3799C32.1298 41.0399 27.9898 33.3199 26.6098 30.9899C26.4098 30.6599 25.9898 30.5399 25.6498 30.7299L25.3898 30.8699C25.2198 30.9599 25.0998 31.1199 25.0498 31.2999C24.9998 31.4799 25.0198 31.6799 25.1098 31.8499C26.3598 34.0599 30.3398 41.5099 34.2598 49.1999C36.7498 54.0899 39.8598 60.3299 41.5298 64.2199C35.8898 58.8099 24.4698 47.3999 18.1898 35.0099C18.0198 34.6699 17.6098 34.5299 17.2598 34.6799L16.9398 34.8199C16.7598 34.8999 16.6198 35.0499 16.5598 35.2299C16.4898 35.4099 16.5098 35.6199 16.5998 35.7899C21.4198 45.3299 30.0698 55.9699 42.2998 67.4199L42.6798 67.7799C42.5998 67.8599 42.5198 67.9499 42.4498 68.0399C42.2998 68.1999 42.0598 68.4499 41.7398 68.7799C32.5298 78.2599 23.6398 89.5999 15.3098 102.51C15.2898 102.54 13.6598 105.3 12.5698 106.55C12.3798 106.77 12.1998 106.93 12.0198 107.08C10.1298 106.91 7.16976 109.41 4.61976 113.58C1.55976 118.59 0.189759 124.19 1.39976 126.49C1.45976 126.71 1.53976 126.9 1.65976 127.06C1.80976 127.26 2.01976 127.35 2.25976 127.36C4.07976 128.19 7.39976 125.62 10.2298 121C12.6998 116.97 14.0498 112.56 13.8598 109.79C14.3898 107.8 14.9698 106.23 16.7798 103.59C16.9998 103.27 17.3198 102.78 17.7298 102.14C21.1198 96.9499 30.1098 83.1499 42.7498 70.4499C42.7898 70.4199 43.6298 69.7299 44.3498 68.9899C44.8598 69.2299 45.6298 69.6199 46.6298 70.1299C53.4498 73.6199 69.4297 81.7899 84.0198 83.3199C84.0397 83.3199 84.0698 83.3199 84.0898 83.3199C84.2698 83.3199 84.4398 83.2499 84.5798 83.1299C84.7298 82.9899 84.8098 82.7899 84.7998 82.5799V82.1899C84.7698 81.8399 84.4998 81.5399 84.1498 81.5099C70.7398 80.1199 55.9498 72.7299 48.8398 69.1799C48.6398 69.0799 48.4498 68.9799 48.2598 68.8899C54.2998 69.3299 66.6698 71.0299 83.8998 73.7899L84.0298 73.8099C84.0298 73.8099 84.1098 73.8099 84.1398 73.8099C84.4798 73.8099 84.7897 73.5599 84.8398 73.2099L84.8898 72.8799C84.9498 72.4899 84.6898 72.1299 84.3098 72.0599C80.6398 71.4299 61.2498 68.4199 50.7298 67.3699C73.5998 62.9599 87.4198 60.9199 91.8298 61.3099C92.0398 61.3299 92.2398 61.2599 92.3798 61.1199C92.5298 60.9799 92.6098 60.7799 92.5998 60.5799L92.5798 60.1899L92.6498 60.2199Z" fill="#032F56"/>
</g>
<defs>
<clipPath id="clip0_113_40261">
<rect width="446.5" height="127.5" fill="white"/>
</clipPath>
</defs>
</svg>
