<svg width="998" height="95" viewBox="0 0 998 95" fill="none" xmlns="http://www.w3.org/2000/svg">
<g clip-path="url(#clip0_214_23915)">
<path d="M49.5085 78.0547H20.0878V55.7493H49.5085C58.3454 55.7493 62.5657 59.0555 62.5657 66.9782C62.5657 74.8857 58.3454 78.0547 49.5085 78.0547ZM52.2815 94.8143C73.7947 94.8143 84.0789 86.8916 84.0789 68.9588C84.0789 58.2632 79.3253 51.5289 69.6962 47.4457C79.4624 42.433 83.8199 35.3026 83.8199 24.7441C83.8199 15.9072 79.9957 8.77677 73.1243 4.41928C67.9745 1.1283 59.9299 0.0617676 48.8534 0.0617676H0.15918V94.8143H52.2815ZM20.0878 17.0804H49.2495C58.0864 17.0804 62.3067 20.3866 62.3067 28.035C62.3067 35.6987 58.0864 39.0049 49.2495 39.0049H20.0878V17.0804Z" fill="white"/>
<path d="M142.006 16.9585C153.89 16.9585 159.695 19.061 159.695 28.8425C159.695 38.4717 153.89 40.8333 142.006 40.8333H117.598V16.9585H142.006ZM97.6689 0.0617676V94.8143H117.598V57.5928H141.091L161.934 94.8143H184.377L160.746 55.2312C173.026 52.5954 179.882 43.2253 179.882 28.5683C179.882 8.65486 169.187 0.0617676 146.759 0.0617676H97.6689Z" fill="white"/>
<path d="M194.661 94.8143V0.0617676H215.504V94.8143H194.661Z" fill="white"/>
<path d="M273.965 16.5623C291.654 16.5623 297.185 24.2108 297.185 47.4457C297.185 70.8024 291.654 78.329 273.965 78.329H250.867V16.5623H273.965ZM230.938 0.0617676V94.8143H274.879C286.367 94.8143 295.204 93.9001 304.452 86.5107C314.203 78.7099 318.957 66.3078 318.957 49.1521C318.957 15.6329 304.833 0.0617676 274.361 0.0617676H230.938Z" fill="white"/>
<path d="M368.305 38.5936H415.43V94.8143H372.541C361.068 94.8143 351.957 94.2049 342.45 86.5107C332.684 78.7099 327.945 66.3078 327.945 49.1521C327.945 15.6329 342.191 0.0617676 372.541 0.0617676H415.43V16.4252H372.541C356.574 16.4252 350.114 26.5876 350.114 48.2227C350.114 68.4256 356.437 77.6586 372.541 77.6586H394.968V55.3684H368.305V38.5936Z" fill="white"/>
<path d="M449.605 38.5936H504.774V55.0941H449.467C449.467 72.1279 456.339 78.329 472.032 78.329H504.774V94.8143H471.118C459.63 94.8143 450.793 93.9001 441.56 86.5107C431.794 78.7099 427.04 66.3078 427.04 49.1521C427.04 15.6329 441.164 0.0617676 471.651 0.0617676H504.774V16.5623H472.032C457.649 16.5623 450.397 23.6776 449.605 38.5936Z" fill="white"/>
<path d="M536.176 0.0617676L558.085 72.9202L576.551 0.0617676H600.045L621.299 72.9202L641.746 0.0617676H662.193L632.894 94.8143H608.486L588.298 24.0889L570.624 94.8143H546.338L514.8 0.0617676H536.176Z" fill="white"/>
<path d="M698.393 18.9391L712.776 55.3684H684.544L698.393 18.9391ZM688.627 0.0617676L648.511 94.8143H669.628L678.084 72.2498H719.251L727.966 94.8143H750.135L709.759 0.0617676H688.627Z" fill="white"/>
<path d="M734.594 16.6993V0.19873H816.533V16.6993H785.787V94.8141H765.203V16.6993H734.594Z" fill="white"/>
<path d="M840.682 38.5936H895.821V55.0941H840.545C840.545 72.1279 847.401 78.329 863.11 78.329H895.821V94.8143H862.18C850.707 94.8143 841.871 93.9001 832.622 86.5107C822.871 78.7099 818.103 66.3078 818.103 49.1521C818.103 15.6329 832.226 0.0617676 862.698 0.0617676H895.821V16.5623H863.11C848.727 16.5623 841.459 23.6776 840.682 38.5936Z" fill="white"/>
<path d="M955.47 16.9585C967.354 16.9585 973.158 19.061 973.158 28.8425C973.158 38.4717 967.354 40.8333 955.47 40.8333H931.061V16.9585H955.47ZM911.133 0.0617676V94.8143H931.061V57.5928H954.555L975.398 94.8143H997.841L974.225 55.2312C986.49 52.5954 993.346 43.2253 993.346 28.5683C993.346 8.65486 982.65 0.0617676 960.223 0.0617676H911.133Z" fill="white"/>
</g>
<defs>
<clipPath id="clip0_214_23915">
<rect width="998" height="95" fill="white"/>
</clipPath>
</defs>
</svg>
