<svg width="312" height="90" viewBox="0 0 312 90" fill="none" xmlns="http://www.w3.org/2000/svg">
<path d="M25.6617 18.639C37.7871 6.6259 57.3727 6.47269 69.4498 18.6498L69.9459 19.1566C70.9404 20.1936 71.9428 21.3709 72.7994 22.6049L73.2144 23.2269L73.3072 23.3793C74.2188 24.9692 73.7325 27.0118 72.1734 28.014C70.6143 29.0163 68.5539 28.6109 67.4859 27.1215L67.0992 26.5453C66.4005 25.5406 65.4978 24.4976 64.5504 23.5502L64.5387 23.5385C55.2148 14.1277 40.0093 14.1782 30.5387 23.5609C21.1276 32.8848 21.1781 48.0912 30.5611 57.5619C39.8993 66.9874 55.097 67.0035 64.5504 57.5502C65.56 56.5406 66.5346 55.3117 67.481 53.9867C68.5932 52.4297 70.7571 52.0689 72.314 53.181C73.8709 54.2932 74.2318 56.4571 73.1197 58.014C72.0662 59.4889 70.8401 61.0593 69.4498 62.4496C57.3032 74.5961 37.7011 74.6131 25.6392 62.4389C13.6223 50.3096 13.4729 30.7152 25.6617 18.639Z" fill="#2E2E2E"/>
<path d="M35.0588 28.2582C39.2407 24.0765 44.8942 22.4954 50.3185 23.3724L50.843 23.4642L51.1301 23.5346C52.532 23.9536 53.4161 25.375 53.1349 26.8431C52.8538 28.311 51.5074 29.3045 50.05 29.1762L49.757 29.1351L49.3986 29.0726C45.6956 28.4726 41.9338 29.5482 39.1408 32.3412C34.9492 36.5329 34.5821 43.1418 38.1476 47.7933L38.5051 48.2367L38.6847 48.4721C39.5111 49.6794 39.3048 51.3404 38.1633 52.3051C37.0214 53.2698 35.3485 53.1959 34.2961 52.1791L34.0949 51.9633L33.8244 51.6361C28.2492 44.7093 28.6868 34.6302 35.0588 28.2582Z" fill="#0885F8"/>
<path d="M13.45 79.5498C12.0971 80.9027 9.90261 80.9027 8.54964 79.5498C7.19696 78.1969 7.19703 76.0033 8.54964 74.6503L13.45 79.5498ZM25.1502 58.0498C26.5032 56.6971 28.6968 56.6971 30.0496 58.0498C31.4026 59.4027 31.4026 61.5972 30.0496 62.9502L13.45 79.5498L8.54964 74.6503L25.1502 58.0498Z" fill="#2E2E2E"/>
<path d="M95.6002 38.9C95.1002 38.3 94.6002 37.9 93.9002 37.6C93.2002 37.3 92.5002 37.1 91.8002 37.1C90.9002 37.1 90.1002 37.3 89.4002 37.6C88.7002 37.9 88.1002 38.4 87.6002 39C87.1002 39.6 86.7002 40.2 86.4002 41C86.1002 41.8 85.9002 42.6 85.9002 43.5C85.9002 44.3 86.0002 45.1 86.3002 45.8C86.6002 46.5 86.9002 47.2 87.5002 47.7C88.0002 48.3 88.6002 48.7 89.3002 49C90.0002 49.3 90.8002 49.5 91.8002 49.5C92.7002 49.5 93.5002 49.3 94.2002 48.9C94.9002 48.5 95.4002 48 95.9002 47.3L97.7002 48.7C97.6002 48.9 97.4002 49.1 97.1002 49.4C96.8002 49.7 96.4002 50 95.9002 50.3C95.4002 50.6 94.8002 50.9 94.1002 51.1C93.4002 51.3 92.6002 51.4 91.7002 51.4C90.5002 51.4 89.3002 51.2 88.4002 50.7C87.4002 50.2 86.6002 49.6 85.9002 48.9C85.2002 48.1 84.7002 47.2 84.3002 46.3C83.9002 45.3 83.7002 44.4 83.7002 43.4C83.7002 42.2 83.9002 41.1 84.3002 40C84.7002 39 85.3002 38.1 86.0002 37.3C86.7002 36.5 87.6002 36 88.6002 35.6C89.6002 35.2 90.7002 35 91.9002 35C93.0002 35 94.0002 35.2 95.0002 35.6C96.0002 36 96.8002 36.6 97.5002 37.4L95.6002 38.9Z" fill="#2E2E2E"/>
<path d="M100.3 35.5H102.5V49.3H109.7V51.3H100.3V35.5Z" fill="#2E2E2E"/>
<path d="M111.8 35.5H121.9V37.5H113.9V42.2H121.4V44.2H113.9V49.2H122.3V51.2H111.8V35.5Z" fill="#2E2E2E"/>
<path d="M130.4 35.5H132.3L139 51.2H136.5L134.9 47.3H127.4L125.8 51.2H123.3L130.4 35.5ZM134.1 45.4L131.2 38.2L128.2 45.4H134.1Z" fill="#2E2E2E"/>
<path d="M141 35.5H146.5C147.5 35.5 148.3 35.6 149 35.9C149.6 36.2 150.2 36.5 150.5 37C150.8 37.5 151.1 37.9 151.3 38.4C151.5 38.9 151.5 39.5 151.5 39.9C151.5 40.4 151.4 40.9 151.2 41.4C151 41.9 150.7 42.3 150.4 42.6C150.1 43 149.7 43.3 149.2 43.6C148.7 43.9 148.2 44 147.6 44.1L152.1 51.3H149.4L145.4 44.4H143V51.3H140.8L141 35.5ZM143.2 42.4H146C146.4 42.4 146.8 42.4 147.2 42.3C147.6 42.2 148 42.1 148.3 41.9C148.6 41.7 148.9 41.4 149.1 41.1C149.3 40.8 149.4 40.3 149.4 39.8C149.4 39.3 149.3 38.8 149.1 38.5C148.9 38.2 148.6 37.9 148.3 37.7C148 37.5 147.6 37.4 147.2 37.3C146.8 37.2 146.4 37.2 146 37.2H143.2V42.4Z" fill="#2E2E2E"/>
<path d="M154.6 35.5H164.7V37.5H156.7V42.2H164.2V44.2H156.7V49.2H165.1V51.2H154.6V35.5Z" fill="#2E2E2E"/>
<path d="M168.2 35.5H173.7C174.7 35.5 175.5 35.6 176.2 35.9C176.8 36.2 177.4 36.5 177.7 37C178 37.5 178.3 37.9 178.5 38.4C178.7 38.9 178.7 39.5 178.7 39.9C178.7 40.4 178.6 40.9 178.4 41.4C178.2 41.9 177.9 42.3 177.6 42.6C177.3 43 176.9 43.3 176.4 43.6C175.9 43.9 175.4 44 174.8 44.1L179.3 51.3H176.7L172.7 44.4H170.3V51.3H168.1L168.2 35.5ZM170.3 42.4H173.1C173.5 42.4 173.9 42.4 174.3 42.3C174.8 42.3 175.1 42.1 175.4 41.9C175.7 41.7 176 41.4 176.2 41.1C176.4 40.8 176.5 40.3 176.5 39.8C176.5 39.3 176.4 38.8 176.2 38.5C176 38.2 175.7 37.9 175.4 37.7C175.1 37.5 174.7 37.4 174.3 37.3C173.9 37.2 173.5 37.2 173.1 37.2H170.3V42.4Z" fill="#2E2E2E"/>
<path d="M194.6 37.5H189.5V35.5H201.7V37.5H196.7V51.3H194.5L194.6 37.5Z" fill="#2E2E2E"/>
<path d="M204.1 35.5H206.3V42H214.4V35.5H216.6V51.2H214.4V44H206.3V51.2H204.1V35.5Z" fill="#2E2E2E"/>
<path d="M220.5 35.5H222.7V51.2H220.5V35.5Z" fill="#2E2E2E"/>
<path d="M226.7 35.5H229.5L238.2 48.4V35.5H240.4V51.2H237.7L228.9 38.3V51.2H226.7V35.5Z" fill="#2E2E2E"/>
<path d="M244.4 35.5H246.6V42.3H246.8L253.7 35.5H256.7L249.1 42.7L257.2 51.2H254.1L246.8 43.4H246.6V51.2H244.4V35.5Z" fill="#2E2E2E"/>
<path d="M258.8 35.5H261V51.2H258.8V35.5Z" fill="#2E2E2E"/>
<path d="M264.9 35.5H267.7L276.4 48.4V35.5H278.6V51.2H275.9L267.1 38.3V51.2H264.9V35.5Z" fill="#2E2E2E"/>
<path d="M296 42.4V50.1C295.6 50.3 295.2 50.6 294.7 50.7C294.2 50.8 293.7 51 293.2 51.2C292.7 51.3 292.1 51.4 291.6 51.5C291.1 51.6 290.5 51.6 290.1 51.6C288.8 51.6 287.6 51.4 286.6 50.9C285.5 50.4 284.7 49.8 283.9 49.1C283.2 48.3 282.7 47.5 282.2 46.5C281.7 45.5 281.6 44.4 281.6 43.3C281.6 42.1 281.8 41 282.2 40C282.6 39 283.2 38.1 283.9 37.4C284.6 36.7 285.5 36.1 286.5 35.7C287.5 35.3 288.6 35.1 289.8 35.1C291.3 35.1 292.4 35.3 293.3 35.7C294.2 36.1 295 36.5 295.6 37.2L294.1 38.8C293.5 38.2 292.8 37.7 292 37.5C291.3 37.3 290.5 37.1 289.7 37.1C288.8 37.1 288 37.3 287.2 37.6C286.5 37.9 285.9 38.4 285.4 38.9C284.9 39.5 284.5 40.1 284.2 40.9C283.9 41.7 283.8 42.5 283.8 43.3C283.8 44.1 284 45 284.3 45.8C284.6 46.6 285 47.2 285.6 47.8C286.2 48.3 286.8 48.8 287.5 49.1C288.2 49.4 289 49.6 289.9 49.6C290.7 49.6 291.4 49.5 292.1 49.4C292.8 49.3 293.3 49.1 293.8 48.8V44.4H290.3V42.4H296Z" fill="#2E2E2E"/>
</svg>
