<svg width="182" height="52" viewBox="0 0 182 52" fill="none" xmlns="http://www.w3.org/2000/svg">
<g clip-path="url(#clip0_121_16537)">
<path d="M62.037 30.762C57.618 30.762 54.939 27.947 54.939 23.41C54.939 18.873 57.716 16.098 62.135 16.098C65.693 16.098 68.196 18.405 68.684 21.631H65.4C65.028 19.696 63.601 18.855 62.017 18.855C60.023 18.855 58.479 20.517 58.479 23.41C58.479 26.303 60.023 28.004 62.057 28.004C63.504 28.004 65.106 27.377 65.498 25.227H68.783C68.275 28.512 65.614 30.76 62.037 30.76V30.762ZM75.039 30.762C72.125 30.762 69.467 29.022 69.467 25.209C69.467 21.396 72.125 19.676 75.039 19.676C77.952 19.676 80.61 21.396 80.61 25.209C80.61 29.022 77.952 30.762 75.039 30.762ZM75.039 28.261C76.348 28.261 77.325 27.419 77.325 25.211C77.325 23.002 76.31 22.181 75.039 22.181C73.768 22.181 72.752 22.982 72.752 25.211C72.752 27.44 73.73 28.261 75.039 28.261ZM88.45 19.756C91.149 19.756 91.99 21.34 91.99 24.195V30.509H88.763V24.996C88.763 23.49 88.705 22.26 87.141 22.26C85.772 22.26 85.186 23.179 85.186 25.115V30.511H81.959V19.993H85.186V21.38C85.655 20.597 86.808 19.758 88.45 19.758V19.756ZM100.338 19.991H103.661L99.906 30.509H96.328L92.496 19.991H95.975L98.204 27.401L100.336 19.991H100.338ZM109.232 30.762C105.811 30.762 103.464 28.67 103.464 25.191C103.464 21.712 106.026 19.678 109.096 19.678C112.575 19.678 114.725 22.336 114.51 26.07H106.708C106.807 27.556 107.959 28.261 109.134 28.261C110.308 28.261 111.127 27.831 111.499 27.205H114.47C113.533 29.688 111.342 30.762 109.23 30.762H109.232ZM111.304 24.115C111.264 22.806 110.306 22.139 109.096 22.139C107.961 22.139 106.925 22.725 106.749 24.115H111.304ZM121.471 23.021C119.927 23.021 119.106 23.587 119.106 25.229V30.507H115.88V19.989H118.988V21.983C119.476 20.752 120.357 19.969 121.861 19.911C122.017 19.911 122.194 19.911 122.349 19.931V23.079C121.997 23.039 121.762 23.021 121.469 23.021H121.471ZM133.789 19.991V29.102C133.789 32.993 131.305 34.185 128.392 34.185C125.284 34.185 123.465 32.503 123.132 30.568H126.161C126.416 31.467 127.177 31.917 128.352 31.917C129.974 31.917 130.58 31.096 130.58 29.726V28.476C129.896 29.63 128.488 30.138 127.334 30.138C124.635 30.138 122.7 28.281 122.7 24.938C122.7 21.595 124.635 19.756 127.334 19.756C128.488 19.756 129.896 20.264 130.58 21.418V19.991H133.787H133.789ZM128.392 27.636C129.663 27.636 130.719 26.992 130.719 24.938C130.719 22.884 129.663 22.26 128.392 22.26C127.121 22.26 126.045 23.081 126.045 24.938C126.045 26.795 127.101 27.636 128.392 27.636ZM140.904 30.762C137.483 30.762 135.136 28.67 135.136 25.191C135.136 21.712 137.698 19.678 140.767 19.678C144.247 19.678 146.397 22.336 146.182 26.07H138.38C138.479 27.556 139.631 28.261 140.806 28.261C141.98 28.261 142.799 27.831 143.171 27.205H146.142C145.204 29.688 143.014 30.762 140.902 30.762H140.904ZM142.976 24.115C142.936 22.806 141.978 22.139 140.767 22.139C139.633 22.139 138.597 22.725 138.42 24.115H142.976ZM154.042 19.756C156.741 19.756 157.582 21.34 157.582 24.195V30.509H154.356V24.996C154.356 23.49 154.297 22.26 152.733 22.26C151.364 22.26 150.778 23.179 150.778 25.115V30.511H147.551V19.993H150.778V21.38C151.248 20.597 152.4 19.758 154.042 19.758V19.756ZM166.32 23.842C166.047 22.629 165.264 22.179 164.306 22.179C163.151 22.179 162.019 22.98 162.019 25.209C162.019 27.438 163.174 28.259 164.306 28.259C165.499 28.259 166.221 27.632 166.456 26.636H169.468C168.725 29.785 166.221 30.762 164.111 30.762C160.65 30.762 158.735 28.534 158.735 25.191C158.735 21.848 160.925 19.678 164.111 19.678C166.302 19.678 168.705 20.676 169.331 23.842H166.32ZM175.921 30.762C172.499 30.762 170.152 28.67 170.152 25.191C170.152 21.712 172.714 19.678 175.784 19.678C179.263 19.678 181.414 22.336 181.199 26.07H173.397C173.495 27.556 174.648 28.261 175.822 28.261C176.997 28.261 177.816 27.831 178.187 27.205H181.159C180.221 29.688 178.031 30.762 175.919 30.762H175.921ZM177.993 24.115C177.952 22.806 176.995 22.139 175.784 22.139C174.65 22.139 173.614 22.725 173.437 24.115H177.993ZM64.261 34.396L69.618 48.571H65.982L65.122 46.049H59.647L58.806 48.571H55.248L60.585 34.396H64.261ZM64.221 43.331L62.402 37.934L60.565 43.331H64.221ZM76.834 37.817C79.532 37.817 80.373 39.402 80.373 42.257V48.571H77.147V43.058C77.147 41.552 77.088 40.321 75.524 40.321C74.155 40.321 73.569 41.241 73.569 43.176V48.573H70.343V38.054H73.569V39.442C74.039 38.661 75.191 37.819 76.834 37.819V37.817ZM86.804 39.909C85.768 39.909 85.045 40.438 84.927 41.453H81.915C82.052 39.48 83.969 37.719 87.077 37.719C90.185 37.719 91.827 38.932 91.769 42.138L91.731 44.425C91.711 45.794 91.769 47.671 91.966 48.569H88.798L88.757 47.298C87.976 48.412 86.724 48.824 85.22 48.824C83.226 48.824 81.584 47.651 81.584 45.734C81.584 43.154 84.497 42.293 88.583 42V41.59C88.583 40.359 87.956 39.909 86.804 39.909ZM86.394 46.635C87.685 46.635 88.663 46.087 88.663 44.152V43.897C86.414 44.092 84.909 44.385 84.909 45.501C84.909 46.186 85.553 46.635 86.394 46.635ZM93.49 48.571V34.396H96.716V48.571H93.49ZM98.806 49.667H99.45C100.8 49.667 101.055 49.589 101.366 48.788L101.464 48.515L97.535 38.054H101.075L103.01 44.644L105.082 38.054H108.543L104.418 48.573C103.362 51.251 102.581 51.994 99.842 51.994H98.806V49.667ZM113.587 40.124C112.493 40.124 111.904 40.417 111.904 40.905C111.904 41.393 112.276 41.668 113.195 41.843L115.151 42.194C117.693 42.664 118.885 43.407 118.885 45.264C118.885 47.629 116.715 48.822 113.802 48.822C110.888 48.822 109.011 47.609 108.64 45.146H111.631C111.904 46.162 112.726 46.475 113.84 46.475C114.954 46.475 115.795 46.162 115.795 45.537C115.795 45.067 115.366 44.774 114.153 44.559L112.276 44.246C110.242 43.913 108.855 42.877 108.855 41.02C108.855 38.908 111.063 37.773 113.665 37.773C116.07 37.773 118.241 38.751 118.65 41.136H115.639C115.444 40.353 114.603 40.12 113.587 40.12V40.124ZM123.441 36.978H120.214V34.398H123.441V36.978ZM123.461 48.573H120.214V38.054H123.461V48.573ZM129.853 40.124C128.759 40.124 128.171 40.417 128.171 40.905C128.171 41.393 128.542 41.668 129.462 41.843L131.417 42.194C133.959 42.664 135.152 43.407 135.152 45.264C135.152 47.629 132.981 48.822 130.068 48.822C127.155 48.822 125.278 47.609 124.906 45.146H127.898C128.171 46.162 128.992 46.475 130.106 46.475C131.221 46.475 132.062 46.162 132.062 45.537C132.062 45.067 131.632 44.774 130.42 44.559L128.542 44.246C126.509 43.913 125.121 42.877 125.121 41.02C125.121 38.908 127.33 37.773 129.932 37.773C132.337 37.773 134.507 38.751 134.917 41.136H131.905C131.711 40.353 130.869 40.12 129.853 40.12V40.124ZM44.033 13.944C47.276 12.012 50.494 10.035 53.638 7.926L52.669 6.186C46.72 8.892 40.745 12.048 34.956 15.215C34.629 15.393 34.22 15.241 34.087 14.891L28.528 0L26.636 0.63L30.756 15.48C30.81 15.661 30.776 15.858 30.665 16.011C30.554 16.164 30.377 16.257 30.188 16.263C19.991 16.536 1.30305 17.032 -0.00195312 17.074V19.067L24.671 19.732C25.287 19.748 25.498 20.563 24.966 20.874C20.931 23.229 16.921 25.671 13.11 28.213L14.08 29.953C17.525 28.387 20.9 26.693 24.251 24.954C25.243 24.438 26.249 23.91 27.263 23.372C27.795 23.089 28.373 23.659 28.098 24.193L14.048 51.002L15.799 51.956L33.547 21.559C33.74 21.224 34.192 21.149 34.483 21.402L45.383 30.925L46.76 29.483L36.761 19.035C36.484 18.746 36.555 18.274 36.904 18.076C39.337 16.698 41.735 15.309 44.031 13.942L44.033 13.944Z" fill="black"/>
</g>
<defs>
<clipPath id="clip0_121_16537">
<rect width="182" height="52" fill="white"/>
</clipPath>
</defs>
</svg>
