<svg width="463" height="94" viewBox="0 0 463 94" fill="none" xmlns="http://www.w3.org/2000/svg">
<path d="M106.022 1.39111H83.5459L59.0757 92.2831H130.492L106.022 1.39111ZM76.9379 78.5932L94.0247 15.1281H95.546L112.633 78.5932H76.9408H76.9379Z" fill="white"/>
<path d="M58.1593 15.1281H14.8019V39.7672H51.2312V53.3571H14.8019V92.2831H0V1.39111H58.1593V15.1281Z" fill="white"/>
<path d="M169.306 93.5771C150.519 93.5771 137.711 84.519 137.711 64.2591H152.363C152.363 76.8021 157.544 80.2371 169.306 80.2371H170.005C181.218 80.2371 186.302 76.9021 186.302 67.844C186.302 57.192 173.644 54.804 163.776 51.469C148.028 46.143 139.206 39.076 139.505 24.539C139.755 8.41103 151.914 0 167.661 0H168.457C186.349 0 198.757 9.05803 198.757 29.468H184.105C184.105 16.825 179.321 13.34 168.507 13.34H167.711C159.039 13.34 154.354 16.825 154.354 24.539C154.354 33.747 162.328 36.535 171.447 39.323C188.243 44.399 201.051 50.922 201.051 67.844C201.051 84.7661 188.393 93.5771 170.102 93.5771H169.306Z" fill="white"/>
<path d="M251.037 5.40841H238.264V12.6431H248.975V16.6633H238.264V28.1182H233.888V1.39111H250.987V5.41135H251.037V5.40841Z" fill="white"/>
<path d="M274.118 5.40841H261.648V12.6431H271.252V16.6633H261.648V24.0479H274.118V28.0682H257.272V1.39111H274.118V5.41135V5.40841Z" fill="white"/>
<path d="M288.799 1.38818C294.13 1.38818 297.901 4.6526 297.901 11.1844V18.3191C297.901 24.8508 294.13 28.1152 288.799 28.1152H279.848V1.38818H288.799ZM293.525 11.1844C293.525 6.71419 292.065 5.40548 288.799 5.40548H284.224V24.045H288.799C292.068 24.045 293.525 22.6892 293.525 18.2661V11.1314V11.1814V11.1844Z" fill="white"/>
<path d="M321.135 5.40841H308.665V12.6431H318.268V16.6633H308.665V24.0479H321.135V28.0682H304.289V1.39111H321.135V5.41135V5.40841Z" fill="white"/>
<path d="M345.323 9.92862C345.323 14.6017 343.261 17.3133 339.288 18.0661V18.3661L345.22 28.1123H340.392L334.509 18.3161H331.895V28.1123H327.569V1.38525H336.571C342.354 1.38525 345.32 4.14971 345.32 9.77569V9.92568L345.323 9.92862ZM341.05 9.77863C341.05 6.56421 340.095 5.40843 336.574 5.40843H331.898V14.3018H336.574C340.095 14.3018 341.05 13.096 341.05 9.93156V9.78158V9.77863Z" fill="white"/>
<path d="M365.085 28.1182L363.223 20.5306H355.379L353.467 28.1182H348.841L356.031 1.39111H362.568L369.608 28.1182H365.082H365.085ZM356.386 16.5133H362.269L359.552 5.41135H359.1L356.383 16.5133H356.386Z" fill="white"/>
<path d="M392.589 1.38818V5.40842H384.894V28.1152H380.521V5.40842H372.827V1.38818H392.589Z" fill="white"/>
<path d="M414.716 5.40842H408.431V24.048H414.716V28.0682H397.87V24.048H404.105V5.40842H397.87V1.38818H414.716V5.40842Z" fill="white"/>
<path d="M429.653 28.4682C424.322 28.4682 420.551 25.2037 420.551 18.672V10.7344C420.551 4.20265 424.322 0.938232 429.653 0.938232H429.905C435.236 0.938232 439.007 4.20265 439.007 10.7344V18.672C439.007 25.2037 435.236 28.4682 429.905 28.4682H429.653ZM429.905 24.5509C433.174 24.5509 434.631 23.0951 434.631 18.672V10.7344C434.631 6.31423 433.171 4.85553 429.905 4.85553H429.653C426.384 4.85553 424.927 6.31129 424.927 10.7344V18.672C424.927 23.0922 426.387 24.5509 429.653 24.5509H429.905Z" fill="white"/>
<path d="M444.587 28.1182V1.39111H450.722L457.26 21.2864H457.712V1.39111H461.885V28.1182H455.75L449.213 8.22286H448.76V28.1182H444.587Z" fill="white"/>
<path d="M239.242 54.8452C236.123 54.8452 233.912 52.9365 233.912 49.1192V44.4961C233.912 40.6788 236.123 38.7701 239.242 38.7701H239.392C242.511 38.7701 244.722 40.6788 244.722 44.4961V49.1192C244.722 52.9365 242.511 54.8452 239.392 54.8452H239.242ZM239.392 52.5336C241.304 52.5336 242.158 51.6808 242.158 49.1163V44.4932C242.158 41.9316 241.304 41.0758 239.392 41.0758H239.242C237.33 41.0758 236.476 41.9287 236.476 44.4932V49.1163C236.476 51.6778 237.33 52.5336 239.242 52.5336H239.392Z" fill="white"/>
<path d="M258.453 41.3817H251.011V45.6019H257.246V47.9135H251.011V54.5953H248.497V39.0201H258.453V41.3817Z" fill="white"/>
<path d="M294.535 60.2183L292.673 52.6307H284.829L282.917 60.2183H278.291L285.481 33.4912H292.018L299.058 60.2183H294.532H294.535ZM285.836 48.6134H291.718L289.002 37.5114H288.55L285.833 48.6134H285.836Z" fill="white"/>
<path d="M302.934 60.2183V33.4912H307.813L311.986 44.2432H312.388L316.562 33.4912H321.44V60.2183H317.316V40.8759H316.864L313.093 50.2691H311.081L307.36 40.8759H306.908V60.2183H302.785H302.934Z" fill="white"/>
<path d="M344.621 37.5114H332.151V44.7461H341.755V48.7663H332.151V56.151H344.621V60.1712H327.775V33.4941H344.621V37.5144V37.5114Z" fill="white"/>
<path d="M368.856 42.0317C368.856 46.7048 366.794 49.4163 362.821 50.1692V50.4691L368.753 60.2153H363.925L358.042 50.4191H355.429V60.2153H351.103V33.4883H360.104C365.887 33.4883 368.853 36.2527 368.853 41.8787V42.0287L368.856 42.0317ZM364.583 41.8817C364.583 38.6672 363.628 37.5115 360.107 37.5115H355.432V46.4048H360.107C363.628 46.4048 364.583 45.199 364.583 42.0346V41.8846V41.8817Z" fill="white"/>
<path d="M391.182 37.5114H384.897V56.151H391.182V60.1712H374.336V56.151H380.571V37.5114H374.336V33.4912H391.182V37.5114Z" fill="white"/>
<path d="M406.169 60.6212C400.839 60.6212 397.068 57.3568 397.068 50.825V42.8875C397.068 36.3557 400.839 33.0913 406.169 33.0913H406.422C411.752 33.0913 415.523 36.3557 415.523 42.8875H411.147C411.147 38.4673 409.688 37.0086 406.422 37.0086H406.169C402.901 37.0086 401.444 38.4644 401.444 42.8875V50.825C401.444 55.2452 402.903 56.7039 406.169 56.7039H406.422C409.691 56.7039 411.147 55.2482 411.147 50.825H415.523C415.523 57.3568 411.749 60.6212 406.422 60.6212H406.169Z" fill="white"/>
<path d="M435.635 60.2183L433.773 52.6307H425.929L424.02 60.2183H419.394L426.584 33.4912H433.121L440.161 60.2183H435.635ZM426.936 48.6134H432.819L430.102 37.5114H429.65L426.933 48.6134H426.936Z" fill="white"/>
<path d="M444.637 60.2183V33.4912H450.772L457.259 53.3865H457.712V33.4912H461.885V60.2183H455.8L449.262 40.323H448.81V60.2183H444.637Z" fill="white"/>
<path d="M242.74 92.7508C237.21 92.7508 233.436 90.0892 233.436 84.1104H237.759C237.759 87.7777 239.269 88.8335 242.737 88.8335H242.937C246.256 88.8335 247.715 87.8777 247.715 85.1662C247.715 82.0517 243.994 81.3488 241.078 80.343C236.452 78.7843 233.835 76.6757 233.938 72.4055C233.988 67.6824 237.609 65.2208 242.235 65.2208H242.488C247.718 65.2208 251.389 67.8824 251.389 73.8612H247.063C247.063 70.1439 245.656 69.1381 242.488 69.1381H242.235C239.671 69.1381 238.311 70.1439 238.311 72.4525C238.311 75.167 240.675 75.9699 243.339 76.8228C248.267 78.3285 252.038 80.2401 252.038 85.2132C252.038 90.1863 248.317 92.8008 242.937 92.8008H242.737V92.7508H242.74Z" fill="white"/>
<path d="M265.871 92.7301C260.54 92.7301 256.77 89.4657 256.77 82.9339V74.9964C256.77 68.4646 260.54 65.2002 265.871 65.2002H266.124C271.454 65.2002 275.225 68.4646 275.225 74.9964H270.849C270.849 70.5762 269.339 69.1175 266.124 69.1175H265.871C262.602 69.1175 261.146 70.5733 261.146 74.9964V82.9339C261.146 87.3541 262.655 88.8128 265.871 88.8128H266.124C269.392 88.8128 270.849 87.3571 270.849 82.9339H275.225C275.225 89.4657 271.454 92.7301 266.124 92.7301H265.871Z" fill="white"/>
<path d="M297.451 69.6146H291.167V88.2541H297.451V92.2744H280.605V88.2541H286.84V69.6146H280.605V65.5944H297.451V69.6146Z" fill="white"/>
<path d="M321.437 69.6145H308.967V76.8492H318.57V80.8694H308.967V88.2541H321.437V92.2743H304.591V65.5472H321.437V69.6175V69.6145Z" fill="white"/>
<path d="M327.12 92.3243V65.5973H333.255L339.743 85.4926H340.195V65.5973H344.369V92.3243H338.283L331.746 72.429H331.293V92.3243H327.12Z" fill="white"/>
<path d="M369.106 65.5973V69.6175H361.411V92.3243H357.035V69.6175H349.34V65.5973H369.103H369.106Z" fill="white"/>
<path d="M391.182 69.6146H384.897V88.2541H391.182V92.2744H374.336V88.2541H380.571V69.6146H374.336V65.5944H391.182V69.6146Z" fill="white"/>
<path d="M406.269 92.7243C400.739 92.7243 396.968 90.0627 396.968 84.0838H401.291C401.291 87.7512 402.801 88.807 406.269 88.807H406.469C409.738 88.807 411.247 87.8512 411.247 85.1396C411.247 82.0252 407.526 81.3223 404.61 80.3165C399.982 78.7579 397.418 76.6492 397.47 72.379C397.57 67.6559 401.142 65.1943 405.767 65.1943H406.02C411.3 65.1943 414.922 67.8559 414.922 73.8348H410.598C410.598 70.1174 409.189 69.1116 406.023 69.1116H405.77C403.206 69.1116 401.846 70.1174 401.846 72.4261C401.846 75.1405 404.211 75.9434 406.874 76.7963C411.803 78.302 415.573 80.2136 415.573 85.1867C415.573 90.1598 411.852 92.7743 406.472 92.7743H406.272V92.7243H406.269Z" fill="white"/>
<path d="M439.609 65.5973V69.6175H431.914V92.3243H427.538V69.6175H419.844V65.5973H439.606H439.609Z" fill="white"/>
<path d="M453.286 92.7243C447.756 92.7243 443.982 90.0627 443.982 84.0838H448.308C448.308 87.7512 449.818 88.807 453.286 88.807H453.486C456.755 88.807 458.264 87.8512 458.264 85.1396C458.264 82.0252 454.543 81.3223 451.627 80.3165C446.998 78.7579 444.434 76.6492 444.487 72.379C444.587 67.6559 448.158 65.1943 452.784 65.1943H453.036C458.317 65.1943 461.938 67.8559 461.938 73.8348H457.612C457.612 70.1174 456.205 69.1116 453.036 69.1116H452.784C450.217 69.1116 448.86 70.1174 448.86 72.4261C448.86 75.1405 451.224 75.9434 453.888 76.7963C458.816 78.302 462.587 80.2136 462.587 85.1867C462.587 90.1598 458.866 92.7743 453.486 92.7743H453.286V92.7243Z" fill="white"/>
</svg>
