<svg width="452" height="62" viewBox="0 0 452 62" fill="none" xmlns="http://www.w3.org/2000/svg">
<g clip-path="url(#clip0_167_11805)">
<path d="M67.4002 37.41C68.9802 37.81 70.6202 37.86 72.1502 37.86C76.7802 37.86 83.6802 37.69 84.6402 36.79C85.2102 36.28 85.5402 34.36 85.8302 33.17L86.5102 30.34H88.3202C87.9802 33.45 87.5902 37.23 87.1302 40.06C84.9802 40.12 81.3702 40.23 77.7502 40.23H76.0002C70.9102 40.17 67.1902 40.06 63.6802 40.06C61.7602 40.06 60.3502 40.17 58.8802 40.23V38.93L60.6302 38.03C61.5902 37.52 62.0402 36.22 62.0402 34.7V7.90996C62.0402 5.75996 61.9302 4.28996 61.5302 3.66996C61.1902 3.10996 60.5102 2.87996 59.1602 2.81996L56.4502 2.64996V0.959961C59.3902 1.06996 62.0402 1.12996 64.8102 1.12996C67.4102 1.12996 70.0602 1.06996 73.0002 0.959961V2.64996L70.2902 2.81996C68.9302 2.87996 68.2602 3.09996 67.9202 3.66996C67.5202 4.28996 67.4102 5.75996 67.4102 7.90996V37.4L67.4002 37.41Z" fill="#533519"/>
<path d="M96.5002 7.90996C96.5002 5.75996 96.3902 4.28996 95.9902 3.66996C95.6502 3.10996 94.9702 2.87996 93.6202 2.81996L90.9102 2.64996V0.959961C92.4902 0.959961 94.0702 1.01996 95.6602 1.06996C97.2402 1.06996 98.8802 1.12996 100.46 1.12996C105.38 1.12996 110.57 0.959961 113.79 0.959961C116.33 0.959961 118.88 1.01996 121.08 1.12996C120.46 3.61996 120.18 6.83996 120.18 9.71996H118.2V6.04996C118.2 5.31996 118.14 4.68996 117.69 4.51996C114.69 3.38996 110.23 3.32996 106.62 3.32996C105.09 3.32996 103.46 3.38996 101.87 3.77996V18.87C103.68 18.98 105.71 19.04 108.42 19.04C111.87 19.04 113.79 18.81 114.41 18.42C114.69 18.19 114.81 17.69 114.86 16.95L115.14 14.01H116.84C116.78 16.33 116.67 18.47 116.67 20.56C116.67 22.65 116.78 24.8 116.84 26.83H115.14L114.86 23.5C114.8 22.77 114.69 22.26 114.41 22.09C113.79 21.64 111.87 21.41 108.42 21.41C105.71 21.41 103.62 21.41 101.87 21.58V37.4C103.45 37.8 105.09 37.85 106.62 37.85C111.25 37.85 117.02 37.68 118.03 37.12C118.88 36.67 119.61 34.18 120.01 30.79H121.99C121.43 33.5 121.09 37.01 121.09 40.06C118.94 40.12 115.33 40.23 111.71 40.23H109.96C105.61 40.17 101.15 40.06 97.6402 40.06C95.4902 40.06 93.6301 40.17 91.5901 40.23V38.54L93.6202 38.37C94.9802 38.26 95.6502 38.09 95.9902 37.52C96.3902 36.9 96.5002 35.43 96.5002 33.28V7.90996Z" fill="#533519"/>
<path d="M165.04 33.28C165.04 35.43 165.15 36.9 165.55 37.52C165.89 38.08 166.57 38.31 167.92 38.37L170.63 38.54V40.23C167.69 40.12 165.04 40.06 162.44 40.06C159.67 40.06 157.02 40.12 154.08 40.23V38.54L156.79 38.37C158.15 38.31 158.82 38.09 159.16 37.52C159.56 36.9 159.67 35.43 159.67 33.28V20.68C158.99 20.62 157.47 20.57 154.98 20.57H141.76C139.27 20.57 137.75 20.63 137.07 20.68V33.28C137.07 35.43 137.18 36.9 137.58 37.52C137.92 38.08 138.6 38.31 139.95 38.37L142.66 38.54V40.23C139.72 40.12 137.07 40.06 134.47 40.06C131.7 40.06 129.05 40.12 126.11 40.23V38.54L128.82 38.37C130.18 38.31 130.85 38.09 131.19 37.52C131.59 36.9 131.7 35.43 131.7 33.28V7.90996C131.7 5.75996 131.59 4.28996 131.19 3.66996C130.85 3.10996 130.17 2.87996 128.82 2.81996L126.11 2.64996V0.959961C129.05 1.06996 131.7 1.12996 134.47 1.12996C137.07 1.12996 139.72 1.06996 142.66 0.959961V2.64996L139.95 2.81996C138.59 2.87996 137.92 3.09996 137.58 3.66996C137.18 4.28996 137.07 5.75996 137.07 7.90996V17.97C137.75 18.03 139.27 18.08 141.76 18.08H154.98C157.47 18.08 158.99 18.02 159.67 17.97V7.90996C159.67 5.75996 159.56 4.28996 159.16 3.66996C158.82 3.10996 158.14 2.87996 156.79 2.81996L154.08 2.64996V0.959961C157.02 1.06996 159.67 1.12996 162.44 1.12996C165.04 1.12996 167.69 1.06996 170.63 0.959961V2.64996L167.92 2.81996C166.56 2.87996 165.89 3.09996 165.55 3.66996C165.15 4.28996 165.04 5.75996 165.04 7.90996V33.28Z" fill="#533519"/>
<path d="M186.5 33.28C186.5 35.43 186.61 36.9 187.01 37.52C187.35 38.08 188.03 38.31 189.38 38.37L192.09 38.54V40.23C189.15 40.12 186.5 40.06 183.9 40.06C181.13 40.06 178.48 40.12 175.54 40.23V38.54L178.25 38.37C179.61 38.31 180.28 38.09 180.62 37.52C181.02 36.9 181.13 35.43 181.13 33.28V7.90996C181.13 5.75996 181.02 4.28996 180.62 3.66996C180.28 3.10996 179.6 2.87996 178.25 2.81996L175.54 2.64996V0.959961C178.48 1.06996 181.13 1.12996 183.9 1.12996C186.5 1.12996 189.15 1.06996 192.09 0.959961V2.64996L189.38 2.81996C188.02 2.87996 187.35 3.09996 187.01 3.66996C186.61 4.28996 186.5 5.75996 186.5 7.90996V33.28Z" fill="#533519"/>
<path d="M228.37 28.82C228.37 27.52 227.92 26.96 226.45 26.84L221.76 26.44V24.74C224.08 24.8 226.39 24.85 228.65 24.85C230.91 24.85 233.28 24.79 235.6 24.74L235.83 26.15L234.19 26.71C233.57 26.94 233.57 27.16 233.57 28.8V38.29C228.71 39.7 222.61 41.17 218.71 41.17C206.11 41.17 195.94 34.62 195.94 20.43C195.94 7.99998 206.17 -0.0200195 219.78 -0.0200195C226.79 -0.0200195 231.19 1.55998 233.79 2.29998C233.11 4.95998 232.66 7.94998 232.66 10.89H230.91V7.89998C230.91 5.23998 228.88 4.33998 226.22 3.37998C224.41 2.75998 221.98 2.35998 218.31 2.35998C207.57 2.35998 201.98 9.41998 201.98 19.48C201.98 30.72 208.53 38.8 220.17 38.8C224.52 38.8 227.74 37.84 228.08 36.82C228.31 36.2 228.36 35.92 228.36 34.5V28.79L228.37 28.82Z" fill="#533519"/>
<path d="M278.15 33.28C278.15 35.43 278.26 36.9 278.66 37.52C279 38.08 279.68 38.31 281.03 38.37L283.74 38.54V40.23C280.8 40.12 278.15 40.06 275.55 40.06C272.78 40.06 270.13 40.12 267.19 40.23V38.54L269.9 38.37C271.26 38.31 271.93 38.09 272.27 37.52C272.67 36.9 272.78 35.43 272.78 33.28V20.68C272.1 20.62 270.58 20.57 268.09 20.57H254.87C252.38 20.57 250.86 20.63 250.18 20.68V33.28C250.18 35.43 250.29 36.9 250.69 37.52C251.03 38.08 251.71 38.31 253.06 38.37L255.77 38.54V40.23C252.83 40.12 250.18 40.06 247.58 40.06C244.81 40.06 242.16 40.12 239.22 40.23V38.54L241.93 38.37C243.29 38.31 243.96 38.09 244.3 37.52C244.7 36.9 244.81 35.43 244.81 33.28V7.90996C244.81 5.75996 244.7 4.28996 244.3 3.66996C243.96 3.10996 243.28 2.87996 241.93 2.81996L239.22 2.64996V0.959961C242.16 1.06996 244.81 1.12996 247.58 1.12996C250.18 1.12996 252.83 1.06996 255.77 0.959961V2.64996L253.06 2.81996C251.7 2.87996 251.03 3.09996 250.69 3.66996C250.29 4.28996 250.18 5.75996 250.18 7.90996V17.97C250.86 18.03 252.38 18.08 254.87 18.08H268.09C270.58 18.08 272.1 18.02 272.78 17.97V7.90996C272.78 5.75996 272.67 4.28996 272.27 3.66996C271.93 3.10996 271.25 2.87996 269.9 2.81996L267.19 2.64996V0.959961C270.13 1.06996 272.78 1.12996 275.55 1.12996C278.15 1.12996 280.8 1.06996 283.74 0.959961V2.64996L281.03 2.81996C279.67 2.87996 279 3.09996 278.66 3.66996C278.26 4.28996 278.15 5.75996 278.15 7.90996V33.28Z" fill="#533519"/>
<path d="M60.3302 49.83C60.3302 49.2 60.3002 48.77 60.1802 48.59C60.0802 48.43 59.8802 48.36 59.4902 48.34L58.7002 48.29V47.79C59.5602 47.82 60.3302 47.84 61.1402 47.84C61.9002 47.84 62.6702 47.82 63.5302 47.79V48.29L62.7402 48.34C62.3402 48.36 62.1502 48.42 62.0502 48.59C61.9302 48.77 61.9002 49.2 61.9002 49.83V55.5C61.9002 57.84 63.1202 58.52 65.3002 58.52C67.0802 58.52 68.7002 57.84 68.7002 55.11V49.83C68.7002 49.2 68.6702 48.77 68.5502 48.59C68.4502 48.43 68.2502 48.38 67.8602 48.34L67.1302 48.29V47.79C67.7902 47.81 68.4502 47.84 69.0402 47.84C69.7002 47.84 70.2902 47.81 71.0202 47.79V48.29L70.2902 48.34C69.8902 48.37 69.7002 48.42 69.6002 48.59C69.4802 48.77 69.4502 49.2 69.4502 49.83V54.6C69.4502 58.13 68.1102 59.55 64.7802 59.55C61.9802 59.55 60.3302 58.71 60.3302 55.69V49.83Z" fill="#533519"/>
<path d="M87.0602 49.83C87.0602 49.2 87.0302 48.77 86.9102 48.59C86.8102 48.43 86.6102 48.38 86.2202 48.34L85.4902 48.29V47.79C86.2202 47.81 86.8802 47.84 87.4702 47.84C87.7702 47.84 88.0602 47.81 88.3602 47.79L96.2402 57.52H96.2902V49.82C96.2902 49.19 96.2602 48.76 96.1402 48.58C96.0402 48.42 95.8402 48.37 95.4502 48.33L94.7202 48.28V47.78C95.3802 47.8 96.0402 47.83 96.6302 47.83C97.2902 47.83 97.8802 47.8 98.6102 47.78V48.28L97.8802 48.33C97.4802 48.36 97.2902 48.41 97.1902 48.58C97.0702 48.76 97.0402 49.19 97.0402 49.82V58.93C97.0402 59.13 97.0702 59.34 97.0902 59.54L95.6102 59.28L87.8402 49.63H87.8102V57.23C87.8102 57.86 87.8402 58.29 87.9602 58.47C88.0602 58.63 88.2602 58.68 88.6502 58.72L89.3802 58.77V59.26C88.6502 59.24 88.0602 59.21 87.4002 59.21C86.8102 59.21 86.1502 59.24 85.4902 59.26V58.77L86.2202 58.72C86.6202 58.69 86.8102 58.64 86.9102 58.47C87.0302 58.29 87.0602 57.86 87.0602 57.23V49.82V49.83Z" fill="#533519"/>
<path d="M116.36 57.23C116.36 57.86 116.39 58.29 116.51 58.47C116.61 58.63 116.81 58.7 117.2 58.72L117.99 58.77V59.26C117.13 59.23 116.36 59.21 115.6 59.21C114.79 59.21 114.02 59.23 113.16 59.26V58.77L113.95 58.72C114.35 58.7 114.54 58.64 114.64 58.47C114.76 58.29 114.79 57.86 114.79 57.23V49.82C114.79 49.19 114.76 48.76 114.64 48.58C114.54 48.42 114.34 48.35 113.95 48.33L113.16 48.28V47.78C114.02 47.81 114.79 47.83 115.6 47.83C116.36 47.83 117.13 47.81 117.99 47.78V48.28L117.2 48.33C116.8 48.35 116.61 48.41 116.51 48.58C116.39 48.76 116.36 49.19 116.36 49.82V57.23Z" fill="#533519"/>
<path d="M138.581 57.2201L141.601 49.42C141.701 49.17 141.751 48.9701 141.751 48.8301C141.751 48.4501 141.491 48.37 141.171 48.35L140.311 48.3V47.8C140.901 47.82 141.481 47.85 142.091 47.85C142.701 47.85 143.281 47.82 143.871 47.8V48.3L143.371 48.35C143.021 48.38 142.811 48.7501 142.481 49.5401L139.611 56.48C139.211 57.42 138.851 58.36 138.551 59.37H137.731C137.471 58.4 137.101 57.4601 136.771 56.6501L133.671 49.03C133.461 48.5 133.221 48.37 132.941 48.35L132.351 48.3V47.8C133.081 47.82 133.801 47.85 134.541 47.85C135.281 47.85 136.011 47.82 136.731 47.8V48.3L135.811 48.35C135.551 48.37 135.281 48.43 135.281 48.68C135.281 48.73 135.281 48.8001 135.311 48.8601L138.561 57.2201H138.581Z" fill="#533519"/>
<path d="M160.021 49.83C160.021 49.2 159.991 48.77 159.871 48.59C159.771 48.43 159.571 48.36 159.181 48.34L158.391 48.29V47.79C158.851 47.79 159.311 47.81 159.781 47.82C160.241 47.82 160.721 47.84 161.181 47.84C162.611 47.84 164.131 47.79 165.071 47.79C165.811 47.79 166.551 47.81 167.201 47.84C167.021 48.57 166.941 49.51 166.941 50.35H166.361V49.28C166.361 49.07 166.341 48.88 166.211 48.83C165.341 48.5 164.031 48.48 162.981 48.48C162.531 48.48 162.061 48.5 161.591 48.61V53.01C162.121 53.04 162.711 53.06 163.501 53.06C164.511 53.06 165.071 52.99 165.251 52.88C165.331 52.81 165.371 52.67 165.381 52.45L165.461 51.59H165.961C165.941 52.27 165.911 52.89 165.911 53.5C165.911 54.11 165.941 54.74 165.961 55.33H165.461L165.381 54.36C165.361 54.15 165.331 54 165.251 53.95C165.071 53.82 164.511 53.75 163.501 53.75C162.711 53.75 162.101 53.75 161.591 53.8V58.42C162.051 58.54 162.531 58.55 162.981 58.55C164.331 58.55 166.021 58.5 166.311 58.34C166.561 58.21 166.771 57.48 166.891 56.49H167.471C167.311 57.28 167.211 58.3 167.211 59.2C166.581 59.22 165.531 59.25 164.471 59.25H163.961C162.691 59.23 161.391 59.2 160.361 59.2C159.731 59.2 159.191 59.23 158.601 59.25V58.76L159.191 58.71C159.591 58.68 159.781 58.63 159.881 58.46C160.001 58.28 160.031 57.85 160.031 57.22V49.81L160.021 49.83Z" fill="#533519"/>
<path d="M185.54 57.23C185.54 57.86 185.57 58.29 185.69 58.47C185.79 58.63 185.99 58.7 186.38 58.72L187.17 58.77V59.26C186.31 59.23 185.54 59.21 184.78 59.21C183.97 59.21 183.2 59.23 182.34 59.26V58.77L183.13 58.72C183.53 58.7 183.72 58.64 183.82 58.47C183.94 58.29 183.97 57.86 183.97 57.23V49.82C183.97 49.19 183.94 48.76 183.82 48.58C183.72 48.42 183.52 48.37 183.13 48.33L182.45 48.28V47.78C183.32 47.8 184.28 47.83 185.25 47.83C186.22 47.83 187.18 47.8 188.14 47.78H188.29C190.81 47.78 191.47 49.08 191.47 50.25C191.47 52.05 189.85 53.12 188.25 53.43L191.99 58.31C192.24 58.64 192.6 58.71 193 58.74V59.23C192.57 59.21 192.19 59.18 191.81 59.18C191.43 59.18 191.07 59.21 190.69 59.23C190.48 58.92 190.23 58.64 190.01 58.34L186.98 54.27C186.72 53.91 186.4 53.59 186.12 53.25L186.22 53.05C186.37 53.07 186.5 53.07 186.67 53.07C187 53.07 187.33 53.04 187.68 52.99C188.83 52.79 189.82 51.9 189.82 50.68C189.82 48.9 188.5 48.4 187.21 48.4C186.47 48.4 185.99 48.48 185.53 48.6V57.21L185.54 57.23Z" fill="#533519"/>
<path d="M213.721 50.54L213.62 49.6C213.57 49.15 213.501 48.99 212.891 48.61C212.431 48.33 211.74 48.21 211.09 48.21C209.94 48.21 208.65 48.99 208.65 50.62C208.65 51.74 209.31 52.43 211.37 52.67C213.7 52.92 215.161 53.49 215.161 55.38C215.161 58.2 212.64 59.55 210.18 59.55C209.03 59.55 207.901 59.19 207.361 58.92C207.461 58.29 207.48 57.63 207.48 57.02V56.39H208.01L208.141 57.5C208.221 58.19 209.531 58.82 210.831 58.82C212.311 58.82 213.781 57.91 213.781 56.28C213.781 54.65 212.561 54.27 210.881 54.07C208.291 53.77 207.271 52.97 207.271 51.25C207.271 48.69 209.511 47.52 211.491 47.52C212.811 47.52 213.8 47.95 214.48 48.21C214.32 49.05 214.251 49.76 214.251 50.54H213.721Z" fill="#533519"/>
<path d="M232.98 57.23C232.98 57.86 233.01 58.29 233.13 58.47C233.23 58.63 233.43 58.7 233.82 58.72L234.61 58.77V59.26C233.75 59.23 232.98 59.21 232.22 59.21C231.41 59.21 230.64 59.23 229.78 59.26V58.77L230.57 58.72C230.97 58.7 231.16 58.64 231.26 58.47C231.38 58.29 231.41 57.86 231.41 57.23V49.82C231.41 49.19 231.38 48.76 231.26 48.58C231.16 48.42 230.96 48.35 230.57 48.33L229.78 48.28V47.78C230.64 47.81 231.41 47.83 232.22 47.83C232.98 47.83 233.75 47.81 234.61 47.78V48.28L233.82 48.33C233.42 48.35 233.23 48.41 233.13 48.58C233.01 48.76 232.98 49.19 232.98 49.82V57.23Z" fill="#533519"/>
<path d="M253.131 50.26C253.131 49.63 253.111 49.11 253.061 48.61H250.501C250.011 48.61 249.871 48.76 249.841 49.15L249.771 50.45H249.261C249.261 49.56 249.231 48.65 249.141 47.79C250.331 47.79 251.521 47.84 252.701 47.84H255.091C255.681 47.84 256.281 47.82 256.871 47.81C257.461 47.81 258.061 47.79 258.651 47.79C258.571 48.65 258.531 49.56 258.531 50.45H258.021L257.951 49.15C257.921 48.75 257.781 48.61 257.291 48.61H254.731C254.681 49.1 254.661 49.63 254.661 50.26V57.24C254.661 57.87 254.691 58.3 254.811 58.48C254.911 58.64 255.111 58.71 255.501 58.73L256.291 58.78V59.27C255.431 59.24 254.661 59.22 253.901 59.22C253.091 59.22 252.321 59.24 251.461 59.27V58.78L252.251 58.73C252.651 58.71 252.841 58.65 252.941 58.48C253.061 58.3 253.091 57.87 253.091 57.24V50.26H253.131Z" fill="#533519"/>
<path d="M278.83 53.59L280.53 50.9C281.19 49.86 281.77 48.82 282.31 47.77H283.63V48.02C282.24 49.62 280.25 52.41 279.57 53.88C279.37 54.31 279.34 54.72 279.34 55.12V57.25C279.34 57.88 279.37 58.31 279.49 58.49C279.59 58.65 279.79 58.72 280.18 58.74L280.97 58.79V59.28C280.11 59.25 279.34 59.23 278.58 59.23C277.77 59.23 277 59.25 276.14 59.28V58.79L276.93 58.74C277.33 58.72 277.52 58.66 277.62 58.49C277.74 58.31 277.77 57.88 277.77 57.25V54.91C277.77 54.65 277.72 54.42 277.62 54.25L275.58 50.69C274.72 49.21 273.88 48.6 273.47 48.55L272.99 48.5V48.02L274.89 47.62C274.89 47.62 274.94 47.6 274.97 47.6C275.27 47.6 275.48 47.91 275.75 48.23C276.03 48.58 276.26 48.91 276.48 49.3L278.84 53.61L278.83 53.59Z" fill="#533519"/>
<path d="M307.34 1.03003V59.92" stroke="#533519" stroke-width="0.98"/>
<path d="M328.09 11.75C328.09 5.39005 332.83 1.05005 338.94 1.05005C343.13 1.05005 345.7 3.22005 347.25 5.70005L344.15 7.28005C343.16 5.57005 341.17 4.27005 338.94 4.27005C334.85 4.27005 331.81 7.40005 331.81 11.74C331.81 16.08 334.85 19.21 338.94 19.21C341.17 19.21 343.16 17.94 344.15 16.2L347.25 17.7801C345.67 20.2601 343.13 22.43 338.94 22.43C332.83 22.43 328.09 18.09 328.09 11.73V11.75Z" fill="#533519"/>
<path d="M349.141 14.58C349.141 10.3 352.091 6.73999 356.831 6.73999C361.571 6.73999 364.551 10.31 364.551 14.58C364.551 18.85 361.641 22.46 356.831 22.46C352.021 22.46 349.141 18.89 349.141 14.58ZM361.171 14.58C361.171 11.94 359.621 9.61999 356.831 9.61999C354.041 9.61999 352.521 11.95 352.521 14.58C352.521 17.21 354.071 19.57 356.831 19.57C359.591 19.57 361.171 17.24 361.171 14.58Z" fill="#533519"/>
<path d="M367.83 22.08V1.40002H371.09V22.08H367.83Z" fill="#533519"/>
<path d="M375.3 22.08V1.40002H378.56V22.08H375.3Z" fill="#533519"/>
<path d="M381.84 14.58C381.84 10.24 385 6.73999 389.44 6.73999C393.88 6.73999 396.82 10.18 396.82 14.89V15.67H385.25C385.5 17.93 387.2 19.79 390.02 19.79C391.48 19.79 393.21 19.2 394.27 18.15L395.76 20.29C394.27 21.72 392.07 22.46 389.68 22.46C385.18 22.46 381.84 19.33 381.84 14.58ZM389.44 9.39999C386.65 9.39999 385.38 11.54 385.22 13.37H393.65C393.59 11.6 392.38 9.39999 389.43 9.39999H389.44Z" fill="#533519"/>
<path d="M399.851 25.9201L401.371 23.5601C402.581 24.9601 404.131 25.4801 406.111 25.4801C408.251 25.4801 410.541 24.4901 410.541 21.4201V19.6201C409.391 21.1101 407.691 22.1001 405.731 22.1001C401.921 22.1001 399.101 19.3401 399.101 14.4101C399.101 9.48009 401.891 6.72009 405.731 6.72009C407.621 6.72009 409.331 7.59009 410.541 9.17009V7.09009H413.801V21.2901C413.801 26.6901 409.801 28.1401 406.111 28.1401C403.571 28.1401 401.681 27.5801 399.851 25.9101V25.9201ZM410.551 17.2101V11.6301C409.841 10.5101 408.221 9.61009 406.711 9.61009C404.141 9.61009 402.491 11.5301 402.491 14.4201C402.491 17.3101 404.131 19.2301 406.711 19.2301C408.231 19.2301 409.841 18.3301 410.551 17.2101Z" fill="#533519"/>
<path d="M417.09 14.58C417.09 10.24 420.25 6.73999 424.69 6.73999C429.13 6.73999 432.07 10.18 432.07 14.89V15.67H420.5C420.75 17.93 422.45 19.79 425.27 19.79C426.73 19.79 428.46 19.2 429.52 18.15L431.01 20.29C429.52 21.72 427.32 22.46 424.93 22.46C420.43 22.46 417.09 19.33 417.09 14.58ZM424.68 9.39999C421.89 9.39999 420.62 11.54 420.46 13.37H428.89C428.83 11.6 427.62 9.39999 424.67 9.39999H424.68Z" fill="#533519"/>
<path d="M327.99 51.83C327.99 47.55 330.94 43.99 335.68 43.99C340.42 43.99 343.4 47.56 343.4 51.83C343.4 56.1 340.49 59.71 335.68 59.71C330.87 59.71 327.99 56.14 327.99 51.83ZM340.03 51.83C340.03 49.19 338.48 46.87 335.69 46.87C332.9 46.87 331.38 49.2 331.38 51.83C331.38 54.46 332.93 56.82 335.69 56.82C338.45 56.82 340.03 54.49 340.03 51.83Z" fill="#533519"/>
<path d="M347.46 59.3301V47.2101H344.98V44.3601H347.46V43.5201C347.46 40.1701 349.44 38.3401 352.2 38.3401C353.22 38.3401 354.15 38.5601 354.8 38.9301L354.09 41.3201C353.72 41.1001 353.25 41.0101 352.79 41.0101C351.52 41.0101 350.71 41.8501 350.71 43.5201V44.3601H353.75V47.2101H350.71V59.3301H347.45H347.46Z" fill="#533519"/>
<path d="M378.68 59.33V50.31H367.92V59.33H364.29V38.65H367.92V47.11H378.68V38.65H382.31V59.33H378.68Z" fill="#533519"/>
<path d="M385.69 51.83C385.69 47.49 388.85 43.99 393.29 43.99C397.73 43.99 400.67 47.43 400.67 52.14V52.92H389.1C389.35 55.18 391.05 57.04 393.88 57.04C395.34 57.04 397.07 56.45 398.13 55.4L399.62 57.54C398.13 58.97 395.93 59.71 393.54 59.71C389.04 59.71 385.7 56.58 385.7 51.83H385.69ZM393.28 46.65C390.49 46.65 389.22 48.79 389.06 50.62H397.49C397.43 48.85 396.22 46.65 393.27 46.65H393.28Z" fill="#533519"/>
<path d="M413.03 59.3301V57.7201C411.91 58.9901 410.18 59.7001 408.19 59.7001C405.74 59.7001 402.98 58.0601 402.98 54.7401C402.98 51.4201 405.74 49.8701 408.19 49.8701C410.21 49.8701 411.94 50.5201 413.03 51.7901V49.5601C413.03 47.8201 411.6 46.7701 409.53 46.7701C407.86 46.7701 406.4 47.3901 405.1 48.6601L403.77 46.4001C405.51 44.7601 407.68 43.9801 410.06 43.9801C413.38 43.9801 416.29 45.3801 416.29 49.4101V59.3301H413.03ZM413.03 55.9201V53.6601C412.29 52.6401 410.89 52.1101 409.46 52.1101C407.63 52.1101 406.27 53.1601 406.27 54.8101C406.27 56.4601 407.63 57.4801 409.46 57.4801C410.89 57.4801 412.28 56.9501 413.03 55.9301V55.9201Z" fill="#533519"/>
<path d="M420.5 59.33V38.65H423.76V59.33H420.5Z" fill="#533519"/>
<path d="M428.621 55.86V47.21H426.141V44.36H428.621V40.27H431.871V44.36H434.911V47.21H431.871V55.05C431.871 56.07 432.371 56.82 433.301 56.82C433.921 56.82 434.511 56.57 434.761 56.29L435.541 58.74C434.951 59.3 433.991 59.7 432.471 59.7C429.961 59.7 428.631 58.34 428.631 55.86H428.621Z" fill="#533519"/>
<path d="M448 59.33V49.9C448 47.57 446.79 46.86 444.96 46.86C443.32 46.86 441.89 47.85 441.12 48.88V59.33H437.86V38.65H441.12V46.4C442.11 45.22 444.07 43.98 446.42 43.98C449.64 43.98 451.26 45.65 451.26 48.72V59.32H448V59.33Z" fill="#533519"/>
<path d="M0 1.06995V32.1299C0 42.8399 12.38 55.3499 21.54 61.1599C30.71 55.3399 43.08 42.8399 43.08 32.1299V1.06995H0ZM41.82 32.1299C41.82 41.9799 30.19 53.9399 21.54 59.6499C12.9 53.9399 1.27 41.9899 1.27 32.1299V2.32995H41.82V32.1299Z" fill="white"/>
<path d="M15.8095 49.27C13.9895 48.3 11.8395 47.62 9.51953 47.76C9.94953 48.27 10.3795 48.78 10.8295 49.27H15.8095Z" fill="white"/>
<path d="M27.2695 49.27H32.2495C32.6995 48.78 33.1295 48.27 33.5595 47.76C31.2395 47.62 29.0895 48.3 27.2695 49.27Z" fill="white"/>
<path d="M35.6705 32.0299H34.4805V46.6399C34.8805 46.1399 35.2905 45.6399 35.6705 45.1199V32.0199V32.0299Z" fill="white"/>
<path d="M8.60016 32.0299H7.41016V45.1299C7.79016 45.6399 8.19016 46.1399 8.60016 46.6499V32.0399V32.0299Z" fill="white"/>
<path d="M21.2596 45.4199H21.8296V51.7599C23.8496 49.7499 28.0696 46.3299 33.1996 46.4499V29.7499C32.0996 29.6499 30.4096 29.5199 29.0996 29.5199C24.4196 29.5199 22.4696 31.3699 22.4496 31.3799C22.4496 31.3799 21.9196 31.9499 21.9196 33.9699H21.1696C21.1696 31.9499 20.6396 31.3799 20.6396 31.3799C20.6196 31.3599 18.6796 29.5199 13.9896 29.5199C12.6796 29.5199 10.9896 29.6499 9.88965 29.7499V46.4499C15.0196 46.3299 19.2396 49.7599 21.2596 51.7599V45.4199ZM16.0996 37.5099C16.0996 36.6399 16.8096 34.6199 18.7696 34.6199C20.7296 34.6199 21.5496 36.1999 21.5496 36.1999C21.5496 36.1999 22.3596 34.6199 24.3196 34.6199C26.2796 34.6199 26.9896 36.6399 26.9896 37.5099C26.9896 40.3599 21.5496 43.4499 21.5496 44.2699C21.5496 43.4499 16.1096 40.3599 16.1096 37.5099H16.0996Z" fill="white"/>
<path d="M40.2308 27.5499C40.2308 27.5499 41.0108 26.4799 41.0108 25.2999C41.0108 23.5799 39.0008 20.9699 35.9208 20.9699C35.1608 20.9699 34.3808 21.1199 33.6308 21.3499L39.8508 11.6599L29.6908 18.0199C29.7808 16.6999 29.6908 15.4699 30.5008 14.6199C31.3208 13.7599 33.0408 13.8499 33.0408 13.8499C33.0408 13.8499 32.8408 12.6299 31.9808 11.8199C30.7308 10.6399 27.4608 10.2999 25.3408 12.5299C24.8508 13.0499 24.4408 13.6699 24.1108 14.3299L21.5508 3.16992L18.6808 15.6699C17.8008 14.7199 16.8808 13.9499 16.8208 12.7899C16.7608 11.6099 18.0308 10.4099 18.0308 10.4099C18.0308 10.4099 16.9808 9.72992 15.8108 9.78992C14.0908 9.87992 11.5908 12.0199 11.7508 15.0999C11.7908 15.8299 11.9608 16.5699 12.2208 17.2799L3.24077 11.6699L10.1008 22.3499C8.44077 22.3099 6.95077 22.9199 5.77077 22.0799C4.81077 21.3899 4.73077 19.6199 4.73077 19.6199C4.73077 19.6199 3.47077 20.0399 2.79077 20.9899C1.79077 22.3899 1.91077 25.6799 4.42077 27.4699C5.61077 28.3199 7.16077 28.7499 8.61077 28.9699V28.5799C8.61077 28.5799 10.6008 28.3599 12.5308 28.2699C12.5508 28.0499 12.5808 27.8299 12.6108 27.6099C10.5608 27.7999 7.56077 27.7799 5.87077 26.5799C3.68077 25.0199 3.99077 22.8999 3.99077 22.8999C3.99077 22.8999 4.31077 23.4499 4.84077 23.8299C7.33077 25.6099 9.71077 23.2499 12.0008 24.8899C12.4808 25.2299 12.8208 25.6299 13.0408 25.9499C13.2308 25.4299 13.4708 24.9399 13.7508 24.4699L8.27077 16.9499L15.5808 22.2699C15.9508 21.9399 16.3508 21.6499 16.7708 21.3899C16.0308 20.7099 13.4908 17.7299 13.4908 15.4899C13.4908 12.7999 15.2108 11.9899 15.2108 11.9899C15.2108 11.9899 14.9808 12.5799 15.0108 13.2399C15.1708 16.2899 18.4408 16.4799 18.5808 19.2999C18.6108 19.7899 18.5408 20.2299 18.4508 20.5799C18.9508 20.3999 19.4708 20.2599 20.0008 20.1699L21.5208 10.5499L23.0408 20.1699C23.5308 20.2499 24.0108 20.3699 24.4708 20.5399C24.4308 19.1699 24.7408 16.0799 26.3908 14.2399C28.0708 12.3599 30.1008 13.0199 30.1008 13.0199C30.1008 13.0199 29.5108 13.2599 29.0608 13.7399C26.9608 15.9599 29.1308 18.5699 27.1908 20.6199C26.8708 20.9599 26.5208 21.2099 26.2208 21.3799C26.6608 21.6499 27.0808 21.9599 27.4708 22.2999L34.7908 16.9799L29.3108 24.4999C29.5508 24.8999 29.7608 25.3199 29.9308 25.7499C30.9908 24.6399 33.0108 22.9399 35.4008 22.9399C38.0908 22.9399 39.0808 24.9199 39.0808 24.9199C39.0808 24.9199 38.5008 24.6599 37.8408 24.6599C34.7908 24.6599 34.1508 27.9099 31.3308 27.9099C31.0208 27.9099 30.7408 27.8799 30.4908 27.8199C30.5108 27.9799 30.5108 28.1399 30.5208 28.2999C31.9208 28.3699 33.3508 28.4999 34.0308 28.5699C35.5008 27.6399 36.4308 26.1699 37.9208 26.1699C39.1108 26.1699 40.2008 27.5599 40.2008 27.5599L40.2308 27.5499Z" fill="#FFE320"/>
<path d="M34.4805 31.0499H36.6505V43.7399C39.2305 39.9199 40.9805 35.8899 40.9805 32.1299V29.4999H34.4805V31.0499Z" fill="#FFE320"/>
<path d="M2.11035 32.1299C2.11035 35.8899 3.85035 39.9099 6.44035 43.7399V31.0499H8.60035V29.4999H2.11035V32.1299Z" fill="#FFE320"/>
<path d="M21.5403 30.4899C21.5403 30.4899 22.0103 30.0099 23.0303 29.4999C24.1903 28.9199 26.0603 28.2999 28.8103 28.2499C28.3903 24.6099 25.3003 21.7899 21.5503 21.7899C17.8003 21.7899 14.7103 24.6199 14.2803 28.2499C17.0203 28.2899 18.9003 28.9199 20.0603 29.4999C21.0803 30.0099 21.5503 30.4899 21.5503 30.4899H21.5403Z" fill="#FFE320"/>
<path d="M21.54 53.9599C21.54 53.9599 19.94 51.9799 17.41 50.2499H11.75C15.01 53.6699 18.58 56.6199 21.55 58.6399C24.52 56.6199 28.08 53.6699 31.34 50.2499H25.68C23.14 51.9799 21.55 53.9599 21.55 53.9599H21.54Z" fill="#FFE320"/>
<path d="M24.3196 34.62C22.3596 34.62 21.5496 36.2 21.5496 36.2C21.5496 36.2 20.7296 34.62 18.7696 34.62C16.8096 34.62 16.0996 36.64 16.0996 37.51C16.0996 40.36 21.5396 43.45 21.5396 44.27C21.5396 43.45 26.9796 40.36 26.9796 37.51C26.9796 36.64 26.2696 34.62 24.3096 34.62H24.3196Z" fill="#F0493E"/>
<path d="M21.5395 59.66C30.1795 53.95 41.8195 41.99 41.8195 32.14V2.32996H1.26953V32.13C1.26953 41.98 12.8995 53.94 21.5495 59.65L21.5395 59.66ZM32.2495 49.27H27.2695C29.0895 48.3 31.2395 47.62 33.5595 47.76C33.1295 48.27 32.6995 48.78 32.2495 49.27ZM21.2595 45.42V51.76C19.2295 49.75 15.0195 46.33 9.88953 46.45V29.75C10.9895 29.65 12.6795 29.52 13.9895 29.52C18.6695 29.52 20.6195 31.37 20.6395 31.38C20.6395 31.38 21.1695 31.95 21.1695 33.97H21.9195C21.9195 31.95 22.4495 31.38 22.4495 31.38C22.4695 31.36 24.4095 29.52 29.0995 29.52C30.4095 29.52 32.0995 29.65 33.1995 29.75V46.45C28.0695 46.33 23.8495 49.76 21.8295 51.76V45.42H21.2595ZM14.2795 28.25C14.7095 24.61 17.7895 21.79 21.5495 21.79C25.3095 21.79 28.3895 24.62 28.8095 28.25C26.0695 28.29 24.1895 28.92 23.0295 29.5C22.0095 30.01 21.5395 30.49 21.5395 30.49C21.5395 30.49 21.0695 30.01 20.0495 29.5C18.8895 28.92 17.0195 28.3 14.2695 28.25H14.2795ZM35.6695 45.13C35.2895 45.64 34.8895 46.14 34.4795 46.65V32.04H35.6695V45.14V45.13ZM40.9795 32.13C40.9795 35.89 39.2295 39.91 36.6495 43.74V31.05H34.4795V29.5H40.9795V32.13ZM2.78953 20.99C3.46953 20.04 4.72953 19.62 4.72953 19.62C4.72953 19.62 4.80953 21.39 5.76953 22.08C6.94953 22.92 8.43953 22.3 10.0995 22.35L3.23953 11.67L12.2095 17.29C11.9495 16.57 11.7795 15.84 11.7395 15.11C11.5795 12.03 14.0795 9.88996 15.7995 9.79996C16.9695 9.73996 18.0195 10.42 18.0195 10.42C18.0195 10.42 16.7495 11.62 16.8095 12.8C16.8695 13.96 17.7895 14.73 18.6695 15.68L21.5395 3.17996L24.0995 14.34C24.4395 13.68 24.8395 13.06 25.3295 12.54C27.4495 10.3 30.7295 10.64 31.9695 11.83C32.8195 12.64 33.0295 13.86 33.0295 13.86C33.0295 13.86 31.3095 13.77 30.4895 14.63C29.6795 15.49 29.7695 16.72 29.6795 18.03L39.8395 11.67L33.6195 21.36C34.3695 21.12 35.1495 20.98 35.9095 20.98C38.9895 20.98 40.9995 23.59 40.9995 25.31C40.9995 26.48 40.2195 27.56 40.2195 27.56C40.2195 27.56 39.1295 26.17 37.9395 26.17C36.4495 26.17 35.5195 27.64 34.0495 28.57C33.3595 28.5 31.9395 28.37 30.5395 28.3C30.5195 28.14 30.5295 27.98 30.5095 27.82C30.7595 27.87 31.0395 27.91 31.3495 27.91C34.1695 27.91 34.8095 24.66 37.8595 24.66C38.5195 24.66 39.0995 24.92 39.0995 24.92C39.0995 24.92 38.1095 22.94 35.4195 22.94C33.0295 22.94 31.0095 24.64 29.9495 25.75C29.7795 25.31 29.5695 24.9 29.3295 24.5L34.8095 16.98L27.4895 22.3C27.0995 21.96 26.6795 21.65 26.2395 21.38C26.5395 21.2 26.8795 20.96 27.2095 20.62C29.1495 18.58 26.9795 15.96 29.0795 13.74C29.5395 13.26 30.1195 13.02 30.1195 13.02C30.1195 13.02 28.0895 12.36 26.4095 14.24C24.7495 16.09 24.4495 19.17 24.4895 20.54C24.0295 20.38 23.5495 20.26 23.0595 20.17L21.5395 10.55L20.0195 20.17C19.4895 20.26 18.9695 20.4 18.4695 20.58C18.5595 20.23 18.6195 19.8 18.5995 19.3C18.4595 16.48 15.1895 16.29 15.0295 13.24C14.9995 12.58 15.2295 11.99 15.2295 11.99C15.2295 11.99 13.5095 12.8 13.5095 15.49C13.5095 17.73 16.0495 20.71 16.7895 21.39C16.3695 21.65 15.9695 21.95 15.5995 22.27L8.28953 16.95L13.7695 24.47C13.4895 24.94 13.2495 25.43 13.0595 25.95C12.8395 25.63 12.4995 25.24 12.0195 24.89C9.72953 23.25 7.33953 25.61 4.85953 23.83C4.31953 23.44 4.00953 22.9 4.00953 22.9C4.00953 22.9 3.70953 25.02 5.88953 26.58C7.56953 27.78 10.5695 27.81 12.6295 27.61C12.5895 27.83 12.5695 28.05 12.5495 28.27C10.6195 28.36 8.62953 28.58 8.62953 28.58V28.97C7.18953 28.75 5.62953 28.32 4.43953 27.47C1.92953 25.67 1.80953 22.39 2.80953 20.99H2.78953ZM6.43953 43.74C3.85953 39.92 2.10953 35.89 2.10953 32.13V29.5H8.59953V31.05H6.43953V43.74ZM7.41953 32.03H8.60953V46.64C8.20953 46.14 7.79953 45.64 7.41953 45.12V32.02V32.03ZM9.51953 47.76C11.8395 47.62 13.9895 48.3 15.8095 49.27H10.8295C10.3795 48.78 9.94953 48.27 9.51953 47.76ZM17.4095 50.25C19.9495 51.98 21.5395 53.96 21.5395 53.96C21.5395 53.96 23.1295 51.98 25.6695 50.25H31.3295C28.0695 53.67 24.5095 56.62 21.5395 58.64C18.5695 56.62 15.0095 53.67 11.7395 50.25H17.3995H17.4095Z" fill="#562100"/>
</g>
<defs>
<clipPath id="clip0_167_11805">
<rect width="451.25" height="61.17" fill="white"/>
</clipPath>
</defs>
</svg>
