<svg width="721" height="245" viewBox="0 0 721 245" fill="none" xmlns="http://www.w3.org/2000/svg">
<g clip-path="url(#clip0_295_12763)">
<path d="M244.12 0H0V244.12H244.12V0Z" fill="#E73736"/>
<path d="M45.8701 46.79H61.9301V180.6H85.7701V197.21H45.8701V46.79Z" fill="white"/>
<path d="M157.92 46.8101H198.52V63.2101H173.99V111.44H196.92V128.99H173.99V180.59H198.52V197.22H157.92V46.8101Z" fill="white"/>
<path d="M99.7704 197.16V180.7L104.8 180.68C111.41 180.64 122.59 176.04 124.23 165.63C125.83 155.55 124.65 148.26 111.69 126.11L111.52 125.74C102.49 111.03 93.9404 98.18 97.1404 78.02C100.61 56.11 117.75 46.46 133.34 46.74H138.37V62.82V63.19L133.34 63.21C126.73 63.25 115.24 67.78 113.59 78.18C111.99 88.26 113.09 94.78 125.72 116.63L126.06 117.19C135.44 132.29 143.88 145.63 140.69 165.79C137.22 187.7 120.4 197.43 104.81 197.14H99.7804" fill="white"/>
<path d="M290.54 167.84H298.23C304.24 167.84 309.24 169.94 309.24 176.62C309.24 183.3 304.16 185.44 298.86 185.44H294.74V197.16H290.54V167.84ZM294.74 181.74H298.9C301.5 181.74 304.78 180.44 304.78 176.57C304.78 172.7 300.92 171.53 298.31 171.53H294.74V181.74Z" fill="white"/>
<path d="M326.75 167.33C335.66 167.33 340.86 173.8 340.86 182.49C340.86 191.18 335.69 197.65 326.75 197.65C317.81 197.65 312.64 191.39 312.64 182.49C312.64 173.59 317.85 167.33 326.75 167.33ZM326.75 193.97C333.51 193.97 336.41 188.34 336.41 182.5C336.41 176.66 333.22 170.99 326.75 171.03C320.28 170.99 317.09 176.53 317.09 182.5C317.09 188.47 319.99 193.97 326.75 193.97Z" fill="white"/>
<path d="M345.94 167.84H350.14V193.46H362.41V197.16H345.94V167.84Z" fill="white"/>
<path d="M366.98 167.84H371.18V197.16H366.98V167.84Z" fill="white"/>
<path d="M384.49 171.53H375.37V167.83H397.8V171.53H388.68V197.15H384.48V171.53H384.49Z" fill="white"/>
<path d="M402.01 167.84H406.21V197.16H402.01V167.84Z" fill="white"/>
<path d="M433.93 172.67C432.08 171.58 430.02 171.03 427.88 171.03C421.12 171.03 416.62 175.9 416.62 182.5C416.62 189.1 421.58 193.97 427.67 193.97C429.77 193.97 432.58 193.42 434.05 192.54L434.3 196.61C432.07 197.53 429.34 197.66 427.62 197.66C418.34 197.66 412.16 191.7 412.16 182.37C412.16 173.04 418.71 167.33 427.66 167.33C429.93 167.33 432.15 167.67 434.25 168.59L433.91 172.66L433.93 172.67Z" fill="white"/>
<path d="M448.63 167.84H453.04L465.43 197.16H460.85L457.87 189.77H443.5L440.52 197.16H436.11L448.63 167.84ZM450.69 171.79L444.85 186.32H456.53L450.69 171.79Z" fill="white"/>
<path d="M469.63 167.84H473.83V193.46H486.1V197.16H469.63V167.84Z" fill="white"/>
<path d="M516.5 172.25C514.36 171.41 513.18 171.03 511 171.03C508.65 171.03 505.88 171.87 505.88 174.94C505.88 180.57 518.48 179.27 518.48 188.93C518.48 195.19 513.65 197.67 507.77 197.67C505.71 197.67 503.7 197.08 501.76 196.45L502.18 192.54C503.61 193.13 506.13 193.97 508.27 193.97C510.66 193.97 514.02 192.63 514.02 189.18C514.02 182.63 501.42 184.43 501.42 175.32C501.42 170.11 505.54 167.34 510.83 167.34C512.76 167.34 515.07 167.68 517.09 168.39L516.5 172.25Z" fill="white"/>
<path d="M544.43 172.67C542.58 171.58 540.52 171.03 538.38 171.03C531.62 171.03 527.12 175.9 527.12 182.5C527.12 189.1 532.08 193.97 538.17 193.97C540.27 193.97 543.08 193.42 544.55 192.54L544.8 196.61C542.57 197.53 539.84 197.66 538.12 197.66C528.84 197.66 522.66 191.7 522.66 182.37C522.66 173.04 529.21 167.33 538.16 167.33C540.43 167.33 542.65 167.67 544.75 168.59L544.41 172.66L544.43 172.67Z" fill="white"/>
<path d="M549.85 167.84H554.05V197.16H549.85V167.84Z" fill="white"/>
<path d="M561.73 167.84H578.16V171.54H565.94V180.11H577.07V183.81H565.94V193.47H578.16V197.17H561.73V167.85V167.84Z" fill="white"/>
<path d="M584.83 167.84H590.54L603.48 191.45H603.56V167.84H607.76V197.16H602.38L589.11 173.05H589.03V197.16H584.83V167.84Z" fill="white"/>
<path d="M635.44 172.67C633.59 171.58 631.53 171.03 629.39 171.03C622.63 171.03 618.13 175.9 618.13 182.5C618.13 189.1 623.09 193.97 629.18 193.97C631.28 193.97 634.09 193.42 635.56 192.54L635.81 196.61C633.58 197.53 630.85 197.66 629.13 197.66C619.85 197.66 613.67 191.7 613.67 182.37C613.67 173.04 620.22 167.33 629.17 167.33C631.44 167.33 633.66 167.67 635.76 168.59L635.42 172.66L635.44 172.67Z" fill="white"/>
<path d="M641.07 167.84H657.5V171.54H645.28V180.11H656.41V183.81H645.28V193.47H657.5V197.17H641.07V167.85V167.84Z" fill="white"/>
<path d="M720.27 166.51H687.85V198.93H720.27V166.51Z" fill="#E73736"/>
<path d="M297.68 56.6H290.74V53.78H307.83V56.6H300.89V76.12H297.69V56.6H297.68Z" fill="white"/>
<path d="M311.41 53.79H314.61V63.13H325.3V53.79H328.5V76.12H325.3V65.94H314.61V76.12H311.41V53.79Z" fill="white"/>
<path d="M334.74 53.79H347.25V56.61H337.94V63.14H346.42V65.96H337.94V73.32H347.25V76.14H334.74V53.81V53.79Z" fill="white"/>
<path d="M367.09 46.8H371.29V72.42H383.56V76.1201H367.09V46.8Z" fill="white"/>
<path d="M401.03 46.29C409.94 46.29 415.14 52.76 415.14 61.45C415.14 70.14 409.97 76.61 401.03 76.61C392.09 76.61 386.92 70.35 386.92 61.45C386.92 52.55 392.13 46.29 401.03 46.29ZM401.03 72.93C407.79 72.93 410.69 67.3 410.69 61.46C410.69 55.62 407.5 49.95 401.03 49.99C394.56 49.95 391.37 55.49 391.37 61.46C391.37 67.43 394.27 72.93 401.03 72.93Z" fill="white"/>
<path d="M421.36 46.8H427.07L440.01 70.4101H440.09V46.8H444.29V76.1201H438.91L425.64 52.01H425.56V76.1201H421.36V46.8Z" fill="white"/>
<path d="M451.76 46.8H460.41C469.11 46.8 476.04 52.18 476.04 61.21C476.04 71.04 470.08 76.1201 460.41 76.1201H451.76V46.8ZM455.96 72.42H460.37C467.6 72.42 471.59 68.93 471.59 61.37C471.59 54.52 466.93 50.4901 460.88 50.4901H455.96V72.42Z" fill="white"/>
<path d="M495.23 46.29C504.14 46.29 509.34 52.76 509.34 61.45C509.34 70.14 504.17 76.61 495.23 76.61C486.29 76.61 481.12 70.35 481.12 61.45C481.12 52.55 486.33 46.29 495.23 46.29ZM495.23 72.93C501.99 72.93 504.89 67.3 504.89 61.46C504.89 55.62 501.7 49.95 495.23 49.99C488.76 49.95 485.57 55.49 485.57 61.46C485.57 67.43 488.47 72.93 495.23 72.93Z" fill="white"/>
<path d="M515.561 46.8H521.271L534.211 70.4101H534.291V46.8H538.491V76.1201H533.111L519.841 52.01H519.761V76.1201H515.561V46.8Z" fill="white"/>
<path d="M573.19 51.21C571.05 50.37 569.87 49.9901 567.69 49.9901C565.34 49.9901 562.57 50.8301 562.57 53.9001C562.57 59.5301 575.17 58.23 575.17 67.89C575.17 74.15 570.34 76.63 564.46 76.63C562.4 76.63 560.39 76.0401 558.45 75.4101L558.87 71.5C560.3 72.09 562.82 72.93 564.96 72.93C567.35 72.93 570.71 71.59 570.71 68.14C570.71 61.59 558.11 63.39 558.11 54.28C558.11 49.07 562.23 46.3 567.52 46.3C569.45 46.3 571.76 46.64 573.78 47.35L573.19 51.21Z" fill="white"/>
<path d="M601.411 51.63C599.561 50.54 597.501 49.99 595.361 49.99C588.601 49.99 584.101 54.86 584.101 61.46C584.101 68.06 589.061 72.93 595.151 72.93C597.251 72.93 600.061 72.38 601.531 71.5L601.781 75.57C599.551 76.49 596.821 76.62 595.101 76.62C585.821 76.62 579.641 70.66 579.641 61.33C579.641 52 586.191 46.29 595.141 46.29C597.411 46.29 599.631 46.63 601.731 47.55L601.391 51.62L601.411 51.63Z" fill="white"/>
<path d="M607.33 46.8H611.53V59.07H625.56V46.8H629.76V76.1201H625.56V62.76H611.53V76.1201H607.33V46.8Z" fill="white"/>
<path d="M650.341 46.29C659.251 46.29 664.451 52.76 664.451 61.45C664.451 70.14 659.281 76.61 650.341 76.61C641.401 76.61 636.23 70.35 636.23 61.45C636.23 52.55 641.441 46.29 650.341 46.29ZM650.341 72.93C657.101 72.93 660 67.3 660 61.46C660 55.62 656.811 49.95 650.341 49.99C643.871 49.95 640.68 55.49 640.68 61.46C640.68 67.43 643.581 72.93 650.341 72.93Z" fill="white"/>
<path d="M683.31 46.29C692.22 46.29 697.42 52.76 697.42 61.45C697.42 70.14 692.25 76.61 683.31 76.61C674.37 76.61 669.2 70.35 669.2 61.45C669.2 52.55 674.41 46.29 683.31 46.29ZM683.31 72.93C690.07 72.93 692.97 67.3 692.97 61.46C692.97 55.62 689.78 49.95 683.31 49.99C676.84 49.95 673.65 55.49 673.65 61.46C673.65 67.43 676.55 72.93 683.31 72.93Z" fill="white"/>
<path d="M703.63 46.8H707.83V72.42H720.1V76.1201H703.63V46.8Z" fill="white"/>
<path d="M301.33 114.23C308.11 114.23 312.08 119.16 312.08 125.78C312.08 132.4 308.14 137.33 301.33 137.33C294.52 137.33 290.58 132.56 290.58 125.78C290.58 119 294.55 114.23 301.33 114.23ZM301.33 134.52C306.48 134.52 308.69 130.23 308.69 125.78C308.69 121.33 306.26 117.01 301.33 117.05C296.4 117.02 293.97 121.24 293.97 125.78C293.97 130.32 296.18 134.52 301.33 134.52Z" fill="white"/>
<path d="M319.41 114.61H331.28V117.43H322.61V123.96H330.9V126.78H322.61V136.95H319.41V114.62V114.61Z" fill="white"/>
<path d="M357.78 107.63H374.21V111.33H361.99V119.9H373.12V123.6H361.99V133.26H374.21V136.96H357.78V107.64V107.63Z" fill="white"/>
<path d="M405.081 112.46C403.231 111.37 401.171 110.82 399.031 110.82C392.271 110.82 387.771 115.69 387.771 122.29C387.771 128.89 392.731 133.76 398.821 133.76C400.921 133.76 403.731 133.21 405.201 132.33L405.451 136.4C403.221 137.32 400.491 137.45 398.771 137.45C389.491 137.45 383.311 131.49 383.311 122.16C383.311 112.83 389.861 107.12 398.811 107.12C401.081 107.12 403.301 107.46 405.401 108.38L405.061 112.45L405.081 112.46Z" fill="white"/>
<path d="M427 107.12C435.9 107.12 441.11 113.59 441.11 122.28C441.11 130.97 435.94 137.44 427 137.44C418.06 137.44 412.88 131.18 412.88 122.28C412.88 113.38 418.09 107.12 427 107.12ZM427 133.76C433.76 133.76 436.66 128.13 436.66 122.29C436.66 116.45 433.47 110.78 427 110.82C420.53 110.78 417.34 116.32 417.34 122.29C417.34 128.26 420.24 133.76 427 133.76Z" fill="white"/>
<path d="M450.1 107.63H455.81L468.75 131.24H468.83V107.63H473.03V136.95H467.65L454.38 112.84H454.3V136.95H450.1V107.63Z" fill="white"/>
<path d="M496.97 107.12C505.87 107.12 511.08 113.59 511.08 122.28C511.08 130.97 505.91 137.44 496.97 137.44C488.03 137.44 482.85 131.18 482.85 122.28C482.85 113.38 488.06 107.12 496.97 107.12ZM496.97 133.76C503.73 133.76 506.63 128.13 506.63 122.29C506.63 116.45 503.44 110.78 496.97 110.82C490.5 110.78 487.31 116.32 487.31 122.29C487.31 128.26 490.21 133.76 496.97 133.76Z" fill="white"/>
<path d="M520.16 107.63H527.09L536.29 131.99L545.32 107.63H552.25V136.95H548.05V111.58H547.97L538.27 136.95H534.15L524.45 111.58H524.37V136.95H520.17V107.63H520.16Z" fill="white"/>
<path d="M563.67 107.63H567.87V136.95H563.67V107.63Z" fill="white"/>
<path d="M598.66 112.46C596.81 111.37 594.75 110.82 592.61 110.82C585.85 110.82 581.35 115.69 581.35 122.29C581.35 128.89 586.31 133.76 592.4 133.76C594.5 133.76 597.31 133.21 598.78 132.33L599.03 136.4C596.8 137.32 594.07 137.45 592.35 137.45C583.06 137.45 576.89 131.49 576.89 122.16C576.89 112.83 583.44 107.12 592.39 107.12C594.66 107.12 596.88 107.46 598.99 108.38L598.65 112.45L598.66 112.46Z" fill="white"/>
<path d="M621.29 112.04C619.15 111.2 617.97 110.82 615.79 110.82C613.44 110.82 610.67 111.66 610.67 114.73C610.67 120.36 623.27 119.06 623.27 128.72C623.27 134.98 618.44 137.46 612.56 137.46C610.5 137.46 608.49 136.87 606.55 136.24L606.97 132.33C608.4 132.92 610.92 133.76 613.06 133.76C615.45 133.76 618.81 132.42 618.81 128.97C618.81 122.42 606.21 124.22 606.21 115.11C606.21 109.9 610.33 107.13 615.62 107.13C617.55 107.13 619.86 107.47 621.88 108.18L621.29 112.04Z" fill="white"/>
<path d="M655.49 114.61H658.85L668.29 136.94H664.8L662.53 131.31H651.59L649.32 136.94H645.96L655.5 114.61H655.49ZM657.05 117.62L652.6 128.69H661.5L657.05 117.62Z" fill="white"/>
<path d="M673.82 114.61H678.17L688.03 132.59H688.09V114.61H691.29V136.94H687.19L677.08 118.57H677.02V136.94H673.82V114.61Z" fill="white"/>
<path d="M699.1 114.61H705.69C712.31 114.61 717.59 118.71 717.59 125.58C717.59 133.07 713.05 136.94 705.69 136.94H699.1V114.61ZM702.3 134.13H705.66C711.16 134.13 714.21 131.47 714.21 125.71C714.21 120.49 710.66 117.42 706.05 117.42H702.31V134.12L702.3 134.13Z" fill="white"/>
</g>
<defs>
<clipPath id="clip0_295_12763">
<rect width="720.27" height="244.12" fill="white"/>
</clipPath>
</defs>
</svg>
