<svg width="352" height="164" viewBox="0 0 352 164" fill="none" xmlns="http://www.w3.org/2000/svg">
<g clip-path="url(#clip0_1_50)">
<path d="M120.6 0C113.98 22.99 100.17 43.72 81.29 58.8C60.4 75.49 35.18 84.28 8.41 84.28C5.68 84.28 2.95 84.28 0 84V163.23H163.23V0H120.6Z" fill="#751DDB"/>
<path d="M82.91 106.38V140.27H86.6V114.4L111.75 140.72H112.47V107.09H108.78V132.51L83.88 106.38H82.91Z" fill="white"/>
<mask id="mask0_1_50" style="mask-type:luminance" maskUnits="userSpaceOnUse" x="17" y="106" width="134" height="35">
<path d="M150.43 106.38H17.85V140.79H150.43V106.38Z" fill="white"/>
</mask>
<g mask="url(#mask0_1_50)">
<path fill-rule="evenodd" clip-rule="evenodd" d="M125.79 140.27H131.93C137.1 140.27 141.11 139.62 145.06 136.07C148.68 132.84 150.43 128.5 150.43 123.72C150.43 118.94 148.75 114.34 144.93 111.11C140.99 107.81 136.98 107.17 132 107.17H125.79V140.28V140.27ZM129.47 136.84V110.52H132.19C136.13 110.52 139.43 111.04 142.47 113.75C145.32 116.27 146.8 119.89 146.8 123.71C146.8 127.53 145.38 130.89 142.66 133.41C139.62 136.26 136.26 136.84 132.25 136.84H129.47Z" fill="white"/>
</g>
<mask id="mask1_1_50" style="mask-type:luminance" maskUnits="userSpaceOnUse" x="17" y="106" width="134" height="35">
<path d="M150.43 106.38H17.85V140.79H150.43V106.38Z" fill="white"/>
</mask>
<g mask="url(#mask1_1_50)">
<path fill-rule="evenodd" clip-rule="evenodd" d="M67.26 130.83H53.1L49.09 140.27H45.02L59.96 106.38H60.67L75.22 140.27H71.08L67.26 130.83ZM65.84 127.4H54.59L60.28 114.08L65.84 127.4Z" fill="white"/>
</g>
<mask id="mask2_1_50" style="mask-type:luminance" maskUnits="userSpaceOnUse" x="17" y="106" width="134" height="35">
<path d="M150.43 106.38H17.85V140.79H150.43V106.38Z" fill="white"/>
</mask>
<g mask="url(#mask2_1_50)">
<path d="M21.6 125.78V140.27H17.85V107.09H25.35C28.2 107.09 31.17 107.15 33.56 108.84C36.02 110.52 37.31 113.43 37.31 116.41C37.31 119.13 36.15 121.78 34.14 123.52C32.72 124.68 30.97 125.27 29.22 125.52L39.63 140.2H35.17L22.75 122.29H26.05C30.12 122.29 33.62 121.06 33.62 116.28C33.62 110.91 29.29 110.46 24.95 110.46H21.46L21.59 125.79L21.6 125.78Z" fill="white"/>
</g>
<path d="M78.97 55.95C96.95 41.58 110.17 21.89 116.72 0H0V80.31C2.89 80.59 5.68 80.65 8.41 80.65C34.34 80.65 58.72 72.11 78.97 55.95Z" fill="#751DDB"/>
<path d="M81.29 58.8C100.18 43.72 113.98 22.99 120.6 0H116.72C110.16 21.89 96.94 41.59 78.97 55.95C58.73 72.12 34.35 80.65 8.41 80.65C5.68 80.65 2.9 80.58 0 80.31V84C2.95 84.28 5.68 84.28 8.41 84.28C35.18 84.28 60.41 75.48 81.29 58.8Z" fill="white"/>
<path opacity="0.8" d="M205.52 79.76H199.14V22.45H207.42C218.29 22.45 228.4 25.34 228.4 38.26C228.4 47.08 222.85 53.31 214.03 54.07L232.27 79.76H224.44L207.11 54.6H205.51V79.76H205.52ZM205.52 48.98H207.5C214.72 48.98 222.02 47.61 222.02 38.72C222.02 29.3 215.1 28.38 207.43 28.38H205.53V48.98H205.52Z" fill="white"/>
<path opacity="0.8" d="M254.31 28.38V45.41H273.39V51.34H254.31V79.77H247.93V22.45H274V28.38H254.31Z" fill="white"/>
<path opacity="0.8" d="M298.39 79.76H292.01V22.45H298.39V79.76Z" fill="white"/>
<path opacity="0.9" d="M200.74 106.38H199.06V91.3H201.24C204.1 91.3 206.76 92.06 206.76 95.46C206.76 97.78 205.3 99.42 202.98 99.62L207.78 106.38H205.72L201.16 99.76H200.74V106.38ZM200.74 98.28H201.26C203.16 98.28 205.08 97.92 205.08 95.58C205.08 93.1 203.26 92.86 201.24 92.86H200.74V98.28Z" fill="white"/>
<path opacity="0.9" d="M214.16 102.1L212.34 106.38H210.5L217.46 90.58L224.24 106.38H222.38L220.6 102.1H214.16ZM217.42 94.5L214.84 100.54H219.94L217.42 94.5Z" fill="white"/>
<path opacity="0.9" d="M227.98 90.66L239.74 102.98V91.3H241.42V107.06L229.66 94.76V106.38H227.98V90.66Z" fill="white"/>
<path opacity="0.9" d="M246.56 91.3H249.4C251.66 91.3 253.5 91.6 255.28 93.12C257 94.6 257.78 96.62 257.78 98.86C257.78 101.1 256.98 103 255.32 104.48C253.52 106.08 251.72 106.38 249.36 106.38H246.56V91.3ZM249.46 104.82C251.3 104.82 252.84 104.56 254.22 103.26C255.46 102.1 256.1 100.52 256.1 98.84C256.1 97.16 255.44 95.46 254.14 94.32C252.76 93.1 251.24 92.86 249.46 92.86H248.24V104.82H249.46Z" fill="white"/>
<path opacity="0.9" d="M200.74 115.86V120.34H205.76V121.9H200.74V129.38H199.06V114.3H205.92V115.86H200.74Z" fill="white"/>
<path opacity="0.9" d="M225.59 121.86C225.59 126.2 222.03 129.64 217.73 129.64C213.43 129.64 209.87 126.2 209.87 121.86C209.87 117.52 213.43 114.04 217.73 114.04C222.03 114.04 225.59 117.54 225.59 121.86ZM211.54 121.84C211.54 125.24 214.3 128.08 217.72 128.08C221.14 128.08 223.9 125.24 223.9 121.84C223.9 118.44 221.18 115.6 217.72 115.6C214.26 115.6 211.54 118.42 211.54 121.84Z" fill="white"/>
<path opacity="0.9" d="M231.54 129.38H229.86V114.3H232.04C234.9 114.3 237.56 115.06 237.56 118.46C237.56 120.78 236.1 122.42 233.78 122.62L238.58 129.38H236.52L231.96 122.76H231.54V129.38ZM231.54 121.28H232.06C233.96 121.28 235.88 120.92 235.88 118.58C235.88 116.1 234.06 115.86 232.04 115.86H231.54V121.28Z" fill="white"/>
<path opacity="0.9" d="M242.7 114.3H250.52V115.86H244.38V120.34H250.34V121.9H244.38V127.82H250.52V129.38H242.7V114.3Z" fill="white"/>
<path opacity="0.9" d="M266.89 117.6C265.69 116.36 264.03 115.6 262.29 115.6C258.93 115.6 256.21 118.52 256.21 121.84C256.21 125.16 258.95 128.08 262.33 128.08C264.03 128.08 265.69 127.28 266.89 126.08V128.16C265.59 129.1 263.99 129.64 262.39 129.64C258.13 129.64 254.53 126.18 254.53 121.9C254.53 117.62 258.07 114.04 262.39 114.04C264.07 114.04 265.55 114.52 266.89 115.52V117.6Z" fill="white"/>
<path opacity="0.9" d="M273.98 125.1L272.16 129.38H270.32L277.28 113.58L284.06 129.38H282.2L280.42 125.1H273.98ZM277.24 117.5L274.66 123.54H279.76L277.24 117.5Z" fill="white"/>
<path opacity="0.9" d="M294.54 117.24C293.94 116.2 293.22 115.6 291.94 115.6C290.66 115.6 289.44 116.56 289.44 117.94C289.44 119.24 290.78 119.84 291.8 120.3L292.8 120.74C294.76 121.6 296.42 122.58 296.42 124.98C296.42 127.62 294.3 129.64 291.68 129.64C289.26 129.64 287.46 128.08 286.98 125.74L288.62 125.28C288.84 126.82 290.02 128.08 291.64 128.08C293.26 128.08 294.74 126.84 294.74 125.14C294.74 123.44 293.36 122.78 291.96 122.14L291.04 121.74C289.28 120.94 287.76 120.04 287.76 117.88C287.76 115.54 289.74 114.04 291.98 114.04C293.66 114.04 295.08 114.9 295.88 116.38L294.54 117.24Z" fill="white"/>
<path opacity="0.9" d="M304.88 129.38H303.2V115.86H299.56V114.3H308.56V115.86H304.88V129.38Z" fill="white"/>
<path opacity="0.9" d="M314 129.38H312.32V114.3H314V129.38Z" fill="white"/>
<path opacity="0.9" d="M319.16 113.66L330.92 125.98V114.3H332.6V130.06L320.84 117.76V129.38H319.16V113.66Z" fill="white"/>
<path opacity="0.9" d="M351.77 121.8C351.81 123.84 351.59 125.52 350.21 127.12C348.83 128.72 346.73 129.64 344.63 129.64C340.39 129.64 336.87 126.12 336.87 121.88C336.87 117.64 340.39 114.04 344.73 114.04C347.37 114.04 349.51 115.22 351.11 117.3L349.89 118.44C348.63 116.66 346.93 115.6 344.71 115.6C341.27 115.6 338.55 118.5 338.55 121.9C338.55 123.5 339.19 125.02 340.31 126.16C341.41 127.26 343.01 128.08 344.59 128.08C347.21 128.08 349.97 126.16 349.97 123.36H345.49V121.8H351.77Z" fill="white"/>
<path opacity="0.9" d="M200.78 152.38H199.1V137.3H200.78V152.38Z" fill="white"/>
<path opacity="0.9" d="M205.94 136.66L217.7 148.98V137.3H219.38V153.06L207.62 140.76V152.38H205.94V136.66Z" fill="white"/>
<path opacity="0.9" d="M226.24 152.38H224.56V137.3H226.24V152.38Z" fill="white"/>
<path opacity="0.9" d="M235.3 152.38H233.62V138.86H229.98V137.3H238.98V138.86H235.3V152.38Z" fill="white"/>
<path opacity="0.9" d="M244.42 152.38H242.74V137.3H244.42V152.38Z" fill="white"/>
<path opacity="0.9" d="M251.74 148.1L249.92 152.38H248.08L255.04 136.58L261.82 152.38H259.96L258.18 148.1H251.74ZM255 140.5L252.42 146.54H257.52L255 140.5Z" fill="white"/>
<path opacity="0.9" d="M267.86 152.38H266.18V138.86H262.54V137.3H271.54V138.86H267.86V152.38Z" fill="white"/>
<path opacity="0.9" d="M276.98 152.38H275.3V137.3H276.98V152.38Z" fill="white"/>
<path opacity="0.9" d="M286.76 148.8L291.06 137.3H292.88L286.76 153.28L280.64 137.3H282.46L286.76 148.8Z" fill="white"/>
<path opacity="0.9" d="M296.52 137.3H304.34V138.86H298.2V143.34H304.16V144.9H298.2V150.82H304.34V152.38H296.52V137.3Z" fill="white"/>
</g>
<defs>
<clipPath id="clip0_1_50">
<rect width="351.77" height="163.23" fill="white"/>
</clipPath>
</defs>
</svg>
