<svg width="715" height="346" viewBox="0 0 715 346" fill="none" xmlns="http://www.w3.org/2000/svg">
<g clip-path="url(#clip0_308_34026)">
<path d="M349.526 1.24352H352.17L352.481 0H319.2L318.889 1.24352H323.71C327.909 1.24352 331.33 4.19689 331.33 9.94819C331.33 13.2124 329.931 17.4093 327.598 22.5389L305.981 70.2591L300.693 8.23834C300.227 3.41969 302.715 1.24352 308.158 1.24352H311.269L311.58 0H264.613L264.146 1.24352H267.101C270.834 1.24352 272.233 3.57513 272.544 7.92746L280.942 88.1347H300.693L333.819 18.0311C338.951 7.61658 344.238 1.24352 349.526 1.24352ZM345.638 88.4456C342.683 88.4456 340.817 87.513 340.817 82.5389C340.817 76.3212 343.15 64.0415 345.638 52.8497C345.949 57.9793 349.526 63.1088 354.814 63.1088C356.058 63.1088 357.146 62.9534 358.235 62.7979C353.259 84.0933 351.392 88.4456 345.638 88.4456ZM439.882 46.3212C446.103 46.3212 450.146 41.1917 450.146 35.285C450.146 30.3109 446.57 26.5803 441.437 26.5803C432.262 26.5803 427.907 33.886 420.287 47.2539C418.732 38.8601 414.844 27.9793 405.202 27.9793C394.315 27.9793 381.718 43.5233 370.21 53.1606C364.922 57.6684 359.168 60.4663 354.503 60.4663C349.682 60.4663 346.882 55.6477 346.882 47.0984C350.304 33.1088 352.014 29.5337 357.302 29.5337C360.879 29.5337 362.434 31.5544 362.434 35.7513C362.434 40.2591 361.501 47.7202 359.479 57.2021C364.611 55.6477 372.387 49.1192 378.919 42.1244C375.498 33.886 368.033 28.2902 357.458 28.2902C337.707 28.2902 320.289 46.0104 320.289 65.9067C320.289 79.5855 330.086 90 345.327 90C370.521 90 381.096 68.2383 381.096 53.0052C381.096 50.829 380.941 49.2746 380.785 47.2539C384.673 43.057 389.65 39.0155 393.693 39.0155C398.359 39.0155 402.091 50.6736 405.668 68.2383C402.402 71.8135 399.136 78.6529 397.581 79.8964C396.959 73.6788 392.76 69.7927 387.317 69.7927C381.096 69.7927 376.897 75.6995 376.897 80.6736C376.897 86.2694 380.785 90 385.917 90C396.648 90 399.603 79.8964 406.29 70.8808C408.312 80.5181 413.133 90 421.376 90C431.173 90 440.193 81.6062 444.859 75.6995L443.926 74.3005C440.971 77.2539 438.016 79.1192 434.595 79.1192C428.529 79.1192 424.175 66.0622 420.909 50.2073C422.931 47.5648 426.041 40.7254 428.218 38.2383C429.618 41.0363 432.728 46.3212 439.882 46.3212Z" fill="#333333"/>
<path d="M587.801 155.042C586.711 156.895 584.603 160.53 583.15 163.146C578.28 171.759 573.265 180.227 572.611 180.954C572.211 181.354 571.048 183.389 569.958 185.497C567.377 190.475 556.075 209.773 555.166 210.754C554.367 211.59 554.221 213.117 554.803 214.207C555.021 214.607 555.239 215.661 555.348 216.569C555.53 218.713 556.257 219.804 558.037 220.748C559.418 221.439 560.327 221.439 593.871 221.512C613.132 221.548 628.396 221.439 628.577 221.257C628.759 221.075 629.013 220.494 629.122 219.949L629.377 218.931L627.269 218.895L625.125 218.859L626.942 218.313C627.959 218.023 628.832 217.696 628.868 217.659C628.941 217.587 628.904 217.042 628.759 216.424C628.577 215.624 628.25 215.224 627.632 215.079C626.942 214.897 626.833 214.752 627.124 214.389C627.451 213.989 627.269 213.88 626.324 213.734L625.125 213.625L626.324 213.335C627.741 212.971 627.778 212.462 626.506 211.227C625.634 210.427 625.052 210.282 622.217 210.064C620.437 209.955 607.608 210.028 593.762 210.246C579.879 210.464 568.468 210.536 568.395 210.464C568.286 210.391 570.394 206.466 573.083 201.814L577.916 193.31L611.351 193.128C629.704 193.019 645.004 192.801 645.331 192.656C645.84 192.402 646.748 190.948 646.748 190.403C646.748 190.294 646.094 190.221 645.331 190.221C644.531 190.221 643.768 190.039 643.659 189.858C643.514 189.64 643.914 189.494 644.64 189.494C646.53 189.494 646.748 189.204 646.349 187.132C646.167 186.114 645.803 185.17 645.513 184.988C645.077 184.661 645.077 184.552 645.549 184.188C646.094 183.825 646.058 183.643 645.331 182.444C644.858 181.717 644.168 180.954 643.768 180.736C643.259 180.481 634.465 180.445 614.186 180.627C593.362 180.809 585.33 180.772 585.33 180.481C585.33 180.263 587.293 176.666 589.655 172.523L594.016 164.963L596.306 164.745C597.577 164.6 612.296 164.491 629.05 164.455C658.923 164.418 659.541 164.418 659.722 163.728C659.831 163.328 660.158 162.928 660.522 162.892C660.958 162.783 660.813 162.601 660.013 162.165C659.032 161.62 658.996 161.547 659.65 161.329C661.321 160.784 661.467 160.566 661.467 158.494C661.503 157.404 661.685 156.278 661.939 155.951C662.194 155.66 662.303 155.187 662.23 154.933C662.157 154.642 661.976 153.988 661.867 153.407L661.612 152.389L626.179 152.425C601.466 152.462 590.6 152.353 590.273 152.062C589.909 151.771 589.328 152.462 587.801 155.042Z" fill="#333333"/>
<path d="M540.266 152.462C532.561 152.571 517.734 152.716 507.303 152.752C489.641 152.789 488.26 152.825 487.933 153.406C487.715 153.77 484.88 158.712 481.61 164.418C475.104 175.793 473.215 179.028 464.493 193.855C461.222 199.343 457.406 205.957 455.952 208.501C453.081 213.589 452.972 214.243 454.68 216.024C455.153 216.533 455.77 217.587 456.025 218.35C456.679 220.276 457.588 220.821 458.314 219.731C459.041 218.713 459.768 218.64 459.223 219.622C459.041 220.021 458.86 220.494 458.86 220.712C458.86 221.257 462.058 220.966 462.675 220.348C463.293 219.731 465.328 216.206 472.197 203.849C475.104 198.652 477.721 194.11 478.048 193.746C478.557 193.165 479.684 193.128 492.149 193.128H505.668L507.958 197.017C519.551 217.005 521.077 219.222 523.185 218.677C523.657 218.531 524.348 218.749 525.002 219.258C526.238 220.167 526.928 220.239 527.546 219.476C527.8 219.186 528.346 219.04 528.927 219.149C529.727 219.258 530.054 219.077 530.744 217.986C531.18 217.296 531.544 216.533 531.544 216.351C531.544 216.169 530.017 213.444 528.127 210.282C526.274 207.156 523.258 201.996 521.441 198.87L518.17 193.128L532.525 193.056L546.916 192.947L546.989 191.747C547.062 191.093 546.953 190.512 546.807 190.403C546.371 190.148 554.73 174.885 559.382 167.507C562.398 162.637 562.616 162.165 562.071 161.184C561.853 160.748 561.78 160.093 561.889 159.73C562.18 158.821 559.999 153.479 559.055 152.716C558.473 152.244 557.674 152.098 556.256 152.134C555.166 152.171 547.97 152.316 540.266 152.462ZM549.569 164.164C549.86 164.454 540.484 180.372 539.539 181.172C538.921 181.681 536.195 181.79 515.662 182.044C502.906 182.189 491.676 182.371 490.659 182.444C488.26 182.589 484.662 182.226 484.662 181.826C484.662 181.644 486.589 178.192 488.987 174.158C491.349 170.087 493.566 166.235 493.893 165.581C494.22 164.927 494.875 164.236 495.311 164.055C496.219 163.691 549.206 163.8 549.569 164.164Z" fill="#333333"/>
<path d="M389.229 153.952C388.72 154.824 385.231 160.82 381.488 167.326C377.744 173.831 372.62 182.662 370.113 186.95C367.605 191.239 363.28 198.689 360.518 203.486L355.467 212.208L355.539 215.77C355.649 219.44 356.012 220.712 357.393 221.948C359.137 223.547 359.137 223.547 393.735 223.401C411.87 223.329 427.206 223.183 427.824 223.074C428.841 222.929 429.023 222.711 429.387 221.221C429.786 219.658 445.05 191.929 456.062 172.704L461.004 164.128L460.895 161.62C460.786 159.439 460.168 156.387 459.405 154.533C459.26 154.206 458.751 153.661 458.242 153.334C457.152 152.607 457.479 152.28 454.79 156.968C444.105 175.612 423.608 209.882 422.482 211.118C421.791 211.808 421.173 211.845 394.534 211.881C379.525 211.917 367.205 211.845 367.133 211.699C367.06 211.59 368.005 209.664 369.24 207.484C370.476 205.267 373.056 200.797 374.91 197.49C376.8 194.182 380.288 187.968 382.723 183.68C385.158 179.391 388.829 172.959 390.864 169.361C394.026 163.909 394.534 162.747 394.316 161.911C394.171 161.402 394.098 160.275 394.135 159.476C394.171 158.604 393.989 157.477 393.662 156.859C393.335 156.241 393.081 155.405 393.081 154.969C393.081 154.097 391.554 152.425 390.719 152.425C390.428 152.425 389.737 153.116 389.229 153.952Z" fill="#333333"/>
<path d="M323.849 153.334C323.267 153.806 321.668 153.843 313.31 153.697C307.931 153.588 300.844 153.588 297.573 153.734L291.686 153.988L290.959 155.151C290.014 156.714 290.051 157.15 291.177 157.15C291.686 157.15 292.013 157.295 291.868 157.513C291.759 157.695 291.323 157.877 290.923 157.877C289.942 157.877 290.414 158.604 291.432 158.64C292.049 158.676 291.977 158.749 291.141 158.931C290.269 159.112 290.014 159.403 289.76 160.53C289.578 161.293 289.542 162.02 289.687 162.165C289.833 162.31 293.321 162.492 297.428 162.601L304.951 162.783L297.791 162.965C293.867 163.074 290.523 163.255 290.378 163.401C289.942 163.873 290.996 164.782 292.013 164.782C292.74 164.782 292.849 164.854 292.413 165.145C292.122 165.327 291.94 165.545 292.049 165.581C292.158 165.618 297.755 165.763 304.478 165.872L316.762 166.054L312.91 172.595C302.734 189.858 290.341 211.227 289.905 212.281C289.615 213.044 289.469 214.498 289.578 216.387C289.687 218.859 289.833 219.44 290.45 219.949C290.887 220.276 291.323 220.857 291.432 221.185C291.722 222.02 294.484 222.747 295.175 222.202C295.429 221.948 296.447 220.349 297.392 218.604C298.3 216.896 301.934 210.5 305.423 204.431C308.876 198.325 313.273 190.475 315.199 186.987C320.614 177.029 326.247 167.217 327.011 166.417C327.665 165.727 328.173 165.69 342.492 165.69H357.283L358.156 164.818C358.664 164.309 358.882 163.873 358.664 163.8C358.483 163.728 357.974 163.437 357.611 163.146C356.956 162.637 356.956 162.637 357.865 162.601C359.464 162.601 359.827 161.802 359.646 158.858C359.609 158.531 359.464 158.24 359.246 158.24C359.064 158.24 358.919 158.058 358.919 157.877C358.919 157.659 359.173 157.513 359.5 157.513C360.009 157.513 360.045 157.259 359.9 156.169C359.464 153.625 360.3 153.734 342.638 153.697C331.263 153.661 326.538 153.516 325.957 153.225C324.975 152.68 324.721 152.68 323.849 153.334Z" fill="#333333"/>
<path d="M253.055 156.859C240.735 178.01 235.466 186.878 232.631 191.311C230.778 194.219 228.924 197.308 228.452 198.216C228.016 199.125 226.453 201.742 224.999 204.031C223.545 206.321 221.91 209.119 221.329 210.209L220.275 212.208L218.131 212.426C216.968 212.571 205.12 212.79 191.819 212.935C168.778 213.189 167.651 213.189 167.906 212.571C168.015 212.208 169.178 210.173 170.45 208.065C171.722 205.957 174.193 201.596 175.937 198.398C177.718 195.2 179.79 191.529 180.589 190.221C181.389 188.913 183.642 184.988 185.568 181.499C187.531 178.01 190.365 173.031 191.892 170.415C194.581 165.836 195.308 163.691 194.145 163.691C193.781 163.691 193.636 163.292 193.672 162.419C193.709 161.511 193.418 160.857 192.727 160.13C192.182 159.585 191.746 158.785 191.746 158.385C191.746 157.986 191.528 157.404 191.31 157.077C190.765 156.423 189.166 155.333 188.766 155.333C188.294 155.333 186.477 158.349 180.844 168.416C177.973 173.504 173.103 182.008 170.014 187.314C161.401 201.996 158.348 207.266 156.967 209.664C156.313 210.863 155.186 212.39 154.496 213.044C153.805 213.698 153.224 214.316 153.224 214.461C153.224 214.57 153.987 216.206 154.932 218.095C156.058 220.385 156.821 221.475 157.221 221.475C157.585 221.475 157.948 221.802 158.057 222.202C158.202 222.711 158.566 222.929 159.329 222.929C159.947 222.929 160.492 223.111 160.565 223.329C160.637 223.583 161.219 223.401 162.091 222.893L163.472 222.093L196.071 222.311C215.005 222.42 228.888 222.384 229.215 222.202C229.469 222.02 229.76 221.33 229.76 220.676C229.796 219.876 231.286 216.896 234.085 211.845C239.572 202.069 247.204 188.222 250.766 181.572C252.328 178.701 255.127 173.722 257.017 170.487C259.451 166.308 260.433 164.273 260.433 163.437C260.433 162.783 260.287 162.238 260.069 162.238C259.888 162.238 259.706 161.547 259.706 160.675C259.706 159.585 259.488 158.858 258.979 158.313C258.579 157.877 258.143 157.041 257.998 156.423C257.816 155.442 255.963 153.516 255.236 153.516C255.09 153.516 254.109 155.042 253.055 156.859Z" fill="#333333"/>
<path d="M134.943 154.497C134.871 154.57 89.3339 155.042 87.5532 155.006C86.8627 154.969 86.4266 155.587 84.9365 158.495C83.2285 161.911 74.7971 176.484 72.3622 180.227C71.708 181.208 69.9636 184.152 68.4373 186.769C52.047 215.152 52.9192 213.625 52.9192 214.207C52.9192 214.461 53.2826 215.224 53.6824 215.915C54.4456 217.114 54.4819 217.151 55.2088 216.496C55.9356 215.842 55.9356 215.842 55.6812 216.896C55.4631 217.841 55.4995 217.914 55.9719 217.514C56.4807 217.078 56.5534 217.151 56.5534 218.095C56.5534 219.149 57.4983 220.385 58.2978 220.385C58.5159 220.385 59.2064 219.767 59.8605 219.004C60.4783 218.277 60.8781 217.986 60.7327 218.386C59.8242 220.785 60.2966 221.439 61.8957 219.949C62.3681 219.513 62.7316 219.367 62.7316 219.586C62.7316 219.84 62.8769 220.022 63.0586 220.022C63.3857 220.022 68.728 210.972 75.0515 199.634L78.0316 194.328L80.6482 194.037C82.1019 193.892 96.8567 193.855 113.429 193.892C130.037 193.964 143.811 193.892 144.065 193.746C144.719 193.31 144.574 191.748 143.811 191.348C143.338 191.093 143.193 190.694 143.338 190.039C143.447 189.313 143.229 188.804 142.284 187.823C141.63 187.132 140.867 186.587 140.576 186.587C140.14 186.587 140.14 186.478 140.504 186.042C140.903 185.569 140.867 185.388 140.285 184.952C138.032 183.243 138.25 183.28 121.715 183.68C100.527 184.188 84.1734 184.152 84.1734 183.643C84.1734 182.88 93.7677 166.272 94.4945 165.763C94.7126 165.618 109.649 165.509 127.675 165.545C145.7 165.581 160.601 165.472 160.855 165.327C161.109 165.181 161.146 164.927 160.891 164.636C160.673 164.382 160.673 164.019 160.855 163.691C161.146 163.255 160.855 163.11 159.292 162.928L157.403 162.747L158.965 162.456C159.801 162.274 160.564 162.02 160.673 161.874C161 161.366 160.092 158.967 159.583 158.967C159.292 158.967 159.038 158.713 159.038 158.422C159.038 158.095 158.711 157.877 158.238 157.877C157.475 157.877 157.475 157.84 158.129 157.368C158.784 156.895 158.784 156.859 157.984 155.769C157.548 155.151 156.857 154.533 156.458 154.424C155.804 154.206 135.125 154.279 134.943 154.497Z" fill="#333333"/>
<path d="M1.38577 184.988C0.731615 185.242 0.1138 185.715 0.00477384 186.005C-0.104252 186.296 1.34943 189.24 3.3119 192.656C7.16416 199.343 15.8862 214.752 20.3563 222.747C21.919 225.546 24.79 230.597 26.7525 234.013C28.6786 237.393 30.9319 241.427 31.7677 242.953C33.3668 245.861 34.0936 246.697 35.3656 247.06C35.838 247.205 37.0373 248.041 38.0549 248.913C39.8357 250.44 39.9447 250.476 43.3608 250.731C45.2506 250.876 75.887 250.876 111.393 250.731C198.432 250.367 567.231 250.367 643.477 250.731C677.166 250.876 706.349 250.876 708.348 250.731C711.8 250.513 712.018 250.44 712.454 249.531C712.672 249.022 712.89 248.332 712.89 248.005C712.89 247.678 713.29 246.878 713.799 246.224L714.671 244.989L713.799 243.317C713.326 242.408 712.018 240.155 710.855 238.374C709.729 236.557 707.221 232.414 705.258 229.107C703.332 225.8 697.772 216.387 692.902 208.21C688.032 199.997 683.671 192.583 683.163 191.675C681.818 189.276 680.546 188.004 679.71 188.259C679.347 188.368 678.765 188.222 678.365 187.859C677.929 187.459 677.13 187.277 675.967 187.314C674.986 187.35 673.714 187.241 673.132 187.096C671.751 186.769 669.498 187.895 669.825 188.731C669.97 189.058 672.151 192.91 674.695 197.308C677.275 201.705 680.764 207.92 682.472 211.118C684.18 214.316 688.287 221.657 691.594 227.472C694.901 233.25 697.627 238.193 697.627 238.447C697.627 238.81 694.901 238.919 685.016 238.919C678.038 238.956 647.838 239.101 617.856 239.283C587.874 239.465 537.831 239.719 506.649 239.828C475.468 239.973 449.738 240.119 449.483 240.191C449.229 240.3 357.974 240.482 246.695 240.591L44.3421 240.846L41.5801 236.339C40.09 233.868 37.4007 229.289 35.6563 226.2C33.8756 223.111 31.0409 218.277 29.3691 215.479C27.6611 212.68 24.681 207.702 22.7549 204.394C20.7924 201.087 17.6307 195.709 15.7045 192.402C11.9976 186.151 11.0528 184.951 9.96249 185.279C9.56273 185.351 8.79955 185.17 8.25442 184.842C7.34587 184.334 7.01879 184.334 5.8195 184.733C4.83827 185.061 4.11142 185.097 3.49361 184.842C2.83945 184.588 2.22164 184.624 1.38577 184.988ZM689.377 242.808C686.906 242.881 682.908 242.881 680.473 242.808C678.002 242.772 680.001 242.699 684.907 242.699C689.813 242.699 691.812 242.772 689.377 242.808ZM695.192 247.896C692.539 247.969 688.178 247.969 685.561 247.896C682.908 247.86 685.052 247.787 690.358 247.787C695.664 247.787 697.808 247.86 695.192 247.896ZM711.982 248.005C712.091 248.187 712.018 248.368 711.836 248.368C711.618 248.368 711.437 248.187 711.437 248.005C711.437 247.787 711.509 247.641 711.582 247.641C711.691 247.641 711.873 247.787 711.982 248.005Z" fill="#333333"/>
<path d="M104.198 271.509C103.762 272.018 100.419 272.09 71.0908 272.09C40.4908 272.09 38.4556 272.127 37.9468 272.708C37.6197 273.072 36.6022 274.889 35.6573 276.778C34.7487 278.632 32.7136 282.302 31.1509 284.955C29.5881 287.572 27.771 290.697 27.1169 291.897C25.5905 294.695 14.2518 314.211 8.14634 324.605C3.67627 332.2 3.45821 332.672 3.63992 334.163C3.74895 334.998 4.07603 336.198 4.40311 336.779C4.69384 337.361 4.94824 338.233 4.94824 338.705C4.94824 339.868 5.7841 340.559 6.76534 340.232C7.45584 340.014 7.52852 340.05 7.1651 340.704C6.54729 341.867 6.65631 341.976 8.03731 341.758C8.72781 341.649 9.30928 341.685 9.30928 341.903C9.30928 342.376 10.6176 342.303 11.0537 341.794C11.2718 341.54 13.634 337.47 16.3233 332.782C22.3197 322.242 27.0079 314.356 27.4076 314.102C27.553 314.029 40.8905 313.884 56.99 313.847C77.9594 313.775 86.4634 313.884 86.7905 314.174C87.1176 314.429 87.481 314.465 87.8081 314.247C88.644 313.702 88.862 313.811 88.644 314.611C88.3896 315.592 89.4435 315.955 90.3157 315.192C90.7881 314.756 91.0425 314.72 91.3696 315.047C91.6967 315.374 91.9147 315.374 92.3145 314.974C92.6052 314.683 95.3672 309.995 98.4563 304.616C101.545 299.201 104.998 293.241 106.161 291.352C107.324 289.462 109.141 286.155 110.195 284.01C112.121 280.086 112.339 278.632 111.103 278.632C110.631 278.632 110.486 278.377 110.595 277.614C110.74 276.379 108.996 272.89 107.796 272.018C106.452 271.036 104.78 270.818 104.198 271.509ZM96.3848 284.192C96.5665 284.374 87.6264 299.892 86.7905 300.873C86.2817 301.491 84.5737 301.527 60.4789 301.527C46.3418 301.527 34.7487 301.418 34.7487 301.237C34.7487 300.982 44.0523 284.846 44.452 284.447C44.8881 283.974 95.9487 283.756 96.3848 284.192Z" fill="#333333"/>
<path d="M341.476 271.909C341.004 272.417 340.35 272.817 340.023 272.817C338.751 272.817 337.333 275.506 338.242 276.161C338.642 276.415 338.642 276.56 338.315 276.706C338.06 276.778 337.842 277.069 337.842 277.287C337.842 277.505 337.624 277.941 337.333 278.232C337.043 278.559 336.461 279.649 336.061 280.703C335.225 282.848 324.323 301.455 318.326 311.013C316.146 314.501 313.239 319.226 311.858 321.515C310.513 323.805 308.296 327.403 306.951 329.511C302.663 336.234 302.772 335.616 304.371 342.412C304.553 343.139 304.844 343.502 305.243 343.466C305.679 343.43 305.861 343.684 305.861 344.266C305.861 345.029 306.043 345.138 307.097 345.138C307.787 345.138 308.478 345.32 308.587 345.538C309.059 346.264 310.222 344.702 312.839 339.905C314.256 337.288 317.163 332.018 319.308 328.239C321.452 324.423 323.705 320.353 324.323 319.153C324.941 317.954 325.631 316.718 325.813 316.428C326.14 315.955 330.356 315.882 358.194 315.81C375.783 315.773 390.356 315.628 390.538 315.519C390.756 315.374 390.901 315.047 390.901 314.72C390.901 314.392 391.12 313.847 391.41 313.557C392.319 312.503 393.809 308.469 393.809 307.015C393.809 304.326 395.953 304.544 363.754 304.362C347.218 304.253 334.39 304.035 333.954 303.853C332.936 303.453 332.609 304.18 339.005 293.241L343.73 285.173L347.436 285.137C349.435 285.101 363.609 285.137 378.909 285.173C394.209 285.21 407.146 285.137 407.692 284.992C408.273 284.846 408.6 284.556 408.491 284.374C408.346 284.156 408.491 283.865 408.745 283.683C409.182 283.393 409.145 283.284 408.6 282.957C407.837 282.52 408.128 281.903 409.073 281.903C409.581 281.903 409.799 281.576 409.945 280.703C410.163 279.395 410.054 278.268 409.69 277.651C409.545 277.433 409.69 277.142 410.017 277.033C410.817 276.742 410.49 273.944 409.581 273.29C409.073 272.926 405.148 272.817 390.756 272.89C380.726 272.963 366.298 272.963 358.666 272.89L344.82 272.817L343.73 271.909C343.112 271.4 342.567 271 342.494 271C342.385 271 341.949 271.4 341.476 271.909Z" fill="#333333"/>
<path d="M136.761 273.108C136.47 273.471 134.435 276.815 132.218 280.631C130.038 284.41 126.622 290.225 124.623 293.532C122.624 296.839 116.555 307.16 111.14 316.464C102.636 331.073 101.255 333.617 101.255 334.889C101.255 335.725 101.4 336.488 101.618 336.597C101.8 336.706 102.454 337.833 103.036 339.105C103.872 340.886 104.453 341.613 105.834 342.521L107.542 343.684H140.468C161.11 343.684 173.612 343.539 173.939 343.321C174.375 343.03 174.375 342.957 173.975 342.957C173.576 342.957 173.576 342.848 173.975 342.376C174.339 341.903 174.339 341.758 173.903 341.467C173.612 341.286 173.139 341.14 172.849 341.14C171.94 341.104 173.248 340.413 174.193 340.413C175.138 340.413 175.574 339.323 175.175 337.942C175.029 337.397 174.957 336.779 174.993 336.525C175.029 336.307 174.775 336.016 174.411 335.943C173.866 335.798 173.866 335.725 174.593 335.507C175.32 335.253 175.393 335.071 175.175 334.09C174.775 332.273 174.339 331.691 173.285 331.691C172.74 331.691 159.693 331.655 144.248 331.582C128.838 331.546 116.119 331.4 115.973 331.255C115.683 330.964 115.755 330.783 120.262 322.969C122.261 319.48 124.223 316.319 124.623 315.955C125.35 315.337 126.876 315.301 157.367 315.41C181.971 315.483 189.348 315.41 189.312 315.083C189.239 314.865 189.53 314.538 189.929 314.429C190.366 314.283 190.947 313.775 191.274 313.302C191.819 312.466 191.819 312.357 191.165 311.885C190.511 311.412 190.511 311.376 191.492 311.013C192.292 310.686 192.473 310.395 192.473 309.414C192.473 308.505 192.255 308.069 191.674 307.778C191.02 307.487 190.983 307.378 191.492 307.378C192.255 307.342 192.328 306.615 191.529 306.615C191.092 306.615 191.129 306.47 191.783 305.925C192.546 305.307 192.582 305.162 192.11 304.108C191.856 303.49 191.31 302.763 190.911 302.545C190.366 302.254 181.862 302.145 161.946 302.181C146.464 302.181 133.49 302.109 133.127 302C132.4 301.818 131.855 302.836 137.96 292.26C139.996 288.662 141.776 285.646 141.849 285.537C141.958 285.428 156.676 285.282 174.593 285.173C200.832 285.028 207.192 284.883 207.192 284.519C207.192 284.265 207.41 283.901 207.701 283.72C208.1 283.502 207.955 283.284 206.974 282.884L205.738 282.375L207.083 282.121C208.282 281.903 208.464 281.721 208.682 280.558C208.864 279.504 208.791 279.141 208.282 278.741C207.773 278.377 207.737 278.268 208.137 278.268C208.5 278.232 208.464 278.123 207.991 277.76C207.337 277.251 207.374 277.251 208.064 276.996C209.045 276.706 209.045 275.397 208.064 274.125L207.337 273.181H173.467C154.205 273.181 139.087 273.035 138.433 272.853C137.524 272.599 137.161 272.635 136.761 273.108ZM162.055 282.157C158.784 282.23 153.478 282.23 150.244 282.157C146.973 282.121 149.626 282.048 156.131 282.048C162.637 282.048 165.29 282.121 162.055 282.157ZM135.889 340.668C131.673 340.74 124.623 340.74 120.262 340.668C115.901 340.631 119.39 340.595 127.966 340.595C136.579 340.595 140.141 340.631 135.889 340.668Z" fill="#333333"/>
<path d="M539.721 273.908C539.285 274.598 535.542 280.74 531.472 287.536C505.669 330.347 504.651 332.091 504.651 333.763C504.651 334.163 505.124 335.58 505.742 336.852C506.323 338.088 506.832 339.323 506.832 339.578C506.832 340.195 508.831 341.758 510.175 342.158C510.902 342.376 524.494 342.63 545.391 342.739C582.314 342.994 580.461 343.103 580.17 341.068C580.097 340.45 579.77 340.195 579.044 340.123L578.026 340.014L578.825 339.36C579.516 338.814 579.552 338.633 579.153 337.833C578.898 337.361 578.208 336.561 577.626 336.089C576.863 335.471 576.681 335.144 576.972 334.78C577.226 334.453 576.972 334.054 575.809 333.29L574.319 332.236L563.017 332.273C556.802 332.273 544.155 332.418 534.924 332.564C521.441 332.782 518.098 332.745 518.098 332.382C518.098 331.909 521.623 325.513 532.816 305.707C536.669 298.911 540.775 291.642 541.975 289.535C543.174 287.354 544.446 285.573 544.918 285.319C545.536 285.028 554.149 284.883 576.536 284.846C593.471 284.846 607.608 284.81 607.935 284.81C608.335 284.81 608.481 284.628 608.372 284.265C608.226 283.938 608.372 283.72 608.735 283.72C609.571 283.72 609.462 283.102 608.59 282.811C607.499 282.484 607.717 281.903 608.917 281.903C609.825 281.903 610.007 281.721 610.189 280.631C610.334 279.904 610.334 279.141 610.152 278.923C609.68 278.123 609.753 276.997 610.298 276.597C611.097 276.052 610.225 273.217 609.171 272.999C608.735 272.89 593.144 272.781 574.464 272.708L540.521 272.636L539.721 273.908Z" fill="#333333"/>
<path d="M640.316 272.745C639.444 272.89 637.663 274.743 637.663 275.543C637.663 275.797 637.554 276.27 637.445 276.597C637.263 277.033 637.481 277.178 638.245 277.178C639.299 277.215 639.299 277.215 638.463 277.651C638.027 277.905 637.736 278.232 637.845 278.341C637.99 278.487 637.881 278.923 637.663 279.359C636.755 281.031 639.226 284.592 641.588 285.028C642.133 285.137 647.839 285.246 654.271 285.283C660.704 285.319 666.083 285.464 666.192 285.61C666.41 285.828 660.922 295.095 642.351 325.659C638.027 332.745 637.736 333.763 638.935 336.67C639.226 337.397 639.408 338.051 639.335 338.16C639.226 338.233 639.408 338.814 639.698 339.396C640.134 340.195 640.425 340.413 640.97 340.232C641.588 340.014 641.697 340.123 641.588 340.813C641.479 341.576 641.661 341.685 643.26 341.976C644.75 342.231 645.077 342.158 645.477 341.613C645.767 341.249 648.784 335.907 652.236 329.693C665.428 306.034 676.44 286.627 677.094 285.937C677.458 285.537 680.656 285.464 693.812 285.392C709.584 285.355 710.057 285.319 710.602 284.628C710.929 284.192 711.074 283.465 710.965 282.775C710.856 282.121 710.965 281.43 711.147 281.249C711.801 280.594 710.783 274.78 709.838 273.726L709.075 272.854L675.095 272.745C656.416 272.672 640.752 272.672 640.316 272.745Z" fill="#333333"/>
<path d="M238.773 274.198C238.337 274.453 232.123 284.81 227.907 292.26C223.8 299.492 217.477 310.14 214.388 314.974C211.153 320.062 204.975 330.31 203.776 332.672C203.376 333.508 203.013 334.526 203.013 334.962C203.013 335.834 204.176 338.596 204.539 338.596C204.721 338.596 204.83 338.996 204.83 339.468C204.83 339.941 205.157 340.704 205.52 341.177C206.174 341.94 206.32 342.012 207.047 341.576C207.774 341.104 207.81 341.14 207.592 342.012C207.374 342.921 207.41 342.957 209.118 342.957C211.299 342.957 211.335 342.921 214.46 337.324C215.805 334.926 218.022 331.073 219.33 328.784C220.639 326.494 222.892 322.388 224.309 319.698L226.853 314.792L239.936 314.683C247.096 314.647 253.31 314.683 253.71 314.756C254.219 314.901 255.563 316.9 257.889 320.861C267.665 337.869 268.174 338.669 269.301 339.359C269.918 339.723 270.682 340.05 270.972 340.05C271.299 340.05 272.172 340.377 272.971 340.777C274.788 341.722 275.951 341.722 276.242 340.777C276.424 340.159 276.569 340.123 277.187 340.522C277.805 340.886 277.986 340.849 278.459 340.268C278.75 339.868 278.968 339.323 278.968 339.069C278.968 338.814 279.186 338.705 279.549 338.851C280.53 339.214 279.912 337.47 277.914 334.09C273.189 326.131 266.975 315.228 266.975 314.901C266.975 314.683 271.881 314.61 279.876 314.647C286.963 314.72 292.814 314.683 292.887 314.574C292.959 314.501 294.958 311.013 297.32 306.797C299.683 302.581 303.898 295.277 306.66 290.552L311.675 281.939L311.312 278.741C311.058 276.306 310.803 275.397 310.258 274.961C309.713 274.525 308.223 274.343 303.244 274.162C294.631 273.835 239.282 273.871 238.773 274.198ZM297.865 286.627C297.865 287.281 289.652 300.946 288.78 301.709C287.98 302.436 287.435 302.436 261.124 302.472C246.369 302.509 234.267 302.472 234.267 302.4C234.267 302.327 235.103 300.837 236.12 299.092C237.138 297.348 239.028 294.005 240.336 291.715C241.644 289.425 243.062 287.245 243.425 286.881C244.116 286.3 245.969 286.264 271.009 286.264C289.507 286.264 297.865 286.373 297.865 286.627ZM245.097 311.594C242.771 311.667 238.846 311.667 236.375 311.594C233.903 311.558 235.83 311.485 240.627 311.485C245.424 311.485 247.423 311.558 245.097 311.594Z" fill="#333333"/>
<path d="M435.747 277.433C433.348 281.576 428.624 289.644 423.463 298.511C404.674 330.637 404.311 331.255 403.875 333.327C403.548 334.998 403.548 335.398 404.056 335.943C404.384 336.307 404.856 337.724 405.11 339.105C405.474 341.104 405.728 341.649 406.419 341.976C406.891 342.194 407.218 342.594 407.182 342.921C407.073 343.466 410.235 343.503 440.762 343.575C473.324 343.648 474.451 343.648 475.287 342.957C475.941 342.412 476.05 342.194 475.687 341.831C474.996 341.14 475.105 340.777 475.941 340.777C476.813 340.777 477.213 340.014 477.576 337.869C477.722 336.961 478.013 336.052 478.194 335.798C478.376 335.58 478.485 334.671 478.412 333.799L478.303 332.236L448.139 332.055C431.567 331.946 417.939 331.837 417.903 331.764C417.612 331.51 418.048 330.637 420.847 325.986C422.518 323.187 424.59 319.553 425.462 317.918C426.443 316.028 427.315 314.865 427.788 314.756C428.188 314.647 442.615 314.611 459.878 314.683C477.104 314.756 491.205 314.683 491.205 314.502C491.205 314.356 491.459 314.247 491.75 314.247C492.368 314.247 492.477 313.666 491.932 313.339C491.277 312.939 491.568 312.43 492.477 312.43C493.603 312.43 494.439 311.231 494.548 309.414C494.621 308.614 494.839 308.069 495.13 308.069C495.82 308.069 496.329 306.325 496.002 305.053C495.711 303.999 495.529 303.853 493.894 303.672C492.913 303.563 479.285 303.345 463.585 303.199C447.885 303.054 434.911 302.799 434.729 302.618C434.402 302.291 441.852 289.207 443.197 287.79L443.96 286.954L476.159 286.991C502.398 287.027 508.467 286.954 508.722 286.555C508.903 286.3 509.775 284.737 510.684 283.066C512.065 280.594 512.356 279.686 512.356 278.232C512.356 277.215 512.21 276.27 512.065 276.088C511.883 275.943 495.966 275.725 476.668 275.652L441.598 275.507L439.817 274.707C438.836 274.271 438 273.907 437.927 273.907C437.855 273.907 436.873 275.507 435.747 277.433Z" fill="#333333"/>
</g>
<defs>
<clipPath id="clip0_308_34026">
<rect width="715" height="346" fill="white"/>
</clipPath>
</defs>
</svg>
